
<?xml version="1.0" encoding="UTF-8" standalone="no"?>
<!-- Created with Inkscape (http://www.inkscape.org/) -->
<svg xmlns:inkscape="http://www.inkscape.org/namespaces/inkscape" xmlns:rdf="http://www.w3.org/1999/02/22-rdf-syntax-ns#" xmlns="http://www.w3.org/2000/svg" xmlns:xlink="http://www.w3.org/1999/xlink" xmlns:ns1="http://sozi.baierouge.fr" xmlns:cc="http://creativecommons.org/ns#" xmlns:sodipodi="http://sodipodi.sourceforge.net/DTD/sodipodi-0.dtd" xmlns:dc="http://purl.org/dc/elements/1.1/" id="svg2" xml:space="preserve" viewBox="0 0 37.35 37.35" version="1.1" inkscape:version="0.91 r13725">
  <defs id="defs6">
    <radialGradient id="radialGradient24" gradientUnits="userSpaceOnUse" cy="-.106" cx="26.057" gradientTransform="matrix(.56568 -.56568 .56568 .56568 -.16016 30)" r="15.38">
      <stop id="stop26" style="stop-color:#9ed7ff" offset="0"/>
      <stop id="stop28" style="stop-color:#63d3ff" offset="1"/>
    </radialGradient>
    <clipPath id="clipPath36">
      <path id="path38" d="m0-0.12h30v30h-30v-30z" inkscape:connector-curvature="0"/>
    </clipPath>
    <mask id="mask40">
      <g id="g42">
        <g id="g44" clip-path="url(#clipPath36)">
          <path id="path46" style="fill:#000000;fill-opacity:.5" d="m0-0.12h30v30h-30v-30z" inkscape:connector-curvature="0"/>
        </g>
      </g>
    </mask>
    <clipPath id="clipPath52">
      <path id="path54" d="m0-0.12h30v30h-30v-30z" inkscape:connector-curvature="0"/>
    </clipPath>
    <clipPath id="clipPath56">
      <path id="path58" d="m0 0h30v30h-30v-30z" inkscape:connector-curvature="0"/>
    </clipPath>
    <linearGradient id="linearGradient64" y2="-11527" gradientUnits="userSpaceOnUse" x2="-2840.1" gradientTransform="matrix(.3768 -.70576 .70576 .3768 9227.2 2339.5)" y1="-11527" x1="-2879.1">
      <stop id="stop66" style="stop-color:#c9e8ff" offset="0"/>
      <stop id="stop68" style="stop-color:#6e9dc4" offset=".5765"/>
      <stop id="stop70" style="stop-color:#306a9c" offset="1"/>
    </linearGradient>
    <clipPath id="clipPath102">
      <path id="path104" d="m4 1.88h24v15h-24v-15z" inkscape:connector-curvature="0"/>
    </clipPath>
    <mask id="mask106">
      <g id="g108">
        <g id="g110" clip-path="url(#clipPath102)">
          <path id="path112" style="fill:#000000;fill-opacity:.33980" d="m4 1.88h24v15h-24v-15z" inkscape:connector-curvature="0"/>
        </g>
      </g>
    </mask>
    <clipPath id="clipPath118">
      <path id="path120" d="m4 1.88h24v15h-24v-15z" inkscape:connector-curvature="0"/>
    </clipPath>
    <clipPath id="clipPath122">
      <path id="path124" d="m4 2h24v15h-24v-15z" inkscape:connector-curvature="0"/>
    </clipPath>
  </defs>
  <g id="g10" transform="matrix(1.25 0 0 -1.25 0 37.35)">
    <g id="g12">
      <g id="g14">
        <g id="g16">
          <g id="g22">
            <path id="path30" style="fill-rule:evenodd;fill:url(#radialGradient24)" d="m29.68 14.958c0-4.051-1.442-7.531-4.321-10.437-2.879-2.879-6.359-4.321-10.437-4.321-4.055 0-7.524 1.442-10.402 4.321-2.879 2.906-4.321 6.386-4.321 10.437 0 4.082 1.442 7.547 4.321 10.402 2.878 2.879 6.347 4.321 10.402 4.321 4.078 0 7.558-1.442 10.437-4.321 2.879-2.855 4.321-6.32 4.321-10.402z" inkscape:connector-curvature="0"/>
          </g>
        </g>
      </g>
      <g id="g32">
        <g id="g48" mask="url(#mask40)">
          <g id="g72">
            <g id="g74" clip-path="url(#clipPath52)">
              <g id="g76" transform="translate(0 -0.12)">
                <g id="g80">
                  <g id="g82" clip-path="url(#clipPath56)">
                    <g id="g84">
                      <g id="g86">
                        <g id="g88">
                          <g id="g90">
                            <path id="path92" style="fill-rule:evenodd;fill:url(#linearGradient64)" d="m29.879 15.078c0-4.133-1.453-7.652-4.359-10.558-2.934-2.934-6.465-4.399-10.598-4.399-4.11 0-7.629 1.465-10.563 4.399-2.906 2.906-4.359 6.425-4.359 10.558 0 4.11 1.453 7.629 4.359 10.563 2.934 2.906 6.453 4.359 10.563 4.359 4.133 0 7.664-1.453 10.598-4.359 2.906-2.907 4.359-6.426 4.359-10.563zm-4.68 10.281c-2.824 2.829-6.254 4.243-10.277 4.243-4 0-7.414-1.414-10.242-4.243-2.852-2.824-4.282-6.254-4.282-10.281 0-4 1.43-7.426 4.282-10.277 2.828-2.856 6.242-4.281 10.242-4.281 4.023 0 7.453 1.425 10.277 4.281 2.856 2.851 4.281 6.277 4.281 10.277 0 4.027-1.425 7.457-4.281 10.281z" inkscape:connector-curvature="0"/>
                          </g>
                        </g>
                      </g>
                    </g>
                  </g>
                </g>
              </g>
            </g>
          </g>
        </g>
      </g>
      <path id="path94" style="fill-rule:evenodd;fill:#ffffff" d="m7.238 24.4c1.977-0.079 2.227-1.028 0.762-2.84-1.547-1.946-2.613-2.602-3.199-1.961-0.535 0.562-0.496 1.496 0.117 2.801 0.617 1.359 1.387 2.027 2.32 2z" inkscape:connector-curvature="0"/>
      <path id="path96" style="fill-rule:evenodd;fill:#ffffff" d="m4.039 18.161c0.508-0.109 0.668-0.496 0.481-1.16-0.188-0.668-0.465-0.867-0.84-0.601-0.321 0.214-0.426 0.574-0.321 1.082 0.133 0.503 0.36 0.73 0.68 0.679z" inkscape:connector-curvature="0"/>
      <g id="g98">
        <g id="g114" mask="url(#mask106)">
          <g id="g126">
            <g id="g128" clip-path="url(#clipPath118)">
              <g id="g130" transform="translate(0 -0.12)">
                <g id="g134">
                  <g id="g136" clip-path="url(#clipPath122)">
                    <g id="g138">
                      <path id="path140" style="fill-rule:evenodd;fill:#ffffff" d="m27.68 16.922c0.265-1.524 0.105-3.215-0.481-5.082-1.144-3.762-3.824-6.535-8.039-8.32-3.172-1.36-6.574-1.254-10.199 0.32-1.731 0.738-3.172 1.613-4.32 2.621 0.847-0.711 2.035-1.305 3.558-1.781 3.227-0.985 6.75-0.801 10.563 0.558 3.437 1.227 5.957 3.551 7.558 6.961 0.801 1.68 1.254 3.254 1.36 4.723z" inkscape:connector-curvature="0"/>
                    </g>
                  </g>
                </g>
              </g>
            </g>
          </g>
        </g>
      </g>
    </g>
  </g>
<metadata><rdf:RDF><cc:Work><dc:format>image/svg+xml</dc:format><dc:type rdf:resource="http://purl.org/dc/dcmitype/StillImage"/><cc:license rdf:resource="http://creativecommons.org/licenses/publicdomain/"/><dc:publisher><cc:Agent rdf:about="http://openclipart.org/"><dc:title>Openclipart</dc:title></cc:Agent></dc:publisher></cc:Work><cc:License rdf:about="http://creativecommons.org/licenses/publicdomain/"><cc:permits rdf:resource="http://creativecommons.org/ns#Reproduction"/><cc:permits rdf:resource="http://creativecommons.org/ns#Distribution"/><cc:permits rdf:resource="http://creativecommons.org/ns#DerivativeWorks"/></cc:License></rdf:RDF></metadata></svg>
