<svg id="Layer_1" data-name="Layer 1" xmlns="http://www.w3.org/2000/svg" viewBox="0 0 91.3 42.1"><defs><style>.cls-1{fill-rule:evenodd;}</style></defs><rect x="8.3" width="8.3" height="8"/><polygon class="cls-1" points="24.9 16 24.9 24 33.2 24 33.2 16 41.5 16 41.5 8 33.2 8 33.2 0 24.9 0 24.9 8 16.6 8 16.6 16 24.9 16"/><rect x="58.1" width="8.3" height="8"/><polygon class="cls-1" points="83 16 83 8 83 0 74.7 0 74.7 8 66.4 8 66.4 16 66.4 24 58.1 24 58.1 32.1 49.8 32.1 49.8 24 58.1 24 58.1 16 58.1 8 49.8 8 49.8 16 41.5 16 41.5 24 41.5 32.1 33.2 32.1 24.9 32.1 24.9 24 16.6 24 16.6 16 8.3 16 8.3 8 0 8 0 16 0 24 0 32.1 0 40.1 0 42.1 8.3 42.1 16.6 42.1 24.9 42.1 33.2 42.1 41.5 42.1 49.8 42.1 58.1 42.1 66.4 42.1 74.7 42.1 83 42.1 91.3 42.1 91.3 16 83 16"/></svg>