<?xml version="1.0" encoding="utf-8"?>
<!-- Generator: Adobe Illustrator 26.0.1, SVG Export Plug-In . SVG Version: 6.00 Build 0)  -->
<svg version="1.1" id="Layer_1" xmlns="http://www.w3.org/2000/svg" xmlns:xlink="http://www.w3.org/1999/xlink" x="0px" y="0px"
	 viewBox="0 0 1920 106" style="enable-background:new 0 0 1920 106;" xml:space="preserve">
<style type="text/css">
	.st0{fill:none;}
	.st1{fill:#987FEF;}
	.st2{fill:#FFFFFF;}
	.st3{fill:#202020;}
	.st4{fill:#ED98C0;}
	.st5{fill:#323279;}
	.st6{fill-rule:evenodd;clip-rule:evenodd;fill:#60600F;}
	.st7{fill:#CEBB05;}
	.st8{fill:#9723E2;}
	.st9{fill:#E83867;}
	.st10{fill:#0C7A14;}
	.st11{fill:#50A34B;}
	.st12{fill:#EF3C3C;}
	.st13{fill:#E5E55A;}
	.st14{fill:#181868;}
	.st15{fill:#603813;}
	.st16{fill:#890E58;}
	.st17{fill:#F998CD;}
	.st18{fill-rule:evenodd;clip-rule:evenodd;}
</style>
<path d="M1722.7,69.8c2.5-1.6,4.9-3,7.4-4.5c2.5-1.4,5-2.7,7.5-4.1c2.6-1.1,5.1-2.3,7.7-3.3c2.7-0.9,5.3-1.8,8-2.6
	c10.8-3.1,22.3-3.7,33.7-3.5c11.5,0.1,22.6,2.2,33.1,6.1c0.7,0.2,1.3,0.4,2,0.7l1.9,0.9l3.8,1.7c2.5,1.2,5,2.7,7.5,4
	c2.5,1.5,4.9,3,7.3,4.5l7.4,4.9c9.9,6.6,20.8,13.2,32.9,17.1c12,4,24.6,5.4,37,5.7v-0.4c-12.1-0.3-24.3-1.7-36-5.6
	c-11.8-3.7-22.4-10.1-32.1-16.6c-9.7-6.5-19-12.9-29.3-17c-10.2-4.3-21.3-6.3-32.5-6.9l-4.2-0.2c-1.4-0.1-2.8-0.2-4.2-0.1l-8.5,0.3
	c-2.8,0.1-5.6,0.6-8.4,0.9c-2.8,0.2-5.5,0.9-8.2,1.5c-10.9,2.4-21.1,7.1-30.9,13C1716,72,1706.3,79,1695.4,84
	c-10.9,5.1-22.7,8.2-34.6,9.1l-0.1-0.7c11.2-1,22.3-3.9,32.6-8.5c10.3-4.6,19.6-11.1,28.8-17c9.2-5.9,18.8-11.1,29.2-14
	c10.3-3,21.2-4,32-4.2c10.8,0.3,21.7,1.3,32,4.3c10.3,3,19.8,8.1,29,14.1c9.2,5.9,18.4,12.5,28.8,17.3c10.3,4.8,21.5,7.9,32.8,8.9
	l0-0.5c-11-1.1-22-4.2-32-8.8c-10.1-4.7-19.1-11-28.1-17c-9-6-18.3-11.2-28.5-14.4c-2.5-1-5.1-1.4-7.7-2.1l-3.9-0.9l-4-0.6l-4-0.6
	c-1.3-0.2-2.6-0.4-4-0.4l-8-0.4c-10.7-0.1-21.5,0.4-31.9,3.2c-10.4,2.6-20.2,7.2-29.4,12.8c-9.2,5.6-18.1,12-27.9,16.8
	c-9.8,4.9-20.4,8-31.1,9.4c13.4-2.1,26.3-6.9,37.8-14c11.6-6.9,22.3-15.4,34.8-21c12.5-5.8,26.2-8.6,39.8-9
	c13.6-0.5,27.5,0.6,40.6,4.9l4.8,1.7c1.6,0.5,3.1,1.3,4.6,2c1.5,0.7,3.1,1.3,4.6,2.1l4.4,2.4c3,1.6,5.8,3.5,8.6,5.2l8.4,5.6
	c5.6,3.8,11.3,7.3,17.3,10.5c1.5,0.8,3.1,1.4,4.6,2.1c1.6,0.7,3,1.5,4.7,2l4.8,1.7l2.4,0.8c0.8,0.2,1.6,0.4,2.5,0.6l0.2-0.8
	c-10-2.7-19.4-7.1-28.1-12.6c-8.8-5.4-17.1-11.6-26.3-16.6c-9.1-5.1-19.1-8.7-29.3-10.8l-7.8-1.1c-2.6-0.5-5.2-0.6-7.8-0.7
	c-2.6-0.1-5.2-0.3-7.8-0.4l-7.8,0.3l-3.9,0.1l-3.9,0.5c-2.6,0.4-5.2,0.6-7.8,1.1l-7.7,1.7c-2.5,0.6-5,1.6-7.5,2.4
	c-9.9,3.5-19.1,8.9-27.8,14.5c-8.7,5.6-17.3,11.2-26.7,15.2c-9.3,3.9-19.2,6.4-29.3,7.3l-0.1-0.7c9.5-0.9,18.7-3.2,27.4-6.7
	c8.8-3.5,16.8-8.6,25-14c8.1-5.4,16.5-10.8,25.8-14.8c1.2-0.5,2.3-1,3.5-1.5l3.6-1.2c2.4-0.8,4.7-1.7,7.2-2.2l7.3-1.7l7.4-1l3.7-0.5
	l3.7-0.2l7.5-0.3c2.5-0.1,5,0.2,7.5,0.2l3.7,0.2c1.2,0,2.5,0.1,3.7,0.3c10,1,19.8,3.4,29.2,7.2c9.4,3.8,17.9,9.2,26,14.5
	c8.1,5.4,16.2,10.6,24.9,14.3c-8.4-3.8-16.2-9-24.1-14.4c-7.9-5.4-16.2-10.8-25.3-14.7c-2.2-1.1-4.6-1.9-6.9-2.7
	c-2.4-0.8-4.7-1.7-7.1-2.2l-7.3-1.8l-7.4-1l-3.7-0.5l-3.7-0.2l-7.4-0.4c-2.5-0.1-4.9,0.1-7.4,0.2c-2.5,0.1-4.9,0.1-7.4,0.4
	c-9.8,1-19.7,3.1-29.1,6.7c-9.3,3.7-17.9,8.9-25.9,14c-8.1,5.2-15.8,10.3-24.1,14c-2.1,0.9-4.1,1.9-6.3,2.6l-6.4,2.1
	c-2.2,0.6-4.4,1-6.6,1.5c-1.1,0.2-2.2,0.6-3.3,0.7l-3.4,0.4l-0.2-0.7c4.2-0.4,8.2-1.6,12.3-2.5c2-0.6,4-1.3,5.9-2
	c2-0.6,3.9-1.5,5.8-2.4c7.7-3.4,14.9-7.9,22.3-12.8c7.4-4.9,15.2-10,23.8-14c8.5-4.2,17.8-6.7,27.1-8.4c4.7-0.6,9.3-1.4,14-1.4
	l7-0.3c2.3,0,4.7,0.2,7,0.2c2.3,0.1,4.7,0.1,7,0.4l7,0.9l3.5,0.5l3.5,0.8c2.3,0.6,4.6,1,6.9,1.7c9.1,2.7,17.8,6.8,25.8,11.5
	c8,4.7,15.3,10,22.6,14.3c-7.5-4.6-14.8-10.2-23-15.2c-8.2-5-17.2-9.2-26.7-12l-7.2-1.8l-1.8-0.4l-1.8-0.3l-3.6-0.5
	c-2.4-0.3-4.8-0.8-7.2-0.9l-7.2-0.4l-3.6-0.2c-1.2,0-2.4,0.1-3.6,0.1l-7.2,0.3c-2.4,0-4.8,0.4-7.3,0.7c-2.4,0.3-4.9,0.6-7.3,1
	c-9.7,1.9-19.2,5.2-27.9,9.6c-8.8,4.4-16.6,9.9-24.1,14.7c-7.5,4.9-15,9-22.9,12l-6,2c-2,0.6-4.1,1-6.1,1.5l-3.1,0.7
	c-1,0.2-2.1,0.3-3.2,0.4l-6.3,0.8l-0.1-0.7c7.7-1,15.3-2.2,22.3-4.9l2.7-0.9c0.9-0.3,1.7-0.8,2.6-1.1c1.7-0.8,3.5-1.5,5.2-2.4
	l5.1-2.8c1.7-0.9,3.4-2.1,5.1-3.1c6.8-4.2,13.6-9.1,21.3-13.7c7.7-4.5,16-8.4,24.8-11.1c2.2-0.7,4.4-1.1,6.6-1.7
	c2.2-0.5,4.4-1.2,6.7-1.4c4.5-0.6,9-1.5,13.4-1.5c4.5-0.2,8.9-0.5,13.4-0.2l6.7,0.3c2.2,0,4.5,0.5,6.7,0.7c2.2,0.3,4.5,0.5,6.7,0.9
	l6.7,1.5l3.3,0.8l3.3,1.1c2.2,0.8,4.4,1.4,6.5,2.3c8.6,3.4,16.5,8,23.7,12.6l0.2-0.4c-7.3-4.9-15.4-9.6-24.1-13.2l-6.7-2.4
	c-1.1-0.4-2.2-0.8-3.4-1.1l-3.4-0.8c-2.3-0.5-4.6-1.1-6.9-1.6l-6.9-1c-9.2-1.2-18.4-1.3-27.5-0.8c-2.3,0-4.6,0.4-6.9,0.7l-6.9,0.9
	c-2.3,0.5-4.6,1-6.9,1.6l-3.4,0.8c-1.1,0.3-2.3,0.7-3.4,1.1c-2.2,0.8-4.5,1.5-6.7,2.3l-6.5,2.9c-2.2,0.9-4.2,2.1-6.2,3.2l-3.1,1.7
	l-2.9,1.8c-7.8,4.7-14.7,9.6-21.5,13.6c-1.7,1.1-3.4,2-5.1,2.9c-1.7,0.9-3.4,1.9-5.2,2.6c-1.7,0.7-3.5,1.6-5.2,2.3l-5.3,1.8
	c-1.7,0.7-3.6,1-5.5,1.4c-1.9,0.4-3.7,0.9-5.6,1.2l-5.7,0.7l-2.9,0.4l-2.9,0.1l2.7-0.2c0.9-0.1,1.7-0.3,2.6-0.4l5.2-0.9
	c1.8-0.2,3.4-0.7,5.1-1.2l5-1.3c6.5-2.3,12.7-4.8,18.8-8.6c6.2-3.6,12.3-7.9,19.1-12.4c1.6-1.1,3.5-2.2,5.2-3.3
	c1.8-1.1,3.6-2.2,5.5-3.2c1.9-1,3.8-2.1,5.7-3.1l6-2.8c2-1,4.1-1.6,6.2-2.4c2.1-0.7,4.2-1.5,6.4-2.1l6.5-1.6l3.2-0.8l3.2-0.5
	c4.3-0.6,8.7-1.3,13-1.4c4.3-0.2,8.6-0.5,12.9-0.2c4.3,0.2,8.6,0.1,12.9,0.9l6.5,0.9c2.2,0.2,4.3,0.9,6.5,1.4
	c8.7,1.8,17.2,5.2,25.1,9c-1.9-1.1-4.1-2-6.1-3c-2.1-1-4.1-2-6.3-2.7l-6.5-2.3c-2.2-0.6-4.4-1.2-6.7-1.7c-8.9-2.2-17.9-3.1-26.8-3.4
	c-2.2-0.2-4.4-0.1-6.7,0l-6.7,0.3c-1.1,0.1-2.2,0-3.3,0.2l-3.4,0.4l-6.7,0.9c-2.2,0.3-4.5,1-6.7,1.4c-2.2,0.6-4.5,0.9-6.7,1.7
	c-4.4,1.5-8.8,2.9-13,4.9c-4.3,1.8-8.1,4.1-12.1,6.2c-3.7,2.3-7.5,4.5-10.8,6.8c-6.9,4.5-13.2,8.8-19.4,12
	c-6.3,3.2-12.6,5.8-19.4,7.2c-1.7,0.3-3.3,0.9-5.1,1.1l-5.2,0.7c-3.4,0.6-7.1,0.5-10.7,0.6c6.7-0.4,13.1-1.3,19.2-2.9l4.5-1.2
	c1.5-0.4,2.9-1.1,4.4-1.6c1.4-0.6,2.9-1,4.3-1.7l4.2-2c5.7-2.9,11.2-6.3,17.2-10.5l9.4-6.3c3.4-2.1,6.8-4.3,10.5-6.3
	c3.6-2.1,7.6-3.8,11.5-5.6c2-0.9,4.1-1.5,6.1-2.3c2.1-0.7,4.1-1.5,6.2-2c8.4-2.3,16.9-3.7,25.2-4.2l6.2-0.3c2.1-0.1,4.2-0.2,6.2-0.1
	c4.2,0.2,8.3,0.2,12.5,0.6l6.3,0.8c2.1,0.3,4.2,0.4,6.3,1l6.4,1.4c1.1,0.3,2.1,0.5,3.2,0.8l3.1,1l-3.2-1.2c-1.1-0.3-2.2-0.6-3.3-0.9
	l-6.6-1.7c-4.4-1-8.7-1.5-13.1-2.1c-4.3-0.4-8.6-0.5-13-0.8c-4.3-0.1-8.6,0.2-13,0.3c-2.1,0-4.4,0.4-6.6,0.7l-6.6,0.9
	c-2.2,0.3-4.4,1-6.6,1.4c-2.2,0.6-4.4,0.9-6.6,1.7c-4.3,1.5-8.7,2.8-12.8,4.8c-2,0.9-4.2,1.8-6.1,2.9l-5.8,3.1
	c-7.4,4.3-14.2,8.9-20.2,12.9c-1.6,1.1-3,1.9-4.5,2.8c-1.5,0.9-3,1.8-4.4,2.6l-4.3,2.3L1683,67c-1.4,0.7-2.9,1.2-4.4,1.7l-4.4,1.5
	l-4.6,1.1c-1.5,0.4-3,0.8-4.7,0.9c-5.8,0.9-12.1,1.2-18.2,1.2c1.5,0,3-0.2,4.4-0.3l6-0.5c2-0.2,3.8-0.7,5.7-1
	c1.9-0.3,3.8-0.6,5.6-1.2l5.4-1.5l5.2-2c1.7-0.5,3.4-1.5,5.1-2.3l2.5-1.2c0.8-0.4,1.7-1,2.5-1.4c6.7-3.7,13.6-8.6,21.9-14.1
	c8.2-5.4,18-10.8,28.5-14.6c2.6-0.9,5.2-1.9,7.9-2.6l8-1.9c1.3-0.4,2.7-0.6,4-0.8l4-0.6l4-0.6c1.3-0.2,2.7-0.4,4-0.4l7.9-0.4
	l3.9-0.2c1.3,0,2.6,0.1,3.9,0.1c5.3,0.2,10.5,0.2,15.9,1.1l0-0.7c-2.1-0.3-4.3-0.7-6.4-0.9l-6.2-0.4l-6.3-0.3
	c-2.1-0.1-4.2,0.1-6.3,0.1c-4.2,0.2-8.3,0.1-12.6,0.8c-4.3,0.6-8.5,1-12.8,2.1l-6.4,1.5c-2.1,0.6-4.2,1.4-6.3,2.1
	c-4.3,1.3-8.2,3.2-12.2,5c-2.1,0.9-3.8,2-5.7,3c-1.8,1-3.8,2-5.5,3.1l-5.1,3.2c-1.7,1.1-3.2,2.1-4.8,3.1l-8.9,5.9l-4.1,2.6l-2,1.3
	l-2,1.1c-1.3,0.7-2.6,1.5-3.9,2.2l-3.9,1.8l-1.9,0.9l-2,0.7l-4,1.4c-2.7,0.7-5.5,1.4-8.3,2c-2.9,0.4-5.8,0.8-8.8,1.2l-9.2,0.4
	c-3.1-0.1-6.1-0.3-9.2-0.4l8.1-0.1c2.7-0.2,5.4-0.5,8.1-0.7c2.8-0.1,5.2-0.8,7.8-1.2c1.3-0.2,2.6-0.4,3.8-0.7l3.6-1
	c1.2-0.4,2.4-0.6,3.6-1l3.4-1.3c2.3-0.7,4.5-1.9,6.8-3c0.6-0.3,1.1-0.5,1.7-0.8l1.7-1l3.4-1.9c1.2-0.7,2.4-1.5,3.6-2.3
	c1.2-0.8,2.3-1.5,3.7-2.4l7.9-5.3c1.4-0.9,2.7-1.9,4.3-2.8l4.6-2.9l2.3-1.4l2.5-1.4l5.1-2.8c3.6-1.7,7.2-3.4,10.9-5
	c15.1-5.9,31.3-8.6,46.1-8.9l-8.4-0.1c-1.4,0-2.8-0.1-4.2,0l-4.3,0.4c-2.9,0.3-5.8,0.5-8.7,1c-2.9,0.6-5.8,1.2-8.7,2
	c-2.6,0.6-5.2,1.5-7.8,2.4c-2.6,0.9-5.2,1.7-7.6,2.9l-7.4,3.4l-6.8,3.7c-8.8,5.1-16.2,10.4-22.7,14.6c-6.5,4.3-12.1,7.2-18,9.5
	l-4.5,1.6l-4.7,1.2c-0.8,0.2-1.5,0.4-2.3,0.6l-2.5,0.3l-5,0.8c-2.2,0.3-4.6,0.3-6.9,0.4l-3.5,0.2l-3.5-0.1c-2.3-0.1-4.7-0.1-7-0.2
	l-6.6-0.8c2.4,0.1,4.8,0.2,7.2,0.4c2.5-0.1,5-0.2,7.5-0.2c2.5,0.1,5-0.4,7.5-0.5l3.7-0.3c1.3,0,2.4-0.4,3.5-0.6l3.5-0.6l1.7-0.3
	c0.6-0.1,1.1-0.3,1.6-0.5l3.3-0.9c1.1-0.3,2.2-0.5,3.2-1c4.2-1.5,8.1-3.2,12.3-5.6l3.1-1.8c1.1-0.6,2.2-1.4,3.3-2.1
	c1.1-0.7,2.2-1.4,3.4-2.2l3.6-2.5l7.9-5.3l4.4-2.8c1.5-0.9,2.9-1.9,4.6-2.8c6.5-3.7,13.5-7.4,21-10.1c3.8-1.4,7.5-2.8,11.4-3.6
	c3.8-0.9,7.7-2.1,11.5-2.6c-3.1,0.2-6.4,0.8-9.6,1.4c-3.2,0.6-6.5,1.1-9.7,2.2c-3.2,1-6.5,1.8-9.5,3.1c-3,1.3-6.1,2.6-9,4
	c-11.4,5.8-20.5,12.6-27.9,17.4c-7.5,5-13.5,8.3-20,10.5l-2.4,0.9l-2.6,0.6l-2.6,0.7c-0.8,0.2-1.7,0.5-2.6,0.6l-5.5,0.9l-1.4,0.2
	l-1.5,0.1l-3,0.2c-2,0.1-4,0.3-5.9,0.3l-5.9-0.1c-1,0-2,0-3-0.1l-2.8-0.3c-1.8-0.2-3.8-0.3-5.6-0.7c-1-0.3-2-0.5-3.1-0.8
	c2,0.2,3.9,0.6,6,0.6c2.1,0,4.1,0.3,6.3,0.3c4.4-0.2,8.8,0,13.2-0.7l3.3-0.3c1.1-0.1,2.2-0.2,3.2-0.4c2-0.4,4-0.8,6.1-1.1l5.6-1.5
	c1-0.2,1.8-0.6,2.7-0.9l2.6-1c7-2.8,13.7-7,22.9-13.4l7.4-5c2.8-1.8,5.4-3.6,8.4-5.3l4.6-2.6c1.5-0.9,3.1-1.8,4.8-2.5l5-2.4
	c1.7-0.8,3.3-1.6,5.1-2.2c-1.8,0.5-3.5,1.2-5.1,1.8l-5.1,2c-1.7,0.7-3.3,1.4-4.9,2.2l-4.7,2.3c-1.6,0.8-3,1.6-4.4,2.4l-4.2,2.4
	c-1.4,0.8-2.6,1.6-3.8,2.4l-3.6,2.4c-7.7,5.2-13.5,9-19,11.7l-2.1,1l-1,0.5l-1,0.4c-1.4,0.5-2.8,1-4.1,1.6l-4.4,1.2
	c-0.7,0.2-1.5,0.4-2.2,0.6l-2.4,0.4l-4.8,0.8l-5.2,0.3c-1.7,0.1-3.5,0.4-5.2,0.3l-5.3-0.1l-2.6,0l-2.4-0.3l-4.9-0.5
	c-1.6-0.2-3-0.6-4.6-0.9l-2.3-0.4l-2.2-0.7l-3-1c6.7,1.7,13.8,2.1,21.7,2.2c2-0.1,4-0.1,6-0.1c2-0.1,4-0.4,6-0.5l3-0.2
	c1,0,1.9-0.3,2.8-0.5c1.8-0.4,3.7-0.6,5.5-1c7-1.7,12.6-4,19.2-8c3.3-2,7-4.5,11.3-7.5l6.9-4.8c1.1-0.8,2.6-1.7,3.9-2.6l4-2.6
	c-10.1,5.3-17.7,10.2-23.9,13.4c-0.7,0.4-1.4,0.8-2,1.2c-0.6,0.3-1.2,0.7-1.8,1c-1.2,0.6-2.4,1.5-3.5,2c-1.1,0.5-2.2,1.1-3.3,1.6
	c-1.1,0.6-2.2,0.9-3.3,1.3c-2.1,1-4.6,1.5-7,2.2c-1.1,0.4-2.6,0.5-3.8,0.8l-4,0.7l-8.7,0.7l-8.8,0c-1.4-0.1-2.7-0.3-4.1-0.4
	c-1.3-0.2-2.8-0.2-4-0.4c-1.2-0.3-2.5-0.5-3.7-0.7l-1.9-0.3l-1.8-0.6l-3.6-1c-1.2-0.5-2.4-1-3.6-1.4c-1.1-0.3-2.2-1-3.4-1.6
	c6.5,2.3,12,3.4,18.2,4.1c1.6,0.1,3.3,0.1,4.9,0.3l2.5,0.2l2.7-0.1c1.8,0,3.6-0.1,5.4-0.1c1.8-0.1,3.6-0.3,5.4-0.5
	c3.7-0.1,6.8-1,10.1-1.5c1.6-0.3,2.9-0.9,4.4-1.2c0.7-0.2,1.5-0.3,2.1-0.6l2-0.8c5.4-2.2,10.2-5.2,17.3-10.4
	c-1.4,0.8-2.4,1.3-3.5,1.9c-1.1,0.6-2.3,1.2-3.3,1.7l-2.9,1.3l-1.4,0.7c-0.5,0.2-0.9,0.3-1.3,0.5c-1.8,0.6-3.5,1.4-5.1,1.8
	c-0.8,0.3-1.7,0.5-2.5,0.9l-2.6,0.7c-1,0.3-2,0.6-3.1,0.9c-1.2,0.2-2.3,0.4-3.5,0.6c-1.2,0.2-2.2,0.5-3.6,0.6l-3.9,0.3l-3.9,0.3
	l-3.9,0l-4,0c-1.2-0.1-2.4-0.2-3.6-0.3l-3.6-0.3c-1.1-0.2-2.1-0.4-3.2-0.6c-2.2-0.2-4.2-1-6.3-1.5c-4.2-1.4-8.2-3-13.6-6.1
	c-1-0.6-1.8-1-3-1.8c7.3,3.4,12.6,5.3,17.6,6.5c1.3,0.2,2.5,0.6,3.8,0.8c1.3,0.1,2.7,0.3,4,0.5c1.2,0.3,2.8,0.2,4.2,0.3l2.2,0.2
	c0.7,0.1,1.4,0.2,2.3,0.1l4.8-0.1l2.4,0l2.4-0.3l4.8-0.5c0.4,0,0.8,0,1.2-0.1l1.1-0.2l2.1-0.4l2.1-0.4l1-0.2l0.9-0.3
	c1.2-0.4,2.4-0.8,3.6-1.2c1.2-0.4,2.2-1.1,3.3-1.5c1.1-0.4,2.2-1.1,3.2-1.8c-5.7,1.8-10.9,2-17.5,3l-5.5,0.4
	c-0.9,0.1-1.8,0.2-2.8,0.3l-2.8,0c-1.8,0-3.8,0.1-5.5,0.1c-1.6-0.2-3.3-0.3-4.9-0.3c-6.3-0.7-11.1-1.8-17.6-4.8
	c-5.2-2.4-11.8-6.6-20.7-11.9c8.9,4.3,15.8,8,21.1,10.2l3.7,1.5c1.1,0.3,2.2,0.6,3.3,1c1.1,0.4,2.2,0.4,3.2,0.7l1.6,0.4
	c0.5,0.1,1.1,0.1,1.7,0.2c1.1,0.1,2.2,0.3,3.3,0.5c1.2,0,2.5,0.1,3.8,0.2c2.3,0.3,5.4,0,8.2,0c0.7,0,1.4,0,2.1-0.1l2.1-0.3l4.2-0.5
	c1.5-0.1,2.5-0.6,3.7-0.8c1.1-0.3,2.4-0.6,3.4-0.9c-1.8-0.1-3.7-0.2-5.4,0c-0.5,0.1-1.2,0-1.9,0l-2-0.1c-1.3-0.1-2.7-0.1-4-0.1
	c-2.6-0.3-5.2-0.6-7.8-0.4c-2-0.2-4.1-0.2-6-0.3c-0.9-0.2-1.8-0.3-2.7-0.4l-1.4-0.1c-0.4-0.1-0.8-0.2-1.2-0.3
	c-0.8-0.2-1.7-0.4-2.5-0.5c-0.9-0.2-1.7-0.6-2.6-0.9l-1.3-0.4c-0.4-0.1-1-0.4-1.5-0.6l-3.1-1.3c-4.6-2.3-10.4-5.7-18-10.2l-6.2-3.5
	c-1.1-0.6-2-1.2-3.2-1.8l-3.6-1.8c-2.4-1.2-4.7-2.4-7.3-3.5l-7.9-3.2c-2.6-1.1-5.4-1.9-8.1-2.7c-2.8-0.8-5.5-1.7-8.3-2.4l-8.3-1.7
	l-4.2-0.8c-1.4-0.2-2.7-0.3-4-0.5c-11-1.4-20.9-1.5-31.1-1l-7.6,0.6c-2.5,0.2-5,0.4-7.7,0.9l-7.9,1.3l-3.9,0.7c-1.3,0.3-2.7,0.7-4,1
	l-8,2.2c-1.3,0.3-2.7,0.8-4,1.3l-4,1.5c-2.6,1-5.3,1.9-7.8,3.1l-7.4,3.6c-1.8,0.8-3.4,1.8-5,2.7c-1.7,1-3.4,2-5.3,3.1
	c-1.9,1.1-3.3,2.2-5.1,3.3c-0.9,0.6-1.7,1.2-2.6,1.7l-1.3,0.9l-1.2,0.8c-2.9,2.1-6,4.3-9.3,6.7c-0.7,0.5-1.5,1.1-2.2,1.6
	c-0.6,0.4-1.3,0.9-2,1.4c-1.3,0.9-2.8,2-3.9,2.6c-5.1,3.3-9.2,5.4-14.9,7.2c-0.7,0.2-1.4,0.5-2.1,0.7c-0.7,0.3-1.6,0.3-2.4,0.5
	c-1.6,0.3-3.3,0.7-4.9,1c-1.9,0.2-3.8,0.4-5.7,0.5c-1,0.1-1.9,0.2-2.9,0.3c-1,0-1.9,0-2.9,0c-1.9,0-4,0.1-5.9,0.1
	c-1.8-0.2-3.7-0.3-5.5-0.4c-1,0-1.8-0.2-2.7-0.3l-2.6-0.4c-1.8-0.1-3.4-0.8-5.1-1.2c-6.7-1.8-13.4-5.1-24.1-11.6l-4.1-2.5l-2.1-1.2
	l-2.4-1.3l-4.7-2.7c-1.5-0.9-3.4-1.8-5.1-2.6l-5.3-2.6l-5.7-2.4c-1.9-0.7-3.8-1.6-5.8-2.2l-6-1.9c-2-0.6-4-1.3-6-1.7l-6-1.2
	c-2-0.4-4-0.8-6-1.1l-5.9-0.6c-7.1-1-13.7-0.8-20.4-0.8v0c-0.4,0-0.7,0-1.1,0c-0.4,0-0.7,0-1.1,0v0c-6.6,0-13.2-0.1-20.4,0.8
	l-5.9,0.6c-2,0.3-4,0.7-6,1.1l-6,1.2c-2,0.4-4,1.1-6,1.7l-6,1.9c-2,0.6-3.8,1.5-5.8,2.2l-5.7,2.4l-5.3,2.6c-1.7,0.9-3.6,1.8-5.1,2.6
	l-4.7,2.7l-2.4,1.3l-2.1,1.2l-4.1,2.5c-10.6,6.5-17.3,9.8-24.1,11.6c-1.7,0.4-3.3,1-5.1,1.2l-2.6,0.4c-0.9,0.2-1.7,0.3-2.7,0.3
	c-1.9,0.1-3.7,0.2-5.5,0.4c-1.9,0-4-0.1-5.9-0.1c-1,0-2,0-2.9,0c-1-0.1-1.9-0.2-2.9-0.3c-1.9-0.2-3.8-0.4-5.7-0.5
	c-1.7-0.3-3.3-0.7-4.9-1c-0.8-0.2-1.7-0.2-2.4-0.5c-0.7-0.2-1.4-0.5-2.1-0.7c-5.7-1.7-9.9-3.8-14.9-7.2c-1.1-0.6-2.6-1.7-3.9-2.6
	c-0.7-0.5-1.3-0.9-2-1.4c-0.8-0.5-1.5-1.1-2.2-1.6c-3.3-2.3-6.4-4.6-9.3-6.7l-1.2-0.8l-1.3-0.9c-0.9-0.6-1.8-1.2-2.6-1.7
	c-1.8-1.1-3.3-2.2-5.1-3.3c-1.8-1.1-3.6-2.1-5.3-3.1c-1.7-1-3.3-1.9-5-2.7l-7.4-3.6c-2.5-1.2-5.2-2.1-7.8-3.1l-4-1.5
	c-1.3-0.5-2.6-0.9-4-1.3l-8-2.2c-1.3-0.3-2.7-0.7-4-1l-3.9-0.7l-7.9-1.3c-2.7-0.5-5.1-0.6-7.7-0.9l-7.6-0.6
	c-3.4-0.2-6.7-0.2-10.1-0.3v0c-0.2,0-0.5,0-0.7,0s-0.5,0-0.7,0v0c-3.4,0-6.7,0.1-10.1,0.3l-7.6,0.6c-2.5,0.2-5,0.4-7.7,0.9l-7.9,1.3
	l-3.9,0.7c-1.3,0.3-2.7,0.7-4,1l-8,2.2c-1.3,0.3-2.7,0.8-4,1.3l-4,1.5c-2.6,1-5.3,1.9-7.8,3.1l-7.4,3.6c-1.8,0.8-3.4,1.8-5,2.7
	c-1.7,1-3.4,2-5.3,3.1c-1.9,1.1-3.3,2.2-5.1,3.3c-0.9,0.6-1.7,1.2-2.6,1.7l-1.3,0.9l-1.2,0.8c-2.9,2.1-6,4.3-9.3,6.7
	c-0.7,0.5-1.5,1.1-2.2,1.6c-0.6,0.4-1.3,0.9-2,1.4c-1.3,0.9-2.8,2-3.9,2.6c-5.1,3.3-9.2,5.4-14.9,7.2c-0.7,0.2-1.4,0.5-2.1,0.7
	c-0.7,0.3-1.6,0.3-2.4,0.5c-1.6,0.3-3.3,0.7-4.9,1c-1.9,0.2-3.8,0.4-5.7,0.5c-1,0.1-1.9,0.2-2.9,0.3c-1,0-1.9,0-2.9,0
	c-1.9,0-4,0.1-5.9,0.1c-1.8-0.2-3.7-0.3-5.5-0.4c-1,0-1.8-0.2-2.7-0.3l-2.6-0.4c-1.8-0.1-3.4-0.8-5.1-1.2
	c-6.7-1.8-13.4-5.1-24.1-11.6l-4.1-2.5l-2.1-1.2l-2.4-1.3l-4.7-2.7c-1.5-0.9-3.4-1.8-5.1-2.6l-5.3-2.6l-5.7-2.4
	c-1.9-0.7-3.8-1.6-5.8-2.2l-6-1.9c-2-0.6-4-1.3-6-1.7l-6-1.2c-2-0.4-4-0.8-6-1.1l-5.9-0.6c-7.1-1-13.7-0.8-20.4-0.8v0
	c-0.4,0-0.7,0-1.1,0c-0.4,0-0.7,0-1.1,0v0c-6.6,0-13.2-0.1-20.4,0.8l-5.9,0.6c-2,0.3-4,0.7-6,1.1l-6,1.2c-2,0.4-4,1.1-6,1.7l-6,1.9
	c-2,0.6-3.8,1.5-5.8,2.2l-5.7,2.4l-5.3,2.6c-1.7,0.9-3.6,1.8-5.1,2.6l-4.7,2.7l-2.4,1.3l-2.1,1.2l-4.1,2.5
	c-10.6,6.5-17.3,9.8-24.1,11.6c-1.7,0.4-3.3,1-5.1,1.2l-2.6,0.4c-0.9,0.2-1.7,0.3-2.7,0.3c-1.9,0.1-3.7,0.2-5.5,0.4
	c-1.9,0-4-0.1-5.9-0.1c-1,0-2,0-2.9,0c-1-0.1-1.9-0.2-2.9-0.3c-1.9-0.2-3.8-0.4-5.7-0.5c-1.7-0.3-3.3-0.7-4.9-1
	c-0.8-0.2-1.7-0.2-2.4-0.5c-0.7-0.2-1.4-0.5-2.1-0.7c-5.7-1.7-9.9-3.8-14.9-7.2c-1.1-0.6-2.6-1.7-3.9-2.6c-0.7-0.5-1.3-0.9-2-1.4
	c-0.8-0.5-1.5-1.1-2.2-1.6c-3.3-2.3-6.4-4.6-9.3-6.7l-1.2-0.8l-1.3-0.9c-0.9-0.6-1.8-1.2-2.6-1.7c-1.8-1.1-3.3-2.2-5.1-3.3
	c-1.8-1.1-3.6-2.1-5.3-3.1c-1.7-1-3.3-1.9-5-2.7l-7.4-3.6c-2.5-1.2-5.2-2.1-7.8-3.1l-4-1.5c-1.3-0.5-2.6-0.9-4-1.3l-8-2.2
	c-1.3-0.3-2.7-0.7-4-1l-3.9-0.7l-7.9-1.3c-2.7-0.5-5.1-0.6-7.7-0.9l-7.6-0.6c-10.1-0.5-20.1-0.4-31.1,1c-1.3,0.2-2.7,0.3-4,0.5
	L373,2.1l-8.3,1.7c-2.8,0.6-5.5,1.6-8.3,2.4c-2.7,0.9-5.6,1.6-8.1,2.7l-7.9,3.2c-2.6,1.1-4.9,2.3-7.3,3.5l-3.6,1.8
	c-1.2,0.6-2.1,1.2-3.2,1.8l-6.2,3.5c-7.6,4.5-13.4,7.9-18,10.2l-3.1,1.3c-0.5,0.2-1,0.5-1.5,0.6l-1.3,0.4c-0.9,0.3-1.7,0.7-2.6,0.9
	c-0.9,0.2-1.7,0.3-2.5,0.5c-0.4,0.1-0.8,0.2-1.2,0.3l-1.4,0.1c-0.9,0.1-1.8,0.2-2.7,0.4c-1.9,0.1-4.1,0.1-6,0.3
	c-2.5-0.2-5.1,0.1-7.8,0.4c-1.3,0-2.7,0.1-4,0.1l-2,0.1c-0.7,0-1.4,0.1-1.9,0c-1.8-0.2-3.6-0.1-5.4,0c1.1,0.4,2.3,0.6,3.4,0.9
	c1.2,0.3,2.2,0.8,3.7,0.8l4.2,0.5l2.1,0.3c0.7,0.1,1.4,0,2.1,0.1c2.8,0,5.9,0.4,8.2,0c1.2-0.1,2.5-0.1,3.8-0.2
	c1.1-0.2,2.2-0.4,3.3-0.5c0.6-0.1,1.1-0.1,1.7-0.2l1.6-0.4c1-0.3,2.1-0.3,3.2-0.7c1.1-0.4,2.2-0.7,3.3-1l3.7-1.5
	c5.2-2.2,12.1-5.8,21.1-10.2c-9,5.4-15.5,9.5-20.7,11.9c-6.5,3.1-11.3,4.1-17.6,4.8c-1.7,0.1-3.3,0.2-4.9,0.3
	c-1.7,0.1-3.7-0.1-5.5-0.1l-2.8,0c-0.9-0.1-1.8-0.2-2.8-0.3l-5.5-0.4c-6.6-1-11.9-1.2-17.5-3c1.1,0.6,2.1,1.4,3.2,1.8
	c1.1,0.5,2.1,1.1,3.3,1.5c1.2,0.4,2.4,0.8,3.6,1.2l0.9,0.3l1,0.2l2.1,0.4l2.1,0.4l1.1,0.2c0.4,0.1,0.8,0.1,1.2,0.1l4.8,0.5l2.4,0.3
	l2.4,0l4.8,0.1c0.9,0.1,1.5,0,2.3-0.1l2.2-0.2c1.4-0.1,3,0,4.2-0.3c1.3-0.2,2.6-0.4,4-0.5c1.3-0.3,2.5-0.6,3.8-0.8
	c5-1.2,10.3-3.1,17.6-6.5c-1.2,0.8-2,1.2-3,1.8c-5.4,3.2-9.4,4.7-13.6,6.1c-2.1,0.5-4,1.3-6.3,1.5c-1.1,0.2-2.2,0.4-3.2,0.6
	l-3.6,0.3c-1.2,0.1-2.3,0.2-3.6,0.3l-4,0l-3.9,0l-3.9-0.3l-3.9-0.3c-1.3-0.1-2.4-0.4-3.6-0.6c-1.2-0.2-2.3-0.4-3.5-0.6
	c-1.1-0.3-2.1-0.6-3.1-0.9l-2.6-0.7c-0.8-0.3-1.6-0.6-2.5-0.9c-1.7-0.4-3.4-1.2-5.1-1.8c-0.4-0.2-0.9-0.3-1.3-0.5l-1.4-0.7l-2.9-1.3
	c-1-0.5-2.2-1.2-3.3-1.7c-1.1-0.6-2.1-1.1-3.5-1.9c7.1,5.3,11.9,8.3,17.3,10.4l2,0.8c0.7,0.3,1.4,0.4,2.1,0.6
	c1.5,0.4,2.8,0.9,4.4,1.2c3.2,0.5,6.3,1.3,10.1,1.5c1.8,0.1,3.6,0.4,5.4,0.5c1.8,0,3.6,0,5.4,0.1l2.7,0.1l2.5-0.2
	c1.6-0.1,3.4-0.1,4.9-0.3c6.3-0.7,11.7-1.9,18.2-4.1c-1.1,0.6-2.3,1.3-3.4,1.6c-1.2,0.5-2.4,0.9-3.6,1.4l-3.6,1l-1.8,0.6l-1.9,0.3
	c-1.2,0.2-2.5,0.5-3.7,0.7c-1.3,0.2-2.7,0.2-4,0.4c-1.4,0.1-2.7,0.3-4.1,0.4l-8.8,0l-8.7-0.7l-4-0.7c-1.3-0.3-2.7-0.3-3.8-0.8
	c-2.4-0.7-4.8-1.2-7-2.2c-1.1-0.5-2.2-0.7-3.3-1.3c-1.1-0.6-2.2-1.1-3.3-1.6c-1.1-0.5-2.3-1.4-3.5-2c-0.6-0.3-1.2-0.7-1.8-1
	c-0.7-0.4-1.4-0.8-2-1.2c-6.2-3.3-13.8-8.1-23.9-13.4l4,2.6c1.3,0.9,2.8,1.8,3.9,2.6l6.9,4.8c4.2,3,7.9,5.5,11.3,7.5
	c6.7,4,12.3,6.3,19.2,8c1.8,0.4,3.6,0.6,5.5,1c0.9,0.1,1.8,0.4,2.8,0.5l3,0.2c2,0.1,4,0.4,6,0.5c2,0,4,0,6,0.1
	c7.9-0.1,15-0.5,21.7-2.2l-3,1l-2.2,0.7l-2.3,0.4c-1.5,0.3-3,0.7-4.6,0.9l-4.9,0.5l-2.4,0.3l-2.6,0l-5.3,0.1
	c-1.8,0.1-3.5-0.2-5.2-0.3l-5.2-0.3l-4.8-0.8l-2.4-0.4c-0.8-0.2-1.5-0.4-2.2-0.6l-4.4-1.2c-1.4-0.6-2.8-1.1-4.1-1.6l-1-0.4l-1-0.5
	l-2.1-1c-5.5-2.7-11.4-6.5-19-11.7l-3.6-2.4c-1.2-0.8-2.3-1.5-3.8-2.4l-4.2-2.4c-1.4-0.8-2.8-1.6-4.4-2.4l-4.7-2.3
	c-1.5-0.8-3.1-1.5-4.9-2.2l-5.1-2c-1.7-0.7-3.4-1.3-5.1-1.8c1.8,0.6,3.5,1.4,5.1,2.2l5,2.4c1.7,0.8,3.2,1.7,4.8,2.5l4.6,2.6
	c3,1.8,5.6,3.5,8.4,5.3l7.4,5c9.2,6.4,15.9,10.6,22.9,13.4l2.6,1c0.9,0.4,1.7,0.7,2.7,0.9l5.6,1.5c2,0.3,4,0.7,6.1,1.1
	c1,0.2,2.1,0.3,3.2,0.4l3.3,0.3c4.4,0.6,8.8,0.4,13.2,0.7c2.1,0,4.2-0.2,6.3-0.3c2.1,0,4.1-0.3,6-0.6c-1,0.3-2,0.5-3.1,0.8
	c-1.8,0.3-3.7,0.4-5.6,0.7l-2.8,0.3c-1,0.1-2,0-3,0.1l-5.9,0.1c-2,0-4-0.2-5.9-0.3l-3-0.2l-1.5-0.1l-1.4-0.2l-5.5-0.9
	c-0.9-0.1-1.8-0.3-2.6-0.6l-2.6-0.7l-2.6-0.6l-2.4-0.9c-6.5-2.3-12.5-5.6-20-10.5c-7.4-4.9-16.5-11.6-27.9-17.4
	c-2.9-1.4-5.9-2.7-9-4c-3-1.3-6.3-2.1-9.5-3.1c-3.2-1.1-6.4-1.6-9.7-2.2c-3.2-0.6-6.5-1.2-9.6-1.4c3.8,0.5,7.7,1.6,11.5,2.6
	c3.8,0.9,7.6,2.3,11.4,3.6c7.5,2.7,14.6,6.4,21,10.1c1.7,0.9,3,1.9,4.6,2.8l4.4,2.8l7.9,5.3l3.6,2.5c1.2,0.8,2.3,1.4,3.4,2.2
	c1.1,0.7,2.2,1.5,3.3,2.1l3.1,1.8c4.1,2.4,8.1,4.1,12.3,5.6c1,0.5,2.1,0.7,3.2,1l3.3,0.9c0.5,0.1,1.1,0.3,1.6,0.5l1.7,0.3l3.5,0.6
	c1.2,0.2,2.3,0.5,3.5,0.6l3.7,0.3c2.5,0.2,5,0.6,7.5,0.5c2.5,0,5,0.1,7.5,0.2c2.4-0.2,4.8-0.3,7.2-0.4l-6.6,0.8
	c-2.3,0.1-4.7,0.1-7,0.2l-3.5,0.1l-3.5-0.2c-2.3-0.2-4.7-0.2-6.9-0.4l-5-0.8l-2.5-0.3c-0.8-0.2-1.6-0.4-2.3-0.6l-4.7-1.2l-4.5-1.6
	c-6-2.3-11.5-5.2-18-9.5c-6.5-4.2-13.9-9.5-22.7-14.6l-6.8-3.7l-7.4-3.4c-2.4-1.2-5.1-2-7.6-2.9c-2.6-0.9-5.2-1.9-7.8-2.4
	c-2.9-0.7-5.8-1.4-8.7-2c-2.9-0.4-5.8-0.7-8.7-1l-4.3-0.4c-1.4-0.1-2.8,0-4.2,0l-8.4,0.1c14.9,0.3,31,2.9,46.1,8.9
	c3.7,1.5,7.4,3.2,10.9,5l5.1,2.8l2.5,1.4l2.3,1.4l4.6,2.9c1.5,1,2.8,1.9,4.3,2.8l7.9,5.3c1.3,0.9,2.5,1.6,3.7,2.4
	c1.2,0.7,2.4,1.6,3.6,2.3l3.4,1.9l1.7,1c0.6,0.3,1.1,0.5,1.7,0.8c2.2,1,4.5,2.3,6.8,3l3.4,1.3c1.2,0.4,2.4,0.6,3.6,1l3.6,1
	c1.2,0.3,2.5,0.4,3.8,0.7c2.6,0.4,5,1.1,7.8,1.2c2.7,0.2,5.4,0.5,8.1,0.7l8.1,0.1c-3.1,0.1-6.1,0.3-9.2,0.4l-9.2-0.4
	c-3-0.3-5.9-0.8-8.8-1.2c-2.8-0.6-5.6-1.3-8.3-2l-4-1.4l-2-0.7l-1.9-0.9l-3.9-1.8c-1.3-0.7-2.6-1.4-3.9-2.2l-2-1.1l-2-1.3l-4.1-2.6
	l-8.9-5.9c-1.6-1-3-2.1-4.8-3.1l-5.1-3.2c-1.6-1.1-3.7-2.1-5.5-3.1c-1.9-1-3.7-2.1-5.7-3c-4-1.8-8-3.7-12.2-5
	c-2.1-0.7-4.2-1.5-6.3-2.1l-6.4-1.5c-4.3-1.1-8.6-1.5-12.8-2.1c-4.3-0.7-8.4-0.6-12.6-0.8c-2.1,0-4.2-0.2-6.3-0.1l-6.3,0.3l-6.2,0.4
	c-2.1,0.2-4.2,0.6-6.4,0.9l0,0.7c5.4-0.9,10.6-0.9,15.9-1.1c1.3,0,2.6-0.1,3.9-0.1l3.9,0.2l7.9,0.4c1.3,0,2.6,0.2,4,0.4l4,0.6l4,0.6
	c1.3,0.2,2.7,0.4,4,0.8l8,1.9c2.7,0.6,5.3,1.7,7.9,2.6c10.5,3.8,20.2,9.2,28.5,14.6c8.3,5.4,15.2,10.4,21.9,14.1
	c0.8,0.5,1.7,1,2.5,1.4l2.5,1.2c1.7,0.8,3.3,1.7,5.1,2.3l5.2,2l5.4,1.5c1.8,0.6,3.7,0.8,5.6,1.2c1.9,0.3,3.8,0.7,5.7,1l6,0.5
	c1.5,0.1,3,0.3,4.4,0.3c-6.2,0.1-12.4-0.2-18.2-1.2c-1.6-0.1-3.2-0.6-4.7-0.9l-4.6-1.1l-4.4-1.5c-1.5-0.5-3-1-4.4-1.7l-4.3-1.9
	l-4.3-2.3c-1.4-0.7-2.9-1.6-4.4-2.6c-1.5-0.9-2.9-1.8-4.5-2.8c-6-3.9-12.8-8.6-20.2-12.9l-5.8-3.1c-1.9-1.1-4.1-1.9-6.1-2.9
	c-4-2-8.5-3.3-12.8-4.8c-2.2-0.7-4.4-1.1-6.6-1.7c-2.2-0.5-4.4-1.1-6.6-1.4l-6.6-0.9c-2.2-0.2-4.4-0.7-6.6-0.7
	c-4.3-0.1-8.7-0.4-13-0.3c-4.3,0.2-8.6,0.4-13,0.8c-4.4,0.7-8.8,1.2-13.1,2.1l-6.6,1.7c-1.1,0.3-2.2,0.5-3.3,0.9l-3.2,1.2l3.1-1
	c1-0.3,2.1-0.5,3.2-0.8l6.4-1.4c2.1-0.6,4.2-0.7,6.3-1l6.3-0.8c4.2-0.4,8.3-0.4,12.5-0.6c2.1-0.1,4.2,0,6.2,0.1l6.2,0.3
	c8.3,0.5,16.8,1.9,25.2,4.2c2.1,0.5,4.1,1.3,6.2,2c2,0.8,4.2,1.4,6.1,2.3c3.9,1.8,8,3.5,11.5,5.6c3.8,2,7.1,4.2,10.5,6.3l9.4,6.3
	c6.1,4.2,11.6,7.6,17.2,10.5l4.2,2c1.4,0.7,2.9,1.1,4.3,1.7c1.5,0.5,2.9,1.2,4.4,1.6l4.5,1.2c6.1,1.6,12.5,2.4,19.2,2.9
	c-3.6-0.2-7.3,0-10.7-0.6l-5.2-0.7c-1.7-0.2-3.4-0.7-5.1-1.1c-6.8-1.4-13.1-4-19.4-7.2c-6.3-3.1-12.5-7.5-19.4-12
	c-3.4-2.3-7.1-4.5-10.8-6.8c-4-2.1-7.8-4.4-12.1-6.2c-4.1-2-8.6-3.4-13-4.9c-2.2-0.8-4.5-1.1-6.7-1.7c-2.2-0.5-4.5-1.2-6.7-1.4
	l-6.7-0.9l-3.4-0.4c-1.1-0.1-2.2-0.1-3.3-0.2l-6.7-0.3c-2.2-0.1-4.4-0.2-6.7,0c-8.8,0.3-17.8,1.1-26.8,3.4c-2.2,0.6-4.5,1.1-6.7,1.7
	l-6.5,2.3c-2.2,0.7-4.3,1.7-6.3,2.7c-2,1-4.2,1.9-6.1,3c7.9-3.8,16.4-7.3,25.1-9c2.2-0.4,4.3-1.1,6.5-1.4l6.5-0.9
	c4.4-0.7,8.6-0.6,12.9-0.9c4.3-0.3,8.6,0.1,12.9,0.2c4.3,0,8.6,0.8,13,1.4l3.2,0.5l3.2,0.8l6.5,1.6c2.2,0.5,4.2,1.4,6.4,2.1
	c2.1,0.8,4.2,1.4,6.2,2.4l6,2.8c2,1,3.8,2.1,5.7,3.1c1.9,1,3.7,2.1,5.5,3.2c1.7,1.1,3.6,2.2,5.2,3.3c6.8,4.5,12.9,8.8,19.1,12.4
	c6.1,3.8,12.4,6.3,18.8,8.6l5,1.3c1.7,0.4,3.3,1,5.1,1.2l5.2,0.9c0.9,0.1,1.7,0.3,2.6,0.4l2.7,0.2l-2.9-0.1l-2.9-0.4l-5.7-0.7
	c-1.9-0.2-3.7-0.8-5.6-1.2c-1.8-0.4-3.7-0.7-5.5-1.4l-5.3-1.8c-1.8-0.7-3.5-1.5-5.2-2.3c-1.7-0.7-3.4-1.7-5.2-2.6
	c-1.7-0.9-3.4-1.8-5.1-2.9c-6.8-4-13.7-9-21.5-13.6l-2.9-1.8l-3.1-1.7c-2.1-1.1-4-2.3-6.2-3.2l-6.5-2.9c-2.2-0.8-4.5-1.6-6.7-2.3
	c-1.1-0.4-2.2-0.8-3.4-1.1l-3.4-0.8c-2.3-0.5-4.6-1.1-6.9-1.6l-6.9-0.9c-2.3-0.3-4.6-0.7-6.9-0.7c-9.2-0.5-18.3-0.4-27.5,0.8l-6.9,1
	c-2.3,0.5-4.6,1.1-6.9,1.6l-3.4,0.8c-1.1,0.3-2.2,0.7-3.4,1.1l-6.7,2.4c-8.7,3.7-16.8,8.4-24.1,13.2l0.2,0.4
	c7.3-4.6,15.2-9.2,23.7-12.6c2.1-0.8,4.4-1.5,6.5-2.3l3.3-1.1l3.3-0.8l6.7-1.5c2.2-0.4,4.5-0.6,6.7-0.9c2.2-0.2,4.5-0.7,6.7-0.7
	l6.7-0.3c4.5-0.3,8.9,0,13.4,0.2c4.4,0,9,0.9,13.4,1.5c2.2,0.2,4.5,0.9,6.7,1.4c2.2,0.6,4.5,1,6.6,1.7c8.8,2.7,17.2,6.6,24.8,11.1
	c7.6,4.5,14.5,9.4,21.3,13.7c1.7,1,3.4,2.2,5.1,3.1l5.1,2.8c1.7,0.9,3.5,1.6,5.2,2.4c0.9,0.4,1.7,0.8,2.6,1.1l2.7,0.9
	c7.1,2.7,14.7,3.9,22.3,4.9l-0.1,0.7l-6.3-0.8c-1.1-0.1-2.1-0.2-3.2-0.4l-3.1-0.7c-2-0.5-4.1-0.8-6.1-1.5l-6-2
	c-7.9-3-15.3-7.1-22.9-12c-7.6-4.8-15.3-10.3-24.1-14.7c-8.8-4.4-18.3-7.7-27.9-9.6c-2.4-0.5-4.8-0.7-7.3-1
	c-2.4-0.3-4.9-0.7-7.3-0.7l-7.2-0.3c-1.2,0-2.4-0.1-3.6-0.1l-3.6,0.2l-7.2,0.4c-2.4,0.1-4.8,0.6-7.2,0.9l-3.6,0.5l-1.8,0.3l-1.8,0.4
	l-7.2,1.8c-9.5,2.8-18.5,7-26.7,12c-8.2,5-15.5,10.5-23,15.2c7.4-4.3,14.6-9.6,22.6-14.3c8-4.7,16.7-8.8,25.8-11.5
	c2.3-0.6,4.6-1.1,6.9-1.7l3.5-0.8l3.5-0.5l7-0.9c2.3-0.2,4.7-0.2,7-0.4c2.3-0.1,4.7-0.2,7-0.2l7,0.3c4.7,0,9.3,0.8,14,1.4
	c9.3,1.6,18.6,4.2,27.1,8.4c8.6,4,16.4,9.1,23.8,14c7.4,5,14.6,9.5,22.3,12.8c1.9,0.9,3.8,1.8,5.8,2.4c2,0.7,3.9,1.4,5.9,2
	c4.1,0.9,8.1,2.1,12.3,2.5l-0.2,0.7l-3.4-0.4c-1.1-0.1-2.2-0.5-3.3-0.7c-2.2-0.5-4.4-0.9-6.6-1.5l-6.4-2.1c-2.2-0.7-4.2-1.8-6.3-2.6
	c-8.3-3.8-16.1-8.8-24.1-14c-8.1-5.2-16.6-10.4-25.9-14c-9.4-3.6-19.2-5.7-29.1-6.7c-2.5-0.3-4.9-0.2-7.4-0.4
	c-2.5,0-4.9-0.3-7.4-0.2l-7.4,0.4l-3.7,0.2l-3.7,0.5l-7.4,1l-7.3,1.8c-2.4,0.5-4.8,1.4-7.1,2.2c-2.4,0.8-4.7,1.6-6.9,2.7
	C82.1,54.6,73.8,60,66,65.4c-7.9,5.4-15.7,10.5-24.1,14.4c8.7-3.7,16.7-8.9,24.9-14.3c8.1-5.4,16.6-10.8,26-14.5
	c9.3-3.8,19.2-6.2,29.2-7.2c1.2-0.2,2.5-0.3,3.7-0.3l3.7-0.2c2.5-0.1,5-0.3,7.5-0.2l7.5,0.3l3.7,0.2l3.7,0.5l7.4,1l7.3,1.7
	c2.5,0.5,4.8,1.4,7.2,2.2l3.6,1.2c1.2,0.5,2.3,1,3.5,1.5c9.3,4,17.7,9.4,25.8,14.8c8.1,5.4,16.2,10.5,25,14c8.8,3.5,18,5.8,27.4,6.7
	l-0.1,0.7c-10.1-0.9-20-3.4-29.3-7.3c-9.4-3.9-18-9.5-26.7-15.2c-8.7-5.6-17.9-11-27.8-14.5c-2.5-0.8-5-1.7-7.5-2.4l-7.7-1.7
	c-2.6-0.5-5.2-0.7-7.8-1.1l-3.9-0.5l-3.9-0.1l-7.8-0.3c-2.6,0.1-5.2,0.2-7.8,0.4c-2.6,0.1-5.2,0.2-7.8,0.7l-7.8,1.1
	c-10.3,2.1-20.2,5.7-29.3,10.8c-9.2,5-17.5,11.2-26.3,16.6c-8.7,5.5-18.1,9.9-28.1,12.6l0.2,0.8c0.8-0.2,1.6-0.4,2.5-0.6l2.4-0.8
	l4.8-1.7c1.6-0.5,3.1-1.3,4.7-2c1.5-0.7,3.1-1.4,4.6-2.1c6-3.2,11.7-6.7,17.3-10.5l8.4-5.6c2.9-1.7,5.7-3.7,8.6-5.2l4.4-2.4
	c1.5-0.8,3.1-1.4,4.6-2.1c1.6-0.7,3-1.5,4.6-2l4.8-1.7c13-4.3,26.9-5.4,40.6-4.9c13.7,0.4,27.4,3.2,39.8,9c12.4,5.6,23.2,14,34.8,21
	c11.5,7.1,24.4,11.9,37.8,14c-10.8-1.4-21.4-4.5-31.1-9.4c-9.8-4.8-18.7-11.2-27.9-16.8c-9.2-5.6-19-10.2-29.4-12.8
	c-10.4-2.8-21.2-3.3-31.9-3.2l-8,0.4c-1.3,0-2.7,0.2-4,0.4l-4,0.6l-4,0.6l-3.9,0.9c-2.6,0.7-5.2,1.1-7.7,2.1
	C92,56,82.7,61.2,73.7,67.2c-9,5.9-18,12.3-28.1,17c-10.1,4.7-21,7.7-32,8.8l0,0.5c11.3-1.1,22.5-4.2,32.8-8.9
	C56.8,79.7,66,73.2,75.1,67.2c9.2-6,18.7-11.1,29-14.1c10.3-3,21.1-4.1,32-4.3c10.8,0.2,21.7,1.2,32,4.2c10.4,2.9,20,8.1,29.2,14
	c9.2,5.9,18.5,12.3,28.8,17c10.3,4.7,21.4,7.5,32.6,8.5l-0.1,0.7c-11.9-0.9-23.7-4-34.6-9.1c-10.9-5-20.6-12-30.3-17.9
	c-9.7-6-20-10.6-30.9-13c-2.7-0.6-5.4-1.3-8.2-1.5c-2.8-0.3-5.5-0.8-8.4-0.9l-8.5-0.3c-1.4-0.1-2.8,0-4.2,0.1l-4.2,0.2
	c-11.2,0.6-22.3,2.6-32.5,6.9c-10.3,4.2-19.5,10.5-29.3,17C58,81.2,47.3,87.5,35.5,91.3c-11.7,3.8-24,5.2-36,5.6v0.4
	c12.4-0.3,24.9-1.7,37-5.7c12.1-3.9,23-10.5,32.9-17.1l7.4-4.9c2.5-1.5,4.9-3.1,7.3-4.5c2.5-1.3,4.9-2.8,7.5-4l3.8-1.7l1.9-0.9
	c0.6-0.3,1.3-0.5,2-0.7c10.4-3.9,21.6-5.9,33.1-6.1c11.4-0.2,22.9,0.4,33.7,3.5c2.7,0.8,5.3,1.8,8,2.6c2.6,1,5.2,2.2,7.7,3.3
	c2.5,1.4,5,2.6,7.5,4.1c2.5,1.5,4.9,2.9,7.4,4.5c9.8,6.3,20.1,13.3,31.7,18c11.6,4.8,24,7,36.3,7.6l-0.1,0.6
	c-12.3-0.5-24.9-2.6-36.6-7.4c-11.7-4.7-22.1-11.7-31.9-17.9c-2.5-1.6-4.9-3-7.4-4.5c-2.5-1.4-5-2.6-7.5-4c-2.6-1.1-5.1-2.2-7.7-3.2
	c-2.6-0.8-5.2-1.8-7.9-2.5c-10.6-3-22.1-3.5-33.3-3.2c-11.3,0.2-22.3,2.3-32.5,6.2c-1.3,0.4-2.6,1-3.8,1.6l-3.7,1.7
	c-2.5,1.2-4.9,2.7-7.3,4c-2.4,1.5-4.8,3-7.2,4.5l-7.3,4.9c-9.9,6.7-21,13.5-33.3,17.5c-12.3,4.2-25.1,5.7-37.6,6v0.4
	c12.9-0.3,26.2-1.8,38.9-6.2c12.7-4.3,24.1-11.4,34.2-18.2c10.1-6.8,19.7-12.7,30.3-16.2c10.5-3.6,21.9-5,33.5-5.2
	c11.6,0.1,22.9,1.4,33.5,4.9c10.7,3.5,20.4,9.4,30.7,16.1c10.2,6.7,21.7,13.6,34.3,17.5c12.6,4.1,25.7,5.3,38.4,5.3l0,0.6
	c-12.8,0.1-26-1.1-38.7-5.1c-12.7-3.9-24.3-10.8-34.6-17.4c-10.3-6.7-20-12.4-30.5-15.8c-10.5-3.4-21.7-4.7-33.1-4.7
	c-11.4,0.3-22.6,1.7-32.9,5.3c-10.4,3.5-19.7,9.4-29.8,16.2c-5.1,3.4-10.4,7-16.2,10.3l-4.4,2.4c-1.5,0.8-3.1,1.4-4.6,2.2l-4.6,2.1
	l-4.8,1.7c-12.9,4.5-26.5,6.2-39.6,6.5v6.6H959h1.4H1920v-6.6c-13.1-0.3-26.7-2-39.6-6.5l-4.8-1.7L1871,92c-1.5-0.7-3.1-1.4-4.6-2.2
	l-4.4-2.4c-5.8-3.2-11.1-6.8-16.2-10.3c-10.1-6.9-19.4-12.7-29.8-16.2c-10.3-3.6-21.5-5-32.9-5.3c-11.4,0-22.7,1.2-33.1,4.7
	c-10.5,3.4-20.2,9.1-30.5,15.8c-10.3,6.6-21.8,13.5-34.6,17.4c-12.7,4-25.9,5.2-38.7,5.1l0-0.6c12.8,0,25.9-1.3,38.4-5.3
	c12.6-3.9,24.1-10.8,34.3-17.5c10.2-6.7,20-12.6,30.7-16.1c10.6-3.6,22-4.9,33.5-4.9c11.6,0.2,22.9,1.6,33.5,5.2
	c10.6,3.5,20.2,9.4,30.3,16.2c10.1,6.8,21.5,14,34.2,18.2c12.7,4.4,26,6,38.9,6.2v-0.4c-12.5-0.3-25.4-1.8-37.6-6
	c-12.3-4-23.4-10.8-33.3-17.5l-7.3-4.9c-2.4-1.5-4.8-3.1-7.2-4.5c-2.4-1.3-4.8-2.8-7.3-4l-3.7-1.7c-1.2-0.6-2.5-1.2-3.8-1.6
	c-10.2-3.9-21.2-6-32.5-6.2c-11.2-0.3-22.7,0.2-33.3,3.2c-2.7,0.8-5.3,1.7-7.9,2.5c-2.6,1-5.1,2.2-7.7,3.2c-2.5,1.3-5,2.6-7.5,4
	c-2.5,1.5-4.9,2.9-7.4,4.5c-9.8,6.2-20.2,13.2-31.9,17.9c-11.7,4.8-24.3,6.9-36.6,7.4l-0.1-0.6c12.2-0.6,24.7-2.8,36.3-7.6
	C1702.7,83.1,1712.9,76.1,1722.7,69.8z M914.8,58.1c-6.8,2.7-14.4,6.9-22.9,12.6c-8.5,5.6-18.1,12.7-30,18.1
	c-11.9,5.5-25.8,8.6-39.7,9.3c-1.8,0.1-3.5,0.2-5.3,0.3c-1.8,0.1-3.5,0-5.3,0c-1.8,0-3.6-0.1-5.3-0.1l-2.7-0.1
	c-0.9,0-1.8-0.2-2.7-0.3l-5.4-0.6c-1.8-0.2-3.6-0.4-5.4-0.8l-5.4-1.2l-2.7-0.6c-0.9-0.2-1.8-0.5-2.7-0.8c-3.5-1.1-7.1-2.2-10.5-3.7
	c-1.7-0.7-3.4-1.4-5.1-2.2l-4.8-2.5l-2.4-1.2l-2.3-1.3c-1.5-0.9-3-1.8-4.6-2.7c-2.9-1.8-5.7-3.6-8.6-5.3c-11-7-21.2-12.4-31.6-15.1
	c-9.5-2.6-19-3.2-27.7-3.3v0c-0.4,0-0.7,0-1.1,0c-0.4,0-0.7,0-1.1,0v0c-8.7,0.2-18.2,0.7-27.7,3.3c-10.4,2.7-20.5,8.1-31.6,15.1
	c-2.8,1.8-5.7,3.5-8.6,5.3c-1.5,0.9-3,1.8-4.6,2.7l-2.3,1.3l-2.4,1.2l-4.8,2.5c-1.7,0.8-3.4,1.5-5.1,2.2c-3.3,1.6-6.9,2.6-10.5,3.7
	c-0.9,0.3-1.8,0.6-2.7,0.8l-2.7,0.6l-5.4,1.2c-1.8,0.5-3.6,0.6-5.4,0.8l-5.4,0.6c-0.9,0.1-1.8,0.2-2.7,0.3l-2.7,0.1
	c-1.8,0-3.6,0.1-5.3,0.1c-1.8,0-3.5,0.1-5.3,0c-1.8-0.1-3.5-0.2-5.3-0.3c-14-0.8-27.8-3.8-39.7-9.3c-11.9-5.4-21.6-12.5-30-18.1
	c-8.4-5.7-16.1-9.9-22.9-12.6c-6.8-2.6-12.6-3.8-16.6-4.6l0.1-0.4c2.1,0.3,4.6,1,7.5,1.6c0.7,0.2,1.5,0.3,2.2,0.5
	c0.7,0.3,1.5,0.5,2.3,0.8c1.6,0.5,3.2,1.1,4.9,1.7c6.8,2.7,14.5,6.8,22.9,12.5c8.4,5.5,17.9,12.5,29.6,17.7
	c11.6,5.4,25.1,8.4,38.8,9.2c6.9,0.6,13.8,0.3,20.9,0c3.5-0.4,7.1-0.8,10.6-1.3c3.5-0.8,7.1-1.4,10.6-2.4c7-2.1,13.9-4.7,20.2-8.1
	c6.4-3.2,12.2-7,17.8-10.5c11.1-7.1,21.5-12.9,32.2-15.9c10.3-3,20.6-3.7,30.2-3.8c9.5,0.2,19.9,0.8,30.2,3.8
	c10.7,3,21.1,8.8,32.2,15.9c5.6,3.5,11.4,7.3,17.8,10.5c6.3,3.4,13.2,6,20.2,8.1c3.5,1,7.1,1.6,10.6,2.4c3.6,0.5,7.1,0.9,10.6,1.3
	c7.1,0.4,14,0.6,20.9,0c13.7-0.8,27.2-3.9,38.8-9.2c11.7-5.3,21.2-12.2,29.6-17.7c8.4-5.6,16.1-9.7,22.9-12.5
	c1.7-0.6,3.4-1.2,4.9-1.7c0.8-0.3,1.5-0.5,2.3-0.8c0.8-0.2,1.5-0.4,2.2-0.5c2.9-0.6,5.4-1.3,7.5-1.6l0.1,0.4
	C927.4,54.3,921.6,55.5,914.8,58.1z M924.9,52.6c-1.5,0.4-3.1,0.6-4.7,1.2c-1.6,0.6-3.3,1.2-5.1,1.8c-7,2.7-14.9,6.8-23.4,12.5
	c-8.5,5.6-17.9,12.6-29.4,18c-11.4,5.5-24.8,8.7-38.5,9.7c-1.7,0.1-3.4,0.2-5.2,0.3l-2.6,0.2l-2.6,0c-3.5-0.1-7-0.1-10.5-0.3
	c-3.5-0.4-7.1-0.8-10.6-1.2c-3.5-0.7-7.1-1.5-10.6-2.3l-5.2-1.6c-1.7-0.6-3.5-1-5.1-1.8c-3.3-1.4-6.7-2.7-9.8-4.4
	c-1.6-0.8-3.2-1.6-4.7-2.5l-4.5-2.6c-3-1.7-5.8-3.6-8.7-5.3c-11.2-7.1-21.7-13-32.6-16c-10.1-2.9-20.1-3.6-29.4-3.8v0
	c-0.4,0-0.7,0-1.1,0c-0.4,0-0.7,0-1.1,0v0c-9.3,0.2-19.4,0.9-29.4,3.8c-10.9,3-21.5,8.9-32.6,16c-2.9,1.8-5.7,3.6-8.7,5.3l-4.5,2.6
	c-1.5,0.9-3.2,1.6-4.7,2.5c-3.1,1.7-6.5,3-9.8,4.4c-1.6,0.8-3.4,1.2-5.1,1.8l-5.2,1.6c-3.5,0.8-7.1,1.6-10.6,2.3
	c-3.5,0.4-7.1,0.8-10.6,1.2c-3.5,0.2-7,0.2-10.5,0.3l-2.6,0l-2.6-0.2c-1.7-0.1-3.4-0.2-5.2-0.3c-13.7-0.9-27.1-4.2-38.5-9.7
	c-11.5-5.4-20.9-12.4-29.4-18c-8.4-5.7-16.4-9.8-23.4-12.5c-1.8-0.6-3.5-1.2-5.1-1.8c-1.6-0.6-3.2-0.8-4.7-1.2
	c-3-0.7-5.5-1.4-7.7-1.6l0-0.4c2.3,0.1,4.9,0.9,7.9,1.5c1.5,0.4,3.1,0.6,4.7,1.2c1.6,0.6,3.3,1.1,5.1,1.8c7.1,2.6,15,6.8,23.5,12.4
	c8.5,5.5,17.8,12.4,29.1,17.7c11.3,5.4,24.4,8.6,37.9,9.5c1.7,0.1,3.4,0.2,5.1,0.3c1.7,0.1,3.4,0.2,5.1,0.1
	c3.4-0.1,6.9-0.2,10.4-0.3c3.5-0.4,7-0.8,10.5-1.2c3.5-0.6,6.9-1.5,10.4-2.2c3.4-1.1,6.8-2.1,10.2-3.3c3.2-1.4,6.7-2.6,9.7-4.4
	l4.7-2.4l4.5-2.6c3-1.7,5.8-3.6,8.7-5.3c11.2-7.2,21.9-13.3,33.1-16.5c10.7-3.2,21.5-4,31.4-4.1c10,0.1,20.7,0.9,31.4,4.1
	c11.2,3.2,21.9,9.3,33.1,16.5c2.9,1.8,5.6,3.6,8.7,5.3l4.5,2.6l4.7,2.4c3.1,1.7,6.5,2.9,9.7,4.4c3.3,1.3,6.8,2.3,10.2,3.3
	c3.5,0.7,6.9,1.6,10.4,2.2c3.5,0.4,7,0.8,10.5,1.2c3.5,0.1,6.9,0.2,10.4,0.3c1.7,0.1,3.4,0,5.1-0.1c1.7-0.1,3.4-0.2,5.1-0.3
	c13.5-0.9,26.6-4.1,37.9-9.5c11.3-5.3,20.6-12.2,29.1-17.7c8.4-5.6,16.4-9.8,23.5-12.4c1.8-0.6,3.5-1.2,5.1-1.8
	c1.6-0.6,3.2-0.8,4.7-1.2c3-0.6,5.6-1.4,7.9-1.5l0,0.4C930.4,51.2,927.8,51.9,924.9,52.6z M680.6,52c-0.4,0-0.7,0-1.1,0v0
	c-9.5,0.1-19.8,0.9-30.1,3.8c-11.1,3.1-21.8,9-32.8,16c-5.6,3.4-11.2,7.1-17.3,10.2c-1.5,0.8-3,1.6-4.6,2.3l-4.8,2
	c-3.1,1.5-6.5,2.3-9.8,3.4c-13.3,3.9-27,4.5-40.1,3.8c-13.1-0.6-25.8-3.2-36.8-8c-11.1-4.7-20.2-11.2-28.5-16.7
	c-8.2-5.6-15.7-10.3-22.6-13.2c-6.8-3.1-12.7-4.7-17-5.6l0.1-0.4c1.1,0.2,2.3,0.5,3.6,0.8c0.6,0.2,1.3,0.3,2,0.5
	c0.7,0.2,1.4,0.5,2.1,0.7c2.9,1,6.2,1.9,9.5,3.6c1.7,0.8,3.5,1.5,5.3,2.5c1.8,1,3.6,2,5.6,3.1c3.7,2.3,7.7,4.8,11.8,7.6
	c8.2,5.5,17.3,11.8,28.2,16.4c10.8,4.7,23.3,7.2,36.2,7.9c12.8,0.7,26.4,0.1,39.4-3.7c6.5-2,12.9-4.4,18.9-7.5
	c1.5-0.8,3-1.5,4.5-2.4l4.3-2.5c2.9-1.7,5.6-3.5,8.4-5.2c11-7,21.9-13.2,33.2-16.5c10.9-3.3,21.9-4.1,32.2-4.2
	c10.2,0.1,21.2,0.9,32.2,4.2c11.4,3.3,22.2,9.5,33.2,16.5c2.8,1.7,5.5,3.5,8.4,5.2l4.3,2.5c1.5,0.8,3,1.6,4.5,2.4
	c6,3.2,12.4,5.6,18.9,7.5c13.1,3.8,26.6,4.3,39.4,3.7c12.9-0.6,25.3-3.2,36.2-7.9c10.9-4.6,20-10.9,28.2-16.4
	c4.1-2.8,8.1-5.3,11.8-7.6c1.9-1.1,3.8-2.1,5.6-3.1c1.8-1,3.6-1.7,5.3-2.5c3.4-1.7,6.7-2.6,9.5-3.6c0.7-0.2,1.4-0.5,2.1-0.7
	c0.7-0.2,1.4-0.3,2-0.5c1.3-0.3,2.5-0.6,3.6-0.8l0.1,0.4c-4.3,0.9-10.2,2.5-17,5.6c-6.9,2.9-14.4,7.6-22.6,13.2
	c-8.2,5.6-17.4,12-28.5,16.7c-11,4.8-23.7,7.4-36.8,8c-13,0.7-26.8,0-40.1-3.8c-3.3-1.1-6.6-1.9-9.8-3.4l-4.8-2
	c-1.6-0.7-3.1-1.5-4.6-2.3c-6.1-3.1-11.8-6.7-17.3-10.2c-11-7-21.7-12.9-32.8-16c-10.3-3-20.5-3.7-30.1-3.8v0
	C681.4,52,681,52,680.6,52z M680.6,49.5c-0.4,0-0.7,0-1.1,0v0c-9.6,0.1-19.8,0.8-30.1,3.6c-11.1,2.9-21.7,8.6-32.3,15.2
	c-5.3,3.3-10.6,6.6-16.2,9.8c-5.6,3-11.4,5.8-17.5,7.7c-12.1,4-24.7,5.5-36.8,5.3c-12.1-0.3-23.7-1.7-34.2-5.1
	c-10.5-3.2-19.3-8.4-27-13.4c-7.7-5.1-14.5-9.8-20.5-13.4c-3.1-1.7-5.8-3.3-8.4-4.5c-2.6-1.1-4.8-2.1-6.7-3l0.2-0.5
	c2,0.8,4.3,1.9,6.9,3c2.6,1.3,5.4,2.8,8.5,4.6c6.1,3.6,12.9,8.3,20.5,13.3c7.7,4.9,16.4,9.9,26.7,13c10.2,3.2,21.7,4.6,33.6,4.9
	c11.9,0.1,24.3-1.3,36.1-5.2c3-0.8,5.9-2.1,8.8-3.4l2.2-0.9l2.1-1.1l4.2-2.2c2.8-1.5,5.4-3.1,8.2-4.7c2.7-1.7,5.3-3.3,8-5
	c10.5-6.7,21.3-12.6,32.7-15.8c10.9-3.1,21.9-3.9,32.2-4c10.3,0.1,21.2,0.9,32.2,4c11.3,3.1,22.2,9.1,32.7,15.8c2.6,1.7,5.3,3.3,8,5
	c2.7,1.6,5.4,3.2,8.2,4.7l4.2,2.2l2.1,1.1l2.2,0.9c2.9,1.2,5.7,2.5,8.8,3.4c11.9,3.9,24.3,5.3,36.1,5.2c11.9-0.3,23.3-1.7,33.6-4.9
	c10.3-3.1,19-8.1,26.7-13c7.7-5,14.4-9.7,20.5-13.3c3.1-1.7,5.9-3.3,8.5-4.6c2.6-1.1,5-2.2,6.9-3l0.2,0.5c-1.9,0.8-4.1,1.8-6.7,3
	c-2.5,1.2-5.3,2.8-8.4,4.5c-6,3.6-12.8,8.4-20.5,13.4c-7.7,5-16.6,10.2-27,13.4c-10.4,3.3-22.1,4.8-34.2,5.1
	c-12.1,0.2-24.7-1.3-36.8-5.3c-6.1-1.9-11.8-4.7-17.5-7.7c-5.5-3.1-10.9-6.5-16.2-9.8c-10.5-6.6-21.2-12.3-32.3-15.2
	c-10.3-2.8-20.5-3.5-30.1-3.6v0C681.4,49.5,681,49.5,680.6,49.5z M905.8,51.6c-2.8,1.1-5.7,2.8-8.9,4.6c-6.3,3.6-13.3,8.5-20.9,13.6
	c-7.7,5.1-16.3,10.2-26.4,13.5c-10.1,3.4-21.5,5.1-33.4,5.5c-11.9,0.1-24.3-0.9-36.2-4.7c-11.9-3.7-22.9-10.2-33.5-17
	c-10.6-6.7-21.7-12.8-33.2-16c-10.7-3.1-21.5-3.9-31.6-4v0c-0.4,0-0.7,0-1.1,0c-0.4,0-0.7,0-1.1,0v0c-10.1,0.1-20.9,0.9-31.6,4
	c-11.5,3.2-22.6,9.3-33.2,16c-10.6,6.8-21.6,13.3-33.5,17c-11.9,3.8-24.3,4.8-36.2,4.7c-11.9-0.4-23.3-2.1-33.4-5.5
	c-10.1-3.4-18.8-8.5-26.4-13.5c-7.6-5.1-14.6-10-20.9-13.6c-3.2-1.8-6.1-3.4-8.9-4.6c-2.7-1.2-5.1-2.3-7.2-3l0.1-0.4
	c2.2,0.6,4.6,1.7,7.4,3c2.8,1.1,5.7,2.8,9,4.6c6.4,3.6,13.4,8.4,21,13.5c7.6,5,16.2,10,26.2,13.3c10,3.3,21.2,5,33,5.4
	c11.8,0.1,24-0.9,35.7-4.7c11.8-3.6,22.6-10,33.2-16.8c10.6-6.8,21.8-13,33.5-16.4c11.3-3.3,22.7-4.2,33.4-4.3
	c10.7,0.1,22,0.9,33.4,4.3c11.8,3.3,22.9,9.6,33.5,16.4c10.6,6.8,21.4,13.2,33.2,16.8c11.7,3.7,23.9,4.7,35.7,4.7
	c11.8-0.4,23-2,33-5.4c10-3.3,18.6-8.2,26.2-13.3c7.6-5.1,14.6-9.9,21-13.5c3.2-1.8,6.1-3.4,9-4.6c2.8-1.2,5.2-2.3,7.4-3l0.1,0.4
	C910.9,49.3,908.5,50.4,905.8,51.6z M680.6,24.5c-0.4,0-0.7,0-1.1,0v0c-12.8,0-26.6,1.2-40.3,5.3l-5.4,1.7c-1.8,0.6-3.5,1.4-5.2,2.1
	l-5.2,2.2l-4.9,2.5c-6.6,3.3-12.2,6.8-17.6,10.1c-10.5,6.5-18.6,10.9-26.9,13.4l-3.1,0.9c-1,0.3-2.2,0.4-3.2,0.6
	c-2.2,0.4-4.2,1-6.5,1c-2.3,0.2-4.4,0.5-6.7,0.6c-2.3,0-4.6,0-6.9,0c-2.3,0.1-4.5-0.2-6.8-0.3c-1.1-0.1-2.2-0.2-3.3-0.2
	c-1.1-0.1-2.2-0.1-3.2-0.4c-2-0.3-4-0.7-6-1c-2-0.4-3.7-1-5.5-1.5c-7.1-2.1-13-5.1-19.1-8.8c-6-3.8-12.6-8.6-19.2-13
	c-3.5-2.2-6.6-4.3-10-6.2c-1.7-0.9-3.2-1.8-4.8-2.7c-1.6-0.8-3.2-1.5-4.7-2.2l0.3-0.4c1.5,0.7,3.2,1.4,4.8,2.3
	c1.6,0.9,3.2,1.8,4.9,2.7c3.5,1.9,6.7,4,10.2,6.2c6.6,4.4,13.1,9,19.2,12.8c6,3.7,11.9,6.5,18.9,8.5c0.9,0.2,1.8,0.5,2.7,0.7
	c0.9,0.3,1.8,0.5,2.8,0.6c1.9,0.3,3.9,0.7,5.9,1c2,0.4,4.3,0.3,6.4,0.6c2.2,0.2,4.4,0.4,6.7,0.3c2.2,0,4.5,0,6.8,0
	c2.2-0.1,4.3-0.4,6.6-0.6c2.3-0.1,4.2-0.7,6.4-1.1c1-0.2,2.1-0.3,3.2-0.6l3-0.9c8.2-2.5,16.1-6.7,26.5-13.3
	c5.3-3.3,11-6.8,17.6-10.2l4.9-2.5l5.2-2.2c1.8-0.7,3.5-1.5,5.3-2.1l5.5-1.8c14.3-4.4,28.7-5.6,42-5.6c13.3-0.1,27.7,1.2,42,5.6
	l5.5,1.8c1.8,0.6,3.5,1.4,5.3,2.1l5.2,2.2l4.9,2.5c6.6,3.3,12.2,6.9,17.6,10.2c10.4,6.5,18.3,10.8,26.5,13.3l3,0.9
	c1,0.3,2.1,0.4,3.2,0.6c2.1,0.4,4.1,1,6.4,1.1c2.2,0.2,4.3,0.5,6.6,0.6c2.3,0,4.6,0,6.8,0c2.2,0.1,4.5-0.1,6.7-0.3
	c2.2-0.2,4.4-0.2,6.4-0.6c2-0.3,4-0.7,5.9-1c1-0.1,1.9-0.4,2.8-0.6c0.9-0.2,1.8-0.5,2.7-0.7c7-2,12.9-4.8,18.9-8.5
	c6-3.8,12.5-8.5,19.2-12.8c3.5-2.2,6.7-4.3,10.2-6.2c1.7-0.9,3.3-1.8,4.9-2.7c1.6-0.8,3.3-1.5,4.8-2.3l0.3,0.4
	c-1.5,0.7-3,1.4-4.7,2.2c-1.5,0.8-3.1,1.7-4.8,2.7c-3.4,1.9-6.6,3.9-10,6.2c-6.6,4.3-13.2,9.2-19.2,13c-6.1,3.8-12,6.7-19.1,8.8
	c-1.8,0.4-3.6,1.1-5.5,1.5c-2,0.3-4,0.7-6,1c-1,0.2-2.1,0.3-3.2,0.4c-1.1,0.1-2.2,0.2-3.3,0.2c-2.2,0.1-4.5,0.5-6.8,0.3
	c-2.3,0-4.6,0-6.9,0c-2.3-0.1-4.4-0.4-6.7-0.6c-2.3-0.1-4.3-0.7-6.5-1c-1.1-0.2-2.2-0.3-3.2-0.6l-3.1-0.9
	c-8.4-2.5-16.5-6.8-26.9-13.4c-5.4-3.2-11-6.8-17.6-10.1l-4.9-2.5l-5.2-2.2c-1.8-0.7-3.4-1.5-5.2-2.1l-5.4-1.7
	c-13.7-4.2-27.5-5.4-40.3-5.3v0C681.4,24.5,681,24.5,680.6,24.5z M468.1,33.2c1.6,0.8,3.1,1.7,4.7,2.6c1.6,0.9,3.4,1.8,5,2.9
	c1.6,1,3.3,2.1,5,3.1c6.6,4.3,13.3,9.1,19.5,12.9c6.3,3.8,12.5,6.9,19.8,9c1.9,0.4,3.7,1.1,5.7,1.5c2,0.3,4.1,0.7,6.2,1
	c0.5,0.1,1,0.2,1.6,0.3l1.7,0.1c1.1,0.1,2.2,0.2,3.4,0.2c2.3,0.1,4.6,0.5,6.9,0.3c2.3,0,4.7-0.1,7-0.1c2.3-0.1,4.5-0.5,6.8-0.6
	c2.4-0.1,4.5-0.7,6.7-1.1c1.1-0.2,2.2-0.4,3.3-0.7l3.2-1c8.6-2.6,16.9-7.1,27.3-13.7c5.3-3.3,10.9-6.8,17.4-10.1l4.8-2.5l5.1-2.2
	c1.7-0.7,3.4-1.5,5.2-2.1l5.3-1.7c13.9-4.3,28-5.5,41-5.5c13,0,27.1,1.2,41,5.5l5.3,1.7c1.8,0.6,3.4,1.4,5.2,2.1l5.1,2.2l4.8,2.5
	c6.5,3.3,12.1,6.8,17.4,10.1c10.4,6.6,18.7,11.1,27.3,13.7l3.2,1c1.1,0.3,2.2,0.4,3.3,0.7c2.2,0.4,4.3,1,6.7,1.1
	c2.3,0.2,4.5,0.6,6.8,0.6c2.4,0,4.7,0.1,7,0.1c2.3,0.1,4.6-0.2,6.9-0.3c1.1-0.1,2.3-0.2,3.4-0.2l1.7-0.1c0.5-0.1,1.1-0.2,1.6-0.3
	c2.1-0.3,4.1-0.7,6.2-1c2-0.4,3.8-1,5.7-1.5c7.3-2.1,13.5-5.2,19.8-9c6.2-3.8,12.8-8.7,19.5-12.9c1.7-1.1,3.4-2.1,5-3.1
	c1.6-1,3.4-1.9,5-2.9c1.6-0.9,3.2-1.8,4.7-2.6c1.6-0.7,3.2-1.4,4.6-2.1l0.3,0.4c-1.4,0.7-2.9,1.4-4.5,2.1c-1.5,0.8-3,1.7-4.7,2.5
	c-1.6,0.9-3.3,1.8-5,2.8c-1.6,1-3.2,2.1-4.9,3.1c-6.6,4.3-13.2,9.2-19.4,13.1c-6.3,3.9-12.6,7-20,9.3c-7.2,2.4-16.2,3.2-25.7,3.6
	c-2.4,0-4.7,0-7.1-0.1c-2.4-0.1-4.6-0.4-6.9-0.6c-2.4-0.1-4.5-0.7-6.8-1.1c-1.1-0.2-2.3-0.4-3.4-0.7l-3.3-1
	c-8.8-2.6-17.2-7.2-27.6-13.8c-5.3-3.3-10.9-6.8-17.4-10l-4.8-2.4l-5.1-2.1c-1.7-0.7-3.4-1.5-5.1-2l-5.3-1.7
	c-13.4-4.1-26.8-5.2-39.4-5.3v0c-0.4,0-0.7,0-1.1,0c-0.4,0-0.7,0-1.1,0v0c-12.6,0-26,1.2-39.4,5.3l-5.3,1.7c-1.8,0.6-3.4,1.4-5.1,2
	l-5.1,2.1l-4.8,2.4c-6.4,3.2-12,6.8-17.4,10C592,57.3,583.6,62,574.8,64.6l-3.3,1c-1.1,0.3-2.3,0.4-3.4,0.7c-2.3,0.4-4.4,1-6.8,1.1
	c-2.3,0.2-4.6,0.5-6.9,0.6c-2.4,0-4.8,0-7.1,0.1c-9.4-0.3-18.4-1.2-25.7-3.6c-7.4-2.2-13.7-5.4-20-9.3c-6.2-3.9-12.9-8.8-19.4-13.1
	c-1.7-1.1-3.3-2.1-4.9-3.1c-1.6-1-3.4-1.9-5-2.8c-1.6-0.9-3.1-1.8-4.7-2.5c-1.6-0.7-3.1-1.4-4.5-2.1l0.3-0.4
	C464.9,31.8,466.4,32.5,468.1,33.2z M680.6,29.9c-0.4,0-0.7,0-1.1,0v0c-11.8,0-24.2,1-36.8,4.6l-4.9,1.6c-1.7,0.5-3.3,1-4.9,1.7
	l-4.8,2l-2.4,1l-2.3,1.1c-3,1.5-6.1,3-8.8,4.7l-4.2,2.4l-3.9,2.4c-10.4,6.4-18.9,11.7-27.6,14.7c-8.6,3.1-17.6,4.3-26.8,4.6
	c-2.3,0-4.6,0.1-6.9,0.1c-2.3-0.2-4.5-0.3-6.7-0.5c-1.1-0.1-2.2-0.1-3.3-0.2c-1.1-0.1-2.1-0.3-3.1-0.5c-2-0.3-4-0.7-6-1
	c-7.6-1.8-14.1-4.4-20-7.5c-5.9-3.2-11.6-7.1-16.9-10.8c-2.9-1.9-5.4-3.7-8-5.3c-2.7-1.7-4.9-3.2-7.2-4.5l0.3-0.4
	c2.4,1.3,4.7,2.9,7.5,4.6c2.6,1.7,5.3,3.5,8.1,5.4c5.4,3.7,11.1,7.4,17,10.6c5.9,3,12.3,5.4,19.8,7.1c1.9,0.3,3.9,0.6,5.9,0.9
	c1,0.1,2,0.4,3.1,0.5c1.1,0.1,2.1,0.1,3.2,0.2c2.2,0.1,4.4,0.3,6.6,0.4c2.2,0,4.5-0.1,6.8-0.1c9.1-0.3,17.9-1.5,26.3-4.6
	c8.4-3,16.8-8.1,27.1-14.6l3.9-2.4l4.2-2.4c2.7-1.7,5.8-3.2,8.8-4.7c6.1-3.1,12.7-5.7,19.4-7.6c13.1-3.8,26.3-4.9,38.6-4.9
	c12.3,0,25.5,1,38.6,4.9c6.7,2,13.3,4.6,19.4,7.6c3,1.5,6.1,3.1,8.8,4.7l4.2,2.4l3.9,2.4c10.3,6.4,18.7,11.6,27.1,14.6
	c8.4,3.1,17.2,4.3,26.3,4.6c2.3,0,4.5,0.1,6.8,0.1c2.2-0.1,4.4-0.3,6.6-0.4c1.1-0.1,2.2-0.1,3.2-0.2c1.1-0.1,2-0.3,3.1-0.5
	c2-0.3,4-0.6,5.9-0.9c7.5-1.7,13.9-4.1,19.8-7.1c5.9-3.2,11.5-6.9,17-10.6c2.8-1.9,5.5-3.7,8.1-5.4c2.7-1.7,5.1-3.2,7.5-4.6l0.3,0.4
	c-2.3,1.3-4.5,2.8-7.2,4.5c-2.6,1.7-5.1,3.4-8,5.3c-5.3,3.6-11.1,7.6-16.9,10.8c-5.9,3.1-12.4,5.7-20,7.5c-2,0.3-4,0.7-6,1
	c-1,0.2-2,0.4-3.1,0.5c-1.1,0.1-2.2,0.1-3.3,0.2c-2.2,0.2-4.4,0.3-6.7,0.5c-2.3,0-4.6-0.1-6.9-0.1c-9.2-0.3-18.3-1.5-26.8-4.6
	c-8.6-3-17.2-8.3-27.6-14.7l-3.9-2.4l-4.2-2.4c-2.7-1.6-5.8-3.2-8.8-4.7l-2.3-1.1l-2.4-1l-4.8-2c-1.6-0.7-3.2-1.2-4.9-1.7l-4.9-1.6
	c-12.6-3.6-25.1-4.6-36.8-4.6v0C681.4,29.9,681,29.9,680.6,29.9z M465.4,38.6c1.4,0.7,2.8,1.5,4.4,2.3c1.5,0.8,3.2,1.7,4.7,2.6
	c1.5,1,3.1,1.9,4.8,3c6.4,4,13.1,8.9,19.6,12.9c6.6,4,13.4,7.4,21.4,9.7c7.8,2.5,17.3,3.3,27.2,3.5c2.5,0,5-0.1,7.5-0.1
	c2.5-0.1,4.9-0.5,7.3-0.7c2.5-0.1,4.8-0.8,7.2-1.2c1.2-0.3,2.4-0.4,3.6-0.8l3.5-1.1c9.4-2.9,18.2-7.9,28.7-14.6
	c2.7-1.7,5.2-3.3,8.2-5l4.3-2.5c1.4-0.8,3.1-1.6,4.6-2.4c1.6-0.8,3.1-1.6,4.6-2.3l4.9-2.1c3.2-1.5,6.6-2.5,10-3.6
	c13.2-4,26.5-5.1,38.8-5.1c12.4,0,25.6,1.1,38.8,5.1c3.4,1.1,6.8,2.1,10,3.6l4.9,2.1c1.6,0.7,3.1,1.6,4.6,2.3
	c1.5,0.8,3.1,1.6,4.6,2.4l4.3,2.5c3,1.7,5.5,3.3,8.2,5c10.5,6.7,19.3,11.7,28.7,14.6l3.5,1.1c1.2,0.4,2.4,0.5,3.6,0.8
	c2.4,0.5,4.7,1.1,7.2,1.2c2.5,0.2,4.9,0.6,7.3,0.7c2.5,0,5,0.1,7.5,0.1c9.9-0.2,19.3-1,27.2-3.5c8-2.3,14.8-5.7,21.4-9.7
	c6.5-4,13.2-8.9,19.6-12.9c1.6-1,3.2-2,4.8-3c1.6-0.9,3.2-1.8,4.7-2.6c1.5-0.8,3-1.6,4.4-2.3c1.5-0.7,2.9-1.3,4.2-1.9l0.2,0.3
	c-1.3,0.6-2.7,1.2-4.1,1.9c-1.4,0.7-2.8,1.5-4.3,2.3c-1.5,0.8-3.1,1.7-4.7,2.6c-1.5,1-3.1,1.9-4.7,3c-6.4,4.1-13,9-19.6,13
	c-6.6,4.1-13.5,7.6-21.6,10c-7.9,2.6-17.5,3.4-27.5,3.7c-2.5,0-5-0.1-7.5-0.1c-2.5-0.1-4.9-0.5-7.4-0.7c-2.5-0.1-4.9-0.8-7.3-1.2
	c-1.2-0.3-2.5-0.4-3.6-0.8l-3.5-1.1c-9.5-2.9-18.5-8-29-14.7c-2.7-1.7-5.3-3.3-8.2-5l-4.3-2.5c-1.5-0.8-3-1.6-4.5-2.4
	c-1.5-0.8-3-1.6-4.6-2.3l-4.8-2c-3.2-1.5-6.6-2.4-9.9-3.5c-12.6-3.8-25.3-4.9-37.2-4.9v0c-0.4,0-0.7,0-1.1,0c-0.4,0-0.7,0-1.1,0v0
	c-11.9,0.1-24.6,1.1-37.2,4.9c-3.3,1.1-6.7,2-9.9,3.5l-4.8,2c-1.6,0.7-3.1,1.5-4.6,2.3c-1.5,0.8-3.1,1.5-4.5,2.4l-4.3,2.5
	c-3,1.7-5.5,3.3-8.2,5c-10.5,6.6-19.5,11.7-29,14.7l-3.5,1.1c-1.2,0.4-2.4,0.5-3.6,0.8c-2.4,0.5-4.8,1.1-7.3,1.2
	c-2.5,0.2-4.9,0.6-7.4,0.7c-2.5,0-5.1,0.1-7.5,0.1c-10-0.3-19.5-1.1-27.5-3.7c-8-2.4-14.9-5.8-21.6-10c-6.5-4.1-13.2-9-19.6-13
	c-1.6-1-3.2-2-4.7-3c-1.6-0.9-3.2-1.8-4.7-2.6c-1.5-0.8-2.9-1.6-4.3-2.3c-1.4-0.7-2.8-1.3-4.1-1.9l0.2-0.3
	C462.6,37.3,464,38,465.4,38.6z M680.6,42.4c-0.4,0-0.7,0-1.1,0v0c-10.4,0.1-21.4,0.9-32.5,4c-2.9,1-5.9,1.7-8.8,2.9
	c-1.4,0.6-2.9,1.2-4.3,1.8c-1.4,0.6-2.9,1.2-4.2,1.9c-5.6,2.7-11,5.9-16.1,9.1c-10.4,6.4-20.2,12.7-30.8,16.4
	c-2.7,0.8-5.3,1.7-8,2.4c-2.7,0.6-5.4,1.1-8.1,1.7c-2.7,0.3-5.5,0.6-8.2,0.9c-1.3,0.2-2.7,0.2-4.1,0.2c-1.4,0-2.7,0-4.1,0.1
	c-5.4,0.3-10.7-0.4-15.8-0.6c-2.5-0.3-5-0.8-7.5-1.1c-1.2-0.2-2.5-0.3-3.6-0.6c-1.2-0.3-2.3-0.6-3.5-0.9
	c-9.2-2.3-17.2-5.9-24.2-10.1c-7.1-4.2-13.3-8.6-19-12.4c-2.8-1.9-5.6-3.5-8-5c-2.5-1.4-4.8-2.6-6.7-3.7l0.2-0.4
	c2,1.1,4.4,2.3,6.9,3.7c2.4,1.5,5.3,3.2,8.1,5.1c5.8,3.8,12,8.1,19,12.2c1.8,1,3.5,2,5.4,3c1.9,0.9,3.8,1.8,5.8,2.7
	c4,1.5,8.2,3.2,12.8,4.2c1.1,0.3,2.3,0.6,3.4,0.9c1.2,0.3,2.4,0.4,3.6,0.6c2.4,0.3,4.8,0.8,7.3,1.1c5.1,0.2,10.3,0.9,15.6,0.5
	c1.3,0,2.7-0.1,4-0.1c1.3,0,2.7,0,4-0.2c2.7-0.3,5.3-0.6,8-0.9c2.6-0.6,5.3-1.1,7.9-1.7c2.7-0.6,5.2-1.6,7.8-2.4
	c2.6-0.9,5.1-2.1,7.7-3.1c2.5-1.2,5-2.5,7.6-3.9c5-2.9,10-6,15.2-9.2l3.9-2.4l4-2.4c2.6-1.6,5.5-3,8.3-4.5l2.1-1.1L633,50l4.4-1.8
	c1.4-0.7,2.9-1.1,4.4-1.6c1.5-0.5,3-1,4.5-1.4c11.7-3.4,23.4-4.2,34.4-4.3c11,0.1,22.7,0.9,34.4,4.3c1.5,0.5,3,1,4.5,1.4
	c1.5,0.5,3,0.9,4.4,1.6l4.4,1.8l2.2,0.9l2.1,1.1c2.8,1.4,5.6,2.9,8.3,4.5l4,2.4l3.9,2.4c5.2,3.3,10.2,6.4,15.2,9.2
	c2.5,1.3,5,2.6,7.6,3.9c2.6,1,5.1,2.2,7.7,3.1c2.6,0.8,5.2,1.8,7.8,2.4c2.7,0.6,5.3,1.1,7.9,1.7c2.7,0.3,5.4,0.6,8,0.9
	c1.3,0.2,2.7,0.2,4,0.2c1.3,0,2.7,0.1,4,0.1c5.3,0.3,10.5-0.3,15.6-0.5c2.5-0.3,4.9-0.7,7.3-1.1c1.2-0.2,2.4-0.3,3.6-0.6
	c1.1-0.3,2.3-0.6,3.4-0.9c4.6-1,8.7-2.6,12.8-4.2c2-0.9,3.9-1.8,5.8-2.7c1.9-0.9,3.6-2,5.4-3c7-4.1,13.2-8.4,19-12.2
	c2.8-1.9,5.7-3.5,8.1-5.1c2.5-1.5,4.9-2.7,6.9-3.7l0.2,0.4c-1.9,1-4.2,2.2-6.7,3.7c-2.4,1.5-5.2,3.2-8,5c-5.7,3.8-11.9,8.2-19,12.4
	c-7,4.3-15,7.8-24.2,10.1c-1.1,0.3-2.3,0.6-3.5,0.9c-1.2,0.3-2.4,0.4-3.6,0.6c-2.5,0.4-4.9,0.8-7.5,1.1c-5.1,0.2-10.4,0.9-15.8,0.6
	c-1.4,0-2.7,0-4.1-0.1c-1.4,0-2.7,0-4.1-0.2c-2.7-0.3-5.4-0.6-8.2-0.9c-2.7-0.6-5.4-1.1-8.1-1.7c-2.7-0.7-5.3-1.6-8-2.4
	c-10.6-3.6-20.5-9.9-30.8-16.4c-5.1-3.2-10.6-6.4-16.1-9.1c-1.4-0.7-2.8-1.3-4.2-1.9c-1.4-0.6-2.9-1.2-4.3-1.8
	c-2.9-1.2-5.9-1.9-8.8-2.9c-11.1-3.1-22.1-3.9-32.5-4v0C681.4,42.3,681,42.4,680.6,42.4z M892.4,50.1c-2.6,1.5-5.3,3.3-8.3,5.2
	c-5.8,3.8-12.1,8.3-19.1,12.5c-6.9,4.2-14.6,7.7-23.6,10.1c-4.4,1.4-9.2,1.9-14.1,2.7c-2.5,0.2-5.1,0.3-7.7,0.5
	c-1.3,0.1-2.6,0.2-3.9,0.2c-1.3,0-2.6-0.1-3.9-0.1c-10.7,0.1-21.4-1.4-31.7-4.9c-1.3-0.3-2.6-0.9-3.8-1.4l-3.8-1.6
	c-2.5-1.1-5-2.5-7.5-3.7c-2.5-1.5-5-2.8-7.5-4.4l-7.7-4.8c-2.6-1.6-5.2-3.2-8-4.8c-2.7-1.6-5.5-3.1-8.4-4.5
	c-5.7-2.9-11.7-5.2-17.8-7c-11.5-3.3-22.9-4.2-33.7-4.3v0c-0.4,0-0.7,0-1.1,0c-0.4,0-0.7,0-1.1,0v0c-10.8,0.1-22.3,1-33.7,4.3
	c-6.1,1.8-12.1,4.1-17.8,7c-2.8,1.4-5.7,2.9-8.4,4.5c-2.8,1.6-5.4,3.2-8,4.8l-7.7,4.8c-2.5,1.6-5,2.9-7.5,4.4
	c-2.5,1.2-5,2.6-7.5,3.7L585,75c-1.3,0.5-2.5,1.1-3.8,1.4c-10.3,3.5-21,5-31.7,4.9c-1.3,0-2.6,0.1-3.9,0.1c-1.3-0.1-2.6-0.2-3.9-0.2
	c-2.6-0.2-5.1-0.3-7.7-0.5c-4.9-0.8-9.8-1.4-14.1-2.7c-8.9-2.4-16.7-5.9-23.6-10.1c-6.9-4.2-13.2-8.7-19.1-12.5
	c-3-1.9-5.7-3.7-8.3-5.2c-2.7-1.5-5-2.8-7.1-3.8l0.2-0.4c2.1,1.1,4.5,2.4,7.3,3.9c2.6,1.5,5.4,3.3,8.4,5.2
	c5.9,3.8,12.2,8.3,19.1,12.4c6.9,4.2,14.5,7.5,23.3,9.8c4.3,1.3,9.1,1.8,14,2.6c2.5,0.2,5,0.3,7.6,0.5c1.3,0.1,2.6,0.2,3.9,0.2
	c1.3,0,2.6-0.1,3.9-0.1c10.6,0.1,21.1-1.5,31.2-4.9c1.3-0.3,2.5-0.9,3.8-1.4l3.8-1.6c2.5-1.1,4.9-2.5,7.4-3.7
	c2.5-1.4,4.9-2.8,7.5-4.4l7.7-4.8c2.6-1.6,5.2-3.3,8-4.8c1.4-0.8,2.7-1.6,4.1-2.4l4.3-2.2c5.7-2.9,11.9-5.3,18-7.2
	c12-3.5,24.1-4.4,35.4-4.5c11.3,0.1,23.4,1,35.4,4.5c6.2,1.8,12.3,4.2,18,7.2l4.3,2.2c1.4,0.7,2.7,1.6,4.1,2.4
	c2.8,1.6,5.4,3.2,8,4.8l7.7,4.8c2.5,1.5,5,2.9,7.5,4.4c2.5,1.2,4.9,2.6,7.4,3.7l3.8,1.6c1.2,0.5,2.5,1.1,3.8,1.4
	c10.1,3.5,20.7,5,31.2,4.9c1.3,0,2.6,0.1,3.9,0.1c1.3-0.1,2.6-0.2,3.9-0.2c2.6-0.2,5.1-0.3,7.6-0.5c4.8-0.8,9.6-1.3,14-2.6
	c8.8-2.3,16.5-5.7,23.3-9.8c6.9-4.1,13.2-8.6,19.1-12.4c3-1.9,5.8-3.7,8.4-5.2c2.7-1.5,5.1-2.8,7.3-3.9l0.2,0.4
	C897.4,47.4,895.1,48.7,892.4,50.1z M680.6,35c-0.4,0-0.7,0-1.1,0v0c-11.3,0.1-23.3,1-35.3,4.4c-6.4,1.8-12.6,4.3-18.5,7.2
	c-2.9,1.5-5.9,3-8.6,4.6l-4.1,2.4l-3.9,2.4c-10.4,6.5-19.5,12.1-28.9,15.3c-2.4,0.7-4.8,1.5-7.1,2.2c-2.4,0.5-4.9,1-7.3,1.5
	c-5,0.5-9.8,1.3-14.8,1.1c-1.2,0-2.5,0-3.7,0.1c-1.2,0-2.4,0-3.7-0.1c-2.4-0.2-4.8-0.3-7.2-0.5l-1.8-0.1c-0.6-0.1-1.1-0.2-1.7-0.3
	c-1.1-0.2-2.2-0.4-3.3-0.5c-2.2-0.4-4.4-0.6-6.4-1.3c-8.4-1.8-15.3-5.1-21.8-8.7c-3.2-1.7-6.4-3.9-9.3-5.7c-3.1-2.1-6.1-4.1-8.8-5.9
	c-1.4-1-2.8-1.9-4.1-2.8c-1.4-0.9-2.8-1.7-4-2.5c-2.5-1.6-5-3-7.2-4.2l0.3-0.4c2.3,1.2,4.8,2.6,7.4,4.2c1.3,0.8,2.7,1.7,4.1,2.5
	c1.3,0.9,2.7,1.8,4.2,2.8c2.7,1.8,5.7,3.8,8.8,5.9c2.9,1.9,6.1,3.9,9.3,5.6c0.8,0.5,1.6,0.9,2.4,1.4c0.8,0.4,1.7,0.8,2.5,1.2
	c0.8,0.4,1.7,0.8,2.6,1.2l1.3,0.6l1.3,0.5c1.8,0.7,3.6,1.3,5.5,2c2,0.5,3.9,1,6,1.5c2,0.6,4.2,0.8,6.3,1.2c2.2,0.3,4.3,0.8,6.7,0.9
	c2.3,0.2,4.7,0.3,7.1,0.5c1.2,0.1,2.4,0.1,3.6,0.1c1.2,0,2.4,0,3.6-0.1c5,0.1,9.7-0.6,14.6-1.2c2.4-0.5,4.7-1,7.1-1.5
	c2.3-0.6,4.6-1.4,7-2.1c2.3-0.8,4.6-1.9,6.9-2.8c2.3-1.1,4.6-2.3,7-3.5c4.7-2.7,9.5-5.6,14.7-8.9l3.9-2.4l4.1-2.4
	c2.7-1.6,5.7-3.2,8.6-4.7c5.9-3,12.3-5.5,18.7-7.4c12.6-3.7,25.2-4.7,37-4.7c11.8,0,24.4,1,37,4.7c6.4,1.9,12.8,4.4,18.7,7.4
	c3,1.5,5.9,3,8.6,4.7l4.1,2.4l3.9,2.4c5.2,3.3,10,6.2,14.7,8.9c2.3,1.2,4.6,2.4,7,3.5c2.3,0.9,4.6,2,6.9,2.8c2.4,0.7,4.7,1.5,7,2.1
	c2.4,0.5,4.8,1,7.1,1.5c4.9,0.5,9.6,1.3,14.6,1.2c1.2,0,2.4,0,3.6,0.1c1.2,0,2.4,0.1,3.6-0.1c2.4-0.2,4.7-0.3,7.1-0.5
	c2.4,0,4.5-0.6,6.7-0.9c2.2-0.4,4.4-0.6,6.3-1.2c2-0.5,4-1,6-1.5c1.9-0.7,3.7-1.4,5.5-2l1.3-0.5l1.3-0.6c0.9-0.4,1.7-0.8,2.6-1.2
	c0.8-0.4,1.7-0.8,2.5-1.2c0.8-0.5,1.6-0.9,2.4-1.4c3.2-1.7,6.3-3.8,9.3-5.6c3.1-2.1,6.1-4.1,8.8-5.9c1.4-1,2.8-1.9,4.2-2.8
	c1.4-0.9,2.8-1.7,4.1-2.5c2.5-1.6,5.1-3,7.4-4.2l0.3,0.4c-2.2,1.2-4.7,2.5-7.2,4.2c-1.3,0.8-2.6,1.6-4,2.5c-1.3,0.9-2.7,1.8-4.1,2.8
	c-2.7,1.8-5.7,3.8-8.8,5.9c-2.9,1.9-6.1,4-9.3,5.7c-6.5,3.6-13.5,6.9-21.8,8.7c-2,0.6-4.2,0.9-6.4,1.3c-1.1,0.2-2.2,0.4-3.3,0.5
	c-0.6,0.1-1.1,0.2-1.7,0.3l-1.8,0.1c-2.4,0.2-4.8,0.3-7.2,0.5c-1.2,0.1-2.4,0.1-3.7,0.1c-1.2,0-2.5,0-3.7-0.1
	c-5,0.1-9.9-0.6-14.8-1.1c-2.4-0.5-4.8-1-7.3-1.5c-2.4-0.7-4.7-1.5-7.1-2.2c-9.5-3.2-18.6-8.9-28.9-15.3l-3.9-2.4l-4.1-2.4
	c-2.7-1.6-5.7-3.1-8.6-4.6c-5.9-2.9-12.2-5.4-18.5-7.2c-12-3.4-24-4.4-35.3-4.4v0C681.4,35,681,35,680.6,35z M469.7,47.1
	c2.8,1.5,5.6,3.4,8.7,5.3c6,3.9,12.4,8.4,19.1,12.5c6.8,4.1,14.1,7.4,22.7,9.7c1.1,0.3,2.1,0.6,3.2,0.8l1.6,0.4l1.7,0.3
	c2.3,0.4,4.6,0.7,7,1.1c2.4,0.3,4.9,0.3,7.4,0.5c1.3,0.1,2.5,0.2,3.8,0.2c1.3,0,2.5,0,3.8-0.1c10.4,0.2,20.6-1.4,30.4-4.6
	c4.9-1.6,9.7-3.9,14.6-6.4c2.4-1.3,4.9-2.8,7.4-4.3l7.6-4.8c2.6-1.6,5.2-3.3,8.1-4.9l4.2-2.4l4.4-2.3c5.9-3,12.2-5.5,18.5-7.4
	c12.4-3.7,24.9-4.7,36.6-4.7c11.7,0.1,24.2,1,36.6,4.7c6.4,1.9,12.7,4.4,18.5,7.4l4.4,2.3l4.2,2.4c2.8,1.6,5.4,3.3,8.1,4.9l7.6,4.8
	c2.5,1.5,4.9,2.9,7.4,4.3c4.9,2.6,9.7,4.8,14.6,6.4c9.8,3.2,20.1,4.8,30.4,4.6c1.3,0,2.6,0.1,3.8,0.1c1.3-0.1,2.5-0.2,3.8-0.2
	c2.5-0.2,5-0.3,7.4-0.5c2.4-0.4,4.7-0.7,7-1.1l1.7-0.3l1.6-0.4c1.1-0.3,2.2-0.6,3.2-0.8c8.5-2.3,15.9-5.6,22.7-9.7
	c6.8-4.1,13.2-8.6,19.1-12.5c3.1-1.9,5.9-3.8,8.7-5.3c2.8-1.5,5.3-3,7.6-4l0.2,0.4c-2.3,1-4.7,2.5-7.4,3.9c-2.8,1.5-5.5,3.4-8.6,5.3
	c-5.9,3.9-12.3,8.4-19.1,12.6c-6.8,4.1-14.2,7.6-22.9,10c-1.1,0.3-2.2,0.6-3.3,0.9l-1.7,0.4l-1.7,0.3c-2.3,0.4-4.7,0.8-7.1,1.1
	c-2.4,0.3-5,0.4-7.5,0.6c-1.3,0.1-2.5,0.2-3.8,0.3c-1.3,0-2.6,0-3.9,0c-10.5,0.2-20.9-1.3-30.9-4.6l-1.9-0.6l-1.8-0.8l-3.7-1.5
	c-2.5-1-4.9-2.4-7.4-3.6c-2.5-1.4-4.9-2.8-7.5-4.3l-7.7-4.7c-2.6-1.6-5.2-3.3-8.1-4.9c-1.4-0.8-2.7-1.6-4.2-2.4l-4.4-2.2
	c-5.8-3-12-5.4-18.3-7.2c-11.8-3.4-23.7-4.4-34.8-4.5v0c-0.4,0-0.7,0-1.1,0c-0.4,0-0.7,0-1.1,0v0c-11.1,0.1-23,1-34.8,4.5
	c-6.3,1.8-12.5,4.3-18.3,7.2l-4.4,2.2c-1.4,0.8-2.8,1.6-4.2,2.4c-2.8,1.6-5.4,3.2-8.1,4.9l-7.7,4.7c-2.5,1.5-5,2.9-7.5,4.3
	c-2.5,1.2-4.9,2.6-7.4,3.6l-3.7,1.5l-1.8,0.8l-1.9,0.6c-10,3.3-20.4,4.8-30.9,4.6c-1.3,0-2.6,0.1-3.9,0c-1.3-0.1-2.6-0.2-3.8-0.3
	c-2.5-0.2-5.1-0.3-7.5-0.6c-2.4-0.4-4.8-0.8-7.1-1.1l-1.7-0.3l-1.7-0.4c-1.1-0.3-2.2-0.6-3.3-0.9c-8.7-2.4-16.1-5.8-22.9-10
	c-6.8-4.2-13.2-8.7-19.1-12.6c-3.1-1.9-5.8-3.8-8.6-5.3c-2.8-1.5-5.2-2.9-7.4-3.9l0.2-0.4C464.5,44.2,466.9,45.6,469.7,47.1z
	 M468.7,55.2c6.3,3.7,13,8.5,20.5,13.3c7.4,4.7,15.7,9.3,25.3,12.3c9.6,3,20.4,4.3,31.7,4.6c11.4,0.1,23.1-1.1,34.2-4.7
	c11.2-3.5,21.6-9.7,32.2-16.5c2.7-1.7,5.3-3.3,8-4.9l4.1-2.4l4.2-2.2c5.6-2.9,11.5-5.3,17.5-7c11.6-3.4,23.2-4.3,34.2-4.4
	c10.9,0.1,22.6,1,34.2,4.4c6,1.8,11.9,4.1,17.5,7l4.2,2.2l4.1,2.4c2.8,1.6,5.4,3.3,8,4.9c10.5,6.8,20.9,12.9,32.2,16.5
	c11.2,3.6,22.9,4.8,34.2,4.7c11.4-0.3,22.2-1.7,31.7-4.6c9.6-3,17.8-7.5,25.3-12.3c7.4-4.8,14.2-9.6,20.5-13.3
	c3.1-1.9,6.2-3.4,8.8-4.9c2.8-1.2,5.3-2.3,7.4-3.3l0.2,0.4c-2.1,0.9-4.5,2-7.2,3.2c-2.6,1.4-5.6,3-8.7,4.8
	c-6.2,3.7-13,8.6-20.4,13.4c-7.5,4.8-15.8,9.6-25.5,12.6c-9.7,3.1-20.7,4.5-32.2,4.8c-11.5,0.1-23.4-1.1-34.8-4.8
	c-1.4-0.5-2.9-0.8-4.3-1.4l-4.2-1.7c-2.8-1.1-5.5-2.6-8.2-4c-2.7-1.4-5.3-3-8-4.6c-2.6-1.6-5.3-3.3-7.9-4.9c-2.7-1.7-5.3-3.3-8-4.9
	c-1.4-0.8-2.7-1.6-4.1-2.3l-4.2-2.1c-5.6-2.8-11.4-5.1-17.3-6.8c-11-3.2-22-4-32.3-4.1v0c-0.4,0-0.7,0-1.1,0c-0.4,0-0.7,0-1.1,0v0
	c-10.3,0.1-21.3,0.9-32.3,4.1c-5.8,1.7-11.7,3.9-17.3,6.8l-4.2,2.1c-1.4,0.7-2.7,1.6-4.1,2.3c-2.7,1.6-5.4,3.2-8,4.9
	c-2.6,1.6-5.3,3.3-7.9,4.9c-2.7,1.5-5.3,3.2-8,4.6c-2.7,1.3-5.4,2.9-8.2,4l-4.2,1.7c-1.4,0.6-2.8,0.9-4.3,1.4
	c-11.4,3.7-23.3,4.9-34.8,4.8c-11.5-0.3-22.5-1.7-32.2-4.8c-9.7-3-18.1-7.8-25.5-12.6c-7.5-4.8-14.2-9.7-20.4-13.4
	c-3.1-1.9-6.1-3.4-8.7-4.8c-2.8-1.2-5.2-2.3-7.2-3.2l0.2-0.4c2.1,0.9,4.6,2,7.4,3.3C462.5,51.8,465.5,53.4,468.7,55.2z M911.5,19.1
	c-1.1,0.4-2.2,0.8-3.3,1.1c-2.2,0.8-4.5,1.6-6.9,2.5c-2.4,0.9-4.6,2.1-7,3.2c-9.5,4.4-19.1,10.7-27,16.3c-8,5.6-14.6,10.2-21.4,13.3
	c-6.8,3.1-14.6,5.1-24.1,6c-1.2,0.1-2.4,0.2-3.6,0.3c-1.2,0.1-2.4,0.3-3.6,0.2c-2.4,0-4.9,0-7.3,0c-4.7-0.3-9.5-0.7-13.8-1.7
	c-4.4-0.9-8.7-2.3-13.1-4.1c-1.1-0.4-2.2-1.1-3.4-1.6c-1.2-0.6-2.2-1-3.5-1.7c-2.4-1.4-4.7-2.6-7.5-4.3l-8.4-5.1l-2.2-1.3l-2.4-1.4
	l-4.9-2.8c-1.7-0.9-3.5-1.8-5.3-2.7c-1.8-0.9-3.5-1.8-5.4-2.6c-3.8-1.5-7.5-3.3-11.5-4.4c-4-1.3-7.9-2.5-11.9-3.3
	c-4-0.8-8-1.7-11.9-2c-2-0.2-3.9-0.4-5.8-0.6l-2.9-0.3l-2.8-0.1c-3,0-6-0.1-9-0.1v0c-0.4,0-0.7,0-1.1,0c-0.4,0-0.7,0-1.1,0v0
	c-3,0-6,0.1-9,0.1l-2.8,0.1l-2.9,0.3c-1.9,0.2-3.9,0.4-5.8,0.6c-3.9,0.3-7.9,1.2-11.9,2c-4,0.7-7.9,2-11.9,3.3
	c-4,1.1-7.7,2.9-11.5,4.4c-2,0.8-3.6,1.7-5.4,2.6c-1.8,0.9-3.6,1.8-5.3,2.7l-4.9,2.8l-2.4,1.4l-2.2,1.3l-8.4,5.1
	c-2.7,1.7-5,2.9-7.5,4.3c-1.2,0.7-2.3,1.1-3.5,1.7c-1.1,0.5-2.3,1.2-3.4,1.6c-4.4,1.8-8.6,3.3-13.1,4.1c-4.4,1-9.1,1.4-13.8,1.7
	c-2.5,0-4.9,0-7.3,0c-1.2,0.1-2.4-0.1-3.6-0.2c-1.2-0.1-2.4-0.2-3.6-0.3c-9.5-0.9-17.3-2.8-24.1-6c-6.8-3.1-13.4-7.6-21.4-13.3
	c-7.9-5.6-17.5-11.9-27-16.3c-2.4-1.1-4.7-2.3-7-3.2c-2.4-0.9-4.7-1.7-6.9-2.5c-1.1-0.4-2.2-0.8-3.3-1.1c-1.1-0.3-2.1-0.6-3.2-0.8
	c-2.1-0.5-4.1-1-6-1.5l0.2-0.4c1.9,0.5,4,1,6.1,1.5c1.1,0.3,2.1,0.6,3.2,0.8c1.1,0.4,2.2,0.8,3.3,1.2c2.2,0.8,4.6,1.6,6.9,2.5
	c2.4,0.9,4.7,2.1,7.1,3.2c9.6,4.5,19.2,10.7,27.1,16.3c8,5.6,14.5,10,21.2,13c6.7,3,14.4,4.9,23.8,5.7c1.2,0.1,2.4,0.2,3.5,0.3
	c1.2,0.1,2.4,0.2,3.6,0.2c2.4,0,4.8,0,7.3,0c4.7-0.3,9.3-0.7,13.6-1.7c4.4-0.9,8.5-2.3,12.8-4.1c1.1-0.4,2.2-1.1,3.3-1.6
	c1.1-0.6,2.2-1,3.4-1.7c2.4-1.4,4.7-2.6,7.4-4.3l8.4-5.1l2.2-1.3l2.4-1.4l4.9-2.8c1.7-0.9,3.5-1.8,5.3-2.7c1.8-0.9,3.5-1.9,5.5-2.6
	l5.7-2.4c1-0.4,1.9-0.8,2.9-1.2l3-1c4-1.3,8-2.6,12-3.3c4-0.9,8.1-1.8,12-2.1l5.9-0.6l2.9-0.3l2.9-0.1c3.4-0.1,6.8-0.1,10.2-0.2
	c3.4,0.1,6.8,0.1,10.2,0.2l2.9,0.1l2.9,0.3l5.9,0.6c3.9,0.3,8,1.2,12,2.1c4,0.7,8,2.1,12,3.3l3,1c1,0.3,1.9,0.8,2.9,1.2l5.7,2.4
	c2,0.8,3.6,1.7,5.5,2.6c1.8,0.9,3.6,1.8,5.3,2.7l4.9,2.8l2.4,1.4l2.2,1.3l8.4,5.1c2.7,1.7,5,2.9,7.4,4.3c1.2,0.7,2.3,1.1,3.4,1.7
	c1.1,0.5,2.2,1.2,3.3,1.6c4.3,1.8,8.4,3.2,12.8,4.1c4.3,1,8.9,1.4,13.6,1.7c2.4,0,4.9,0,7.3,0c1.2,0.1,2.4-0.1,3.6-0.2
	c1.2-0.1,2.4-0.2,3.5-0.3c9.4-0.8,17.1-2.7,23.8-5.7c6.7-3,13.2-7.4,21.2-13c7.9-5.6,17.5-11.8,27.1-16.3c2.4-1.1,4.7-2.3,7.1-3.2
	c2.4-0.9,4.7-1.7,6.9-2.5c1.1-0.4,2.2-0.8,3.3-1.2c1.1-0.3,2.2-0.6,3.2-0.8c2.1-0.5,4.1-1,6.1-1.5l0.2,0.4c-1.9,0.5-3.9,1-6,1.5
	C913.6,18.5,912.6,18.8,911.5,19.1z M923.5,12c-2.2,0.5-4.6,1.1-7,1.8c-2.4,0.7-4.9,1.2-7.5,2.1c-2.5,0.9-5.2,1.9-7.9,2.9
	c-2.7,0.9-5.3,2.3-8,3.5c-1.3,0.6-2.7,1.3-4.1,2c-1.4,0.7-2.6,1.4-3.9,2.2c-5.3,2.9-10.2,6.2-14.8,9.3c-4,2.8-8.1,5.7-12.4,8.7
	c-3.7,2.5-7.1,4.7-10.5,6.4c-6.6,3.5-13.7,5.8-22.8,7c-2.4,0.2-4.7,0.4-7.1,0.6c-1.2,0.2-2.4,0.1-3.6,0.1c-1.2,0-2.4,0-3.7,0
	c-1.2,0-2.5,0.1-3.7,0l-3.4-0.3l-3.5-0.3c-1.2-0.1-2.2-0.4-3.3-0.6c-8.9-1.6-16.4-4.5-26.9-10.7l-8.5-5.1c-1.6-0.9-2.9-1.8-4.6-2.8
	l-5.1-2.9c-1.6-1-3.5-1.9-5.4-2.8l-5.6-2.8l-6-2.5c-2-0.8-4-1.7-6.1-2.3c-4.2-1.3-8.3-2.8-12.5-3.5c-4.2-0.8-8.4-1.9-12.4-2.2
	c-2-0.2-4.1-0.4-6.1-0.6l-3-0.3c-1-0.1-2,0-3-0.1c-3.2,0-6.3-0.1-9.5-0.1v0c-0.4,0-0.7,0-1.1,0c-0.4,0-0.7,0-1.1,0v0
	c-3.2,0-6.3,0.1-9.5,0.1c-1,0-2,0-3,0.1l-3,0.3c-2,0.2-4.1,0.4-6.1,0.6c-4.1,0.3-8.3,1.3-12.4,2.2c-4.2,0.7-8.3,2.3-12.5,3.5
	c-2.1,0.6-4.1,1.5-6.1,2.3l-6,2.5l-5.6,2.8c-1.9,0.9-3.8,1.9-5.4,2.8l-5.1,2.9c-1.7,1-3.1,1.8-4.6,2.8l-8.5,5.1
	c-10.5,6.2-18,9.1-26.9,10.7c-1.1,0.2-2.1,0.5-3.3,0.6l-3.5,0.3l-3.4,0.3c-1.2,0-2.5,0-3.7,0c-1.2,0-2.4,0-3.7,0
	c-1.2,0-2.4,0-3.6-0.1c-2.4-0.2-4.8-0.4-7.1-0.6c-9.1-1.3-16.2-3.6-22.8-7c-3.4-1.7-6.8-3.9-10.5-6.4c-4.3-3-8.4-5.9-12.4-8.7
	c-4.6-3.1-9.5-6.4-14.8-9.3c-1.3-0.7-2.5-1.5-3.9-2.2c-1.4-0.7-2.7-1.3-4.1-2c-2.7-1.2-5.3-2.6-8-3.5c-2.7-1-5.3-2-7.9-2.9
	c-2.6-0.9-5.1-1.4-7.5-2.1c-2.4-0.6-4.8-1.3-7-1.8c-2.2-0.4-4.4-0.7-6.4-1.1l0.2-0.4c2.1,0.3,4.3,0.7,6.6,1.1
	c2.3,0.6,4.7,1.2,7.2,1.8c1.2,0.3,2.5,0.7,3.8,1c0.6,0.2,1.3,0.3,1.9,0.5c0.6,0.2,1.3,0.5,1.9,0.7c2.6,0.9,5.3,1.9,8,2.9
	c2.8,1,5.3,2.4,8.1,3.6c1.4,0.7,2.7,1.3,4.1,2c1.3,0.7,2.6,1.4,3.9,2.2c2.6,1.5,5.3,3,7.6,4.6c2.4,1.5,5,3.2,7.1,4.7
	c2.1,1.5,4.3,3,6.5,4.5c1.9,1.3,4.1,2.9,5.8,4c1.8,1.2,3.7,2.5,5.3,3.4c1.7,1,3.4,2.1,5,2.8C521,53.6,528,55.7,537,57
	c2.3,0.2,4.7,0.4,7,0.6c1.2,0.2,2.4,0.1,3.6,0.1c1.2,0,2.4,0,3.6,0c1.2,0,2.4,0.1,3.6,0l3.4-0.3l3.4-0.3c1.1-0.1,2.1-0.4,3.2-0.6
	c8.7-1.6,16-4.4,26.3-10.6c2.8-1.7,5.6-3.4,8.4-5.1l4.6-2.8l5.1-2.9c1.6-1,3.5-1.9,5.4-2.9l5.6-2.8l6-2.5c2-0.8,4-1.7,6.1-2.3l6.3-2
	c1.1-0.3,2.1-0.7,3.2-0.9l3.2-0.7c4.2-0.8,8.5-1.9,12.6-2.3l6.2-0.7l3.1-0.3c1-0.1,2-0.1,3-0.1c3.6-0.1,7.2-0.1,10.8-0.2
	c3.6,0.1,7.2,0.1,10.8,0.2c1,0,2,0,3,0.1l3.1,0.3l6.2,0.7c4.1,0.3,8.4,1.4,12.6,2.3l3.2,0.7c1.1,0.3,2.1,0.6,3.2,0.9l6.3,2
	c2.1,0.6,4.1,1.5,6.1,2.3l6,2.5l5.6,2.8c1.9,0.9,3.8,1.9,5.4,2.9l5.1,2.9l4.6,2.8c2.8,1.7,5.6,3.4,8.4,5.1
	c10.3,6.2,17.6,9,26.3,10.6c1.1,0.2,2.1,0.5,3.2,0.6l3.4,0.3l3.4,0.3c1.2,0.1,2.4,0,3.6,0c1.2,0,2.4,0,3.6,0c1.2,0,2.4,0.1,3.6-0.1
	c2.4-0.2,4.7-0.4,7-0.6c9-1.2,15.9-3.4,22.5-6.7c1.6-0.7,3.3-1.8,5-2.8c1.6-0.9,3.5-2.2,5.3-3.4c1.7-1.1,3.9-2.7,5.8-4
	c2.2-1.5,4.3-3,6.5-4.5c2.1-1.5,4.7-3.1,7.1-4.7c2.3-1.6,5-3.1,7.6-4.6c1.3-0.7,2.6-1.5,3.9-2.2c1.4-0.7,2.8-1.3,4.1-2
	c2.8-1.2,5.3-2.6,8.1-3.6c2.7-1,5.4-2,8-2.9c0.7-0.2,1.3-0.5,1.9-0.7c0.6-0.2,1.3-0.3,1.9-0.5c1.3-0.3,2.5-0.7,3.8-1
	c2.5-0.6,4.9-1.2,7.2-1.8c2.3-0.4,4.5-0.7,6.6-1.1l0.2,0.4C927.8,11.3,925.7,11.7,923.5,12z M1473,58.1c-6.8,2.7-14.4,6.9-22.9,12.6
	c-8.5,5.6-18.1,12.7-30,18.1c-11.9,5.5-25.8,8.6-39.7,9.3c-1.8,0.1-3.5,0.2-5.3,0.3c-1.8,0.1-3.5,0-5.3,0c-1.8,0-3.6-0.1-5.3-0.1
	l-2.7-0.1c-0.9,0-1.8-0.2-2.7-0.3l-5.4-0.6c-1.8-0.2-3.6-0.4-5.4-0.8l-5.4-1.2l-2.7-0.6c-0.9-0.2-1.8-0.5-2.7-0.8
	c-3.5-1.1-7.1-2.2-10.5-3.7c-1.7-0.7-3.4-1.4-5.1-2.2l-4.8-2.5l-2.4-1.2l-2.3-1.3c-1.5-0.9-3-1.8-4.6-2.7c-2.9-1.8-5.7-3.6-8.6-5.3
	c-11-7-21.2-12.4-31.6-15.1c-9.5-2.6-19-3.2-27.7-3.3v0c-0.4,0-0.7,0-1.1,0c-0.4,0-0.7,0-1.1,0v0c-8.7,0.2-18.2,0.7-27.7,3.3
	c-10.4,2.7-20.5,8.1-31.6,15.1c-2.8,1.8-5.7,3.5-8.6,5.3c-1.5,0.9-3,1.8-4.6,2.7l-2.3,1.3l-2.4,1.2l-4.8,2.5
	c-1.7,0.8-3.4,1.5-5.1,2.2c-3.3,1.6-6.9,2.6-10.5,3.7c-0.9,0.3-1.8,0.6-2.7,0.8l-2.7,0.6l-5.4,1.2c-1.8,0.5-3.6,0.6-5.4,0.8
	l-5.4,0.6c-0.9,0.1-1.8,0.2-2.7,0.3l-2.7,0.1c-1.8,0-3.6,0.1-5.3,0.1c-1.8,0-3.5,0.1-5.3,0c-1.8-0.1-3.5-0.2-5.3-0.3
	c-14-0.8-27.8-3.8-39.7-9.3c-11.9-5.4-21.6-12.5-30-18.1c-8.4-5.7-16.1-9.9-22.9-12.6c-6.8-2.6-12.6-3.8-16.6-4.6l0.1-0.4
	c2.1,0.3,4.6,1,7.5,1.6c0.7,0.2,1.5,0.3,2.2,0.5c0.7,0.3,1.5,0.5,2.3,0.8c1.6,0.5,3.2,1.1,4.9,1.7c6.8,2.7,14.5,6.8,22.9,12.5
	c8.4,5.5,17.9,12.5,29.6,17.7c11.6,5.4,25.1,8.4,38.8,9.2c6.9,0.6,13.8,0.3,20.9,0c3.5-0.4,7.1-0.8,10.6-1.3
	c3.5-0.8,7.1-1.4,10.6-2.4c7-2.1,13.9-4.7,20.2-8.1c6.4-3.2,12.2-7,17.8-10.5c11.1-7.1,21.5-12.9,32.2-15.9
	c10.3-3,20.6-3.7,30.2-3.8c9.5,0.2,19.9,0.8,30.2,3.8c10.7,3,21.1,8.8,32.2,15.9c5.6,3.5,11.4,7.3,17.8,10.5
	c6.3,3.4,13.2,6,20.2,8.1c3.5,1,7.1,1.6,10.6,2.4c3.6,0.5,7.1,0.9,10.6,1.3c7.1,0.4,14,0.6,20.9,0c13.7-0.8,27.2-3.9,38.8-9.2
	c11.7-5.3,21.2-12.2,29.6-17.7c8.4-5.6,16.1-9.7,22.9-12.5c1.7-0.6,3.4-1.2,4.9-1.7c0.8-0.3,1.5-0.5,2.3-0.8
	c0.8-0.2,1.5-0.4,2.2-0.5c2.9-0.6,5.4-1.3,7.5-1.6l0.1,0.4C1485.6,54.3,1479.8,55.5,1473,58.1z M1483.1,52.6
	c-1.5,0.4-3.1,0.6-4.7,1.2c-1.6,0.6-3.3,1.2-5.1,1.8c-7,2.7-14.9,6.8-23.4,12.5c-8.5,5.6-17.9,12.6-29.4,18
	c-11.4,5.5-24.8,8.7-38.5,9.7c-1.7,0.1-3.4,0.2-5.2,0.3l-2.6,0.2l-2.6,0c-3.5-0.1-7-0.1-10.5-0.3c-3.5-0.4-7.1-0.8-10.6-1.2
	c-3.5-0.7-7.1-1.5-10.6-2.3l-5.2-1.6c-1.7-0.6-3.5-1-5.1-1.8c-3.3-1.4-6.7-2.7-9.8-4.4c-1.6-0.8-3.2-1.6-4.7-2.5l-4.5-2.6
	c-3-1.7-5.8-3.6-8.7-5.3c-11.2-7.1-21.7-13-32.6-16c-10.1-2.9-20.1-3.6-29.4-3.8v0c-0.4,0-0.7,0-1.1,0c-0.4,0-0.7,0-1.1,0v0
	c-9.3,0.2-19.4,0.9-29.4,3.8c-10.9,3-21.5,8.9-32.6,16c-2.9,1.8-5.7,3.6-8.7,5.3l-4.5,2.6c-1.5,0.9-3.2,1.6-4.7,2.5
	c-3.1,1.7-6.5,3-9.8,4.4c-1.6,0.8-3.4,1.2-5.1,1.8l-5.2,1.6c-3.5,0.8-7.1,1.6-10.6,2.3c-3.5,0.4-7.1,0.8-10.6,1.2
	c-3.5,0.2-7,0.2-10.5,0.3l-2.6,0l-2.6-0.2c-1.7-0.1-3.4-0.2-5.2-0.3c-13.7-0.9-27.1-4.2-38.5-9.7c-11.5-5.4-20.9-12.4-29.4-18
	c-8.4-5.7-16.4-9.8-23.4-12.5c-1.8-0.6-3.5-1.2-5.1-1.8c-1.6-0.6-3.2-0.8-4.7-1.2c-3-0.7-5.5-1.4-7.7-1.6l0-0.4
	c2.3,0.1,4.9,0.9,7.9,1.5c1.5,0.4,3.1,0.6,4.7,1.2c1.6,0.6,3.3,1.1,5.1,1.8c7.1,2.6,15,6.8,23.5,12.4c8.5,5.5,17.8,12.4,29.1,17.7
	c11.3,5.4,24.4,8.6,37.9,9.5c1.7,0.1,3.4,0.2,5.1,0.3c1.7,0.1,3.4,0.2,5.1,0.1c3.4-0.1,6.9-0.2,10.4-0.3c3.5-0.4,7-0.8,10.5-1.2
	c3.5-0.6,6.9-1.5,10.4-2.2c3.4-1.1,6.8-2.1,10.2-3.3c3.2-1.4,6.7-2.6,9.7-4.4l4.7-2.4l4.5-2.6c3-1.7,5.8-3.6,8.7-5.3
	c11.2-7.2,21.9-13.3,33.1-16.5c10.7-3.2,21.5-4,31.4-4.1c10,0.1,20.7,0.9,31.4,4.1c11.2,3.2,21.9,9.3,33.1,16.5
	c2.9,1.8,5.6,3.6,8.7,5.3l4.5,2.6l4.7,2.4c3.1,1.7,6.5,2.9,9.7,4.4c3.3,1.3,6.8,2.3,10.2,3.3c3.5,0.7,6.9,1.6,10.4,2.2
	c3.5,0.4,7,0.8,10.5,1.2c3.5,0.1,6.9,0.2,10.4,0.3c1.7,0.1,3.4,0,5.1-0.1c1.7-0.1,3.4-0.2,5.1-0.3c13.5-0.9,26.6-4.1,37.9-9.5
	c11.3-5.3,20.6-12.2,29.1-17.7c8.4-5.6,16.4-9.8,23.5-12.4c1.8-0.6,3.5-1.2,5.1-1.8c1.6-0.6,3.2-0.8,4.7-1.2c3-0.6,5.6-1.4,7.9-1.5
	l0,0.4C1488.6,51.2,1486,51.9,1483.1,52.6z M1238.9,52c-0.4,0-0.7,0-1.1,0v0c-9.5,0.1-19.8,0.9-30.1,3.8c-11.1,3.1-21.8,9-32.8,16
	c-5.6,3.4-11.2,7.1-17.3,10.2c-1.5,0.8-3,1.6-4.6,2.3l-4.8,2c-3.1,1.5-6.5,2.3-9.8,3.4c-13.3,3.9-27,4.5-40.1,3.8
	c-13.1-0.6-25.8-3.2-36.8-8c-11.1-4.7-20.2-11.2-28.5-16.7c-8.2-5.6-15.7-10.3-22.6-13.2c-6.8-3.1-12.7-4.7-17-5.6l0.1-0.4
	c1.1,0.2,2.3,0.5,3.6,0.8c0.6,0.2,1.3,0.3,2,0.5c0.7,0.2,1.4,0.5,2.1,0.7c2.9,1,6.2,1.9,9.5,3.6c1.7,0.8,3.5,1.5,5.3,2.5
	c1.8,1,3.6,2,5.6,3.1c3.7,2.3,7.7,4.8,11.8,7.6c8.2,5.5,17.3,11.8,28.2,16.4c10.8,4.7,23.3,7.2,36.2,7.9c12.8,0.7,26.4,0.1,39.4-3.7
	c6.5-2,12.9-4.4,18.9-7.5c1.5-0.8,3-1.5,4.5-2.4l4.3-2.5c2.9-1.7,5.6-3.5,8.4-5.2c11-7,21.8-13.2,33.2-16.5
	c10.9-3.3,21.9-4.1,32.2-4.2c10.2,0.1,21.2,0.9,32.2,4.2c11.4,3.3,22.2,9.5,33.2,16.5c2.8,1.7,5.5,3.5,8.4,5.2l4.3,2.5
	c1.5,0.8,3,1.6,4.5,2.4c6,3.2,12.4,5.6,18.9,7.5c13.1,3.8,26.6,4.3,39.4,3.7c12.9-0.6,25.3-3.2,36.2-7.9c10.9-4.6,20-10.9,28.2-16.4
	c4.1-2.8,8.1-5.3,11.8-7.6c1.9-1.1,3.8-2.1,5.6-3.1c1.8-1,3.6-1.7,5.3-2.5c3.4-1.7,6.7-2.6,9.5-3.6c0.7-0.2,1.4-0.5,2.1-0.7
	c0.7-0.2,1.4-0.3,2-0.5c1.3-0.3,2.5-0.6,3.6-0.8l0.1,0.4c-4.3,0.9-10.2,2.5-17,5.6c-6.9,2.9-14.4,7.6-22.6,13.2
	c-8.2,5.6-17.4,12-28.5,16.7c-11,4.8-23.7,7.4-36.8,8c-13,0.7-26.8,0-40.1-3.8c-3.3-1.1-6.7-1.9-9.8-3.4l-4.8-2
	c-1.6-0.7-3.1-1.5-4.6-2.3c-6.1-3.1-11.8-6.7-17.3-10.2c-11-7-21.7-12.9-32.8-16c-10.3-3-20.5-3.7-30.1-3.8v0
	C1239.6,52,1239.2,52,1238.9,52z M1238.9,49.5c-0.4,0-0.7,0-1.1,0v0c-9.6,0.1-19.8,0.8-30.1,3.6c-11.1,2.9-21.7,8.6-32.3,15.2
	c-5.3,3.3-10.6,6.6-16.2,9.8c-5.6,3-11.4,5.8-17.5,7.7c-12.1,4-24.7,5.5-36.8,5.3c-12.1-0.3-23.7-1.7-34.2-5.1
	c-10.5-3.2-19.3-8.4-27-13.4c-7.7-5.1-14.5-9.8-20.5-13.4c-3.1-1.7-5.8-3.3-8.4-4.5c-2.6-1.1-4.8-2.1-6.7-3l0.2-0.5
	c2,0.8,4.3,1.9,6.9,3c2.6,1.3,5.4,2.8,8.5,4.6c6.1,3.6,12.9,8.3,20.5,13.3c7.7,4.9,16.4,9.9,26.7,13c10.2,3.2,21.7,4.6,33.6,4.9
	c11.9,0.1,24.3-1.3,36.1-5.2c3-0.8,5.9-2.1,8.8-3.4l2.2-0.9l2.1-1.1l4.2-2.2c2.8-1.5,5.4-3.1,8.2-4.7c2.7-1.7,5.3-3.3,8-5
	c10.5-6.7,21.3-12.6,32.7-15.8c10.9-3.1,21.9-3.9,32.2-4c10.3,0.1,21.2,0.9,32.2,4c11.3,3.1,22.2,9.1,32.7,15.8c2.6,1.7,5.3,3.3,8,5
	c2.7,1.6,5.4,3.2,8.2,4.7l4.2,2.2l2.1,1.1l2.2,0.9c2.9,1.2,5.7,2.5,8.8,3.4c11.9,3.9,24.3,5.3,36.1,5.2c11.9-0.3,23.3-1.7,33.6-4.9
	c10.3-3.1,19-8.1,26.7-13c7.7-5,14.4-9.7,20.5-13.3c3.1-1.7,5.9-3.3,8.5-4.6c2.6-1.1,5-2.2,6.9-3l0.2,0.5c-1.9,0.8-4.1,1.8-6.7,3
	c-2.5,1.2-5.3,2.8-8.4,4.5c-6,3.6-12.8,8.4-20.5,13.4c-7.7,5-16.6,10.2-27,13.4c-10.4,3.3-22.1,4.8-34.2,5.1
	c-12.1,0.2-24.7-1.3-36.8-5.3c-6.1-1.9-11.8-4.7-17.5-7.7c-5.5-3.1-10.9-6.5-16.2-9.8c-10.5-6.6-21.2-12.3-32.3-15.2
	c-10.3-2.8-20.5-3.5-30.1-3.6v0C1239.6,49.5,1239.2,49.5,1238.9,49.5z M1464,51.6c-2.8,1.1-5.7,2.8-8.9,4.6
	c-6.3,3.6-13.3,8.5-20.9,13.6c-7.7,5.1-16.3,10.2-26.4,13.5c-10.1,3.4-21.5,5.1-33.4,5.5c-11.9,0.1-24.3-0.9-36.2-4.7
	c-11.9-3.7-22.9-10.2-33.5-17c-10.6-6.7-21.7-12.8-33.2-16c-10.7-3.1-21.5-3.9-31.6-4v0c-0.4,0-0.7,0-1.1,0c-0.4,0-0.7,0-1.1,0v0
	c-10.1,0.1-20.9,0.9-31.6,4c-11.5,3.2-22.6,9.3-33.2,16c-10.6,6.8-21.6,13.3-33.5,17c-11.9,3.8-24.3,4.8-36.2,4.7
	c-11.9-0.4-23.3-2.1-33.4-5.5c-10.1-3.4-18.8-8.5-26.4-13.5c-7.6-5.1-14.6-10-20.9-13.6c-3.2-1.8-6.1-3.4-8.9-4.6
	c-2.7-1.2-5.1-2.3-7.2-3l0.1-0.4c2.2,0.6,4.6,1.7,7.4,3c2.8,1.1,5.7,2.8,9,4.6c6.4,3.6,13.4,8.4,21,13.5c7.6,5,16.2,10,26.2,13.3
	c10,3.3,21.2,5,33,5.4c11.8,0.1,24-0.9,35.7-4.7c11.8-3.6,22.6-10,33.2-16.8c10.6-6.8,21.8-13,33.5-16.4c11.3-3.3,22.7-4.2,33.4-4.3
	c10.7,0.1,22,0.9,33.4,4.3c11.8,3.3,22.9,9.6,33.5,16.4c10.6,6.8,21.4,13.2,33.2,16.8c11.7,3.7,23.9,4.7,35.7,4.7
	c11.8-0.4,23-2,33-5.4c10-3.3,18.6-8.2,26.2-13.3c7.6-5.1,14.6-9.9,21-13.5c3.2-1.8,6.1-3.4,9-4.6c2.8-1.2,5.2-2.3,7.4-3l0.1,0.4
	C1469.1,49.3,1466.7,50.4,1464,51.6z M1238.9,24.5c-0.4,0-0.7,0-1.1,0v0c-12.8,0-26.6,1.2-40.3,5.3l-5.4,1.7
	c-1.8,0.6-3.5,1.4-5.2,2.1l-5.2,2.2l-4.9,2.5c-6.6,3.3-12.2,6.8-17.6,10.1c-10.5,6.5-18.6,10.9-26.9,13.4l-3.1,0.9
	c-1,0.3-2.2,0.4-3.2,0.6c-2.2,0.4-4.2,1-6.5,1c-2.3,0.2-4.4,0.5-6.7,0.6c-2.3,0-4.6,0-6.9,0c-2.3,0.1-4.5-0.2-6.8-0.3
	c-1.1-0.1-2.2-0.2-3.3-0.2c-1.1-0.1-2.2-0.1-3.2-0.4c-2-0.3-4-0.7-6-1c-2-0.4-3.7-1-5.5-1.5c-7.1-2.1-13-5.1-19.1-8.8
	c-6-3.8-12.6-8.6-19.2-13c-3.5-2.2-6.6-4.3-10-6.2c-1.7-0.9-3.2-1.8-4.8-2.7c-1.6-0.8-3.2-1.5-4.7-2.2l0.3-0.4
	c1.5,0.7,3.2,1.4,4.8,2.3c1.6,0.9,3.2,1.8,4.9,2.7c3.5,1.9,6.7,4,10.2,6.2c6.6,4.4,13.1,9,19.2,12.8c6,3.7,11.9,6.5,18.9,8.5
	c0.9,0.2,1.8,0.5,2.7,0.7c0.9,0.3,1.8,0.5,2.8,0.6c1.9,0.3,3.9,0.7,5.9,1c2,0.4,4.3,0.3,6.4,0.6c2.2,0.2,4.4,0.4,6.7,0.3
	c2.2,0,4.5,0,6.8,0c2.2-0.1,4.3-0.4,6.6-0.6c2.3-0.1,4.2-0.7,6.4-1.1c1-0.2,2.1-0.3,3.2-0.6l3-0.9c8.2-2.5,16.1-6.7,26.5-13.3
	c5.3-3.3,11-6.8,17.6-10.2l4.9-2.5l5.2-2.2c1.8-0.7,3.5-1.5,5.3-2.1l5.5-1.8c14.3-4.4,28.7-5.6,42-5.6c13.3-0.1,27.7,1.2,42,5.6
	l5.5,1.8c1.8,0.6,3.5,1.4,5.3,2.1l5.2,2.2l4.9,2.5c6.6,3.3,12.2,6.9,17.6,10.2c10.4,6.5,18.3,10.8,26.5,13.3l3,0.9
	c1,0.3,2.1,0.4,3.2,0.6c2.1,0.4,4.1,1,6.4,1.1c2.2,0.2,4.3,0.5,6.6,0.6c2.3,0,4.6,0,6.8,0c2.2,0.1,4.5-0.1,6.7-0.3
	c2.2-0.2,4.4-0.2,6.4-0.6c2-0.3,4-0.7,5.9-1c1-0.1,1.9-0.4,2.8-0.6c0.9-0.2,1.8-0.5,2.7-0.7c7-2,12.9-4.8,18.9-8.5
	c6-3.8,12.5-8.5,19.2-12.8c3.5-2.2,6.7-4.3,10.2-6.2c1.7-0.9,3.3-1.8,4.9-2.7c1.6-0.8,3.3-1.5,4.8-2.3l0.3,0.4
	c-1.5,0.7-3,1.4-4.7,2.2c-1.5,0.8-3.1,1.7-4.8,2.7c-3.4,1.9-6.6,3.9-10,6.2c-6.6,4.3-13.2,9.2-19.2,13c-6.1,3.8-12,6.7-19.1,8.8
	c-1.8,0.4-3.6,1.1-5.5,1.5c-2,0.3-4,0.7-6,1c-1,0.2-2.1,0.3-3.2,0.4c-1.1,0.1-2.2,0.2-3.3,0.2c-2.2,0.1-4.5,0.5-6.8,0.3
	c-2.3,0-4.6,0-6.9,0c-2.3-0.1-4.4-0.4-6.7-0.6c-2.3-0.1-4.3-0.7-6.5-1c-1.1-0.2-2.2-0.3-3.2-0.6l-3.1-0.9
	c-8.4-2.5-16.5-6.8-26.9-13.4c-5.4-3.2-11-6.8-17.6-10.1l-4.9-2.5l-5.2-2.2c-1.8-0.7-3.4-1.5-5.2-2.1l-5.4-1.7
	c-13.7-4.2-27.5-5.4-40.3-5.3v0C1239.6,24.5,1239.2,24.5,1238.9,24.5z M1026.3,33.2c1.6,0.8,3.1,1.7,4.7,2.6c1.6,0.9,3.4,1.8,5,2.9
	c1.6,1,3.3,2.1,5,3.1c6.6,4.3,13.3,9.1,19.5,12.9c6.3,3.8,12.5,6.9,19.8,9c1.9,0.4,3.7,1.1,5.7,1.5c2,0.3,4.1,0.7,6.2,1
	c0.5,0.1,1,0.2,1.6,0.3l1.7,0.1c1.1,0.1,2.2,0.2,3.4,0.2c2.3,0.1,4.6,0.5,6.9,0.3c2.3,0,4.7-0.1,7-0.1c2.3-0.1,4.5-0.5,6.8-0.6
	c2.4-0.1,4.5-0.7,6.7-1.1c1.1-0.2,2.2-0.4,3.3-0.7l3.2-1c8.6-2.6,16.9-7.1,27.3-13.7c5.3-3.3,10.9-6.8,17.4-10.1l4.8-2.5l5.1-2.2
	c1.7-0.7,3.4-1.5,5.2-2.1l5.3-1.7c13.9-4.3,28-5.5,41-5.5c13,0,27.1,1.2,41,5.5l5.3,1.7c1.8,0.6,3.4,1.4,5.2,2.1l5.1,2.2l4.8,2.5
	c6.5,3.3,12.1,6.8,17.4,10.1c10.4,6.6,18.7,11.1,27.3,13.7l3.2,1c1.1,0.3,2.2,0.4,3.3,0.7c2.2,0.4,4.3,1,6.7,1.1
	c2.3,0.2,4.5,0.6,6.8,0.6c2.4,0,4.7,0.1,7,0.1c2.3,0.1,4.6-0.2,6.9-0.3c1.1-0.1,2.3-0.2,3.4-0.2l1.7-0.1c0.5-0.1,1.1-0.2,1.6-0.3
	c2.1-0.3,4.1-0.7,6.2-1c2-0.4,3.8-1,5.7-1.5c7.3-2.1,13.5-5.2,19.8-9c6.2-3.8,12.8-8.7,19.5-12.9c1.7-1.1,3.4-2.1,5-3.1
	c1.6-1,3.4-1.9,5-2.9c1.6-0.9,3.2-1.8,4.7-2.6c1.6-0.7,3.2-1.4,4.6-2.1l0.3,0.4c-1.4,0.7-2.9,1.4-4.5,2.1c-1.5,0.8-3,1.7-4.7,2.5
	c-1.6,0.9-3.3,1.8-5,2.8c-1.6,1-3.2,2.1-4.9,3.1c-6.6,4.3-13.2,9.2-19.4,13.1c-6.3,3.9-12.6,7-20,9.3c-7.2,2.4-16.2,3.2-25.7,3.6
	c-2.4,0-4.7,0-7.1-0.1c-2.4-0.1-4.6-0.4-6.9-0.6c-2.4-0.1-4.5-0.7-6.8-1.1c-1.1-0.2-2.3-0.4-3.4-0.7l-3.3-1
	c-8.8-2.6-17.2-7.2-27.6-13.8c-5.3-3.3-10.9-6.8-17.4-10l-4.8-2.4l-5.1-2.1c-1.7-0.7-3.4-1.5-5.1-2l-5.3-1.7
	c-13.4-4.1-26.8-5.2-39.4-5.3v0c-0.4,0-0.7,0-1.1,0c-0.4,0-0.7,0-1.1,0v0c-12.6,0-26,1.2-39.4,5.3l-5.3,1.7c-1.8,0.6-3.4,1.4-5.1,2
	l-5.1,2.1l-4.8,2.4c-6.4,3.2-12,6.8-17.4,10c-10.5,6.6-18.9,11.2-27.6,13.8l-3.3,1c-1.1,0.3-2.3,0.4-3.4,0.7c-2.3,0.4-4.4,1-6.8,1.1
	c-2.3,0.2-4.6,0.5-6.9,0.6c-2.4,0-4.8,0-7.1,0.1c-9.4-0.3-18.4-1.2-25.7-3.6c-7.4-2.2-13.7-5.4-20-9.3c-6.2-3.9-12.9-8.8-19.4-13.1
	c-1.7-1.1-3.3-2.1-4.9-3.1c-1.6-1-3.4-1.9-5-2.8c-1.6-0.9-3.1-1.8-4.7-2.5c-1.6-0.7-3.1-1.4-4.5-2.1l0.3-0.4
	C1023.1,31.8,1024.7,32.5,1026.3,33.2z M1238.9,29.9c-0.4,0-0.7,0-1.1,0v0c-11.8,0-24.2,1-36.8,4.6L1196,36c-1.7,0.5-3.3,1-4.9,1.7
	l-4.8,2l-2.4,1l-2.3,1.1c-3,1.5-6.1,3-8.8,4.7l-4.2,2.4l-3.9,2.4c-10.4,6.4-18.9,11.7-27.6,14.7c-8.6,3.1-17.6,4.3-26.8,4.6
	c-2.3,0-4.6,0.1-6.9,0.1c-2.3-0.2-4.5-0.3-6.7-0.5c-1.1-0.1-2.2-0.1-3.3-0.2c-1.1-0.1-2.1-0.3-3.1-0.5c-2-0.3-4-0.7-6-1
	c-7.6-1.8-14.1-4.4-20-7.5c-5.9-3.2-11.6-7.1-16.9-10.8c-2.9-1.9-5.4-3.7-8-5.3c-2.7-1.7-4.9-3.2-7.2-4.5l0.3-0.4
	c2.4,1.3,4.7,2.9,7.5,4.6c2.6,1.7,5.3,3.5,8.1,5.4c5.4,3.7,11.1,7.4,17,10.6c5.9,3,12.3,5.4,19.8,7.1c1.9,0.3,3.9,0.6,5.9,0.9
	c1,0.1,2,0.4,3.1,0.5c1.1,0.1,2.1,0.1,3.2,0.2c2.2,0.1,4.4,0.3,6.6,0.4c2.2,0,4.5-0.1,6.8-0.1c9.1-0.3,17.9-1.5,26.3-4.6
	c8.4-3,16.8-8.1,27.1-14.6l3.9-2.4l4.2-2.4c2.7-1.7,5.8-3.2,8.8-4.7c6.1-3.1,12.7-5.7,19.4-7.6c13.1-3.8,26.3-4.9,38.6-4.9
	c12.3,0,25.5,1,38.6,4.9c6.7,2,13.3,4.6,19.4,7.6c3,1.5,6.1,3.1,8.8,4.7l4.2,2.4l3.9,2.4c10.3,6.4,18.7,11.6,27.1,14.6
	c8.4,3.1,17.2,4.3,26.3,4.6c2.3,0,4.5,0.1,6.8,0.1c2.2-0.1,4.4-0.3,6.6-0.4c1.1-0.1,2.2-0.1,3.2-0.2c1.1-0.1,2-0.3,3.1-0.5
	c2-0.3,4-0.6,5.9-0.9c7.5-1.7,13.9-4.1,19.8-7.1c5.9-3.2,11.5-6.9,17-10.6c2.8-1.9,5.5-3.7,8.1-5.4c2.7-1.7,5.1-3.2,7.5-4.6l0.3,0.4
	c-2.3,1.3-4.5,2.8-7.2,4.5c-2.6,1.7-5.1,3.4-8,5.3c-5.3,3.6-11.1,7.6-16.9,10.8c-5.9,3.1-12.4,5.7-20,7.5c-2,0.3-4,0.7-6,1
	c-1,0.2-2,0.4-3.1,0.5c-1.1,0.1-2.2,0.1-3.3,0.2c-2.2,0.2-4.4,0.3-6.7,0.5c-2.3,0-4.6-0.1-6.9-0.1c-9.2-0.3-18.3-1.5-26.8-4.6
	c-8.6-3-17.2-8.3-27.6-14.7L1309,49l-4.2-2.4c-2.7-1.6-5.8-3.2-8.8-4.7l-2.3-1.1l-2.4-1l-4.8-2c-1.6-0.7-3.2-1.2-4.9-1.7l-4.9-1.6
	c-12.6-3.6-25.1-4.6-36.8-4.6v0C1239.6,29.9,1239.2,29.9,1238.9,29.9z M1023.7,38.6c1.4,0.7,2.8,1.5,4.4,2.3
	c1.5,0.8,3.2,1.7,4.7,2.6c1.5,1,3.1,1.9,4.8,3c6.4,4,13.1,8.9,19.6,12.9c6.6,4,13.4,7.4,21.4,9.7c7.8,2.5,17.3,3.3,27.2,3.5
	c2.5,0,5-0.1,7.5-0.1c2.5-0.1,4.9-0.5,7.3-0.7c2.5-0.1,4.8-0.8,7.2-1.2c1.2-0.3,2.4-0.4,3.6-0.8l3.5-1.1c9.4-2.9,18.2-7.9,28.7-14.6
	c2.7-1.7,5.2-3.3,8.2-5l4.3-2.5c1.4-0.8,3.1-1.6,4.6-2.4c1.6-0.8,3.1-1.6,4.6-2.3l4.9-2.1c3.2-1.5,6.6-2.5,10-3.6
	c13.2-4,26.5-5.1,38.8-5.1c12.4,0,25.6,1.1,38.8,5.1c3.4,1.1,6.8,2.1,10,3.6l4.9,2.1c1.6,0.7,3.1,1.6,4.6,2.3
	c1.5,0.8,3.1,1.6,4.6,2.4l4.3,2.5c3,1.7,5.5,3.3,8.2,5c10.5,6.7,19.3,11.7,28.7,14.6l3.5,1.1c1.2,0.4,2.4,0.5,3.6,0.8
	c2.4,0.5,4.7,1.1,7.2,1.2c2.5,0.2,4.9,0.6,7.3,0.7c2.5,0,5,0.1,7.5,0.1c9.9-0.2,19.3-1,27.2-3.5c8-2.3,14.8-5.7,21.4-9.7
	c6.5-4,13.2-8.9,19.6-12.9c1.6-1,3.2-2,4.8-3c1.6-0.9,3.2-1.8,4.7-2.6c1.5-0.8,3-1.6,4.4-2.3c1.5-0.7,2.9-1.3,4.2-1.9l0.2,0.3
	c-1.3,0.6-2.7,1.2-4.1,1.9c-1.4,0.7-2.8,1.5-4.3,2.3c-1.5,0.8-3.1,1.7-4.7,2.6c-1.5,1-3.1,1.9-4.7,3c-6.4,4.1-13,9-19.6,13
	c-6.6,4.1-13.5,7.6-21.6,10c-7.9,2.6-17.5,3.4-27.5,3.7c-2.5,0-5-0.1-7.5-0.1c-2.5-0.1-4.9-0.5-7.4-0.7c-2.5-0.1-4.9-0.8-7.3-1.2
	c-1.2-0.3-2.5-0.4-3.6-0.8l-3.5-1.1c-9.5-2.9-18.5-8-29-14.7c-2.7-1.7-5.3-3.3-8.2-5l-4.3-2.5c-1.5-0.8-3-1.6-4.5-2.4
	c-1.5-0.8-3-1.6-4.6-2.3l-4.8-2c-3.2-1.5-6.6-2.4-9.9-3.5c-12.6-3.8-25.3-4.9-37.2-4.9v0c-0.4,0-0.7,0-1.1,0c-0.4,0-0.7,0-1.1,0v0
	c-11.9,0.1-24.6,1.1-37.2,4.9c-3.3,1.1-6.7,2-9.9,3.5l-4.8,2c-1.6,0.7-3.1,1.5-4.6,2.3c-1.5,0.8-3.1,1.5-4.5,2.4l-4.3,2.5
	c-3,1.7-5.5,3.3-8.2,5c-10.5,6.6-19.5,11.7-29,14.7l-3.5,1.1c-1.2,0.4-2.4,0.5-3.6,0.8c-2.4,0.5-4.8,1.1-7.3,1.2
	c-2.5,0.2-4.9,0.6-7.4,0.7c-2.5,0-5.1,0.1-7.5,0.1c-10-0.3-19.5-1.1-27.5-3.7c-8-2.4-14.9-5.8-21.6-10c-6.5-4.1-13.2-9-19.6-13
	c-1.6-1-3.2-2-4.7-3c-1.6-0.9-3.2-1.8-4.7-2.6c-1.5-0.8-2.9-1.6-4.3-2.3c-1.4-0.7-2.8-1.3-4.1-1.9l0.2-0.3
	C1020.8,37.3,1022.2,38,1023.7,38.6z M1238.9,42.4c-0.4,0-0.7,0-1.1,0v0c-10.4,0.1-21.4,0.9-32.5,4c-2.9,1-5.9,1.7-8.8,2.9
	c-1.4,0.6-2.9,1.2-4.3,1.8c-1.4,0.6-2.9,1.2-4.2,1.9c-5.6,2.7-11,5.9-16.1,9.1c-10.4,6.4-20.2,12.7-30.8,16.4
	c-2.7,0.8-5.3,1.7-8,2.4c-2.7,0.6-5.4,1.1-8.1,1.7c-2.7,0.3-5.5,0.6-8.2,0.9c-1.3,0.2-2.7,0.2-4.1,0.2c-1.4,0-2.7,0-4.1,0.1
	c-5.4,0.3-10.7-0.4-15.8-0.6c-2.5-0.3-5-0.8-7.5-1.1c-1.2-0.2-2.5-0.3-3.6-0.6c-1.2-0.3-2.3-0.6-3.5-0.9
	c-9.2-2.3-17.2-5.9-24.2-10.1c-7.1-4.2-13.3-8.6-19-12.4c-2.8-1.9-5.6-3.5-8-5c-2.5-1.4-4.8-2.6-6.7-3.7l0.2-0.4
	c2,1.1,4.4,2.3,6.9,3.7c2.4,1.5,5.3,3.2,8.1,5.1c5.8,3.8,12,8.1,19,12.2c1.8,1,3.5,2,5.4,3c1.9,0.9,3.8,1.8,5.8,2.7
	c4,1.5,8.2,3.2,12.8,4.2c1.1,0.3,2.3,0.6,3.4,0.9c1.2,0.3,2.4,0.4,3.6,0.6c2.4,0.3,4.8,0.8,7.3,1.1c5.1,0.2,10.3,0.9,15.6,0.5
	c1.3,0,2.7-0.1,4-0.1c1.3,0,2.7,0,4-0.2c2.7-0.3,5.3-0.6,8-0.9c2.6-0.6,5.3-1.1,7.9-1.7c2.7-0.6,5.2-1.6,7.8-2.4
	c2.6-0.9,5.1-2.1,7.7-3.1c2.5-1.2,5-2.5,7.6-3.9c5-2.9,10-6,15.2-9.2l3.9-2.4l4-2.4c2.6-1.6,5.5-3,8.3-4.5l2.1-1.1l2.2-0.9l4.4-1.8
	c1.4-0.7,2.9-1.1,4.4-1.6c1.5-0.5,3-1,4.5-1.4c11.7-3.4,23.4-4.2,34.4-4.3c11,0.1,22.7,0.9,34.4,4.3c1.5,0.5,3,1,4.5,1.4
	c1.5,0.5,3,0.9,4.4,1.6l4.4,1.8l2.2,0.9l2.1,1.1c2.8,1.4,5.6,2.9,8.3,4.5l4,2.4l3.9,2.4c5.2,3.3,10.2,6.4,15.2,9.2
	c2.5,1.3,5,2.6,7.6,3.9c2.6,1,5.1,2.2,7.7,3.1c2.6,0.8,5.2,1.8,7.8,2.4c2.7,0.6,5.3,1.1,7.9,1.7c2.7,0.3,5.4,0.6,8,0.9
	c1.3,0.2,2.7,0.2,4,0.2c1.3,0,2.7,0.1,4,0.1c5.3,0.3,10.5-0.3,15.6-0.5c2.5-0.3,4.9-0.7,7.3-1.1c1.2-0.2,2.4-0.3,3.6-0.6
	c1.1-0.3,2.3-0.6,3.4-0.9c4.6-1,8.7-2.6,12.8-4.2c2-0.9,3.9-1.8,5.8-2.7c1.9-0.9,3.6-2,5.4-3c7-4.1,13.2-8.4,19-12.2
	c2.8-1.9,5.7-3.5,8.1-5.1c2.5-1.5,4.9-2.7,6.9-3.7l0.2,0.4c-1.9,1-4.2,2.2-6.7,3.7c-2.4,1.5-5.2,3.2-8,5c-5.7,3.8-11.9,8.2-19,12.4
	c-7,4.3-15,7.8-24.2,10.1c-1.1,0.3-2.3,0.6-3.5,0.9c-1.2,0.3-2.4,0.4-3.6,0.6c-2.5,0.4-4.9,0.8-7.5,1.1c-5.1,0.2-10.4,0.9-15.8,0.6
	c-1.4,0-2.7,0-4.1-0.1c-1.4,0-2.7,0-4.1-0.2c-2.7-0.3-5.4-0.6-8.2-0.9c-2.7-0.6-5.4-1.1-8.1-1.7c-2.7-0.7-5.3-1.6-8-2.4
	c-10.6-3.6-20.5-9.9-30.8-16.4c-5.1-3.2-10.6-6.4-16.1-9.1c-1.4-0.7-2.8-1.3-4.2-1.9c-1.4-0.6-2.9-1.2-4.3-1.8
	c-2.9-1.2-5.9-1.9-8.8-2.9c-11.1-3.1-22.1-3.9-32.5-4v0C1239.6,42.3,1239.2,42.4,1238.9,42.4z M1450.6,50.1
	c-2.6,1.5-5.3,3.3-8.3,5.2c-5.8,3.8-12.1,8.3-19.1,12.5c-6.9,4.2-14.6,7.7-23.6,10.1c-4.4,1.4-9.2,1.9-14.1,2.7
	c-2.5,0.2-5.1,0.3-7.7,0.5c-1.3,0.1-2.6,0.2-3.9,0.2c-1.3,0-2.6-0.1-3.9-0.1c-10.7,0.1-21.4-1.4-31.7-4.9c-1.3-0.3-2.6-0.9-3.8-1.4
	l-3.8-1.6c-2.5-1.1-5-2.5-7.5-3.7c-2.5-1.5-5-2.8-7.5-4.4l-7.7-4.8c-2.6-1.6-5.2-3.2-8-4.8c-2.7-1.6-5.5-3.1-8.4-4.5
	c-5.7-2.9-11.7-5.2-17.8-7c-11.5-3.3-22.9-4.2-33.7-4.3v0c-0.4,0-0.7,0-1.1,0c-0.4,0-0.7,0-1.1,0v0c-10.8,0.1-22.3,1-33.7,4.3
	c-6.1,1.8-12.1,4.1-17.8,7c-2.8,1.4-5.7,2.9-8.4,4.5c-2.8,1.6-5.4,3.2-8,4.8l-7.7,4.8c-2.5,1.6-5,2.9-7.5,4.4
	c-2.5,1.2-5,2.6-7.5,3.7l-3.8,1.6c-1.3,0.5-2.5,1.1-3.8,1.4c-10.3,3.5-21,5-31.7,4.9c-1.3,0-2.6,0.1-3.9,0.1
	c-1.3-0.1-2.6-0.2-3.9-0.2c-2.6-0.2-5.1-0.3-7.7-0.5c-4.9-0.8-9.8-1.4-14.1-2.7c-8.9-2.4-16.7-5.9-23.6-10.1
	c-6.9-4.2-13.2-8.7-19.1-12.5c-3-1.9-5.7-3.7-8.3-5.2c-2.7-1.5-5-2.8-7.1-3.8l0.2-0.4c2.1,1.1,4.5,2.4,7.3,3.9
	c2.6,1.5,5.4,3.3,8.4,5.2c5.9,3.8,12.2,8.3,19.1,12.4c6.9,4.2,14.5,7.5,23.3,9.8c4.3,1.3,9.1,1.8,14,2.6c2.5,0.2,5,0.3,7.6,0.5
	c1.3,0.1,2.6,0.2,3.9,0.2c1.3,0,2.6-0.1,3.9-0.1c10.6,0.1,21.1-1.5,31.2-4.9c1.3-0.3,2.5-0.9,3.8-1.4l3.8-1.6
	c2.5-1.1,4.9-2.5,7.4-3.7c2.5-1.4,4.9-2.8,7.5-4.4l7.7-4.8c2.6-1.6,5.2-3.3,8-4.8c1.4-0.8,2.7-1.6,4.1-2.4l4.3-2.2
	c5.7-2.9,11.9-5.3,18-7.2c12-3.5,24.1-4.4,35.4-4.5c11.3,0.1,23.4,1,35.4,4.5c6.2,1.8,12.3,4.2,18,7.2l4.3,2.2
	c1.4,0.7,2.7,1.6,4.1,2.4c2.8,1.6,5.4,3.2,8,4.8l7.7,4.8c2.5,1.5,5,2.9,7.5,4.4c2.5,1.2,4.9,2.6,7.4,3.7l3.8,1.6
	c1.2,0.5,2.5,1.1,3.8,1.4c10.1,3.5,20.7,5,31.2,4.9c1.3,0,2.6,0.1,3.9,0.1c1.3-0.1,2.6-0.2,3.9-0.2c2.6-0.2,5.1-0.3,7.6-0.5
	c4.8-0.8,9.6-1.3,14-2.6c8.8-2.3,16.5-5.7,23.3-9.8c6.9-4.1,13.2-8.6,19.1-12.4c3-1.9,5.8-3.7,8.4-5.2c2.7-1.5,5.1-2.8,7.3-3.9
	l0.2,0.4C1455.7,47.4,1453.3,48.7,1450.6,50.1z M1238.9,35c-0.4,0-0.7,0-1.1,0v0c-11.3,0.1-23.3,1-35.3,4.4
	c-6.4,1.8-12.6,4.3-18.5,7.2c-2.9,1.5-5.9,3-8.6,4.6l-4.1,2.4l-3.9,2.4c-10.4,6.5-19.5,12.1-28.9,15.3c-2.4,0.7-4.8,1.5-7.1,2.2
	c-2.4,0.5-4.9,1-7.3,1.5c-5,0.5-9.8,1.3-14.8,1.1c-1.2,0-2.5,0-3.7,0.1c-1.2,0-2.4,0-3.7-0.1c-2.4-0.2-4.8-0.3-7.2-0.5l-1.8-0.1
	c-0.6-0.1-1.1-0.2-1.7-0.3c-1.1-0.2-2.2-0.4-3.3-0.5c-2.2-0.4-4.4-0.6-6.4-1.3c-8.4-1.8-15.3-5.1-21.8-8.7c-3.2-1.7-6.4-3.9-9.3-5.7
	c-3.1-2.1-6.1-4.1-8.8-5.9c-1.4-1-2.8-1.9-4.1-2.8c-1.4-0.9-2.8-1.7-4-2.5c-2.5-1.6-5-3-7.2-4.2l0.3-0.4c2.3,1.2,4.8,2.6,7.4,4.2
	c1.3,0.8,2.7,1.7,4.1,2.5c1.3,0.9,2.7,1.8,4.2,2.8c2.7,1.8,5.7,3.8,8.8,5.9c2.9,1.9,6.1,3.9,9.3,5.6c0.8,0.5,1.6,0.9,2.4,1.4
	c0.8,0.4,1.7,0.8,2.5,1.2c0.8,0.4,1.7,0.8,2.6,1.2l1.3,0.6l1.3,0.5c1.8,0.7,3.6,1.3,5.5,2c2,0.5,3.9,1,6,1.5c2,0.6,4.2,0.8,6.3,1.2
	c2.2,0.3,4.3,0.8,6.7,0.9c2.3,0.2,4.7,0.3,7.1,0.5c1.2,0.1,2.4,0.1,3.6,0.1c1.2,0,2.4,0,3.6-0.1c5,0.1,9.7-0.6,14.6-1.2
	c2.4-0.5,4.7-1,7.1-1.5c2.3-0.6,4.6-1.4,7-2.1c2.3-0.8,4.6-1.9,6.9-2.8c2.3-1.1,4.6-2.3,7-3.5c4.7-2.7,9.5-5.6,14.7-8.9l3.9-2.4
	l4.1-2.4c2.7-1.6,5.7-3.2,8.6-4.7c5.9-3,12.3-5.5,18.7-7.4c12.6-3.7,25.2-4.7,37-4.7c11.8,0,24.4,1,37,4.7
	c6.4,1.9,12.8,4.4,18.7,7.4c3,1.5,5.9,3,8.6,4.7l4.1,2.4l3.9,2.4c5.2,3.3,10,6.2,14.7,8.9c2.3,1.2,4.7,2.4,7,3.5
	c2.3,0.9,4.6,2,6.9,2.8c2.4,0.7,4.7,1.5,7,2.1c2.4,0.5,4.8,1,7.1,1.5c4.9,0.5,9.6,1.3,14.6,1.2c1.2,0,2.4,0,3.6,0.1
	c1.2,0,2.4,0.1,3.6-0.1c2.4-0.2,4.7-0.3,7.1-0.5c2.4,0,4.5-0.6,6.7-0.9c2.2-0.4,4.4-0.6,6.3-1.2c2-0.5,4-1,6-1.5
	c1.9-0.7,3.7-1.4,5.5-2l1.3-0.5l1.3-0.6c0.9-0.4,1.7-0.8,2.6-1.2c0.8-0.4,1.7-0.8,2.5-1.2c0.8-0.5,1.6-0.9,2.4-1.4
	c3.2-1.7,6.3-3.8,9.3-5.6c3.1-2.1,6.1-4.1,8.8-5.9c1.4-1,2.8-1.9,4.2-2.8c1.4-0.9,2.8-1.7,4.1-2.5c2.5-1.6,5.1-3,7.4-4.2l0.3,0.4
	c-2.2,1.2-4.7,2.5-7.2,4.2c-1.3,0.8-2.6,1.6-4,2.5c-1.3,0.9-2.7,1.8-4.1,2.8c-2.7,1.8-5.7,3.8-8.8,5.9c-2.9,1.9-6.1,4-9.3,5.7
	c-6.5,3.6-13.5,6.9-21.8,8.7c-2,0.6-4.2,0.9-6.4,1.3c-1.1,0.2-2.2,0.4-3.3,0.5c-0.6,0.1-1.1,0.2-1.7,0.3l-1.8,0.1
	c-2.4,0.2-4.8,0.3-7.2,0.5c-1.2,0.1-2.4,0.1-3.7,0.1c-1.2,0-2.5,0-3.7-0.1c-5,0.1-9.9-0.6-14.8-1.1c-2.4-0.5-4.8-1-7.3-1.5
	c-2.4-0.7-4.7-1.5-7.1-2.2c-9.5-3.2-18.6-8.9-28.9-15.3l-3.9-2.4l-4.1-2.4c-2.7-1.6-5.7-3.1-8.6-4.6c-5.9-2.9-12.2-5.4-18.5-7.2
	c-12-3.4-24-4.4-35.3-4.4v0C1239.6,35,1239.2,35,1238.9,35z M1028,47.1c2.8,1.5,5.6,3.4,8.7,5.3c6,3.9,12.4,8.4,19.1,12.5
	c6.8,4.1,14.1,7.4,22.7,9.7c1.1,0.3,2.1,0.6,3.2,0.8l1.6,0.4l1.7,0.3c2.3,0.4,4.6,0.7,7,1.1c2.4,0.3,4.9,0.3,7.4,0.5
	c1.3,0.1,2.5,0.2,3.8,0.2c1.3,0,2.5,0,3.8-0.1c10.4,0.2,20.6-1.4,30.4-4.6c4.9-1.6,9.7-3.9,14.6-6.4c2.4-1.3,4.9-2.8,7.4-4.3
	l7.6-4.8c2.6-1.6,5.2-3.3,8.1-4.9l4.2-2.4l4.4-2.3c5.9-3,12.2-5.5,18.5-7.4c12.4-3.7,24.9-4.7,36.6-4.7c11.7,0.1,24.2,1,36.6,4.7
	c6.4,1.9,12.7,4.4,18.5,7.4l4.4,2.3l4.2,2.4c2.8,1.6,5.4,3.3,8.1,4.9l7.6,4.8c2.5,1.5,4.9,2.9,7.4,4.3c4.9,2.6,9.7,4.8,14.6,6.4
	c9.8,3.2,20.1,4.8,30.4,4.6c1.3,0,2.6,0.1,3.8,0.1c1.3-0.1,2.5-0.2,3.8-0.2c2.5-0.2,5-0.3,7.4-0.5c2.4-0.4,4.7-0.7,7-1.1l1.7-0.3
	l1.6-0.4c1.1-0.3,2.2-0.6,3.2-0.8c8.5-2.3,15.9-5.6,22.7-9.7c6.8-4.1,13.2-8.6,19.1-12.5c3.1-1.9,5.9-3.8,8.7-5.3
	c2.8-1.5,5.3-3,7.6-4l0.2,0.4c-2.3,1-4.7,2.5-7.4,3.9c-2.8,1.5-5.5,3.4-8.6,5.3c-5.9,3.9-12.3,8.4-19.1,12.6
	c-6.8,4.1-14.2,7.6-22.9,10c-1.1,0.3-2.2,0.6-3.3,0.9l-1.7,0.4l-1.7,0.3c-2.3,0.4-4.7,0.8-7.1,1.1c-2.4,0.3-5,0.4-7.5,0.6
	c-1.3,0.1-2.5,0.2-3.8,0.3c-1.3,0-2.6,0-3.9,0c-10.5,0.2-20.9-1.3-30.9-4.6l-1.9-0.6l-1.8-0.8l-3.7-1.5c-2.5-1-4.9-2.4-7.4-3.6
	c-2.5-1.4-4.9-2.8-7.5-4.3l-7.7-4.7c-2.6-1.6-5.2-3.3-8.1-4.9c-1.4-0.8-2.7-1.6-4.2-2.4l-4.4-2.2c-5.8-3-12-5.4-18.3-7.2
	c-11.8-3.4-23.7-4.4-34.8-4.5v0c-0.4,0-0.7,0-1.1,0c-0.4,0-0.7,0-1.1,0v0c-11.1,0.1-23,1-34.8,4.5c-6.3,1.8-12.5,4.3-18.3,7.2
	l-4.4,2.2c-1.4,0.8-2.8,1.6-4.2,2.4c-2.8,1.6-5.4,3.2-8.1,4.9l-7.7,4.7c-2.5,1.5-5,2.9-7.5,4.3c-2.5,1.2-4.9,2.6-7.4,3.6l-3.7,1.5
	l-1.8,0.8l-1.9,0.6c-10,3.3-20.4,4.8-30.9,4.6c-1.3,0-2.6,0.1-3.9,0c-1.3-0.1-2.6-0.2-3.8-0.3c-2.5-0.2-5.1-0.3-7.5-0.6
	c-2.4-0.4-4.8-0.8-7.1-1.1l-1.7-0.3l-1.7-0.4c-1.1-0.3-2.2-0.6-3.3-0.9c-8.7-2.4-16.1-5.8-22.9-10c-6.8-4.2-13.2-8.7-19.1-12.6
	c-3.1-1.9-5.8-3.8-8.6-5.3c-2.8-1.5-5.2-2.9-7.4-3.9l0.2-0.4C1022.7,44.2,1025.1,45.6,1028,47.1z M1026.9,55.2
	c6.3,3.7,13,8.5,20.5,13.3c7.4,4.7,15.7,9.3,25.3,12.3c9.6,3,20.4,4.3,31.7,4.6c11.4,0.1,23.1-1.1,34.2-4.7
	c11.2-3.5,21.6-9.7,32.2-16.5c2.7-1.7,5.3-3.3,8-4.9l4.1-2.4l4.2-2.2c5.6-2.9,11.5-5.3,17.5-7c11.6-3.4,23.2-4.3,34.2-4.4
	c10.9,0.1,22.6,1,34.2,4.4c6,1.8,11.9,4.1,17.5,7l4.2,2.2l4.1,2.4c2.8,1.6,5.4,3.3,8,4.9c10.5,6.8,20.9,12.9,32.2,16.5
	c11.2,3.6,22.9,4.8,34.2,4.7c11.4-0.3,22.2-1.7,31.7-4.6c9.6-3,17.8-7.5,25.3-12.3c7.4-4.8,14.2-9.6,20.5-13.3
	c3.1-1.9,6.2-3.4,8.8-4.9c2.8-1.2,5.3-2.3,7.4-3.3l0.2,0.4c-2.1,0.9-4.5,2-7.2,3.2c-2.6,1.4-5.6,3-8.7,4.8
	c-6.2,3.7-13,8.6-20.4,13.4c-7.5,4.8-15.8,9.6-25.5,12.6c-9.7,3.1-20.7,4.5-32.2,4.8c-11.5,0.1-23.4-1.1-34.8-4.8
	c-1.4-0.5-2.9-0.8-4.3-1.4l-4.2-1.7c-2.8-1.1-5.5-2.6-8.2-4c-2.7-1.4-5.3-3-8-4.6c-2.6-1.6-5.3-3.3-7.9-4.9c-2.7-1.7-5.3-3.3-8-4.9
	c-1.4-0.8-2.7-1.6-4.1-2.3l-4.2-2.1c-5.6-2.8-11.4-5.1-17.3-6.8c-11-3.2-22-4-32.3-4.1v0c-0.4,0-0.7,0-1.1,0c-0.4,0-0.7,0-1.1,0v0
	c-10.3,0.1-21.3,0.9-32.3,4.1c-5.8,1.7-11.7,3.9-17.3,6.8l-4.2,2.1c-1.4,0.7-2.7,1.6-4.1,2.3c-2.7,1.6-5.4,3.2-8,4.9
	c-2.6,1.6-5.3,3.3-7.9,4.9c-2.7,1.5-5.3,3.2-8,4.6c-2.7,1.3-5.4,2.9-8.2,4l-4.2,1.7c-1.4,0.6-2.8,0.9-4.3,1.4
	c-11.4,3.7-23.3,4.9-34.8,4.8c-11.5-0.3-22.5-1.7-32.2-4.8c-9.7-3-18.1-7.8-25.5-12.6c-7.5-4.8-14.2-9.7-20.4-13.4
	c-3.1-1.9-6.1-3.4-8.7-4.8c-2.8-1.2-5.2-2.3-7.2-3.2l0.2-0.4c2.1,0.9,4.6,2,7.4,3.3C1020.7,51.8,1023.8,53.4,1026.9,55.2z
	 M1469.7,19.1c-1.1,0.4-2.2,0.8-3.3,1.1c-2.2,0.8-4.5,1.6-6.9,2.5c-2.4,0.9-4.6,2.1-7,3.2c-9.5,4.4-19.1,10.7-27,16.3
	c-8,5.6-14.6,10.2-21.4,13.3c-6.8,3.1-14.6,5.1-24.1,6c-1.2,0.1-2.4,0.2-3.6,0.3c-1.2,0.1-2.4,0.3-3.6,0.2c-2.4,0-4.9,0-7.3,0
	c-4.7-0.3-9.5-0.7-13.8-1.7c-4.4-0.9-8.7-2.3-13.1-4.1c-1.1-0.4-2.2-1.1-3.4-1.6c-1.2-0.6-2.2-1-3.5-1.7c-2.4-1.4-4.7-2.6-7.5-4.3
	l-8.4-5.1l-2.2-1.3l-2.4-1.4l-4.9-2.8c-1.7-0.9-3.5-1.8-5.3-2.7c-1.8-0.9-3.5-1.8-5.4-2.6c-3.8-1.5-7.5-3.3-11.5-4.4
	c-4-1.3-7.9-2.5-11.9-3.3c-4-0.8-8-1.7-11.9-2c-2-0.2-3.9-0.4-5.8-0.6l-2.9-0.3l-2.8-0.1c-3,0-6-0.1-9-0.1v0c-0.4,0-0.7,0-1.1,0
	c-0.4,0-0.7,0-1.1,0v0c-3,0-6,0.1-9,0.1l-2.8,0.1l-2.9,0.3c-1.9,0.2-3.9,0.4-5.8,0.6c-3.9,0.3-7.9,1.2-11.9,2c-4,0.7-7.9,2-11.9,3.3
	c-4,1.1-7.7,2.9-11.5,4.4c-2,0.8-3.6,1.7-5.4,2.6c-1.8,0.9-3.6,1.8-5.3,2.7l-4.9,2.8l-2.4,1.4l-2.2,1.3l-8.4,5.1
	c-2.7,1.7-5,2.9-7.5,4.3c-1.2,0.7-2.3,1.1-3.5,1.7c-1.1,0.5-2.3,1.2-3.4,1.6c-4.4,1.8-8.6,3.3-13.1,4.1c-4.4,1-9.1,1.4-13.8,1.7
	c-2.5,0-4.9,0-7.3,0c-1.2,0.1-2.4-0.1-3.6-0.2c-1.2-0.1-2.4-0.2-3.6-0.3c-9.5-0.9-17.3-2.8-24.1-6c-6.8-3.1-13.4-7.6-21.4-13.3
	c-7.9-5.6-17.5-11.9-27-16.3c-2.4-1.1-4.7-2.3-7-3.2c-2.4-0.9-4.7-1.7-6.9-2.5c-1.1-0.4-2.2-0.8-3.3-1.1c-1.1-0.3-2.1-0.6-3.2-0.8
	c-2.1-0.5-4.1-1-6-1.5l0.2-0.4c1.9,0.5,4,1,6.1,1.5c1.1,0.3,2.1,0.6,3.2,0.8c1.1,0.4,2.2,0.8,3.3,1.2c2.2,0.8,4.6,1.6,6.9,2.5
	c2.4,0.9,4.7,2.1,7.1,3.2c9.6,4.5,19.2,10.7,27.1,16.3c8,5.6,14.5,10,21.2,13c6.7,3,14.4,4.9,23.8,5.7c1.2,0.1,2.4,0.2,3.5,0.3
	c1.2,0.1,2.4,0.2,3.6,0.2c2.4,0,4.8,0,7.3,0c4.7-0.3,9.3-0.7,13.6-1.7c4.4-0.9,8.5-2.3,12.8-4.1c1.1-0.4,2.2-1.1,3.3-1.6
	c1.1-0.6,2.2-1,3.4-1.7c2.4-1.4,4.7-2.6,7.4-4.3l8.4-5.1l2.2-1.3l2.4-1.4l4.9-2.8c1.7-0.9,3.5-1.8,5.3-2.7c1.8-0.9,3.5-1.9,5.5-2.6
	l5.7-2.4c1-0.4,1.9-0.8,2.9-1.2l3-1c4-1.3,8-2.6,12-3.3c4-0.9,8.1-1.8,12-2.1l5.9-0.6l2.9-0.3l2.9-0.1c3.4-0.1,6.8-0.1,10.2-0.2
	c3.4,0.1,6.8,0.1,10.2,0.2l2.9,0.1l2.9,0.3l5.9,0.6c3.9,0.3,8,1.2,12,2.1c4,0.7,8,2.1,12,3.3l3,1c1,0.3,1.9,0.8,2.9,1.2l5.7,2.4
	c2,0.8,3.6,1.7,5.5,2.6c1.8,0.9,3.6,1.8,5.3,2.7l4.9,2.8l2.4,1.4l2.2,1.3l8.4,5.1c2.7,1.7,5,2.9,7.4,4.3c1.2,0.7,2.3,1.1,3.4,1.7
	c1.1,0.5,2.2,1.2,3.3,1.6c4.3,1.8,8.4,3.2,12.8,4.1c4.3,1,8.9,1.4,13.6,1.7c2.4,0,4.9,0,7.3,0c1.2,0.1,2.4-0.1,3.6-0.2
	c1.2-0.1,2.4-0.2,3.5-0.3c9.4-0.8,17.1-2.7,23.8-5.7c6.7-3,13.2-7.4,21.2-13c7.9-5.6,17.5-11.8,27.1-16.3c2.4-1.1,4.7-2.3,7.1-3.2
	c2.4-0.9,4.7-1.7,6.9-2.5c1.1-0.4,2.2-0.8,3.3-1.2c1.1-0.3,2.2-0.6,3.2-0.8c2.1-0.5,4.1-1,6.1-1.5l0.2,0.4c-1.9,0.5-3.9,1-6,1.5
	C1471.8,18.5,1470.8,18.8,1469.7,19.1z M1481.7,12c-2.2,0.5-4.6,1.1-7,1.8c-2.4,0.7-4.9,1.2-7.5,2.1c-2.5,0.9-5.2,1.9-7.9,2.9
	c-2.7,0.9-5.3,2.3-8,3.5c-1.3,0.6-2.7,1.3-4.1,2c-1.4,0.7-2.6,1.4-3.9,2.2c-5.3,2.9-10.2,6.2-14.8,9.3c-4,2.8-8.1,5.7-12.4,8.7
	c-3.7,2.5-7.1,4.7-10.5,6.4c-6.6,3.5-13.7,5.8-22.8,7c-2.4,0.2-4.7,0.4-7.1,0.6c-1.2,0.2-2.4,0.1-3.6,0.1c-1.2,0-2.4,0-3.7,0
	c-1.2,0-2.5,0.1-3.7,0l-3.4-0.3l-3.5-0.3c-1.2-0.1-2.2-0.4-3.3-0.6c-8.9-1.6-16.4-4.5-26.9-10.7l-8.5-5.1c-1.6-0.9-2.9-1.8-4.6-2.8
	l-5.1-2.9c-1.6-1-3.5-1.9-5.4-2.8l-5.6-2.8l-6-2.5c-2-0.8-4-1.7-6.1-2.3c-4.2-1.3-8.3-2.8-12.5-3.5c-4.2-0.8-8.4-1.9-12.4-2.2
	c-2-0.2-4.1-0.4-6.1-0.6l-3-0.3c-1-0.1-2,0-3-0.1c-3.2,0-6.3-0.1-9.5-0.1v0c-0.4,0-0.7,0-1.1,0c-0.4,0-0.7,0-1.1,0v0
	c-3.2,0-6.3,0.1-9.5,0.1c-1,0-2,0-3,0.1l-3,0.3c-2,0.2-4.1,0.4-6.1,0.6c-4.1,0.3-8.3,1.3-12.4,2.2c-4.2,0.7-8.3,2.3-12.5,3.5
	c-2.1,0.6-4.1,1.5-6.1,2.3l-6,2.5l-5.6,2.8c-1.9,0.9-3.8,1.9-5.4,2.8l-5.1,2.9c-1.7,1-3.1,1.8-4.6,2.8l-8.5,5.1
	c-10.5,6.2-18,9.1-26.9,10.7c-1.1,0.2-2.1,0.5-3.3,0.6l-3.5,0.3l-3.4,0.3c-1.2,0-2.5,0-3.7,0c-1.2,0-2.4,0-3.7,0
	c-1.2,0-2.4,0-3.6-0.1c-2.4-0.2-4.8-0.4-7.1-0.6c-9.1-1.3-16.2-3.6-22.8-7c-3.4-1.7-6.8-3.9-10.5-6.4c-4.3-3-8.4-5.9-12.4-8.7
	c-4.6-3.1-9.5-6.4-14.8-9.3c-1.3-0.7-2.5-1.5-3.9-2.2c-1.4-0.7-2.7-1.3-4.1-2c-2.7-1.2-5.3-2.6-8-3.5c-2.7-1-5.3-2-7.9-2.9
	c-2.6-0.9-5.1-1.4-7.5-2.1c-2.4-0.6-4.8-1.3-7-1.8c-2.2-0.4-4.4-0.7-6.4-1.1l0.2-0.4c2.1,0.3,4.3,0.7,6.6,1.1
	c2.3,0.6,4.7,1.2,7.2,1.8c1.2,0.3,2.5,0.7,3.8,1c0.6,0.2,1.3,0.3,1.9,0.5c0.6,0.2,1.3,0.5,1.9,0.7c2.6,0.9,5.3,1.9,8,2.9
	c2.8,1,5.3,2.4,8.1,3.6c1.4,0.7,2.7,1.3,4.1,2c1.3,0.7,2.6,1.4,3.9,2.2c2.6,1.5,5.3,3,7.6,4.6c2.4,1.5,5,3.2,7.1,4.7
	c2.1,1.5,4.3,3,6.5,4.5c1.9,1.3,4.1,2.9,5.8,4c1.8,1.2,3.7,2.5,5.3,3.4c1.7,1,3.4,2.1,5,2.8c6.5,3.4,13.5,5.5,22.5,6.7
	c2.3,0.2,4.7,0.4,7,0.6c1.2,0.2,2.4,0.1,3.6,0.1c1.2,0,2.4,0,3.6,0c1.2,0,2.4,0.1,3.6,0l3.4-0.3l3.4-0.3c1.1-0.1,2.1-0.4,3.2-0.6
	c8.7-1.6,16-4.4,26.3-10.6c2.8-1.7,5.6-3.4,8.4-5.1l4.6-2.8l5.1-2.9c1.6-1,3.5-1.9,5.4-2.9l5.6-2.8l6-2.5c2-0.8,4-1.7,6.1-2.3l6.3-2
	c1.1-0.3,2.1-0.7,3.2-0.9l3.2-0.7c4.2-0.8,8.5-1.9,12.6-2.3l6.2-0.7l3.1-0.3c1-0.1,2-0.1,3-0.1c3.6-0.1,7.2-0.1,10.8-0.2
	c3.6,0.1,7.2,0.1,10.8,0.2c1,0,2,0,3,0.1l3.1,0.3l6.2,0.7c4.1,0.3,8.4,1.4,12.6,2.3l3.2,0.7c1.1,0.3,2.1,0.6,3.2,0.9l6.3,2
	c2.1,0.6,4.1,1.5,6.1,2.3l6,2.5l5.6,2.8c1.9,0.9,3.8,1.9,5.4,2.9l5.1,2.9l4.6,2.8c2.8,1.7,5.6,3.4,8.4,5.1
	c10.3,6.2,17.6,9,26.3,10.6c1.1,0.2,2.1,0.5,3.2,0.6l3.4,0.3l3.4,0.3c1.2,0.1,2.4,0,3.6,0c1.2,0,2.4,0,3.6,0c1.2,0,2.4,0.1,3.6-0.1
	c2.4-0.2,4.7-0.4,7-0.6c9-1.2,15.9-3.4,22.5-6.7c1.6-0.7,3.3-1.8,5-2.8c1.6-0.9,3.5-2.2,5.3-3.4c1.7-1.1,3.9-2.7,5.8-4
	c2.2-1.5,4.3-3,6.5-4.5c2.1-1.5,4.7-3.1,7.1-4.7c2.3-1.6,5-3.1,7.6-4.6c1.3-0.7,2.6-1.5,3.9-2.2c1.4-0.7,2.8-1.3,4.1-2
	c2.8-1.2,5.3-2.6,8.1-3.6c2.7-1,5.4-2,8-2.9c0.7-0.2,1.3-0.5,1.9-0.7c0.6-0.2,1.3-0.3,1.9-0.5c1.3-0.3,2.5-0.7,3.8-1
	c2.5-0.6,4.9-1.2,7.2-1.8c2.3-0.4,4.5-0.7,6.6-1.1l0.2,0.4C1486.1,11.3,1483.9,11.7,1481.7,12z M1509.5,4.5
	c-2.8,0.2-5.6,0.4-8.5,0.6c-2.9,0.2-5.8,0.4-9.1,1c-12.5,1.6-27.5,5.5-41.7,12.3c-1.8,0.9-3.5,1.7-5.3,2.6c-1.6,0.9-3.3,1.9-5,2.8
	c-1.6,1-3.4,1.9-4.9,2.9c-1.5,1-3,2-4.5,2.9l-2.3,1.5l-2,1.4c-1.3,0.9-2.7,1.9-4,2.8c-2.4,1.7-4.7,3.4-7.1,5.1
	c-8.7,6-14.7,9.4-23.1,11.8c-8.1,2.3-19.5,3.2-29.5,2.6l-3.7-0.3c-1.3,0-2.3-0.4-3.5-0.5l-3.5-0.6l-3.3-0.9
	c-2.2-0.4-4.4-1.5-6.7-2.3c-1.1-0.4-2.3-1.1-3.5-1.6c-1.2-0.6-2.3-1-3.7-1.8l-3.9-2.2l-4.4-2.6l-9.7-5.8c-3.8-2.1-7.3-4.2-11.6-6.3
	c-2.1-1-4-2.1-6.3-3l-6.7-2.7c-2.2-1-4.6-1.6-6.9-2.3c-2.3-0.7-4.6-1.5-7-2.1l-7-1.5c-2.3-0.4-4.7-1.1-6.9-1.2
	c-2.3-0.2-4.6-0.5-6.8-0.7c-2.2-0.2-4.6-0.6-6.7-0.5c-3.6,0-7.2-0.1-10.8-0.1v0c-0.4,0-0.7,0-1.1,0c-0.4,0-0.7,0-1.1,0v0
	c-3.6,0-7.2,0.1-10.8,0.1c-2.1,0-4.5,0.3-6.7,0.5c-2.3,0.2-4.5,0.5-6.8,0.7c-2.3,0.2-4.6,0.8-6.9,1.2l-7,1.5c-2.3,0.6-4.6,1.4-7,2.1
	c-2.3,0.7-4.7,1.4-6.9,2.3l-6.7,2.7c-2.3,0.9-4.2,2-6.3,3c-4.3,2.1-7.8,4.2-11.6,6.3l-9.8,5.8l-4.4,2.6l-3.9,2.2
	c-1.4,0.8-2.5,1.3-3.7,1.8c-1.2,0.5-2.4,1.2-3.5,1.6c-2.3,0.8-4.4,1.8-6.7,2.3l-3.3,0.9l-3.5,0.6c-1.2,0.2-2.2,0.5-3.5,0.5l-3.7,0.3
	c-9.9,0.6-21.4-0.3-29.5-2.6c-8.3-2.4-14.3-5.7-23.1-11.8c-2.4-1.7-4.8-3.4-7.1-5.1c-1.3-0.9-2.7-1.9-4-2.8l-2-1.4l-2.3-1.5
	c-1.5-1-3-2-4.5-2.9c-1.5-1-3.3-2-4.9-2.9c-1.7-1-3.3-1.9-5-2.8c-1.8-0.9-3.6-1.7-5.3-2.6c-14.2-6.8-29.2-10.7-41.7-12.3
	c-3.3-0.6-6.2-0.7-9.1-1c-2.9-0.2-5.8-0.4-8.5-0.6c-2.9-0.1-5.8-0.1-8.5,0c-2.7,0-5.6-0.1-8.5,0c-2.8,0.2-5.6,0.4-8.5,0.6
	c-2.9,0.2-5.8,0.4-9.1,1c-12.5,1.6-27.5,5.5-41.7,12.3c-1.8,0.9-3.5,1.7-5.3,2.6c-1.6,0.9-3.3,1.9-5,2.8c-1.6,1-3.4,1.9-4.9,2.9
	c-1.5,1-3,2-4.5,2.9l-2.3,1.5l-2,1.4c-1.3,0.9-2.7,1.9-4,2.8c-2.4,1.7-4.7,3.4-7.1,5.1c-8.7,6-14.7,9.4-23.1,11.8
	c-8.1,2.3-19.5,3.2-29.5,2.6l-3.7-0.3c-1.3,0-2.3-0.4-3.5-0.5l-3.5-0.6l-3.3-0.9c-2.2-0.4-4.4-1.5-6.7-2.3c-1.1-0.4-2.3-1.1-3.5-1.6
	c-1.2-0.6-2.3-1-3.7-1.8l-3.9-2.2l-4.4-2.6l-9.7-5.8c-3.8-2.1-7.3-4.2-11.6-6.3c-2.1-1-4-2.1-6.3-3l-6.7-2.7c-2.2-1-4.6-1.6-6.9-2.3
	c-2.3-0.7-4.6-1.5-7-2.1l-7-1.5c-2.3-0.4-4.7-1.1-6.9-1.2c-2.3-0.2-4.6-0.5-6.8-0.7c-2.2-0.2-4.6-0.6-6.7-0.5
	c-3.6,0-7.2-0.1-10.8-0.1v0c-0.4,0-0.7,0-1.1,0c-0.4,0-0.7,0-1.1,0v0c-3.6,0-7.2,0.1-10.8,0.1c-2.1,0-4.5,0.3-6.7,0.5
	c-2.3,0.2-4.5,0.5-6.8,0.7c-2.3,0.2-4.6,0.8-6.9,1.2l-7,1.5c-2.3,0.6-4.6,1.4-7,2.1c-2.3,0.7-4.7,1.4-6.9,2.3l-6.7,2.7
	c-2.3,0.9-4.2,2-6.3,3c-4.3,2.1-7.8,4.2-11.6,6.3l-9.7,5.8l-4.4,2.6l-3.9,2.2c-1.4,0.8-2.5,1.3-3.7,1.8c-1.2,0.5-2.4,1.2-3.5,1.6
	c-2.3,0.8-4.4,1.8-6.7,2.3l-3.3,0.9l-3.5,0.6c-1.2,0.2-2.2,0.5-3.5,0.5l-3.7,0.3c-9.9,0.6-21.4-0.3-29.5-2.6
	c-8.3-2.4-14.3-5.7-23.1-11.8c-2.4-1.7-4.8-3.4-7.1-5.1c-1.3-0.9-2.7-1.9-4-2.8l-2-1.4l-2.3-1.5c-1.5-1-3-2-4.5-2.9
	c-1.5-1-3.3-2-4.9-2.9c-1.7-1-3.3-1.9-5-2.8c-1.8-0.9-3.6-1.7-5.3-2.6c-14.2-6.8-29.2-10.7-41.7-12.3c-3.3-0.6-6.2-0.7-9.1-1
	c-2.9-0.2-5.8-0.4-8.5-0.6c-5.5-0.1-10.7,0-15.5,0.1l0.2-0.5c4.8-0.1,10-0.3,15.6-0.1c2.8,0.2,5.6,0.4,8.5,0.6
	c2.9,0.2,5.9,0.4,9.1,0.9c12.5,1.5,27.6,5.5,41.9,12.3c1.8,0.9,3.6,1.7,5.4,2.6c1.6,0.9,3.3,1.9,5,2.8c1.6,1,3.5,1.9,4.9,2.9
	c1.5,1,3,2,4.5,2.9l2.3,1.5l2,1.4c1.3,0.9,2.7,1.9,4,2.8c2.3,1.7,4.7,3.3,7.1,5c8.7,6,14.6,9.2,22.8,11.5c8,2.2,19.4,3.1,29.2,2.4
	l3.6-0.3c1.2,0,2.3-0.4,3.4-0.6l3.4-0.6l3.2-0.9c2.2-0.4,4.3-1.5,6.5-2.2c1.1-0.4,2.3-1.1,3.5-1.6c1.2-0.6,2.3-1,3.6-1.8l3.9-2.1
	l4.4-2.6l9.8-5.9c3.8-2.1,7.3-4.3,11.7-6.4c2.1-1,4-2.1,6.3-3L627,23c2.2-1,4.6-1.6,6.9-2.4c2.3-0.7,4.7-1.5,7-2.1L648,17
	c2.3-0.4,4.7-1.1,7-1.2c2.3-0.2,4.6-0.5,6.9-0.7c2.3-0.2,4.6-0.6,6.8-0.5c4,0,8-0.1,12-0.1c4,0,8,0.1,12,0.1c2.2,0,4.5,0.4,6.8,0.5
	c2.3,0.2,4.6,0.5,6.9,0.7c2.3,0.2,4.7,0.8,7,1.2l7.1,1.5c2.3,0.6,4.7,1.4,7,2.1c2.3,0.8,4.7,1.4,6.9,2.4l6.7,2.8
	c2.3,0.9,4.2,2,6.3,3c4.3,2.1,7.9,4.2,11.7,6.4l9.8,5.9l4.4,2.6l3.9,2.1c1.3,0.8,2.5,1.3,3.6,1.8c1.2,0.5,2.4,1.2,3.5,1.6
	c2.2,0.8,4.3,1.8,6.5,2.2l3.2,0.9l3.4,0.6c1.2,0.2,2.2,0.5,3.4,0.6l3.6,0.3c9.8,0.6,21.2-0.2,29.2-2.4c8.2-2.3,14.1-5.6,22.8-11.5
	c2.4-1.7,4.8-3.4,7.1-5c1.4-0.9,2.7-1.9,4-2.8l2-1.4l2.3-1.5c1.5-1,3-2,4.5-2.9c1.5-1,3.3-2,4.9-2.9c1.7-1,3.3-1.9,5-2.8
	c1.8-0.9,3.6-1.7,5.4-2.6C905.8,11,920.8,7,933.4,5.5c3.3-0.6,6.2-0.7,9.1-0.9c2.9-0.2,5.8-0.4,8.5-0.6c2.8-0.1,5.4-0.1,8,0v0
	c0.2,0,0.5,0,0.7,0c0.2,0,0.5,0,0.7,0v0c2.6,0,5.2-0.1,8,0c2.8,0.2,5.6,0.4,8.5,0.6c2.9,0.2,5.9,0.4,9.1,0.9
	c12.5,1.5,27.6,5.5,41.9,12.3c1.8,0.9,3.6,1.7,5.4,2.6c1.6,0.9,3.3,1.9,5,2.8c1.6,1,3.5,1.9,4.9,2.9c1.5,1,3,2,4.5,2.9l2.3,1.5
	l2,1.4c1.3,0.9,2.7,1.9,4,2.8c2.3,1.7,4.7,3.3,7.1,5c8.7,6,14.6,9.2,22.8,11.5c8,2.2,19.4,3.1,29.2,2.4l3.6-0.3
	c1.2,0,2.3-0.4,3.4-0.6l3.4-0.6l3.2-0.9c2.2-0.4,4.3-1.5,6.5-2.2c1.1-0.4,2.3-1.1,3.5-1.6c1.2-0.6,2.3-1,3.6-1.8l3.9-2.1l4.4-2.6
	l9.8-5.9c3.8-2.1,7.3-4.3,11.7-6.4c2.1-1,4-2.1,6.3-3l6.7-2.8c2.2-1,4.6-1.6,6.9-2.4c2.3-0.7,4.7-1.5,7-2.1l7.1-1.5
	c2.3-0.4,4.7-1.1,7-1.2c2.3-0.2,4.6-0.5,6.9-0.7c2.3-0.2,4.6-0.6,6.8-0.5c4,0,8-0.1,12-0.1c4,0,8,0.1,12,0.1c2.2,0,4.5,0.4,6.8,0.5
	c2.3,0.2,4.6,0.5,6.9,0.7c2.3,0.2,4.7,0.8,7,1.2l7.1,1.5c2.3,0.6,4.7,1.4,7,2.1c2.3,0.8,4.7,1.4,6.9,2.4l6.7,2.8
	c2.3,0.9,4.2,2,6.3,3c4.3,2.1,7.9,4.2,11.7,6.4l9.8,5.9l4.4,2.6l3.9,2.1c1.3,0.8,2.5,1.3,3.6,1.8c1.2,0.5,2.4,1.2,3.5,1.6
	c2.2,0.8,4.3,1.8,6.5,2.2l3.2,0.9l3.4,0.6c1.2,0.2,2.2,0.5,3.4,0.6l3.6,0.3c9.8,0.6,21.2-0.2,29.2-2.4c8.2-2.3,14.1-5.6,22.8-11.5
	c2.4-1.7,4.8-3.4,7.1-5c1.4-0.9,2.7-1.9,4-2.8l2-1.4l2.3-1.5c1.5-1,3-2,4.5-2.9c1.5-1,3.3-2,4.9-2.9c1.7-1,3.3-1.9,5-2.8
	c1.8-0.9,3.6-1.7,5.4-2.6C1464,11,1479.1,7,1491.6,5.5c3.3-0.6,6.2-0.7,9.1-0.9c2.9-0.2,5.8-0.4,8.5-0.6c5.5-0.2,10.7,0.1,15.6,0.1
	l0.2,0.5C1520.2,4.5,1515,4.4,1509.5,4.5z"/>
</svg>
