<?xml version="1.0" encoding="utf-8"?>
<!-- Generator: Adobe Illustrator 26.0.1, SVG Export Plug-In . SVG Version: 6.00 Build 0)  -->
<svg version="1.1" id="Layer_1" xmlns="http://www.w3.org/2000/svg" xmlns:xlink="http://www.w3.org/1999/xlink" x="0px" y="0px"
	 viewBox="0 0 1920 118" style="enable-background:new 0 0 1920 118;" xml:space="preserve">
<style type="text/css">
	.st0{fill:none;}
	.st1{fill:#987FEF;}
	.st2{fill:#FFFFFF;}
	.st3{fill:#202020;}
	.st4{fill:#ED98C0;}
	.st5{fill:#323279;}
	.st6{fill-rule:evenodd;clip-rule:evenodd;fill:#60600F;}
	.st7{fill:#CEBB05;}
	.st8{fill:#9723E2;}
	.st9{fill:#E83867;}
	.st10{fill:#0C7A14;}
	.st11{fill:#50A34B;}
	.st12{fill:#EF3C3C;}
	.st13{fill:#E5E55A;}
	.st14{fill:#181868;}
	.st15{fill:#603813;}
	.st16{fill:#890E58;}
	.st17{fill:#F998CD;}
	.st18{fill-rule:evenodd;clip-rule:evenodd;}
</style>
<path d="M1888.5,27c-9.2,8-16.4,17.9-24.9,26.6c-8.5,8.7-18.8,16.5-30.8,18.3c-28.7,4.3-27.4-18.4-29.9-38.2
	c-1.2-9.5-5.6-20-14.8-22.8c-10.2-3.1-20.7,5.2-25.4,14.8s-5.8,20.5-10.2,30.2c-4.4,9.7-14,18.7-24.5,16.7
	c-15.6-3-18.5-23.9-33.9-25.9c-25.4-3.3-21.6,38.2-44.6,36.9c-7.3-0.4-12.8-6.8-15.9-13.4c-3.1-6.6-4.7-13.9-8.8-19.9
	c-11.7-16.8-38.5-14.9-55.2-3c-16.7,11.8-27.2,30.4-40.9,45.6c-13.7,15.2-34.3,27.9-53.9,21.9c-16.3-4.9-26.4-21-32.8-36.8
	c-6.4-15.7-10.9-32.8-22.2-45.5c-15.8-17.8-44.1-22.9-65.1-11.8c-19,10-30,30-43.4,46.6c-13.5,16.7-34.4,31.7-54.9,25.5
	c-21-6.4-29.1-29.7-41.8-45.2c-17.9-21.9-45.9-24.9-71.6-14.6c-22.7,9.1-39.2,37.3-62.6,41.1c-21.6,3.5-39.7-15-54.3-31.3
	s-35.1-33.4-55.8-26.3c-17.3,5.9-24.7,25.5-32.2,42.1c-7.5,16.6-21.6,34.7-39.6,31.7c-29.4-4.9-29.3-57.2-58.6-62.4
	c-19-3.4-33.5,16.3-41.9,33.7c-8.4,17.4-20,37.9-39.4,38.1c-14.1,0.1-25.5-11.4-32.8-23.4c-7.2-12.1-12.2-25.8-22.3-35.6
	c-10-9.8-27.8-14.1-37.8-4.3c-16.8,16.4,4.9,49.2-10.4,66.9c-9.5,11.1-28.4,8.3-39.4-1.4c-11-9.6-16.5-23.9-23.1-36.9
	c-6.6-13-15.8-26.3-29.9-30.4c-18.3-5.4-37.1,6.8-49.8,21c-12.7,14.1-23,31.2-39.5,40.7c-28.6,16.5-64.3-10.5-76.1-36.4
	c-8.3-18.3-9.4-41.5-25.5-53.5C354.2-7.1,327.2,2.6,312,19.2c-15.2,16.6-23.3,38.4-36.3,56.8c-13,18.4-35.1,34-56.8,28.2
	c-16.8-4.5-28-20.2-35.9-35.7c-7.9-15.5-14.5-32.4-27.8-43.7c-13.3-11.2-36.2-13.6-46.6,0.3c-8.4,11.3-5,27.1-1.9,40.8
	c3.1,13.7,4.4,30.5-6.3,39.6c-10.5,9-27.7,5-37.2-5.1c-9.5-10-13-24.1-15.6-37.7C45.1,49.3,43,35.2,35.5,23.6
	C28,12,13.3,3.7,0.3,8.4l0.5,112.1l1146.6-0.3L1920,122V10.2C1908.4,13.4,1897.6,19.2,1888.5,27z"/>
</svg>
