<?xml version="1.0" encoding="utf-8"?>
<!-- Generator: Adobe Illustrator 26.0.1, SVG Export Plug-In . SVG Version: 6.00 Build 0)  -->
<svg version="1.1" id="Layer_1" xmlns="http://www.w3.org/2000/svg" xmlns:xlink="http://www.w3.org/1999/xlink" x="0px" y="0px"
	 viewBox="0 0 1920 79" style="enable-background:new 0 0 1920 79;" xml:space="preserve">
<style type="text/css">
	.st0{fill:none;}
	.st1{fill:#987FEF;}
	.st2{fill:#FFFFFF;}
	.st3{fill:#202020;}
	.st4{fill:#ED98C0;}
	.st5{fill:#323279;}
	.st6{fill-rule:evenodd;clip-rule:evenodd;fill:#60600F;}
	.st7{fill:#CEBB05;}
	.st8{fill:#9723E2;}
	.st9{fill:#E83867;}
	.st10{fill:#0C7A14;}
	.st11{fill:#50A34B;}
	.st12{fill:#EF3C3C;}
	.st13{fill:#E5E55A;}
	.st14{fill:#181868;}
	.st15{fill:#603813;}
	.st16{fill:#890E58;}
	.st17{fill:#F998CD;}
	.st18{fill-rule:evenodd;clip-rule:evenodd;}
</style>
<g>
	<path d="M650.2,47C650.2,47,650.2,47,650.2,47C650.3,47,650.3,47,650.2,47L650.2,47z"/>
	<path d="M1726.6,38.7c-1.6-0.3-2.6-1.7-4.2-2.1c-1.2-0.3-3.4,0.6-4.4-0.2c-1.7-1.2-1.3-2.6-1.5-4.5c-0.2-1.6,0.5-3.6-0.9-4.9
		c-1-0.8-10.5,0.3-10.5,0.4c0,0.1,0,0.2,0,0.3c0.4,0.2,1,0.4,1.2,0.7c0.2,0.3,0,0.8,0,1.1c-0.5,0-1.1,0.1-1.4-0.1
		c-0.8-0.5-1.4-1.2-2.2-1.7c-0.1-0.1-0.5,0.1-0.6,0.1c0.6,0.8,1.1,1.5,1.7,2.2c-0.1,0.1-0.1,0.1-0.2,0.2c-0.8-0.4-1.6-0.8-2-1
		c-1.3,0.8-2.4,1.6-3.7,2.4c-0.1-0.4-0.1-0.7-0.2-1.1c-0.7,0.1-1.4,0.1-2.2,0.2c0-0.1-0.1-0.3-0.1-0.4c1.2-0.3,2.5-0.5,3.7-0.8
		c0.1,0.1,0.1,0.2,0.2,0.3c0.2-0.4,0.3-0.8,0.6-1.3c-2.8,0.5-5.4,1.1-8,1.4c-1.5,0.2-3.1,0-4.6-0.2c-0.8-0.2-1.5-0.9-2-1.6
		c0.6,0.1,1.1,0.3,1.7,0.4c0.1-0.1,0.2-0.3,0.3-0.4c-1.2-0.7-2.4-1.3-3.5-2c0.2-0.1,0.4-0.3,0.6-0.4c0.4-0.5,0.8-0.9,1.4-1.6
		c-1-0.1-1.7-0.2-2.3-0.3c0.3-0.5,1.1-1.4,0.8-1.6c-0.6-0.6-1.7-0.8-2.7-1.3c0.1-0.1,0.4-0.4,1-1c-3.8,0.3-7.4,0-10.6,1.8
		c-2.1-1.6-4.1,0.3-6.8,0c1.2,0.8,2.1,1.4,2.9,1.9c-3.5-0.6-3.8-0.9-3.6-2.1c-1.7,0.3-3.3,0.6-5,1c-0.8-1-1.6-2.1-2.5-3.1
		c-0.2,0.5-0.3,0.8-0.5,1.1c-0.1,0-0.2-0.1-0.4-0.1c0.2-0.7,0.4-1.4,0.7-2.2c-1.2-0.4-2.4-0.6-3.6-0.6c-0.2,0.6-0.4,1-0.5,1.3
		c-1.6,0.1-3,0.2-4.6,0.3c0.2-0.5,0.4-0.9,0.7-1.1c-0.9,0.2-1.7,0.5-2.6,0.7c1,0.6,2,1.1,3,1.7c0,0.1,0,0.3,0.1,0.4
		c-1.3-0.1-2.6-0.1-4-0.2c0.6,0.5,1.2,1.1,1.8,1.6c-2.5-0.6-3.7-1.4-3.7-2.6c-0.8,0.2-1.6,0.5-2.4,0.7c-0.1-0.4-0.2-0.6-0.4-1
		c-0.7,0.2-1.4,0.4-2.1,0.6c0.2,0.5,0.4,1,0.5,1.5c0.1,0.4-0.3,0.9-0.6,1.3c0,0.1-0.7,0-0.8-0.1c-0.1-0.4-0.1-0.9,0-1.3
		c0-0.3,0.3-0.5,0.4-0.7c-0.4-0.1-0.8-0.2-1.1-0.3c-2,0.4-3.9,0.9-5.2,2.5c-0.4,0.4-1.3,0.6-2,0.8c-0.1-0.1-0.2-0.3-0.4-0.4
		c0.5-0.4,1.1-0.7,1.6-1.1c-2.2-0.6-7.1,0.5-7.6,1.3c-2.4,0.3-4.6,0.4-6.8,0.8c-3.4,0.6-6.7,1.2-10.1,0.1c-0.3-0.1-0.8,0-1.1,0.1
		c-3.6,1.2-7.2,2.3-10.7,3.6c-2.1,0.8-4.1,1.7-6.1,2.6c-0.3,0.1-0.8,0.4-1.1,0.3c-3.5-0.9-6.3,0.3-9,1.8c-1,0.5-1.9,0.7-3.1,0.8
		c-1.7,0.1-3.4,0.4-5,0.9c-1.1,0.3-1.9,1.1-3.2,1.8c-4-1.1-7.4,1.5-11.7,1.8c0.6,1.1,1.1,2.1,1.6,3c-1.7,1.3,1.2,1.8,0.8,3
		c-0.3-0.2-0.6-0.4-0.9-0.6c-0.8-0.5-1.4-0.7-2.4-0.1c-1.2,0.8-2.7,0.9-4.4,0.8c-2.7-0.2-5.5-0.1-8.3-0.2c-0.7,0-1.3-0.4-1.9-0.6
		c0-0.2,0.1-0.5,0.1-0.7c-2.9,0.2-5.8,0.4-8.6,0.6c-0.3,0-0.6,0-0.8-0.1c-2.6-1.7-5.4-1.6-8.4-0.8c-0.1,0-0.4,0-0.5,0
		c-2.4-1.4-5.4-1.2-8.1-1.5c-2.5-0.3-4.9-0.9-7-2.1c-0.5-0.3-1.2-0.5-1.8-0.4c-3.7,0.1-7.3,0.3-10.9,0.5c-2.5,0.2-5,0.5-7.4,0.8
		c-0.4,0-0.9,0.1-1.1,0c-3-1.8-6.2-1.3-9.5-0.6c-1,0.2-1.8,0.1-2.9-0.1c-1.8-0.5-3.7-0.8-5.5-0.6c-0.1,0-0.1-0.1-0.2-0.1l0.1,0.1
		c-0.5,0.1-1,0.2-1.5,0.3c-0.4-0.4-0.7-0.9-1-1.4c-0.8,0.1-1.6-0.2-2.2-0.7c-0.5-0.1-1.1-0.4-1.5-0.7c-0.6-0.4-1.1-1-1.6-1.5l-1.9-1
		c-0.5,0.3-0.7,0.5-0.9,0.7c0.8,0.2,1.5,0.4,2.2,0.6c0,0.1-0.1,0.2-0.1,0.3h-2.4c-0.8-1.4-0.8-1.5,1.3-1.5c0.2-0.1,0.3-0.2,0.5-0.2
		c-1.6-0.8-4.7-0.8-6.3-0.4c0,0,0,0,0.1,0c2.8-0.3,3.6,0.3,2.9,2.2c-0.2-0.4-0.4-0.9-0.6-1.4c-1-0.1-1.7-0.5-2.3-0.9
		c-0.1,0-0.2,0-0.3,0c0.1,0,0.2,0,0.3-0.1c-1-0.6-1.9-1.4-3.3-1.4c-0.3,1.1-0.5,2-0.8,2.9c-0.2,0-0.5,0-0.7-0.1
		c0-0.5,0.1-0.9,0.1-1.6c-0.7-0.2-1.8-0.7-2.4-0.5c-2.1,0.8-0.9,2.4-1,3.6l-0.5,0.1c-0.2-0.8-0.5-1.5-0.8-2.4
		c-0.4,0.6-0.7,1.2-1.1,1.7c0.1,0,0.2-0.1,0.4-0.1c0.3,0.7,0.5,1.4,0.9,2.4c-1-0.3-1.4-0.4-1.8-0.5c-0.6,2.3-2.3,2.3-4.8,1.5
		c0.2,0.4,0.4,0.9,0.7,1.4c-0.1,0.1-0.3,0.2-0.4,0.3c-0.9-0.7-1.7-1.4-2.7-2.2c-0.4,0.4-0.8,1-1.2,1.5c-0.5-0.6-1-1.2-1.8-2.1
		c0,0.7,0,1.2,0,1.7c0,0.6-0.2,1.1-0.3,1.7c-0.1,0-0.3,0-0.4,0c-0.3-1.2-0.7-2.4-1.1-3.7c-1.2,1-2.1,1.8-3.2,2.7
		c-0.4-0.2-0.9-0.4-1.2-0.6c0.9-0.5,1.7-1.1,2.7-1.6c-1.3-1.2-2.7-0.8-4-0.7c0,0,0,0,0,0c0,0-0.1,0-0.1,0c-0.7,0.2-1.3,0.5-2,0.7
		c1.1,0.9,2.2,1.8,3.2,2.6c-2.6,0.1-2.6,0.1-5.2-3.3c1.4,0,2.7,0,4,0c0,0,0,0,0.1,0c-1.1-1.3-3.9-1.4-5-0.2
		c-0.6,0.3-1.3,0.6-1.8,0.9c-0.9-0.7-1.9-1.3-3.2-2.2c1,0.3,1.7,0.5,2.5,0.7c0.8,0.2,1.6,0.4,2.5,0.6c-0.5-0.3-0.9-0.8-1.5-1
		c-0.9-0.3-1.8-0.5-2.7-0.7c-1.5-0.4-2.9-0.4-3.5,1.1c-0.5-0.3-1-0.6-1.6-0.9c-0.1,0.2-0.2,0.5-0.2,0.8c-1,0.2-1.9,0.4-2.9,0.6
		c-0.8,0.2-1.4,0.6-2.1,0.9c-0.2-0.2-0.4-0.4-0.7-0.7c-0.2,0.5-0.4,0.9-0.5,1.1c0.6,0.4,1.2,0.7,2.1,1.2c-1.3,0.2-2,0.3-2.6,0.4
		c-1.7-2.1-3.4-4.3-5.3-6.6c-0.2,0.5-0.3,0.8-0.5,1.1c-0.1,0-0.2-0.1-0.4-0.1c0.2-0.7,0.4-1.4,0.7-2.2c-1.2-0.4-2.4-0.6-3.6-0.6
		c0.1-0.3,0.3-0.7,0.5-1.1c-1.9,0.4-3.7,0.5-4.8,1.6c-0.9,0.2-1.7,0.5-2.6,0.7c-0.1-0.1-0.2-0.1-0.3-0.2c-0.1,0.1-0.2,0.2-0.4,0.4
		c-0.5,0.1-0.9,0.2-1.4,0.4c-0.1-0.7-0.2-1.1-0.3-1.6c-0.4,0.7-0.5,1.3-0.5,1.8c-0.8,0.2-1.6,0.5-2.4,0.7c-0.1-0.4-0.2-0.6-0.4-1
		c-0.7,0.2-1.4,0.4-2.1,0.6c-0.2-0.5-0.4-1.1-0.6-1.6c-1.5,0.3-2.6,0.5-3.8,0.7c0,0.2-0.1,0.3-0.1,0.5c0.9,0.2,1.9,0.5,2.9,0.8
		c-2,0.4-3.9,0.9-5.2,2.5c-0.4,0.4-1.3,0.6-2,0.8c-0.1-0.1-0.2-0.3-0.4-0.4c0.5-0.4,1.1-0.7,1.6-1.1c-2.2-0.6-7.1,0.5-7.6,1.3
		c-2.4,0.3-4.6,0.4-6.8,0.8c-3.4,0.6-6.7,1.2-10.1,0.1c-0.3-0.1-0.8,0-1.1,0.1c-3.6,1.2-7.2,2.3-10.7,3.6c-2.1,0.8-4.1,1.7-6.1,2.6
		c-0.3,0.1-0.8,0.4-1.1,0.3c-3.5-0.9-6.3,0.3-9,1.8c-1,0.5-1.9,0.7-3.1,0.8c-1.7,0.1-3.4,0.4-5,0.9c-1.1,0.3-1.9,1.1-3.2,1.8
		c-4-1.1-7.4,1.5-11.7,1.8c0.6,1.1,1.1,2.1,1.6,3c-1.7,1.3,1.2,1.8,0.8,3c-0.3-0.2-0.6-0.4-0.9-0.6c-0.8-0.5-1.4-0.7-2.4-0.1
		c-1.2,0.8-2.7,0.9-4.4,0.8c-2.7-0.2-5.5-0.1-8.3-0.2c-0.7,0-1.3-0.4-1.9-0.6c0-0.2,0.1-0.5,0.1-0.7c-2.9,0.2-5.8,0.4-8.6,0.6
		c-0.3,0-0.6,0-0.8-0.1c-2.6-1.7-5.4-1.6-8.4-0.8c-0.1,0-0.4,0-0.5,0c-2.4-1.4-5.4-1.2-8.1-1.5c-2.5-0.3-4.9-0.9-7-2.1
		c-0.5-0.3-1.2-0.5-1.8-0.4c-3.7,0.1-7.3,0.3-10.9,0.5c-2.5,0.2-5,0.5-7.4,0.8c-0.4,0-0.9,0.1-1.1,0c-3-1.8-6.2-1.3-9.5-0.6
		c-1,0.2-1.8,0.1-2.9-0.1c-1.8-0.5-3.7-0.8-5.5-0.6c-0.1,0-0.1-0.1-0.2-0.1l-1.4-0.7c0-0.2-0.1-0.4-0.1-0.6
		c-0.2,0.1-0.4,0.2-0.6,0.2l-0.4-0.2c-0.1-0.2-0.2-0.5-0.3-0.7c-0.2,0.1-0.4,0.2-0.6,0.3l-2.8-1.4c-0.3-0.3-0.5-0.6-0.8-0.8
		c-0.7-0.6-1.5-1.3-2.2-1.1c-1.6-0.8-4.7-0.8-6.3-0.4c-1-0.6-1.9-1.4-3.3-1.4c-0.3,1.1-0.5,2-0.8,2.9c-0.2,0-0.5,0-0.7-0.1
		c0-0.5,0.1-0.9,0.1-1.6c-0.7-0.2-1.8-0.7-2.4-0.5c-2.1,0.8-0.9,2.4-1,3.6l-0.5,0.1c-0.2-0.8-0.5-1.5-0.8-2.4
		c-0.4,0.6-0.7,1.2-1.1,1.7c0.1,0,0.2-0.1,0.4-0.1c0.3,0.7,0.5,1.4,0.9,2.4c-1-0.3-1.4-0.4-1.8-0.5c-0.6,2.3-2.3,2.3-4.8,1.5
		c0.2,0.4,0.4,0.9,0.7,1.4c-0.1,0.1-0.3,0.2-0.4,0.3c-0.9-0.7-1.7-1.4-2.7-2.2c-0.4,0.4-0.8,1-1.2,1.5c-0.5-0.6-1-1.2-1.8-2.1
		c0,0.7,0,1.2,0,1.7c0,0.6-0.2,1.1-0.3,1.7c-0.1,0-0.3,0-0.4,0c-0.3-1.2-0.7-2.4-1.1-3.7c-1.2,1-2.1,1.8-3.2,2.7
		c-0.4-0.2-0.9-0.4-1.2-0.6c0.9-0.5,1.7-1.1,2.7-1.6c-1.3-1.2-2.7-0.8-4-0.7c0,0,0,0,0,0c0,0-0.1,0-0.1,0c-0.7,0.2-1.3,0.5-2,0.7
		c1.1,0.9,2.2,1.8,3.2,2.6c-2.6,0.1-2.6,0.1-5.2-3.3c1.4,0,2.7,0,4,0c0,0,0,0,0.1,0c-1.1-1.3-3.9-1.4-5-0.2
		c-0.6,0.3-1.3,0.6-1.8,0.9c-0.9-0.7-1.9-1.3-3.2-2.2c1,0.3,1.7,0.5,2.5,0.7c0.8,0.2,1.6,0.4,2.5,0.6c-0.5-0.3-0.9-0.8-1.5-1
		c-0.9-0.3-1.8-0.5-2.7-0.7c-1.5-0.4-2.9-0.4-3.5,1.1c-0.5-0.3-1-0.6-1.6-0.9c-0.5,0.9,0.2,2.3-1.7,2.3c-0.2-0.7-0.5-1.4-0.7-2.2
		c-0.6,0.3-1,0.5-1.1,0.5c-1.2-0.4-2.1-0.7-3.3-1c0,0.6,0.1,0.8,0.1,1.2c-3.6-0.3-6.4,1-9.7,2.1c-1.5-0.7-2.3,1-3.5,1.4
		c-3.5-0.8-3.7-3.3-4.9-5.3c-0.5-0.9-1.8-1.5-2.9-2c-0.6-0.3-1.6,0-2.3,0.2c-0.2,0.1,0.1,1,0.1,1.6c-0.1,0-0.4,0.1-0.5,0
		c-1.6-0.9-3.3-0.7-4.9-0.1c-1.7,0.6-3.2,1.5-4.8,2.2c-2.3,0.9-7.7,4.1-10.2,3.6c-1.4-0.3-2.2-1.6-3.5-1.8c-1.7-0.3-6.1-0.9-7.5,0.2
		c-0.5-2.4-2.5-0.9-4.1-0.7c-0.1-1.9-0.7-6.4-3.3-5.9c0.2-0.1-0.2-3.1-0.3-3.4c-0.9-0.2-1.7-0.6-2.6-1.1c-3.1,0.2-6.4,0.5-9.7,0.8
		c0,0.1,0,0.2,0,0.3c0.4,0.2,1,0.4,1.2,0.7c0.2,0.3,0,0.8,0,1.1c-0.5,0-1.1,0.1-1.4-0.1c-0.8-0.5-1.4-1.2-2.2-1.7
		c-0.1-0.1-0.5,0.1-0.6,0.1c0.6,0.8,1.1,1.5,1.7,2.2c-0.1,0.1-0.1,0.1-0.2,0.2c-0.8-0.4-1.6-0.8-2-1c-1.3,0.8-2.4,1.6-3.7,2.4
		c-0.1-0.4-0.1-0.7-0.2-1.1c-0.7,0.1-1.4,0.1-2.2,0.2c0-0.1-0.1-0.3-0.1-0.4c1.2-0.3,2.5-0.5,3.7-0.8c0.1,0.1,0.1,0.2,0.2,0.3
		c0.2-0.4,0.3-0.8,0.6-1.3c-2.8,0.5-5.4,1.1-8,1.4c-1.5,0.2-3.1,0-4.6-0.2c-0.8-0.2-1.5-0.9-2-1.6c0.6,0.1,1.1,0.3,1.7,0.4
		c0.1-0.1,0.2-0.3,0.3-0.4c-1.2-0.7-2.4-1.3-3.5-2c0.2-0.1,0.4-0.3,0.6-0.4c0.4-0.5,0.8-0.9,1.4-1.6c-1-0.1-1.7-0.2-2.3-0.3
		c0.3-0.5,1.1-1.4,0.8-1.6c-0.6-0.6-1.7-0.8-2.7-1.3c0.1-0.1,0.4-0.4,1-1c-3.8,0.3-7.4,0-10.6,1.8c-2.1-1.6-4.1,0.3-6.8,0
		c1.2,0.8,2.1,1.4,2.9,1.9c-3.5-0.6-3.8-0.9-3.7-2.1c-2.7,0.5-5.5,1-8.3,1.6c-0.8,0.2-1.4,0.6-2.1,0.9c-0.2-0.2-0.4-0.4-0.7-0.7
		c-0.2,0.5-0.4,0.9-0.5,1.1c0.6,0.4,1.2,0.7,2.1,1.2c-1.3,0.2-2,0.3-2.6,0.4c-1.7-2.1-3.4-4.3-5.3-6.6c-0.2,0.5-0.3,0.8-0.5,1.1
		c-0.1,0-0.2-0.1-0.4-0.1c0.2-0.7,0.4-1.4,0.7-2.2c-2.6-0.8-5.3-0.8-8-0.1c-2.6,0.7-5.2,1.4-7.8,2.2c-0.1-0.4-0.2-0.6-0.4-1
		c-3,1.1-6.8,0.9-8.9,3.4c-0.4,0.4-1.3,0.6-2,0.8c-0.1-0.1-0.2-0.3-0.4-0.4c0.5-0.4,1.1-0.7,1.6-1.1c-2.2-0.6-7.1,0.5-7.6,1.3
		c-2.4,0.3-4.6,0.4-6.8,0.8c-3.4,0.6-6.7,1.2-10.1,0.1c-0.3-0.1-0.8,0-1.1,0.1c-3.6,1.2-7.2,2.3-10.7,3.6c-2.1,0.8-4.1,1.7-6.1,2.6
		c-0.3,0.1-0.8,0.4-1.1,0.3c-3.5-0.9-6.3,0.3-9,1.8c-1,0.5-1.9,0.7-3.1,0.8c-1.7,0.1-3.4,0.4-5,0.9c-1.1,0.3-1.9,1.1-3.2,1.8
		c-4-1.1-7.4,1.5-11.7,1.8c0.6,1.1,1.1,2.1,1.6,3c-1.7,1.3,1.2,1.8,0.8,3c-0.3-0.2-0.6-0.4-0.9-0.6c-0.8-0.5-1.4-0.7-2.4-0.1
		c-1.2,0.8-2.7,0.9-4.4,0.8c-2.7-0.2-5.5-0.1-8.3-0.2c-0.7,0-1.3-0.4-1.9-0.6c0-0.2,0.1-0.5,0.1-0.7c-2.9,0.2-5.8,0.4-8.6,0.6
		c-0.3,0-0.6,0-0.8-0.1c-2.6-1.7-5.4-1.6-8.4-0.8c-0.1,0-0.4,0-0.5,0c-2.4-1.4-5.4-1.2-8.1-1.5c-2.5-0.3-4.9-0.9-7-2.1
		c-0.5-0.3-1.2-0.5-1.8-0.4c-3.7,0.1-7.3,0.3-10.9,0.5c-2.5,0.2-5,0.5-7.4,0.8c-0.4,0-0.9,0.1-1.1,0c-3-1.8-6.2-1.3-9.5-0.6
		c-1,0.2-1.8,0.1-2.9-0.1c-2.9-0.8-5.9-1.1-8.8,0.5c-3.4-2.3-7.8-0.7-11.8-1.6v3.2c-2.1,0.9,0.3,2.1-0.5,3.1
		c-0.2-0.3-0.4-0.5-0.6-0.8c-0.5-0.7-1-1.1-2.3-0.8c-1.1,0.2-2.5,0.4-3.5,0.1c-2.2-0.6-3.7,0-5.7,1.4c0.4,0.7,0.9,1.7,1.4,2.6
		c0.1,0.1,0.1,0.3,0.1,0.4c-1.1,1.4,0,2.7,0.2,4c0.3,1.7,0.1,1.8-2,1.8c-0.3,0-0.7,0.1-1.2,0.2c0.7,0.9,1.3,1.7,2,2.7
		c-1-0.4-1.7-0.7-2.7-1c0-0.1,0.1-0.4,0.1-0.8c0-0.7-0.3-1.1-1.4-1.1c-1.9,0.1-3.8,0.2-5.7,0.1c-1.1,0-2.2-0.3-3.5-0.6
		c0.7,1.7,1.9,2.3,3.5,1.9c0.2,0.9,0.4,1.7,0.5,2.5c-0.1,0.1-0.3,0.2-0.4,0.3c-1.1-0.9-2.3-1.7-3.6-2.7c-0.4,0.5-0.9,0.9-1.1,1.1
		c-2.1,0.1-3.9,0.2-5.8,0.3c0.5-0.7,1-1.5,1.5-2.1c1.1,0.4,1.8,0.7,2.5,1c0-0.7,0.1-1.2,0.1-1.8h-10.9c0.1,0.3,0.1,0.7,0.1,0.7h6.9
		c0.1,0.1,0.2,0.3,0.2,0.4c-1.6,0.7-3.2,1.4-5,2.3c-0.2-0.9-0.4-1.6-0.5-2.2c-1.3,2.4-4.7,0.2-6.3,2c-0.8-1-1.4-1.8-2.1-2.6
		c0.5-0.2,0.9-0.3,1.4-0.5l-0.1-0.4c-1.3,0.2-2.7,0.3-4,0.5c0,0.2,0,0.3,0,0.5c0.7,0,1.5,0.1,2.2,0.1c-1.2,1.1-2.2,1.1-4.8-0.1
		c0.4-0.2,0.8-0.5,1.3-0.8c-0.7,0-1.2-0.2-1.8-0.1c-0.4,0.1-1,0.4-0.9,0.6c0.3,1.1,0.7,2.2,1.1,3.4c-1.2,0-2.8-0.2-4.2,0
		c-2.4,0.4-4.5-0.2-6.7-0.5c-2.3-0.4-4.7-0.3-6.9-0.7c-1.6-0.3-3-1-4.6-1.5c-0.6-0.2-1.2-0.4-1.8-0.4c-4,0.2-8,0.5-12,0.8
		c-2.1,0.2-4.2,0.6-6.3,0.9c-0.4,0.1-0.9,0.2-1.1,0.1c-3.1-1.7-6.2-1.1-9.5-0.5c-0.9,0.2-1.9,0.1-2.8,0c-3-0.5-6-1-8.8,0.8
		c-3.3-2.3-7.5-0.6-11.8-1.4c1.6-0.7,2.7-1.2,3.9-1.6c1.3-0.5,2-2.1,1.1-2.9c-1.2-1.1-2.6-2.2-3.8-3.3c-0.7-0.6-1.9-1.1-0.5-2.1
		c-0.4-0.2-0.8-0.4-1.2-0.6c0.5-0.4,0.8-0.8,1.3-1c0.8-0.5,1.7-0.9,2.6-1.3c1.8-0.8,2-1.8,0.9-3.1c-2.2-2.4-2.2-2.4-5.6-3.3
		c0.5-0.5,1-1,1.3-1.4c-0.8-0.4-1.7-0.7-1.7-0.9c0.2-1.4-1.3-2.1-2.4-2.4c-1.6-0.4-1.7-1.1-1.8-2c0-0.2-0.2-0.4-0.3-0.7
		c-0.3,0.1-0.6,0.2-1.2,0.3c1.2-2.8-2.2-2.3-3.1-3c-3.1,1.3-6,2.6-9,3.9c1,0.4,1.8,0.6,2.3,1c0.2,0.1-0.4,0.8-0.6,1.3
		c-1.5-0.6-2.8-1.4-4.4-1c1,0.6,1.9,1,2.8,1.5c0,0.1,0,0.2-0.1,0.3c-0.9-0.1-1.8-0.2-2.4-0.3c-0.7,1.1-1.4,2.1-1.8,2.7
		c-1,0-1.5-0.1-1.9,0c-0.5,0.1-0.9,0.3-1.4,0.4c0-0.2,0-0.5,0-0.7c-1.8,0.7-3.6,1.3-5.5,2c-1.7,0.6-3.4,0.8-4.9-0.4
		c0.6-0.1,1.2-0.2,1.8-0.2c0-0.1,0-0.3,0-0.4c-1.3-0.4-2.6-0.8-3.9-1.2c0.1-0.7,0.2-1.2,0.3-2c-0.9,0.1-1.5,0.2-1.8,0.3
		c-0.3-0.6-0.3-1.5-0.9-1.8c-0.5-0.3-1.6-0.1-2.6-0.1c0-0.1,0.1-0.6,0.3-1.4c-3.2,1.5-6.8,2.2-8.8,4.9c-2.8-0.9-3.7,1.5-6.2,2
		c1.5,0.4,2.5,0.6,3.6,0.9c-0.1,0.2-0.2,0.3-0.2,0.5c-1.3-0.7-3.5,0.6-4.2-1.3c-3.1,1.8-6.1,3.6-9.5,5.6c0.8,0.4,1.6,0.8,2.6,1.3
		c-0.9,0.3-1.4,0.6-2.1,0.8c-2.6-1.4-5.3-2.9-8.1-4.5c0,0.4-0.1,0.7-0.1,1c-0.1,0-0.2,0-0.3,0c-0.2-0.7-0.3-1.4-0.5-2.1
		c-6.2,0.1-9.3,3.9-13.5,6.6c-0.3-0.3-0.5-0.5-0.8-0.8c-1.3,0.8-2.7,1.5-3.8,2.4c-1,0.9-1.7,2-2.6,3.1c-0.5,0.6-1,1.1-1.5,1.6
		c-0.2-0.1-0.4-0.2-0.5-0.3c0.3-0.5,0.6-1,1-1.6c-3,0.3-4.5,2.2-6.5,3.4c0.2,0.4,0.4,0.7,0.6,1c-1.9-0.4-3.3,0.3-4.7,1.1
		c-1.8,0.9-4.1,0.8-6.1-0.7c1.8,0.1,3.4,0.3,5.2,0.4c-0.9-1.2-1.5-2.1-2.2-3.1c0.4-0.3,0.7-0.5,1-0.7c0.4,0.8,0.8,1.6,1.2,2.4
		c0.2,0,0.5,0,0.7,0c0.7-1,1.3-1.9,2-2.9c0.4-0.2,1-0.3,1.1-0.6c0.5-1.2,1.2-2.5-0.1-3.7c-0.3-0.3-0.4-0.8-0.6-1.3
		c1.6,0.4,2.9,0.3,3.3-1.3c0.2,0.1,0.3,0.2,0.5,0.4c-0.8,1-1.7,2-2.5,3c0.2,0.1,0.4,0.2,0.6,0.3c1-1.2,2.2-2.3,3-3.6
		c0.3-0.5-0.2-1.3-0.3-2c-0.2,0-0.4,0-0.5,0c0.3-0.1,0.5-0.2,0.8-0.4c0.2-0.1,0.5-0.2,1-0.5c-1.3-0.5-2.5-0.9-3.7-1.4
		c-0.1,0.4-0.2,0.6-0.2,0.8c-0.7,0.1-1.4,0.1-2.4,0.2v-2.4c-1.3-0.1-2.8-0.1-4.3-0.2c-0.1,0.1-0.1,0.3-0.2,0.4
		c-0.1-0.4-0.3-0.7-0.4-1.2c-0.7,0.4-1.4,0.7-2.4,1.3c-0.2-0.8-0.3-1.5-0.5-2.3c-2.8-0.4-5.5-0.1-8,1.3c-0.2-0.9-0.3-1.7-0.5-2.6
		c-1.8,0.7-3.1,0.4-4.4-0.4c-1-0.6-1.9-0.8-2.5,0.4c-0.1,0.2-0.7,0.3-1.2,0.3c0.3-0.3,0.7-0.7,1.2-1.3c-0.8,0.1-1.2,0.2-1.6,0.3
		c-0.2-0.6-0.3-1.2-0.6-1.9c0.5,0.1,0.9,0.1,1.5,0.2c-0.3-0.7-0.6-1.4-1.2-2.6c-1.2,1.1-2.1,1.9-3,2.7c-0.1,0-0.2-0.1-0.2-0.1
		c0.4-0.7,0.8-1.4,1.2-2.2c-0.2,0.1-0.4,0.1-0.5,0.2c-0.9-1.1-1.8-2.2-2.7-3.3c-0.2,0-0.3,0.1-0.5,0.1c-0.1,0.4-0.2,0.8-0.4,1.8
		c-1-1.1-1.7-1.8-2.6-2.9c-1.5-0.2-1.1,0.7-0.9,1.6c-1.4-0.1-2.8-0.2-4.5-0.4c1.1-0.5,1.9-0.8,2.7-1.2c0.1,0.3,0.2,0.6,0.2,0.9
		c0.2,0,0.3,0,0.5,0v-2.5c-2.3,0.9-2.7,0.8-3.3-0.8c-0.5,0.1-1.1,0.1-1.7,0.2c-0.7-3.1-2.8-0.2-4.1-0.7c-1.4,2.7-2.1,3.1-3.7,2.9
		c0.4-1.3,0.8-2.6,1.1-3.6c1-1.2,1.9-2.3,3-3.2c1.7-1.5-0.4-2.6-0.6-4h-4.6c1-2.5,2.5-4.5,4.6-6.2c1.3-1.1,0.8-2.2-0.6-3.2
		c-1.5-1.1-3.3-1.3-5.1-1.8c-0.9-0.3-2.1-0.5-1.4-1.7c-0.5-0.1-0.8-0.1-1.3-0.2c0-0.1-0.1-0.3,0-0.4c0.8-1,1.5-2.1,2.4-3.1
		c1.1-1.1,0.7-2-0.5-2.6c-2.2-1.1-4.2-2.9-7.4-1.3c0.3-0.9,0.5-1.6,0.7-2.2c-0.1,0-0.3-0.1-0.4-0.1c-0.3,0.2-0.6,0.4-1.1,0.7
		c-0.8-1.2-1.9-2-3.7-2c-1.5,0-2.5-0.4-3.1-1.4c-0.1-0.2-0.9-0.2-1.4-0.2c-0.4-2.5-3.2-0.8-4.3-1.3c-2.2,2.1-4.3,4.1-6.5,6.3
		c1.2,0,2-0.1,2.7,0.1c0.2,0.1,0.1,0.9,0.2,1.3c-1.6,0-2.9,0-4.2,0c-0.1,0-0.2,0.5-0.2,0.5c1.1,0.2,2.1,0.3,3.1,0.5
		c0,0.1,0.1,0.2,0.1,0.3c-0.9,0.2-1.8,0.3-2.3,0.4c-0.1,1.3-0.2,2.4-0.3,3.7c-0.5-0.3-0.8-0.4-1.2-0.6c-0.4,0.4-0.8,0.9-1.3,1.4
		c-0.2-0.3-0.5-0.5-0.5-0.6c0.6-0.7,1.4-1.4,1.9-2.1c0.2-0.3-0.1-0.8-0.2-1.5c-1.7,2.1-3.1,4-4.7,5.8c-0.7,0.7-1.6,1.4-2.6,1.9
		c-1.3,0.7-2.1,0.7-3.7,0.2c0.6-0.2,1.2-0.4,1.8-0.6c0-0.1-0.1-0.3-0.1-0.4h-4.1c-0.4-0.7-0.6-1.2-0.9-1.7c-0.6,0.2-1.2,0.5-1.7,0.6
		c-0.3-0.5-0.5-1.4-0.9-1.4c-1-0.1-2.1,0.2-3.2,0.4c0-0.1-0.1-0.5-0.1-0.8c-1.1-0.2-5.4,4.9-5.8,6.9c-3.1,0-2.6,2.5-4.7,3.7
		c1.6-0.1,2.7-0.2,3.8-0.3c-2.2,1.4-3.4,1.5-4.4,0.6c-1.7,2.2-3.3,4.5-5,6.8c0.1,0.1,0.2,0.1,0.3,0.2c0.3-0.1,0.9-0.2,1-0.4
		c0.1-1.1,1.9-1.5,1.8-2.8c-0.1-0.9,2.8-1.6,4-0.9c-0.8,0.2-1.5,0.5-2.2,0.6c-1,0.2-1.5,0.6-1,1.4c0.1,0.2,0.2,0.6,0.2,0.8
		c-0.1,0.4-0.3,0.8-0.5,1.3c-0.3-0.3-0.6-0.6-0.9-1c-0.2,1.7-2.1,1.2-3.5,1.5c0.2,0.3,0.4,0.7,0.5,0.9c0.8-0.1,1.5-0.2,2.7-0.3
		c-0.8,0.9-1.2,1.3-1.6,1.7c-3.2-0.5-6.4-1.1-9.6-1.6c-0.1,0.2-0.1,0.4-0.2,0.9c-0.5-0.7-0.8-1.1-1.2-1.7c-5.7,1.9-6.7,6.4-9.1,10.2
		c-0.4-0.2-0.7-0.3-1.1-0.4c-0.8,1.2-1.8,2.4-2.4,3.6c-0.5,1.1-0.5,2.2-0.7,3.4c-0.1,0.7-0.3,1.3-0.5,2l-0.7-0.1
		c0.1-0.6,0.2-1.2,0.2-1.9c-2.6,1.2-3.2,3.4-4.4,5.2c1.1,0.2,2.1,0.5,3.3,0.7c-1.4,1-2.5,1.8-3.6,2.6c-0.1-0.1-0.2-0.1-0.3-0.2
		c0.8-0.8,1.5-1.5,2.3-2.3c-0.2-0.2-0.5-0.4-0.7-0.5c-1,0.7-2.2,1.2-3.1,2c-1,1-1.8,2.2-2.6,3.3c-1.4,1.8-3.1,3.4-5.6,4.4
		c-0.4,0.2-0.8,0.5-1,0.9c-1.2,2.6-2.6,3.4-6.6,3.6c-0.2-0.7-0.4-1.4-0.7-2.3c-0.7,0.4-1.1,0.6-1.6,0.9c1.6-1.8,0.7-3.2-0.7-4.7
		c-0.9-1-2.1-2-1.4-3.5c0.1-0.3-0.5-0.9-0.7-1.1c-1.5,0.4-2.6,0.7-3.7,1.1c-0.1-0.2-0.2-0.4-0.3-0.5c0.5-0.2,1-0.4,1.8-0.7
		c-0.2-0.5-0.1-1.5-0.6-1.8c-2.1-1-3.3,0.6-4.8,1.4c-0.1-0.1-0.2-0.2-0.3-0.3c0.8-0.6,1.5-1.2,2.3-1.9c-0.8,0.1-1.6,0.1-1.9,0.2
		c-0.9,0.8-1.5,1.3-2.4,2.1c-0.3-0.8-0.4-1.1-0.5-1.4c-0.8,0.2-1.4,0.3-2.1,0.5c-0.8-0.6-1.5-1.1-2.4-1.7c0.3-0.3,0.6-0.6,0.8-0.9
		c-0.1-0.1-0.2-0.2-0.4-0.3c-0.5,0.4-1,0.8-1.6,1.3c-0.9-1.2,0.1-2,1-3h-2.7c0.5-0.8,0.8-1.5,1.3-2.3c-1.3,0.6-2.5,1.1-3.7,1.6
		c-0.1-0.1-0.2-0.2-0.3-0.3c1.1-0.9,2.3-1.8,3.5-2.7c-1.8-0.2-3.1-0.4-4.5-0.6v-1.3c0.5,0.3,0.9,0.6,1.4,0.7c0.6,0.1,1.2,0,1.9,0
		c-0.1-0.4-0.1-0.9-0.2-1.3c-0.2-0.8-0.2-1.7-0.7-2.2c-0.8-0.9-0.7-2.3-2.7-2.6c-1-0.1-2.1-0.5-3.3-0.8c1.3-0.6,2.2-1.3,1.2-2.5
		c-0.4,0.2-0.9,0.4-1.3,0.6c-0.1-0.1-0.1-0.2-0.1-0.3c0.6-0.3,1.3-0.5,1.9-0.8c0.9,1.1,0.1,2.6,2,3.2c-0.5-1.3-0.8-2.7-1.5-3.9
		c-0.4-0.6-1.5-0.9-2.4-1.3c-0.1,0.1-0.2,0.2-0.3,0.3c0.1-0.5,0.1-1,0.2-1.6c-1.3,0.5-2.5,0.9-3.7,1.4c0.3,0.3,0.5,0.5,0.8,0.7
		c-0.5,0.2-0.9,0.4-1.4,0.7c0.3,0.2,0.6,0.4,0.8,0.5c-0.1,0.1-0.2,0.2-0.4,0.4c-0.8-0.5-1.6-0.9-2.4-1.4c-0.1-0.1-0.2-0.3-0.3-0.4
		c-1,0.9-2,1.8-3.2,2.8c0.1,0-0.4-0.1-1-0.4c-0.1,0.7-0.2,1.3-0.2,2.1c-0.5-0.1-1-0.2-1.3-0.4c-1.1-1-2-0.6-2.7,0.3
		c-1.1,1.4-2,2.9-3,4.4c-0.5-0.2-1.3-0.6-2.2-1c0,0.2,0.1,0.3,0.1,0.5c-1.2,0.6-2.4,1.3-3.7,1.7c-1.2,0.4-1.8,0.7-1.1,1.7
		c0.2,0.2,0,0.6,0,0.9c-0.2,0-0.3,0-0.5,0c-0.1-0.4-0.3-0.8-0.4-1.5c-0.3,0.4-0.5,0.7-0.8,1c-0.7-0.2-1.4-0.5-2.2-0.8
		c0.3-0.3,0.6-0.5,0.9-0.9c-0.9-0.3-1.8-0.5-3.2-0.9c0.3,1.4,0.5,2.4,0.7,3.5c-0.1,0-0.2,0-0.3,0c-0.5-0.7-0.9-1.3-1.4-2
		c-0.1,0.1-0.1,0.3-0.2,0.4c-1.7-0.2-3.4-0.3-5.1-0.5c0,0.1-0.1,0.2-0.1,0.3c0.4,0.3,0.7,0.6,1.1,1l-0.1,0.4c-1.2-0.1-2.4-0.2-4-0.3
		c-1.4,0.8,0.2,1.2,1.2,1.8c-0.5,0.2-1,0.4-1.1,0.4c-1-0.7-1.8-1.3-2.9-2.1c-0.4,2.2-1,2.4-2.9,1.7c-0.3,0.4-0.5,0.7-0.8,1.1
		c-1.4-0.5-2.5-0.7-2.7,0.9c0,0.4-0.5,0.8-0.8,1.2c1.7,2.1,1.8,2.9,0.5,3.9c-1-1-2-2.1-3-3.2c-0.1-0.4-0.2-0.9-0.4-1.4
		c-0.3-0.8-0.6-1.5-0.9-2.2c-0.4-1-1-1.8-2.6-1.6c-0.5,0-1-0.3-1.5-0.5c-1,0.9-1.9,1.8-3.1,2.8c-1.9-2.3-3-4.5-3.4-6.9
		c-0.2-1.4-1.8-1.7-3.5-1.6c-2.2,0.2-3.5,1.3-5.2,1.9c-0.6,0.2-1.5,0-2.2,0c-0.4,0-0.9,0.1-1.7,0.2c-0.4-1-1-2.2-1.4-3.3
		c-0.5-1.4-1.5-1.9-3.3-1.5c-2.4,0.6-5.2,0.8-5.8,3.4c-0.7-0.7-1.2-1.2-1.9-1.8c-0.4,2-1.7,1.2-2.9,1c-1,0.7-2,1.4-3.4,2.4
		c-0.5,0.1-1.9-1-2.7,0.5c-2.9-1.7-3,1.3-4.9,1.9c2.8,1.9,1.4,4.5,2.5,6.9c-0.7,0-1.3,0.1-1.8,0.1c0.1,0.1,0.2,0.1,0.2,0.2
		c-0.6,0.5-1.3,1-2.2,1.7c-0.2-0.8-0.2-1.1-0.3-1.4c-0.4,0.1-0.8,0.1-1.1,0.2c-0.4,0.1-0.7,0.1-1,0.2c-0.7-0.6-1.5-1.2-2.2-1.8
		c0.3-0.3,0.6-0.5,0.9-0.8c-0.1-0.1-0.2-0.2-0.4-0.3c-0.5,0.4-1,0.8-1.5,1.2c-0.2,0-0.3-0.1-0.5-0.1c0.4-0.9,0.7-1.8,1.2-2.9
		c-0.6-0.1-1.4-0.2-2.2-0.2c0.4-0.6,0.8-1.3,1.3-2c-1.3,0.4-2.5,0.9-3.8,1.3c-0.1-0.1-0.2-0.2-0.3-0.3c1.2-0.8,2.4-1.6,3.8-2.5
		c-1.8-0.3-3.1-0.6-4.5-0.8v-1.3c0.3,0.1,0.4,0.2,0.6,0.2c0.9,0.2,1.7,0.4,2.6,0.7c-0.1-0.6-0.2-1.3-0.3-1.9
		c-0.1-0.4-0.4-0.8-0.6-1.2c0,0,0,0,0,0c0-0.5,0-1-0.1-1.5c-0.4-2-3-1.8-4.8-2.7c1.1-0.6,2.2-1.2,1.1-2.4c-0.5,0.2-0.9,0.4-1.3,0.6
		c-0.1-0.1-0.1-0.2-0.2-0.3c0.7-0.2,1.4-0.4,2.2-0.6c0.8,1.2-0.1,2.6,1.7,3.3c-0.4-1.5-0.7-2.9-1.4-4.3c-0.2-0.5-1.4-0.7-2.3-1.1
		c0-0.2,0.1-0.6,0.2-1.2c-1.3,0.4-2.5,0.7-3.8,1.1c0.3,0.3,0.6,0.5,0.7,0.6c-0.4,0.4-0.7,0.7-1.4,1.4c-0.4-0.2-1.2-0.7-2-1.2
		c-0.1-0.2-0.1-0.3-0.2-0.5c-1.1,0.8-2.1,1.6-3.1,2.4c0.1,0.1,0.2,0.2,0.3,0.3c-0.4-0.2-0.9-0.3-1.5-0.5c-0.1,0.7-0.3,1.3-0.4,2
		c-0.4-0.1-0.7-0.1-0.9-0.2c-1.3-1.5-2.5-0.8-3.4,0.3c-1.1,1.2-1.9,2.6-2.9,3.9c-0.6-0.3-1.4-0.7-2.4-1.3c-0.5,1.6-2,2.1-3.7,2.3
		c-1.3,0.1-1.6,0.7-1.1,1.6c0.1,0.3,0,0.6-0.1,1c-0.2,0-0.3,0-0.5,0c-0.1-0.4-0.2-0.8-0.3-1.5c-0.4,0.4-0.6,0.7-0.8,1
		c-0.7-0.3-1.3-0.5-2.2-0.9c0.4-0.2,0.7-0.4,1.2-0.7c-0.9-0.3-1.7-0.6-2.5-0.9c-2.1,0.9,0.4,2.2-0.6,3.4c-0.5-0.8-0.9-1.5-1.3-2.2
		c-0.1,0.1-0.2,0.3-0.2,0.4c-1.7-0.3-3.3-0.5-5-0.8c-0.1,0.1-0.1,0.2-0.2,0.4c0.3,0.3,0.7,0.7,1,1c0,0.1-0.1,0.3-0.1,0.4
		c-1.2-0.2-2.4-0.3-3.9-0.5c-1.4,0.7,0.1,1.2,1,1.9c-0.7,0.2-1.1,0.3-1.2,0.3c-0.9-0.8-1.7-1.4-2.7-2.3c-0.7,2.2-1.1,2.3-3.1,1.6
		c-0.3,0.3-0.6,0.6-0.9,1c-3.2-1.5-2.3,1.4-3.6,1.9c1.6,2.4,1.5,3.2-0.1,4.2c-0.3-0.7-0.5-1.4-0.9-2c-0.5-0.6-1.3-0.9-1.5-1.5
		c0-0.5,0-0.9-0.1-1.4c-0.2-0.9-0.6-1.8-0.9-2.7c-0.3-0.9-0.9-1.5-2.2-1.5c-0.6,0-1.1-0.4-1.6-0.5c-1,0.8-2,1.6-3.3,2.6
		c-1.7-2.3-2.6-4.5-2.7-6.7c-0.1-1.7-1.6-2.5-3.7-1.9c-0.1,0-0.4,0-0.5-0.1c0,2.1,0,4,0,5.7c-0.1-1.8-0.2-3-0.3-3.2
		c-1.1,1.2-3.1,1.6-2.9,3.4c0.1,1.2-0.6,2.4-1,3.6c-1.3-0.3-2.2-0.6-3.3-0.8c0.1,0.6,0.2,1.1,0.3,1.5c-0.2,0-0.4,0-0.4,0
		c-0.9-1.8-2.5-2.2-4.9-2c-1.7,0.1-3.5,0.3-4.9-1c-0.3-0.3-1.3-0.1-1.6-0.1c-0.3,1.1-0.5,2-0.8,2.9c-0.2,0-0.5,0-0.7-0.1
		c0-0.5,0.1-0.9,0.1-1.6c-0.7-0.2-1.8-0.7-2.4-0.5c-2.1,0.8-0.9,2.4-1,3.6l-0.5,0.1c-0.2-0.8-0.5-1.5-0.8-2.4
		c-0.4,0.6-0.7,1.2-1.1,1.7c0.1,0,0.2-0.1,0.4-0.1c0.3,0.7,0.5,1.4,0.9,2.4c-1-0.3-1.4-0.4-1.8-0.5c-0.6,2.3-2.3,2.3-4.8,1.5
		c0.2,0.4,0.4,0.9,0.7,1.4c-0.1,0.1-0.3,0.2-0.4,0.3c-0.9-0.7-1.7-1.4-2.7-2.2c-0.4,0.4-0.8,1-1.2,1.5c-0.5-0.6-1-1.2-1.8-2.1
		c0,0.7,0,1.2,0,1.7c0,0.6-0.2,1.1-0.3,1.7c-0.1,0-0.3,0-0.4,0c-0.3-1.2-0.7-2.4-1.1-3.7c-1.2,1-2.1,1.8-3.2,2.7
		c-0.4-0.2-0.9-0.4-1.2-0.6c0.9-0.5,1.7-1.1,2.7-1.6c-1.3-1.2-2.7-0.8-4-0.7c-1.1-1.3-3.9-1.4-5-0.2c-0.5-0.3-0.9-0.8-1.5-1
		c-0.9-0.3-1.8-0.5-2.7-0.7c-1.5-0.4-2.9-0.4-3.5,1.1c-0.5-0.3-1-0.6-1.6-0.9c-0.5,0.9,0.2,2.3-1.7,2.3c-0.2-0.7-0.5-1.4-0.7-2.2
		c-0.6,0.3-1,0.5-1.1,0.5c-1.2-0.4-2.1-0.7-3.3-1c0,0.6,0.1,0.8,0.1,1.2c-3.6-0.3-6.4,1-9.7,2.1c-1.5-0.7-2.3,1-3.5,1.4
		c-3.5-0.8-3.7-3.3-4.9-5.3c-0.5-0.9-1.8-1.5-2.9-2c-0.6-0.3-1.6,0-2.3,0.2c-0.2,0.1,0.1,1,0.1,1.6c-0.1,0-0.4,0.1-0.5,0
		c-1.6-0.9-3.3-0.7-4.9-0.1c-1.7,0.6-3.2,1.5-4.8,2.2c-3.1,1.2-8.5,4.6-11.9,2.6c-2-1.2-2.2-3.7-4.3-4.4c-0.9-0.3-2.3,0.7-3.4,0.4
		c-1.2-0.3-1.9-2-3-2.6c-1.5-0.8-4.1-0.1-5.2-0.8c-0.9-0.6-1-2.2-1.7-2.6c-1.4-1-0.7-1.1-2.8-1.7c-2.4-0.6-6.4,0.5-8.9,0.7
		c0,0.1,0,0.2,0,0.3c0.4,0.2,1,0.4,1.2,0.7c0.2,0.3,0,0.8,0,1.1c-0.5,0-1.1,0.1-1.4-0.1c-0.8-0.5-1.4-1.2-2.2-1.7
		c-0.1-0.1-0.5,0.1-0.6,0.1c0.6,0.8,1.1,1.5,1.7,2.2c-0.1,0.1-0.1,0.1-0.2,0.2c-0.8-0.4-1.6-0.8-2-1c-1.3,0.8-2.4,1.6-3.7,2.4
		c-0.1-0.4-0.1-0.7-0.2-1.1c-0.7,0.1-1.4,0.1-2.2,0.2c0-0.1-0.1-0.3-0.1-0.4c1.2-0.3,2.5-0.5,3.7-0.8c0.1,0.1,0.1,0.2,0.2,0.3
		c0.2-0.4,0.3-0.8,0.6-1.3c-2.8,0.5-5.4,1.1-8,1.4c-1.5,0.2-3.1,0-4.6-0.2c-0.8-0.2-1.5-0.9-2-1.6c0.6,0.1,1.1,0.3,1.7,0.4
		c0.1-0.1,0.2-0.3,0.3-0.4c-1.2-0.7-2.4-1.3-3.5-2c0.2-0.1,0.4-0.3,0.6-0.4c0.4-0.5,0.8-0.9,1.4-1.6c-1-0.1-1.7-0.2-2.3-0.3
		c0.3-0.5,1.1-1.4,0.8-1.6c-0.6-0.6-1.7-0.8-2.7-1.3c0.1-0.1,0.4-0.4,1-1c-3.8,0.3-7.4,0-10.6,1.8c-2.1-1.6-4.1,0.3-6.8,0
		c1.2,0.8,2.1,1.4,2.9,1.9c-3.5-0.6-3.8-0.9-3.6-2.1c-1.8,0.3-3.6,0.7-5.4,1v0.8v0.8V83h185.9c0.1-0.3,0.2-1.5,0.2-3.4
		c0,0.2,0,0.4,0,0.6c0,0.9,0,1.7,0,2.8h1011h10.5H1408h1.7h47.4h10.5H1659h10.7h175.2c0.1-0.3,0.2-1.5,0.2-3.4c0,0.2,0,0.4,0,0.6
		c0,0.9,0,1.7,0,2.8h74.9V35.7c-0.6,0.2-1.2,0.4-1.8,0.6c-0.1-0.1-0.2-0.2-0.3-0.3c0.7-0.4,1.3-0.9,2-1.3v-1.5
		c-1-0.2-1.8-0.3-2.7-0.5v-1.3c0.3,0.1,0.4,0.2,0.6,0.2c0.7,0.2,1.4,0.4,2.1,0.6v-2.1c-0.1-0.3-0.3-0.6-0.4-0.8c0,0,0,0,0,0
		c0,0,0,0,0,0.1c0,0,0,0-0.1-0.1c-0.6-0.2-1.3-0.4-1.9-0.6c-0.5,1-1,2.1-1.5,3.3c-1.2-1.7-1.2-1.7,1.3-5.1c0.8,0.9,1.4,1.7,2.1,2.4
		c0,0,0,0,0.1,0c0-0.5,0-1-0.1-1.5c-0.4-2-3-1.8-4.8-2.7c1.1-0.6,2.2-1.2,1.1-2.4c-0.5,0.2-0.9,0.4-1.3,0.6
		c-0.1-0.1-0.1-0.2-0.2-0.3c0.7-0.2,1.4-0.4,2.2-0.6c0.8,1.2-0.1,2.6,1.7,3.3c-0.4-1.5-0.7-2.9-1.4-4.3c-0.2-0.5-1.4-0.7-2.3-1.1
		c0-0.2,0.1-0.6,0.2-1.2c-1.3,0.4-2.5,0.7-3.8,1.1c0.3,0.3,0.6,0.5,0.7,0.6c-0.4,0.4-0.7,0.7-1.4,1.4c-0.4-0.2-1.2-0.7-2-1.2
		c-0.1-0.2-0.1-0.3-0.2-0.5c-1.1,0.8-2.1,1.6-3.1,2.4c0.1,0.1,0.2,0.2,0.3,0.3c-0.4-0.2-0.9-0.3-1.5-0.5c-0.1,0.7-0.3,1.3-0.4,2
		c-0.4-0.1-0.7-0.1-0.9-0.2c-1.3-1.5-2.5-0.8-3.4,0.3c-1.1,1.2-1.9,2.6-2.9,3.9c-0.6-0.3-1.4-0.7-2.4-1.3c-0.5,1.6-2,2.1-3.7,2.3
		c-1.3,0.1-1.6,0.7-1.1,1.6c0.1,0.3,0,0.6-0.1,1c-0.2,0-0.3,0-0.5,0c-0.1-0.4-0.2-0.8-0.3-1.5c-0.4,0.4-0.6,0.7-0.8,1
		c-0.7-0.3-1.3-0.5-2.2-0.9c0.4-0.2,0.7-0.4,1.2-0.7c-0.9-0.3-1.7-0.6-2.5-0.9c-2.1,0.9,0.4,2.2-0.6,3.4c-0.5-0.8-0.9-1.5-1.3-2.2
		c-0.1,0.1-0.2,0.3-0.2,0.4c-1.7-0.3-3.3-0.5-5-0.8c-0.1,0.1-0.1,0.2-0.2,0.4c0.3,0.3,0.7,0.7,1,1c0,0.1-0.1,0.3-0.1,0.4
		c-1.2-0.2-2.4-0.3-3.9-0.5c-1.4,0.7,0.1,1.2,1,1.9c-0.7,0.2-1.1,0.3-1.2,0.3c-0.9-0.8-1.7-1.4-2.7-2.3c-0.7,2.2-1.1,2.3-3.1,1.6
		c-0.3,0.3-0.6,0.6-0.9,1c-3.2-1.5-2.3,1.4-3.6,1.9c1.6,2.4,1.5,3.2-0.1,4.2c-0.3-0.7-0.5-1.4-0.9-2c-0.5-0.6-1.3-0.9-1.5-1.5
		c0-0.5,0-0.9-0.1-1.4c-0.2-0.9-0.6-1.8-0.9-2.7c-0.3-0.9-0.9-1.5-2.2-1.5c-0.6,0-1.1-0.4-1.6-0.5c-1,0.8-2,1.6-3.3,2.6
		c-1.7-2.3-2.6-4.5-2.7-6.7c-0.1-1.7-1.6-2.5-3.7-1.9c-0.1,0-0.4,0-0.5-0.1c0,2.1,0,4,0,5.7c-0.1-1.8-0.2-3-0.3-3.2
		c-1.1,1.2-3.1,1.6-2.9,3.4c0.1,1.2-0.6,2.4-1,3.6c-1.3-0.3-2.2-0.6-3.3-0.8c0.1,0.6,0.2,1.1,0.3,1.5c-0.2,0-0.4,0-0.4,0
		c-0.9-1.8-2.5-2.2-4.9-2c-1.7,0.1-3.5,0.3-4.9-1c-0.3-0.3-1.3-0.1-1.6-0.1c-0.3,1.1-0.5,2-0.8,2.9c-0.2,0-0.5,0-0.7-0.1
		c0-0.5,0.1-0.9,0.1-1.6c-0.7-0.2-1.8-0.7-2.4-0.5c-2.1,0.8-0.9,2.4-1,3.6l-0.5,0.1c-0.2-0.8-0.5-1.5-0.8-2.4
		c-0.4,0.6-0.7,1.2-1.1,1.7c0.1,0,0.2-0.1,0.4-0.1c0.3,0.7,0.5,1.4,0.9,2.4c-1-0.3-1.4-0.4-1.8-0.5c-0.6,2.3-2.3,2.3-4.8,1.5
		c0.2,0.4,0.4,0.9,0.7,1.4c-0.1,0.1-0.3,0.2-0.4,0.3c-0.9-0.7-1.7-1.4-2.7-2.2c-0.4,0.4-0.8,1-1.2,1.5c-0.5-0.6-1-1.2-1.8-2.1
		c0,0.7,0,1.2,0,1.7c0,0.6-0.2,1.1-0.3,1.7c-0.1,0-0.3,0-0.4,0c-0.3-1.2-0.7-2.4-1.1-3.7c-1.2,1-2.1,1.8-3.2,2.7
		c-0.4-0.2-0.9-0.4-1.2-0.6c0.9-0.5,1.7-1.1,2.7-1.6c-1.3-1.2-2.7-0.8-4-0.7c0,0,0,0,0,0c0,0-0.1,0-0.1,0c-0.7,0.2-1.3,0.5-2,0.7
		c1.1,0.9,2.2,1.8,3.2,2.6c-2.6,0.1-2.6,0.1-5.2-3.3c1.4,0,2.7,0,4,0c0,0,0,0,0.1,0c-1.1-1.3-3.9-1.4-5-0.2
		c-0.6,0.3-1.3,0.6-1.8,0.9c-0.9-0.7-1.9-1.3-3.2-2.2c1,0.3,1.7,0.5,2.5,0.7c0.8,0.2,1.6,0.4,2.5,0.6c-0.5-0.3-0.9-0.8-1.5-1
		c-0.9-0.3-1.8-0.5-2.7-0.7c-1.5-0.4-2.9-0.4-3.5,1.1c-0.5-0.3-1-0.6-1.6-0.9c-0.5,0.9,0.2,2.3-1.7,2.3c-0.2-0.7-0.5-1.4-0.7-2.2
		c-0.6,0.3-1,0.5-1.1,0.5c-1.2-0.4-2.1-0.7-3.3-1c0,0.6,0.1,0.8,0.1,1.2c-3.6-0.3-6.4,1-9.7,2.1c-1.5-0.7-2.3,1-3.5,1.4
		c-3.5-0.8-3.7-3.3-4.9-5.3c-0.5-0.9-1.8-1.5-2.9-2c-0.6-0.3-1.6,0-2.3,0.2c-0.2,0.1,0.1,1,0.1,1.6c-0.1,0-0.4,0.1-0.5,0
		c-1.6-0.9-3.3-0.7-4.9-0.1 M79.4,35.8c0.8,0.4,1.6,0.6,1.9,1.1c0.3,0.5,0.1,1.1,0.1,1.8c0.4,0,0.8,0.1,1.4,0.2
		c-0.6,0.3-0.9,0.4-1.2,0.6c-1.5-0.5,0.3-2.7-2.6-2.4C79.2,36.6,79.3,36.2,79.4,35.8z M75.1,39.8c1.1,0.2,1.9,0.8,1.7,2.1
		c-0.6-0.1-1.1-0.2-1.6-0.4c0.3-0.3,0.5-0.5,0.7-0.8c-2.1-0.3-2.2,1.2-3.2,1.9c-0.3-0.2-0.7-0.5-1-0.7
		C72.7,41.3,73.8,40.6,75.1,39.8z M74.6,43.3c-0.4,0.9-0.7,1.6-0.8,1.9c-1.3,0.1-2.4,0.2-3.6,0.3C70.8,43.7,72.7,43.8,74.6,43.3z
		 M66.8,44.3c0.1,0.5,0.2,0.9,0.3,1.8c0.7-0.6,1.1-1,1.3-1.2c0.9,0.5,1.8,1,2.6,1.5c0,0.1,0,0.2,0,0.3c-1-0.1-2.1-0.1-3.2-0.2
		c0.5,0.4,1,0.8,1.4,1.2C66.6,47.2,65.9,46.1,66.8,44.3z M74.8,52.2c-0.5-0.7-0.8-1.1-0.9-1.2c0.3-0.5,0.5-0.9,0.8-1.5
		c-1.6,0.1-2.9,0.2-4.1,0.3c0-0.1-0.1-0.3-0.1-0.4c1.5-0.2,3.1-0.5,4.9-0.7C75.2,49.9,75,50.9,74.8,52.2z M123,67.1
		c-1.6,0.7-2.9,1.7-4.3,2.6c-0.3,0.2-0.6,0.4-0.8,0.4c-5,0-9.1,1.8-13.3,3.5c-3.4,1.3-6.7,2.9-10.7,3.1c-0.1-0.1-0.2-0.2-0.3-0.3
		c1.5-0.6,3-1.2,4.5-1.9c0.1,0.1,0.2,0.2,0.3,0.3c0.1-0.5,0.2-0.9,0.2-1.2c0.8-0.1,1.4,0,2-0.2c8.9-2.8,17.8-5.6,26.8-8.5
		c0.6-0.2,1.3-0.2,2-0.4c0,0.1,0.1,0.3,0.1,0.4C127.3,65.6,125,66.2,123,67.1z M1023.8,37c-1-0.4-1.6-0.5-2.3,0.4
		c-0.8,1.1-1.3,1.3-2.5,1c0.3-0.3,0.5-0.6,0.7-0.9c-1.4,1.1-2.1-0.3-3.1-0.4c1.4-0.1,2.8-0.1,4.2-0.2c0.2,0,0.4-0.3,0.6-0.4
		c1.3-0.9,3.7-0.4,4.5,1.2C1025.1,37.4,1024.4,37.3,1023.8,37z M1053.1,45.5c0.1-0.4,0-1.3,0.4-1.4c1.2-0.4,2.5-0.4,3.7-0.5
		c0.1,0,0.2,0.7,0.3,0.9C1056,44.8,1054.7,45.1,1053.1,45.5z M1096.3,43.3c-0.4,0.9-0.7,1.6-0.8,1.9c-1.3,0.1-2.4,0.2-3.6,0.3
		C1092.5,43.7,1094.4,43.8,1096.3,43.3z M1083.7,48c-0.1-0.3-0.1-0.7,0-1c0-0.2,0.2-0.4,0.3-0.6c-1.2-0.3-2.2-0.6-3.2-0.8
		c0-0.1,0-0.3,0.1-0.4c0.9-0.2,1.8-0.3,3-0.5c0.3,0.8,0.7,1.6,0.9,2.4c0.1,0.3-0.3,0.7-0.5,1C1084.2,48.1,1083.7,48.1,1083.7,48z
		 M1084.4,49c0.7-0.3,1.5-0.6,2.8-1.1c-0.2,0.8-0.3,1.6-0.6,1.7c-0.7,0.2-1.5,0-2.2-0.1C1084.4,49.3,1084.4,49.2,1084.4,49z
		 M1088.6,51.7c-1.2-0.2-2.2-0.4-3.2-0.5c0-0.1,0-0.2,0-0.4c1-0.3,2-0.6,3.2-0.9V51.7z M1088.6,44.3c0.1,0.5,0.2,0.9,0.3,1.8
		c0.7-0.6,1.1-1,1.3-1.2c0.9,0.5,1.8,1,2.6,1.5c0,0.1,0,0.2,0,0.3c-1-0.1-2.1-0.1-3.2-0.2c0.5,0.4,1,0.8,1.4,1.2
		C1088.3,47.2,1087.6,46.1,1088.6,44.3z M1096.5,52.2c-0.5-0.7-0.8-1.1-0.9-1.2c0.3-0.5,0.5-0.9,0.8-1.5c-1.6,0.1-2.9,0.2-4.1,0.3
		c0-0.1-0.1-0.3-0.1-0.4c1.5-0.2,3.1-0.5,4.9-0.7C1096.9,49.9,1096.8,50.9,1096.5,52.2z M1144.7,67.1c-1.6,0.7-2.9,1.7-4.3,2.6
		c-0.3,0.2-0.6,0.4-0.8,0.4c-5,0-9.1,1.8-13.3,3.5c-3.4,1.3-6.7,2.9-10.7,3.1c-0.1-0.1-0.2-0.2-0.3-0.3c1.5-0.6,3-1.2,4.5-1.9
		c0.1,0.1,0.2,0.2,0.3,0.3c0.1-0.5,0.2-0.9,0.2-1.2c0.8-0.1,1.4,0,2-0.2c8.9-2.8,17.8-5.6,26.8-8.5c0.6-0.2,1.3-0.2,2-0.4
		c0,0.1,0.1,0.3,0.1,0.4C1149,65.6,1146.8,66.2,1144.7,67.1z M1186.2,48.6c-1.9-1.7-1.9-1.8-0.5-2.5c0.3,0.5,0.6,1.1,1.1,1.9
		C1186.8,48.1,1186.5,48.3,1186.2,48.6z M1446.2,35.6c-1.9-1.7-1.9-1.8-0.5-2.5c0.3,0.5,0.6,1.1,1.1,1.9
		C1446.8,35.1,1446.5,35.3,1446.2,35.6z M1522.9,44.3c-1.5-0.5-2.9-0.9-4.2-1.4c0-0.1,0.1-0.2,0.1-0.3c1.3,0.2,2.6,0.4,4.1,0.6V44.3
		z M1555.1,45.3c-0.6-0.2-1.1-0.4-2.1-0.9c1.4-0.2,2.3-0.4,3.3-0.6c0.1,0.1,0.1,0.2,0.2,0.3C1556,44.6,1555.6,44.9,1555.1,45.3z
		 M1620.1,25.2c0-0.1,0-0.2,0-0.3c1.3-0.1,2.5-0.3,4.2-0.5c0,0,0.2,0.4,0.3,0.7H1620.1z M1638.6,23.7c0.9-0.4,1.9-0.8,3.5-1.4
		c-0.3,1-0.3,2-0.7,2.1c-0.8,0.2-1.9,0-2.8-0.1C1638.6,24.1,1638.6,23.9,1638.6,23.7z M1643.8,27.1c-1.5-0.2-2.8-0.5-4-0.7
		c0-0.2,0-0.3,0-0.5c1.3-0.4,2.6-0.7,4.1-1.1V27.1z M1653.8,27.7c-0.7-0.9-1.1-1.3-1.2-1.5c0.4-0.7,0.6-1.2,1-1.9
		c-2,0.1-3.6,0.2-5.1,0.3c0-0.2-0.1-0.4-0.1-0.5c2-0.3,3.9-0.6,6.2-0.9C1654.3,24.9,1654.1,26.1,1653.8,27.7z M1662.8,24.6
		c-0.7-0.2-1.2-0.4-1.7-0.6c-0.3-0.2-0.6-0.3-0.9-0.3c-0.1-0.2-0.3-0.4-0.4-0.5c1-0.2,2.3,0.1,3,1c-0.1,0.2-0.1,0.3-0.2,0.4
		C1662.7,24.5,1662.7,24.5,1662.8,24.6z M1690.4,32.5c0.1-0.4,0-1.3,0.4-1.4c1.2-0.4,2.5-0.4,3.7-0.5c0.1,0,0.2,0.7,0.3,0.9
		C1693.2,31.8,1691.9,32.1,1690.4,32.5z M1720.9,35c-0.1-0.3-0.1-0.7,0-1c0-0.2,0.2-0.4,0.3-0.6c-1.2-0.3-2.2-0.6-3.2-0.8
		c0-0.1,0-0.3,0.1-0.4c0.9-0.2,1.8-0.3,3-0.5c0.3,0.8,0.7,1.6,0.9,2.4c0.1,0.3-0.3,0.7-0.5,1C1721.5,35.1,1720.9,35.1,1720.9,35z
		 M1721.7,36c0.7-0.3,1.5-0.6,2.8-1.1c-0.2,0.8-0.3,1.6-0.6,1.7c-0.7,0.2-1.5,0-2.2-0.1C1721.7,36.3,1721.7,36.2,1721.7,36z
		 M1725.8,38.7c-1.2-0.2-2.2-0.4-3.2-0.5c0-0.1,0-0.2,0-0.4c1-0.3,2-0.6,3.2-0.9V38.7z M1733.8,39.2c-0.5-0.7-0.8-1.1-0.9-1.2
		c0.3-0.5,0.5-0.9,0.8-1.5c-1.6,0.1-2.9,0.2-4.1,0.3c0-0.1-0.1-0.3-0.1-0.4 M1782,54.1c-1.6,0.7-2.9,1.7-4.3,2.6
		c-0.3,0.2-0.6,0.4-0.8,0.4c-5,0-9.1,1.8-13.3,3.5c-3.4,1.3-6.7,2.9-10.7,3.1c-0.1-0.1-0.2-0.2-0.3-0.3c1.5-0.6,3-1.2,4.5-1.9
		c0.1,0.1,0.2,0.2,0.3,0.3c0.1-0.5,0.2-0.9,0.2-1.2c0.8-0.1,1.4,0,2-0.2c8.9-2.8,17.8-5.6,26.8-8.5c0.6-0.2,1.3-0.2,2-0.4
		c0,0.1,0.1,0.3,0.1,0.4C1786.3,52.6,1784,53.2,1782,54.1z M1823.5,35.6c-1.9-1.7-1.9-1.8-0.5-2.5c0.3,0.5,0.6,1.1,1.1,1.9
		C1824.1,35.1,1823.8,35.3,1823.5,35.6z M1832.2,34.8c-0.2-0.4-0.4-0.9-0.6-1.4c-0.8-0.1-1.8-0.2-2.7-0.4c0-0.2,0.1-0.3,0.1-0.5
		C1832.1,32.3,1833,32.9,1832.2,34.8z M1836.3,34.7h-2.4c-0.8-1.4-0.8-1.5,1.3-1.5c-0.5,0.3-0.7,0.5-0.9,0.7
		c0.8,0.2,1.5,0.4,2.2,0.6C1836.3,34.5,1836.3,34.6,1836.3,34.7z M1900.8,28.4c-0.4-0.1-1.2-0.1-1.3-0.3c-0.4-0.6-0.6-1.4-0.8-2.1
		c0.2-0.1,0.5-0.2,0.7-0.2c0.6,0.5,1.3,1,1.7,1.5C1901.2,27.5,1900.9,28,1900.8,28.4z"/>
</g>
</svg>
