<svg data-bbox="47.01 28.456 105.98 143.087" viewBox="0 0 200 200" height="200" width="200" xmlns="http://www.w3.org/2000/svg" data-type="color">
    <g>
        <path d="M132.134 66.902c-.02.004-.038.012-.059.016.019.006.034.018.054.024l.055-.026c-.019-.003-.033-.01-.05-.014z" fill="#6987a8" data-color="1"/>
        <path d="M140.423 75.192c-.02.004-.038.012-.059.016.019.006.034.018.054.024l.055-.026c-.018-.003-.032-.01-.05-.014z" fill="#6987a8" data-color="1"/>
        <path d="M107.264 42.032c-.02.004-.038.012-.059.016.019.006.034.018.054.024l.055-.026c-.018-.003-.033-.009-.05-.014z" fill="#6987a8" data-color="1"/>
        <path d="M119.716 54.484c-.004-.017-.011-.032-.015-.049l-.026.055c.006.019.018.034.024.053.005-.02.012-.038.017-.059z" fill="#6987a8" data-color="1"/>
        <path d="M123.843 58.612c-.02.004-.038.012-.059.016.019.006.034.018.054.024l.055-.026c-.017-.003-.032-.01-.05-.014z" fill="#6987a8" data-color="1"/>
        <path d="M152.871 80.237l.119.119a53.37 53.37 0 0 0-.069-1.926l-.056.056-3.283-3.282 2.673-2.668c-.066-.386-.142-.769-.215-1.152a3.487 3.487 0 0 0-.421-1.996c-.042-.181-.078-.365-.122-.545l-1.895-1.895 1.138-.865a52.26 52.26 0 0 0-6.201-13.214c-.068-.104-.133-.21-.201-.314l-2.218-2.218.39-.391a53.572 53.572 0 0 0-5.472-6.204l-.757.757-2.452-2.452.642-.642a53.959 53.959 0 0 0-12.852-8.168l.525.526-2.474 3.255-.007-.007a4.056 4.056 0 0 0-.888-1.683 4.164 4.164 0 0 0-2.077-1.282l-.258-.258 2.305-1.752a53.661 53.661 0 0 0-7.368-2.234l-.038-.009a53.843 53.843 0 0 0-8.076-1.187l-.14.14-.163-.163a54.405 54.405 0 0 0-3.51-.127c-1.447 0-2.876.074-4.292.187-.13.305-.24.625-.315.972.537 2.215 1.916 3.588 4.129 4.127 1.909-.409 3.128-1.705 4.157-3.245l3.25 3.25c-1.543 1.027-2.833 2.251-3.245 4.157.536 2.216 1.912 3.592 4.127 4.128 1.907-.412 3.13-1.703 4.158-3.245l.352.352c.164.563.44 1.104.861 1.577a4.186 4.186 0 0 0 1.967 1.251l.069.069c-1.54 1.029-2.836 2.248-3.245 4.157.536 2.216 1.912 3.592 4.128 4.128 1.909-.409 3.128-1.705 4.157-3.245l.314.315a4.06 4.06 0 0 0 .861 1.577 4.186 4.186 0 0 0 1.967 1.251l.107.107.046.046.602.006c-.658.32-1.35.589-1.952.991-1.312.876-1.954 2.112-1.693 3.726.246 1.525 1.547 2.824 3.074 3.073 1.615.264 2.849-.38 3.725-1.692.41-.613.681-1.319 1.008-1.987-.689-2.044-2.054-3.413-4.09-4.11l.158.002.832-.008.04-.04.055-.055a4.015 4.015 0 0 0 1.757-.828 4.145 4.145 0 0 0 1.432-2.357c.616 1.569 1.706 2.664 3.278 3.276l-.264.264a4.13 4.13 0 0 0-1.575.938 4.136 4.136 0 0 0-1.072 1.714l-.33.33-.04.04-.008.832.008.833.047.046.276.277a4.06 4.06 0 0 0 .861 1.577 4.186 4.186 0 0 0 1.967 1.251l.145.145c-1.54 1.029-2.836 2.248-3.245 4.157.536 2.216 1.912 3.592 4.128 4.128 1.909-.409 3.128-1.705 4.158-3.245l.03-.042.015-.849-.015-.823-.036-.036-3.283-3.282.113-.113a4.023 4.023 0 0 0 1.662-.808 4.162 4.162 0 0 0 1.415-2.264l.056-.056c.615 1.57 1.706 2.664 3.278 3.276.01.004.017.01.027.013l.618.031a4.057 4.057 0 0 0-2.522 1.12c-1.619 1.546-1.73 3.991-.258 5.649a4.126 4.126 0 0 0 2.73 1.394l-.538.01-.043.03c-1.542 1.028-2.833 2.251-3.245 4.158.536 2.216 1.912 3.592 4.127 4.128 1.907-.412 3.13-1.703 4.158-3.245l.54.54a3.723 3.723 0 0 0 1.907 1.907l.803.803c-1.54 1.029-2.837 2.248-3.245 4.157.536 2.216 1.912 3.592 4.128 4.128 1.916-.409 3.135-1.705 4.164-3.245zm-44.738-46.484l3.244-3.24c.616 1.569 1.707 2.664 3.278 3.276l-.416.417a4.154 4.154 0 0 0-1.347.861 4.158 4.158 0 0 0-.992 1.482l-.486.486-3.281-3.282zm8.291 8.292a4.018 4.018 0 0 0 1.849-.846 4.155 4.155 0 0 0 1.428-2.333c.617 1.536 1.696 2.61 3.245 3.214l-.329.33c-.528.19-1.03.489-1.472.911a4.15 4.15 0 0 0-1.032 1.598l-.407.408-3.282-3.282zm11.538 3.263l-.046-.046a4.056 4.056 0 0 0-.888-1.683 4.162 4.162 0 0 0-2.076-1.282 45.736 45.736 0 0 1-.22-.221l3.255-2.474 2.449 2.449-2.474 3.257zm8.29 8.289l-.084-.084a4.046 4.046 0 0 0-.888-1.682 4.164 4.164 0 0 0-2.077-1.282l-.182-.182 3.255-2.474 2.449 2.449a6995.55 6995.55 0 0 1-2.473 3.255zm8.314 2.586l2.449 2.449-2.473 3.256-.017.023-.011.279a4.04 4.04 0 0 0-.981-2.106 4.096 4.096 0 0 0-2.762-1.387l.518-.022.023-.017c1.084-.826 2.169-1.651 3.254-2.475zm-3.274 10.73l-.036-.036-.715-.013a3.988 3.988 0 0 0 2.487-.91 4.134 4.134 0 0 0 1.484-2.633l.011.325c.004.01.01.017.013.026.615 1.57 1.706 2.664 3.278 3.276l-.806.808a3.678 3.678 0 0 0-1.903 1.906l-.531.532a10150.85 10150.85 0 0 1-3.282-3.281z" fill="#6987a8" data-color="1"/>
        <path d="M98.974 33.742c-.021.004-.039.012-.059.016.019.006.034.018.054.024l.055-.026c-.018-.003-.033-.009-.05-.014z" fill="#6987a8" data-color="1"/>
        <path d="M136.255 71.07c.007.019.018.034.024.053.004-.021.012-.039.016-.059-.004-.017-.011-.032-.015-.049l-.025.055z" fill="#6987a8" data-color="1"/>
        <path d="M132.128 66.942c-.668.328-1.374.598-1.987 1.007-1.312.876-1.954 2.112-1.693 3.726.247 1.525 1.547 2.824 3.075 3.073 1.615.264 2.849-.38 3.725-1.692.409-.613.681-1.319 1.008-1.987-.694-2.057-2.069-3.434-4.128-4.127z" fill="#6987a8" data-color="1"/>
        <path d="M98.968 33.783c-.668.327-1.374.598-1.987 1.007-1.312.876-1.954 2.112-1.693 3.726.246 1.525 1.547 2.824 3.074 3.073 1.615.264 2.849-.38 3.725-1.692.409-.613.68-1.319 1.008-1.987-.693-2.058-2.068-3.435-4.127-4.127z" fill="#6987a8" data-color="1"/>
        <path d="M103.096 37.91c.007.019.018.034.024.053.004-.021.012-.039.016-.059-.004-.017-.01-.032-.015-.049l-.025.055z" fill="#6987a8" data-color="1"/>
        <path d="M140.418 75.232c-.668.328-1.374.599-1.987 1.008-1.312.876-1.976 2.114-1.686 3.724.284 1.58 1.266 2.585 2.785 3.014 1.542.435 3.05-.179 4.01-1.63.407-.616.679-1.32 1.007-1.988-.695-2.059-2.071-3.434-4.129-4.128z" fill="#6987a8" data-color="1"/>
        <path d="M144.545 79.36c.007.019.018.034.024.053.004-.021.012-.039.016-.059l-.014-.049-.026.055z" fill="#6987a8" data-color="1"/>
        <path d="M148.708 83.522l.055-.026c-.017-.004-.032-.01-.049-.015-.021.004-.039.012-.059.016.019.007.033.019.053.025z" fill="#6987a8" data-color="1"/>
        <path d="M145.027 88.256c.246 1.525 1.547 2.824 3.074 3.073 1.313.214 2.37-.179 3.191-1.036a43.59 43.59 0 0 0 1.073-3.685c-.771-1.477-1.976-2.52-3.658-3.086-.668.327-1.374.598-1.987 1.007-1.312.877-1.953 2.113-1.693 3.727z" fill="#6987a8" data-color="1"/>
        <path d="M127.965 62.78c.007.019.018.034.024.053.004-.021.012-.039.016-.059-.004-.017-.011-.032-.015-.049l-.025.055z" fill="#6987a8" data-color="1"/>
        <path d="M123.838 58.652c-.668.328-1.374.599-1.987 1.008-1.312.876-1.976 2.114-1.686 3.724.284 1.58 1.266 2.585 2.785 3.014 1.542.435 3.05-.179 4.009-1.63.407-.615.679-1.32 1.007-1.988-.693-2.059-2.07-3.434-4.128-4.128z" fill="#6987a8" data-color="1"/>
        <path d="M111.868 55.096c.246 1.525 1.547 2.824 3.074 3.073 1.615.264 2.849-.38 3.725-1.692.41-.613.681-1.319 1.008-1.987-.694-2.058-2.069-3.435-4.127-4.127-.668.327-1.374.598-1.988 1.007-1.312.876-1.953 2.112-1.692 3.726z" fill="#6987a8" data-color="1"/>
        <path d="M115.548 50.363l.055-.026c-.017-.004-.032-.01-.049-.015-.021.004-.038.012-.059.016.019.007.034.018.053.025z" fill="#6987a8" data-color="1"/>
        <path d="M94.806 29.62c.006.02.018.034.024.054.004-.02.012-.038.016-.058-.004-.017-.011-.033-.015-.05-.009.017-.017.036-.025.054z" fill="#6987a8" data-color="1"/>
        <path d="M86.966 29.94c.009.096.012.19.028.289.249 1.53 1.548 2.83 3.077 3.077 1.614.261 2.853-.377 3.73-1.693.409-.615.678-1.323 1.005-1.994-.11-.332-.264-.622-.41-.918a53.032 53.032 0 0 0-7.43 1.239z" fill="#6987a8" data-color="1"/>
        <path d="M111.386 46.2c.006.019.018.034.024.053.004-.021.012-.039.016-.059l-.014-.049c-.01.018-.017.037-.026.055z" fill="#6987a8" data-color="1"/>
        <path d="M107.258 42.073c-.668.328-1.374.599-1.987 1.008-1.312.876-1.976 2.114-1.686 3.724.284 1.58 1.266 2.585 2.785 3.014 1.542.435 3.05-.179 4.009-1.63.407-.615.679-1.32 1.007-1.988-.693-2.06-2.07-3.435-4.128-4.128z" fill="#6987a8" data-color="1"/>
        <path d="M138.013 84.958c-1.557 1.407-1.637 3.703-.179 5.2 1.382 1.42 3.536 1.497 4.994.18 1.557-1.407 1.636-3.704.18-5.201-1.383-1.42-3.537-1.497-4.995-.179z" fill="#6987a8" data-color="1"/>
        <path d="M146.257 93.292c-1.536 1.433-1.576 3.721-.089 5.201a3.67 3.67 0 0 0 1.414.871 98.431 98.431 0 0 0 2.827-6.606 3.532 3.532 0 0 0-4.152.534z" fill="#6987a8" data-color="1"/>
        <path d="M129.672 76.718c-1.533 1.435-1.568 3.724-.078 5.201 1.408 1.396 3.553 1.43 4.994.08 1.533-1.438 1.568-3.724.079-5.201-1.408-1.397-3.552-1.431-4.995-.08z" fill="#6987a8" data-color="1"/>
        <path d="M96.326 43.744c-1.349 1.442-1.311 3.588.086 4.994 1.479 1.487 3.767 1.45 5.201-.085 1.35-1.445 1.313-3.587-.086-4.994-1.478-1.488-3.764-1.45-5.201.085z" fill="#6987a8" data-color="1"/>
        <path d="M79.93 32.255c1.44 1.352 3.588 1.321 4.994-.072a3.632 3.632 0 0 0 1.045-2.006 52.813 52.813 0 0 0-6.099 2.008c.022.023.037.048.06.07z" fill="#6987a8" data-color="1"/>
        <path d="M121.38 68.431c-1.532 1.438-1.564 3.725-.073 5.2 1.409 1.394 3.553 1.425 4.993.073 1.532-1.438 1.564-3.725.073-5.2-1.408-1.394-3.553-1.425-4.993-.073z" fill="#6987a8" data-color="1"/>
        <path d="M88.275 35.216c-1.558 1.406-1.639 3.702-.183 5.2 1.381 1.421 3.534 1.5 4.994.183 1.557-1.405 1.638-3.703.184-5.2-1.381-1.42-3.536-1.499-4.995-.183z" fill="#6987a8" data-color="1"/>
        <path d="M113.064 60.166c-1.431 1.367-1.53 3.528-.228 4.994 1.315 1.482 3.477 1.666 4.984.426 1.623-1.336 1.82-3.641.445-5.19-1.393-1.569-3.693-1.67-5.201-.23z" fill="#6987a8" data-color="1"/>
        <path d="M104.853 51.798c-1.558 1.407-1.637 3.703-.18 5.2 1.382 1.42 3.536 1.497 4.993.18 1.557-1.407 1.636-3.704.18-5.201-1.381-1.419-3.535-1.497-4.993-.179z" fill="#6987a8" data-color="1"/>
        <path d="M88.195 43.691c-1.359 1.346-1.369 3.632-.022 4.993 1.347 1.36 3.631 1.369 4.992.021 1.359-1.346 1.369-3.632.022-4.993-1.345-1.359-3.632-1.368-4.992-.021z" fill="#6987a8" data-color="1"/>
        <path d="M88.177 52.135c-1.186 1.275-1.138 3.596.099 4.805 1.245 1.217 3.558 1.219 4.805.005 1.317-1.282 1.267-3.806-.099-5.013-1.308-1.155-3.633-1.057-4.805.203z" fill="#6987a8" data-color="1"/>
        <path d="M145.212 104.195c.482-.942.946-1.871 1.392-2.786-.076.056-.158.099-.23.162-.766.67-1.151 1.643-1.162 2.624z" fill="#6987a8" data-color="1"/>
        <path d="M96.45 52.016c-1.342 1.37-1.32 3.653.047 4.992 1.369 1.341 3.654 1.319 4.993-.048 1.342-1.37 1.32-3.653-.047-4.993-1.369-1.34-3.654-1.318-4.993.049z" fill="#6987a8" data-color="1"/>
        <path d="M138.034 101.77c-1.236 1.193-1.296 3.515-.124 4.792 1.152 1.255 3.484 1.365 4.791.226 1.273-1.109 1.431-3.449.322-4.784-1.163-1.402-3.658-1.519-4.989-.234z" fill="#6987a8" data-color="1"/>
        <path d="M80.05 43.682c-1.347 1.239-1.357 3.76-.02 5.013 1.271 1.191 3.589 1.15 4.806-.085 1.221-1.24 1.231-3.551.019-4.805-1.202-1.243-3.523-1.303-4.805-.123z" fill="#6987a8" data-color="1"/>
        <path d="M96.548 60.343c-1.23 1.224-1.26 3.541-.064 4.806 1.261 1.333 3.781 1.312 5.013-.041 1.174-1.29 1.105-3.612-.144-4.805-1.26-1.205-3.573-1.186-4.805.04z" fill="#6987a8" data-color="1"/>
        <path d="M137.969 93.395c-1.379 1.326-1.421 3.61-.092 4.993 1.326 1.379 3.61 1.421 4.993.091 1.379-1.326 1.421-3.61.092-4.992-1.327-1.379-3.61-1.421-4.993-.092z" fill="#6987a8" data-color="1"/>
        <path d="M104.858 60.188c-1.4 1.294-1.486 3.588-.189 4.993 1.294 1.4 3.587 1.486 4.993.188 1.399-1.293 1.486-3.588.189-4.993-1.293-1.4-3.589-1.486-4.993-.188z" fill="#6987a8" data-color="1"/>
        <path d="M79.82 35.486c-1.31 1.395-1.243 3.686.148 4.992 1.394 1.31 3.687 1.241 4.993-.149 1.31-1.394 1.242-3.686-.149-4.993-1.394-1.309-3.685-1.24-4.992.15z" fill="#6987a8" data-color="1"/>
        <path d="M104.685 68.785c-1.141 1.317-1.024 3.65.241 4.805 1.288 1.175 3.61 1.109 4.805-.137 1.205-1.256 1.189-3.573-.034-4.806-1.296-1.307-3.819-1.238-5.012.138z" fill="#6987a8" data-color="1"/>
        <path d="M129.701 93.509c-1.227 1.229-1.252 3.544-.051 4.806 1.19 1.25 3.511 1.324 4.806.153 1.271-1.149 1.396-3.482.257-4.805-1.191-1.384-3.706-1.462-5.012-.154z" fill="#6987a8" data-color="1"/>
        <path d="M113.214 68.412c-1.43 1.25-1.578 3.554-.321 4.992 1.249 1.429 3.555 1.577 4.993.32 1.429-1.249 1.577-3.555.321-4.993-1.25-1.429-3.555-1.576-4.993-.319z" fill="#6987a8" data-color="1"/>
        <path d="M113.138 76.912c-1.234 1.216-1.276 3.535-.086 4.805 1.253 1.337 3.773 1.328 5.013-.019 1.181-1.283 1.122-3.603-.122-4.805-1.253-1.211-3.565-1.202-4.805.019z" fill="#6987a8" data-color="1"/>
        <path d="M129.61 85.175c-1.342 1.37-1.32 3.653.047 4.992 1.369 1.341 3.654 1.319 4.993-.048 1.341-1.369 1.319-3.654-.048-4.993-1.37-1.341-3.652-1.319-4.992.049z" fill="#6987a8" data-color="1"/>
        <path d="M74.629 34.597a52.725 52.725 0 0 0-3.701 2.156c-.383 1.192-.166 2.621.685 3.523 1.183 1.254 3.507 1.338 4.805.173 1.274-1.142 1.407-3.475.274-4.804-.509-.597-1.265-.938-2.063-1.048z" fill="#6987a8" data-color="1"/>
        <path d="M121.504 76.701c-1.429 1.249-1.577 3.555-.321 4.993 1.25 1.43 3.553 1.578 4.992.32 1.429-1.249 1.577-3.554.321-4.992-1.248-1.429-3.554-1.577-4.992-.321z" fill="#6987a8" data-color="1"/>
        <path d="M121.361 85.269c-1.201 1.261-1.177 3.577.05 4.805 1.228 1.23 3.54 1.256 4.805.054 1.251-1.189 1.328-3.51.158-4.805-1.239-1.372-3.732-1.399-5.013-.054z" fill="#6987a8" data-color="1"/>
        <path d="M96.544 68.92c-1.141 1.285-1.062 3.266.178 4.468a3.234 3.234 0 0 0 4.468.031 3.233 3.233 0 0 0 .028-4.673 3.246 3.246 0 0 0-4.674.174z" fill="#6987a8" data-color="1"/>
        <path d="M71.714 44.012a3.238 3.238 0 0 0 .1 4.468 3.238 3.238 0 0 0 4.673-.095 3.236 3.236 0 1 0-4.773-4.373z" fill="#6987a8" data-color="1"/>
        <path d="M104.86 77.185a3.238 3.238 0 0 0 4.595 4.552 3.238 3.238 0 0 0 .077-4.674 3.238 3.238 0 0 0-4.672.122z" fill="#6987a8" data-color="1"/>
        <path d="M113.397 85.227c-1.37 1.218-1.445 3.354-.162 4.673a3.242 3.242 0 0 0 4.468.167 3.243 3.243 0 0 0 .163-4.673 3.245 3.245 0 0 0-4.469-.167z" fill="#6987a8" data-color="1"/>
        <path d="M88.596 60.305a3.238 3.238 0 0 0-.292 4.665 3.24 3.24 0 0 0 4.462.281 3.234 3.234 0 1 0-4.17-4.946z" fill="#6987a8" data-color="1"/>
        <path d="M68.126 40.165a3.213 3.213 0 0 0 .908-2.151 53.419 53.419 0 0 0-3.941 3.034 3.23 3.23 0 0 0 3.033-.883z" fill="#6987a8" data-color="1"/>
        <path d="M121.756 93.465a3.238 3.238 0 0 0-.292 4.665 3.24 3.24 0 0 0 4.461.281 3.237 3.237 0 0 0 .291-4.665 3.232 3.232 0 0 0-4.46-.281z" fill="#6987a8" data-color="1"/>
        <path d="M129.963 101.821a3.239 3.239 0 0 0 4.335 4.811 3.24 3.24 0 0 0 .134-4.673 3.244 3.244 0 0 0-4.469-.138z" fill="#6987a8" data-color="1"/>
        <path d="M80.19 52.115a3.238 3.238 0 0 0-.266 4.462 3.24 3.24 0 0 0 4.666.284 3.24 3.24 0 0 0 .267-4.462 3.242 3.242 0 0 0-4.667-.284z" fill="#6987a8" data-color="1"/>
        <path d="M138.247 110.117a3.239 3.239 0 0 0-.123 4.673c.273.276.589.483.922.64 1.098-1.89 2.157-3.76 3.169-5.599a3.241 3.241 0 0 0-3.968.286z" fill="#6987a8" data-color="1"/>
        <path d="M80.266 60.582c-1.232 1.197-1.322 2.879-.223 4.164 1.177 1.376 3.04 1.517 4.369.331 1.353-1.209 1.449-3.06.226-4.373-1.24-1.332-3.074-1.383-4.372-.122z" fill="#6987a8" data-color="1"/>
        <path d="M130.102 110.225c-1.35 1.21-1.441 3.061-.215 4.372 1.245 1.331 3.077 1.378 4.372.111 1.312-1.282 1.316-3.088.01-4.373-1.211-1.192-2.909-1.237-4.167-.11z" fill="#6987a8" data-color="1"/>
        <path d="M121.709 102.036c-1.313 1.283-1.316 3.087-.009 4.374 1.295 1.273 3.122 1.235 4.374-.093 1.157-1.227 1.161-2.938.009-4.17-1.243-1.329-3.08-1.376-4.374-.111z" fill="#6987a8" data-color="1"/>
        <path d="M71.894 52.372c-1.253 1.3-1.193 3.14.143 4.374 1.241 1.146 2.943 1.13 4.169-.039 1.32-1.26 1.347-3.085.063-4.375-1.288-1.294-3.106-1.277-4.375.04z" fill="#6987a8" data-color="1"/>
        <path d="M113.371 93.796c-1.275 1.293-1.239 3.119.088 4.372 1.307 1.235 3.155 1.154 4.372-.192 1.133-1.253 1.097-2.952-.088-4.167-1.278-1.311-3.086-1.316-4.372-.013z" fill="#6987a8" data-color="1"/>
        <path d="M63.681 44.008c-1.314 1.282-1.318 3.085-.01 4.372 1.213 1.193 2.911 1.239 4.167.112 1.35-1.212 1.441-3.062.215-4.373-1.244-1.33-3.075-1.377-4.372-.111z" fill="#6987a8" data-color="1"/>
        <path d="M105.325 85.273c-1.393 1.162-1.561 3.025-.395 4.366 1.189 1.368 3.048 1.491 4.374.288 1.26-1.143 1.414-2.855.376-4.157-1.138-1.427-2.988-1.638-4.355-.497z" fill="#6987a8" data-color="1"/>
        <path d="M88.695 68.732c-1.371 1.187-1.498 3.046-.299 4.373 1.217 1.347 3.065 1.43 4.374.197 1.326-1.249 1.365-3.082.094-4.375-1.2-1.219-2.894-1.299-4.169-.195z" fill="#6987a8" data-color="1"/>
        <path d="M96.804 77.203c-1.286 1.29-1.26 3.109.062 4.372 1.304 1.245 3.146 1.175 4.372-.166 1.14-1.246 1.114-2.948-.062-4.167-1.269-1.317-3.082-1.333-4.372-.039z" fill="#6987a8" data-color="1"/>
        <path d="M105.089 93.924c-1.097 1.184-1.025 3.089.157 4.185 1.183 1.096 3.091 1.024 4.185-.157 1.096-1.184 1.024-3.089-.158-4.185-1.183-1.098-3.087-1.026-4.184.157z" fill="#6987a8" data-color="1"/>
        <path d="M71.93 60.764c-1.097 1.185-1.026 3.088.157 4.184s3.09 1.024 4.185-.157c1.097-1.184 1.025-3.089-.158-4.185-1.183-1.096-3.089-1.024-4.184.158z" fill="#6987a8" data-color="1"/>
        <path d="M80.301 68.972c-1.144 1.14-1.147 3.041-.006 4.185 1.14 1.144 3.04 1.147 4.184.006 1.144-1.141 1.147-3.04.007-4.184-1.14-1.144-3.04-1.147-4.185-.007z" fill="#6987a8" data-color="1"/>
        <path d="M113.38 102.214c-1.097 1.184-1.025 3.089.157 4.185 1.183 1.096 3.09 1.024 4.185-.158 1.097-1.185 1.026-3.089-.157-4.184-1.185-1.097-3.09-1.026-4.185.157z" fill="#6987a8" data-color="1"/>
        <path d="M57.358 49.128c.837.045 1.688-.243 2.3-.882.703-.734.944-1.762.737-2.701a53.84 53.84 0 0 0-3.037 3.583z" fill="#6987a8" data-color="1"/>
        <path d="M121.745 110.428c-1.141 1.144-1.138 3.045.006 4.185 1.144 1.141 3.045 1.138 4.185-.007 1.141-1.145 1.138-3.044-.007-4.185-1.144-1.14-3.044-1.137-4.184.007z" fill="#6987a8" data-color="1"/>
        <path d="M96.923 85.511c-1.163 1.113-1.204 3.02-.089 4.185 1.113 1.163 3.02 1.203 4.184.088 1.163-1.114 1.204-3.02.09-4.184-1.114-1.163-3.021-1.204-4.185-.089z" fill="#6987a8" data-color="1"/>
        <path d="M67.948 56.536c1.115-1.165 1.075-3.072-.089-4.184-1.165-1.115-3.071-1.074-4.185.089-1.115 1.165-1.074 3.072.089 4.185 1.165 1.113 3.072 1.073 4.185-.09z" fill="#6987a8" data-color="1"/>
        <path d="M88.507 77.347c-1.097 1.186-1.023 3.088.163 4.184 1.184 1.095 3.092 1.02 4.185-.163 1.095-1.185 1.021-3.09-.163-4.185-1.186-1.095-3.09-1.02-4.185.164z" fill="#6987a8" data-color="1"/>
        <path d="M130 118.753c-1.119 1.162-1.084 3.066.076 4.185 1.161 1.119 3.067 1.084 4.184-.076 1.119-1.162 1.085-3.067-.076-4.185-1.162-1.119-3.067-1.084-4.184.076z" fill="#6987a8" data-color="1"/>
        <path d="M105.381 110.675a2.598 2.598 0 0 0-.016 3.67c1.011 1.048 2.599 1.1 3.67.12 1.074-.982 1.17-2.579.221-3.671a2.61 2.61 0 0 0-3.875-.119z" fill="#6987a8" data-color="1"/>
        <path d="M55.485 61.106c-.922 1.109-.788 2.706.306 3.664 1.093.956 2.681.866 3.67-.209.983-1.068.936-2.658-.107-3.672-1.116-1.085-2.87-.987-3.869.217z" fill="#6987a8" data-color="1"/>
        <path d="M80.398 85.917c-.955 1.093-.864 2.68.212 3.67 1.071.986 2.654.94 3.67-.106a2.615 2.615 0 0 0-.216-3.869 2.615 2.615 0 0 0-3.666.305z" fill="#6987a8" data-color="1"/>
        <path d="M121.848 127.368c-.955 1.092-.864 2.68.211 3.669 1.072.986 2.654.941 3.671-.106a2.619 2.619 0 0 0-.217-3.87c-1.11-.921-2.708-.787-3.665.307z" fill="#6987a8" data-color="1"/>
        <path d="M113.609 119.025c-.984 1.07-.938 2.655.108 3.67a2.6 2.6 0 0 0 3.67-.004 2.61 2.61 0 0 0-.106-3.876c-1.092-.953-2.686-.862-3.672.21z" fill="#6987a8" data-color="1"/>
        <path d="M63.863 69.291c-.98 1.071-.928 2.66.12 3.671 1.124 1.084 2.87.981 3.867-.228.918-1.112.78-2.711-.316-3.663-1.092-.95-2.689-.854-3.671.22z" fill="#6987a8" data-color="1"/>
        <path d="M72.249 77.489c-1.035 1.024-1.065 2.607-.07 3.669 1 1.066 2.583 1.141 3.67.174 1.085-.966 1.204-2.567.273-3.669a2.618 2.618 0 0 0-3.873-.174z" fill="#6987a8" data-color="1"/>
        <path d="M97.248 102.226a2.616 2.616 0 0 0-.125 3.876 2.595 2.595 0 0 0 3.669.024c1.052-1.011 1.107-2.597.127-3.671-.979-1.076-2.578-1.176-3.671-.229z" fill="#6987a8" data-color="1"/>
        <path d="M88.671 94.226c-.942 1.096-.835 2.691.246 3.67 1.08.977 2.663.916 3.67-.141a2.603 2.603 0 0 0-.04-3.672 2.621 2.621 0 0 0-3.876.143z" fill="#6987a8" data-color="1"/>
        <path d="M80.789 102.534c-.931.876-.925 2.527.012 3.398.851.791 2.344.786 3.19-.012.932-.879.927-2.525-.011-3.397-.85-.79-2.346-.785-3.191.011z" fill="#6987a8" data-color="1"/>
        <path d="M50.479 60.692a54.511 54.511 0 0 0-1.726 4.489c.751.159 1.551-.058 2.168-.657.986-.959 1.031-2.378.106-3.384a2.633 2.633 0 0 0-.548-.448z" fill="#6987a8" data-color="1"/>
        <path d="M97.236 110.815c-.956.972-.965 2.404-.021 3.385.954.99 2.375 1.042 3.385.122 1.11-1.011 1.118-2.567.02-3.59-.999-.93-2.42-.895-3.384.083z" fill="#6987a8" data-color="1"/>
        <path d="M47.576 69.43c-.032.032-.055.072-.085.106a54.942 54.942 0 0 0-.481 2.115c.083.357.237.695.48.97.763.863 2.259.997 3.185.285 1.003-.771 1.149-2.428.299-3.39-.844-.955-2.498-.997-3.398-.086z" fill="#6987a8" data-color="1"/>
        <path d="M113.912 135.732c-.91.9-.868 2.554.087 3.397.876.774 2.361.733 3.19-.087.828-.82.884-2.305.12-3.191-.829-.961-2.487-1.019-3.397-.119z" fill="#6987a8" data-color="1"/>
        <path d="M122.026 135.765c-.915 1.014-.856 2.433.14 3.384a2.419 2.419 0 0 0 1.559.683 713.86 713.86 0 0 0 2.32-3.506 2.582 2.582 0 0 0-.635-.802c-1.042-.886-2.459-.785-3.384.241z" fill="#6987a8" data-color="1"/>
        <path d="M97.266 119.217c-.791.851-.786 2.345.01 3.192.877.932 2.525.926 3.397-.012.792-.851.787-2.344-.01-3.19-.877-.932-2.525-.927-3.397.01z" fill="#6987a8" data-color="1"/>
        <path d="M64.1 86.065c-.788.855-.776 2.348.026 3.191.883.929 2.531.917 3.397-.025.788-.856.776-2.348-.026-3.191-.882-.928-2.53-.916-3.397.025z" fill="#6987a8" data-color="1"/>
        <path d="M47.65 77.96c-.72.782-.709 2.147.023 2.918.807.849 2.314.838 3.107-.023.72-.783.709-2.147-.023-2.919-.806-.848-2.314-.837-3.107.024z" fill="#6987a8" data-color="1"/>
        <path d="M55.902 86.212c-.72.782-.709 2.147.023 2.918.807.849 2.314.838 3.107-.023.72-.783.709-2.147-.023-2.919-.806-.848-2.314-.837-3.107.024z" fill="#6987a8" data-color="1"/>
        <path d="M64.154 94.464c-.72.782-.709 2.147.024 2.918.807.849 2.314.838 3.107-.023.72-.783.709-2.147-.023-2.919-.808-.848-2.315-.837-3.108.024z" fill="#6987a8" data-color="1"/>
        <path d="M72.406 102.716c-.72.782-.709 2.147.024 2.918.807.849 2.314.838 3.107-.023.72-.783.709-2.147-.023-2.919-.808-.848-2.315-.837-3.108.024z" fill="#6987a8" data-color="1"/>
        <path d="M56.105 94.653c-.639.694-.629 1.905.021 2.589.716.753 2.053.744 2.756-.02.639-.694.629-1.905-.021-2.589-.716-.753-2.053-.743-2.756.02z" fill="#6987a8" data-color="1"/>
        <path d="M47.827 86.376c-.639.694-.629 1.905.021 2.589.716.753 2.053.744 2.756-.02.639-.694.629-1.905-.021-2.589-.715-.754-2.053-.744-2.756.02z" fill="#6987a8" data-color="1"/>
        <path d="M64.461 103.009c-.639.694-.629 1.905.021 2.589.716.753 2.053.744 2.756-.02.639-.694.629-1.905-.021-2.589-.716-.753-2.053-.743-2.756.02z" fill="#6987a8" data-color="1"/>
        <path d="M58.68 105.367c.534-.581.526-1.593-.017-2.165-.598-.63-1.716-.621-2.305.017-.534.58-.526 1.593.017 2.165.599.63 1.717.622 2.305-.017z" fill="#6987a8" data-color="1"/>
        <path d="M64.766 111.627c-.534.58-.526 1.593.017 2.165.599.63 1.717.622 2.305-.017.534-.581.526-1.593-.017-2.165-.599-.63-1.717-.621-2.305.017z" fill="#6987a8" data-color="1"/>
        <path d="M73.173 120.035c-.534.58-.526 1.593.017 2.165.599.63 1.717.622 2.305-.017.534-.581.526-1.593-.017-2.165-.598-.63-1.716-.622-2.305.017z" fill="#6987a8" data-color="1"/>
        <path d="M72.816 111.365c-.639.694-.629 1.905.021 2.589.716.753 2.053.744 2.756-.02.639-.694.629-1.905-.021-2.589-.715-.754-2.052-.744-2.756.02z" fill="#6987a8" data-color="1"/>
        <path d="M81.172 119.721c-.639.694-.629 1.905.021 2.589.716.753 2.053.744 2.756-.02.639-.694.629-1.905-.021-2.589-.715-.754-2.053-.744-2.756.02z" fill="#6987a8" data-color="1"/>
        <path d="M89.528 128.076c-.639.694-.629 1.905.021 2.589.716.753 2.053.744 2.756-.02.639-.694.629-1.905-.021-2.589-.716-.753-2.053-.743-2.756.02z" fill="#6987a8" data-color="1"/>
        <path d="M97.883 136.432c-.639.694-.629 1.905.021 2.589.716.753 2.053.744 2.756-.02.639-.694.629-1.905-.021-2.589-.715-.753-2.052-.743-2.756.02z" fill="#6987a8" data-color="1"/>
        <path d="M106.239 144.788c-.639.694-.629 1.905.021 2.589.716.753 2.053.744 2.756-.02.639-.694.629-1.905-.021-2.589-.715-.754-2.052-.744-2.756.02z" fill="#6987a8" data-color="1"/>
        <path d="M98.118 144.7c-.542.588-.534 1.615.018 2.195.607.639 1.741.63 2.337-.017.542-.589.533-1.615-.018-2.195-.607-.639-1.74-.631-2.337.017z" fill="#6987a8" data-color="1"/>
        <path d="M89.711 136.292c-.542.588-.534 1.615.018 2.195.607.639 1.741.63 2.337-.017.542-.589.533-1.615-.018-2.195-.607-.639-1.741-.63-2.337.017z" fill="#6987a8" data-color="1"/>
        <path d="M81.841 136.453c-.462.501-.454 1.376.015 1.87.517.544 1.483.537 1.991-.015.462-.501.455-1.376-.015-1.87-.517-.544-1.483-.536-1.991.015z" fill="#6987a8" data-color="1"/>
        <path d="M89.937 144.549c-.462.501-.454 1.376.015 1.87.517.544 1.483.537 1.991-.015.462-.501.455-1.376-.015-1.87-.517-.543-1.483-.536-1.991.015z" fill="#6987a8" data-color="1"/>
        <path d="M98.033 152.646c-.462.501-.454 1.376.015 1.87.517.544 1.483.537 1.991-.015.462-.501.455-1.376-.015-1.87-.517-.544-1.483-.537-1.991.015z" fill="#6987a8" data-color="1"/>
        <path d="M73.355 127.968c-.462.501-.454 1.376.015 1.87.517.544 1.483.537 1.991-.015.462-.501.455-1.376-.015-1.87-.517-.544-1.483-.537-1.991.015z" fill="#6987a8" data-color="1"/>
        <path d="M65.103 119.716c-.462.501-.454 1.376.015 1.87.517.544 1.483.537 1.991-.015.462-.501.455-1.376-.015-1.87-.517-.544-1.482-.537-1.991.015z" fill="#6987a8" data-color="1"/>
        <path d="M56.851 111.464c-.462.501-.455 1.376.015 1.87.517.544 1.483.537 1.991-.015.462-.501.455-1.376-.015-1.87-.517-.544-1.483-.537-1.991.015z" fill="#6987a8" data-color="1"/>
        <path d="M83.657 130.062c.542-.589.533-1.615-.018-2.195-.607-.638-1.74-.63-2.337.017-.542.588-.534 1.615.018 2.195.608.639 1.741.631 2.337-.017z" fill="#6987a8" data-color="1"/>
        <path d="M106.215 152.796c-.542.588-.534 1.615.018 2.195.607.639 1.741.63 2.337-.017.542-.589.533-1.615-.018-2.195-.607-.639-1.741-.63-2.337.017z" fill="#6987a8" data-color="1"/>
        <path d="M83.788 113.863c.72-.783.709-2.147-.023-2.919-.806-.849-2.314-.838-3.107.023-.72.782-.709 2.147.024 2.918.807.851 2.314.84 3.106-.022z" fill="#6987a8" data-color="1"/>
        <path d="M92.196 122.271c.72-.783.709-2.147-.023-2.919-.806-.849-2.314-.838-3.107.023-.72.782-.709 2.147.024 2.918.806.85 2.313.839 3.106-.022z" fill="#6987a8" data-color="1"/>
        <path d="M97.473 127.783c-.72.782-.709 2.147.024 2.918.807.849 2.314.838 3.107-.023.72-.783.709-2.147-.023-2.919-.807-.848-2.315-.837-3.108.024z" fill="#6987a8" data-color="1"/>
        <path d="M105.881 136.191c-.72.782-.709 2.147.024 2.918.807.849 2.314.838 3.107-.023.72-.783.709-2.147-.023-2.919-.808-.848-2.315-.837-3.108.024z" fill="#6987a8" data-color="1"/>
        <path d="M114.081 144.287c-.72.782-.709 2.147.023 2.918.807.849 2.314.838 3.107-.023.72-.783.709-2.147-.024-2.919-.806-.848-2.313-.837-3.106.024z" fill="#6987a8" data-color="1"/>
        <path d="M88.832 102.642c-.899 1.039-.811 2.445.211 3.383 1.005.923 2.427.878 3.384-.108.948-.976.946-2.408-.006-3.383-1.037-1.062-2.619-1.014-3.589.108z" fill="#6987a8" data-color="1"/>
        <path d="M113.803 127.407c-.948.976-.946 2.41.005 3.385.96.984 2.38 1.025 3.384.098 1.103-1.019 1.101-2.574-.005-3.59-1.005-.924-2.426-.879-3.384.107z" fill="#6987a8" data-color="1"/>
        <path d="M55.919 77.664c-.932.877-.926 2.525.012 3.397.85.79 2.346.785 3.191-.011.931-.878.926-2.526-.011-3.397-.852-.791-2.345-.786-3.192.011z" fill="#6987a8" data-color="1"/>
        <path d="M105.708 127.355c-.956.845-.998 2.495-.087 3.397.829.82 2.315.86 3.191.087.861-.76.996-2.262.286-3.185-.771-1.004-2.428-1.15-3.39-.299z" fill="#6987a8" data-color="1"/>
        <path d="M72.499 94.244c-.932.877-.926 2.525.012 3.397.85.79 2.346.785 3.191-.011.931-.878.926-2.526-.011-3.397-.853-.792-2.345-.786-3.192.011z" fill="#6987a8" data-color="1"/>
        <path d="M72.391 85.923c-.972.965-1 2.389-.066 3.383.947 1.007 2.358 1.077 3.384.168 1.114-.987 1.143-2.56.065-3.589-.987-.94-2.414-.924-3.383.038z" fill="#6987a8" data-color="1"/>
        <path d="M55.656 69.498c-.884 1.041-.782 2.46.243 3.384 1.014.915 2.432.856 3.384-.141.941-.986.926-2.412-.038-3.383-1.043-1.05-2.631-.988-3.589.14z" fill="#6987a8" data-color="1"/>
        <path d="M80.76 94.132c-1.11 1.01-1.118 2.567-.02 3.59.999.931 2.421.896 3.384-.083.956-.972.965-2.404.021-3.385-.954-.99-2.375-1.041-3.385-.122z" fill="#6987a8" data-color="1"/>
        <path d="M88.969 110.935c-.788.855-.777 2.347.025 3.19.882.929 2.532.917 3.398-.024.787-.855.775-2.349-.026-3.192-.882-.928-2.529-.916-3.397.026z" fill="#6987a8" data-color="1"/>
        <path d="M64.049 77.684c-.941.986-.926 2.414.037 3.384.966.973 2.389 1.001 3.384.066 1.008-.948 1.079-2.357.169-3.384-.987-1.114-2.562-1.143-3.59-.066z" fill="#6987a8" data-color="1"/>
        <path d="M105.397 119.235c-.885 1.04-.786 2.46.238 3.384 1.015.916 2.431.859 3.384-.137.943-.985.929-2.411-.033-3.383-1.042-1.051-2.629-.991-3.589.136z" fill="#6987a8" data-color="1"/>
        <path d="M114.18 152.728c-.257.279-.381.648-.428 1.027-.026.209-.019.411.018.618l.005.006c.505-.721 1.02-1.459 1.539-2.205a1.955 1.955 0 0 0-.407.094 1.746 1.746 0 0 0-.727.46z" fill="#6987a8" data-color="1"/>
        <path d="M50.45 94.989c-.341-.359-.848-.487-1.333-.432.361.885.753 1.796 1.166 2.724.059-.046.133-.071.184-.127.012-.013.016-.033.028-.047.387-.456.458-1.137.222-1.686a1.46 1.46 0 0 0-.267-.432z" fill="#6987a8" data-color="1"/>
        <path d="M107.761 160.488a1.436 1.436 0 0 0-1.204-.04 1.256 1.256 0 0 0-.428.294 1.28 1.28 0 0 0-.281.567c-.076.304-.063.628.057.915.059.141.133.276.239.387.408.429 1.088.502 1.609.248l.682-.948c.07-.422-.021-.876-.315-1.185a1.235 1.235 0 0 0-.359-.238z" fill="#6987a8" data-color="1"/>
        <path d="M89.886 153.116c-.298.263-.304 1.422-.009 1.687 1.045.941 1.681.251 2.186-.861-.513-1.003-1.111-1.766-2.177-.826z" fill="#6987a8" data-color="1"/>
        <path d="M75.214 136.638c-.226-.238-.558-.328-.88-.299-.258.023-.51.118-.688.311-.144.156-.213.361-.242.572l.775 1.171c.181.042.364.04.543-.007.189-.049.369-.128.503-.274.169-.183.249-.431.26-.681.003-.071-.008-.137-.017-.207a1.046 1.046 0 0 0-.254-.586z" fill="#6987a8" data-color="1"/>
        <path d="M98.866 160.807c-1.34.988-1.682 1.809.237 2.957 1.45-1.215 1.501-2.057-.237-2.957z" fill="#6987a8" data-color="1"/>
        <path d="M81.554 144.874c-.938 1.044-.252 1.682.835 2.173 1.076-.48 1.778-1.106.852-2.164-.26-.297-1.422-.303-1.687-.009z" fill="#6987a8" data-color="1"/>
        <path d="M90.095 161.411l1.199 1.667c.353-.257.453-.815.285-1.77-.683-.092-1.169-.06-1.484.103z" fill="#6987a8" data-color="1"/>
        <path d="M98.012 171.487c1.758.237 2.293-.257 1.8-1.762-1.545.04-1.545.04-1.8 1.762z" fill="#6987a8" data-color="1"/>
        <path d="M96.856 94.176c-.997 1.16-.884 2.847.26 3.882 1.142 1.033 2.817.969 3.882-.15a2.754 2.754 0 0 0-.042-3.884 2.774 2.774 0 0 0-4.1.152z" fill="#6987a8" data-color="1"/>
        <path d="M88.5 85.82c-.997 1.16-.884 2.847.26 3.882 1.142 1.033 2.817.968 3.882-.15a2.754 2.754 0 0 0-.042-3.884 2.774 2.774 0 0 0-4.1.152z" fill="#6987a8" data-color="1"/>
        <path d="M80.3 77.516c-.997 1.16-.884 2.847.261 3.882 1.142 1.033 2.817.969 3.882-.15a2.753 2.753 0 0 0-.042-3.884 2.775 2.775 0 0 0-4.101.152z" fill="#6987a8" data-color="1"/>
        <path d="M72.1 69.212c-.997 1.16-.884 2.847.26 3.881 1.142 1.033 2.817.969 3.882-.15a2.754 2.754 0 0 0-.042-3.884 2.774 2.774 0 0 0-4.1.153z" fill="#6987a8" data-color="1"/>
        <path d="M63.9 60.908c-.997 1.16-.884 2.847.26 3.882 1.142 1.033 2.817.968 3.882-.15A2.754 2.754 0 0 0 68 60.756a2.774 2.774 0 0 0-4.1.152z" fill="#6987a8" data-color="1"/>
        <path d="M55.441 52.656c-.997 1.16-.884 2.847.26 3.882 1.142 1.033 2.817.968 3.882-.15a2.753 2.753 0 0 0-.042-3.884 2.775 2.775 0 0 0-4.1.152z" fill="#6987a8" data-color="1"/>
        <path d="M105.056 102.427c-.997 1.16-.884 2.847.261 3.882 1.142 1.033 2.817.969 3.882-.15a2.753 2.753 0 0 0-.042-3.884 2.776 2.776 0 0 0-4.101.152z" fill="#6987a8" data-color="1"/>
        <path d="M113.36 110.731c-.997 1.16-.884 2.847.26 3.882 1.142 1.033 2.817.968 3.882-.15a2.754 2.754 0 0 0-.042-3.884 2.774 2.774 0 0 0-4.1.152z" fill="#6987a8" data-color="1"/>
        <path d="M121.612 118.983c-.997 1.16-.884 2.847.26 3.882 1.142 1.033 2.817.968 3.882-.15a2.754 2.754 0 0 0-.042-3.884 2.774 2.774 0 0 0-4.1.152z" fill="#6987a8" data-color="1"/>
        <path d="M129.578 127.78a2.723 2.723 0 0 0 .12 2.812l.004.094.027-.043a505.344 505.344 0 0 0 2.669-4.215c-.817-.08-1.614.206-2.493.873a2.923 2.923 0 0 0-.327.479z" fill="#6987a8" data-color="1"/>
    </g>
</svg>
