<svg version="1.1" id="Layer_1" xmlns="http://www.w3.org/2000/svg" xmlns:xlink="http://www.w3.org/1999/xlink" x="0px" y="0px"
	 width="200px" height="200px" viewBox="0 0 200 200" enable-background="new 0 0 200 200" xml:space="preserve">
<path d="M46.245,171.425c-1.627-1.364-3.027-3.033-3.997-5.057c-4.33-9.041,2.967-17.252,6.165-24.774
	c2.348-5.523,1.579-11.018-1.845-15.661c-3.187-4.321-7.835-6.25-10.8-10.818c-8.56-13.19,11.304-20.693,12.856-32.088
	c0.594-4.358-0.865-8.753-2.733-12.536c-1.868-3.782-4.186-7.264-5.602-11.329c-1.674-4.806-1.813-10.546,1.47-14.295
	c2.395-2.736,5.589-3.334,7.351-7.033c2.708-5.684,2.098-18.137,9.808-17.827c6.295,0.254,11.394,5.8,15.716,10.82
	c3.993,4.639,10.236,10.827,15.827,5.888c3.949-3.489,5.238-13.822,11.526-12.105c2.518,0.688,4.553,3.187,6.058,5.628
	c2.05,3.325,4.07,7.44,7.682,8.321c3.095,0.755,6.202-1.239,8.654-3.668c2.452-2.428,4.606-5.387,7.416-7.141
	c3.282-2.049,8.211-1.856,9.918,2.776c1.053,2.857,0.645,6.248,2.305,8.82c1.767,2.738,4.647,3.175,7.322,2.873
	c2.136-0.241,4.241-0.867,6.386-0.933c4.248-0.13,8.636,4.155,8.634,9.579c-0.001,3.388-1.752,6.43-3.821,8.685
	c-4.366,4.757-11.842,8.949-11.184,17.547c0.446,5.817,4.888,9.404,6.907,14.326c2.418,5.898,2.141,13.003-1.474,18.083
	c-2.17,3.049-5.205,4.931-7.36,7.993c-5.413,7.688,1.629,12.213,5.189,17.867c3.947,6.269,7.05,17.838,5.888,25.707
	c-0.653,4.421-2.686,7.038-6.487,7.02c-5.97-0.028-10.632-2.339-15.919,2.207c-4.736,4.072-8.615,10.091-14.995,9.683
	c-4.801-0.307-9.327-2.702-13.701-5.141c-5.128-2.859-10.791-6.295-16.59-5.81c-6.202,0.519-11.555,4.427-17.429,6.402
	c-6.314,2.124-13.376,2.255-19.764,0.596C52.526,175.224,49.05,173.777,46.245,171.425z"/>
</svg>
