<svg version="1.1" id="Layer_1" xmlns="http://www.w3.org/2000/svg" xmlns:xlink="http://www.w3.org/1999/xlink" x="0px" y="0px"
	 width="200px" height="200px" viewBox="0 0 200 200" enable-background="new 0 0 200 200" xml:space="preserve">
<g>
	<rect x="26.626" y="20.295" width="4.645" height="159.41"/>
	<rect x="36.776" y="20.295" width="4.645" height="159.41"/>
	<rect x="46.926" y="20.295" width="4.645" height="159.41"/>
	<rect x="57.076" y="20.295" width="4.645" height="159.41"/>
	<rect x="67.227" y="20.295" width="4.645" height="159.41"/>
	<rect x="77.377" y="20.295" width="4.645" height="159.41"/>
	<rect x="87.527" y="20.295" width="4.645" height="159.41"/>
	<rect x="97.677" y="20.295" width="4.645" height="159.41"/>
	<rect x="107.828" y="20.295" width="4.645" height="159.41"/>
	<rect x="117.978" y="20.295" width="4.645" height="159.41"/>
	<rect x="128.128" y="20.295" width="4.645" height="159.41"/>
	<rect x="138.279" y="20.295" width="4.645" height="159.41"/>
	<rect x="148.429" y="20.295" width="4.645" height="159.41"/>
	<rect x="158.579" y="20.295" width="4.645" height="159.41"/>
	<rect x="168.729" y="20.295" width="4.645" height="159.41"/>
</g>
</svg>
