<svg version="1.1" id="Layer_1" xmlns="http://www.w3.org/2000/svg" xmlns:xlink="http://www.w3.org/1999/xlink" x="0px" y="0px"
	 width="200px" height="200px" viewBox="0 0 200 200" enable-background="new 0 0 200 200" xml:space="preserve">
<g>
	<g opacity="0.6">
		<rect x="75.703" y="4.64" transform="matrix(0.1894 -0.9819 0.9819 0.1894 25.5024 128.865)" width="30.19" height="88.694"/>
	</g>
	<g opacity="0.7">
		<rect x="77.93" y="56.701" transform="matrix(0.9979 -0.0641 0.0641 0.9979 -4.3496 7.9835)" width="88.694" height="30.19"/>
	</g>
	<g opacity="0.4">
		<rect x="87.118" y="49.524" transform="matrix(0.1263 -0.992 0.992 0.1263 -3.8125 183.4129)" width="30.19" height="88.694"/>
	</g>
	<g opacity="0.7">
		<rect x="72.867" y="101.954" transform="matrix(0.9938 -0.111 0.111 0.9938 -12.3568 12.0647)" width="58.692" height="30.19"/>
	</g>
	<g opacity="0.6">
		<rect x="33.376" y="124.717" transform="matrix(0.9979 -0.0641 0.0641 0.9979 -8.7998 5.2681)" width="88.694" height="30.19"/>
	</g>
	<g opacity="0.5">

			<rect x="113.089" y="119.298" transform="matrix(0.0971 -0.9953 0.9953 0.0971 -39.2072 268.132)" width="30.19" height="72.755"/>
	</g>
</g>
</svg>
