<svg version="1.1" id="Layer_1" xmlns="http://www.w3.org/2000/svg" xmlns:xlink="http://www.w3.org/1999/xlink" x="0px" y="0px"
	 width="200px" height="200px" viewBox="0 0 200 200" enable-background="new 0 0 200 200" xml:space="preserve">
<path d="M100,34c-36.451,0-66,29.549-66,66s29.549,66,66,66s66-29.549,66-66S136.451,34,100,34z M123.549,75.427
	c3.697,0,6.695,2.997,6.695,6.695c0,3.697-2.997,6.695-6.695,6.695s-6.695-2.997-6.695-6.695
	C116.854,78.424,119.852,75.427,123.549,75.427z M76.451,75.427c3.697,0,6.695,2.997,6.695,6.695c0,3.697-2.997,6.695-6.695,6.695
	s-6.695-2.997-6.695-6.695C69.757,78.424,72.754,75.427,76.451,75.427z M121.575,134.093c-6.434,4.137-13.894,6.323-21.575,6.323
	s-15.142-2.186-21.575-6.323c-6.261-4.026-11.266-9.696-14.473-16.397l5.939-2.842c2.679,5.598,6.861,10.336,12.095,13.701
	c5.369,3.452,11.599,5.277,18.015,5.277s12.645-1.825,18.015-5.277c5.233-3.365,9.415-8.102,12.095-13.701l5.939,2.842
	C132.841,124.397,127.837,130.067,121.575,134.093z"/>
</svg>
