<svg version="1.1" id="Layer_1" xmlns="http://www.w3.org/2000/svg" xmlns:xlink="http://www.w3.org/1999/xlink" x="0px" y="0px"
	 width="200px" height="200px" viewBox="0 0 200 200" enable-background="new 0 0 200 200" xml:space="preserve">
<g>
	<path d="M65.524,100.019l1.481-17.005l4.175,0.364c5.766,0.502,11.096,0.049,15.994-1.362c4.896-1.409,8.867-3.685,11.912-6.825
		c0.522-0.539,1.002-1.099,1.446-1.678l4.009,25.641l44.855-7.013l-2.343-14.985l-23.561,3.684L115.23,28l-21.294,3.329
		l2.194,14.033c-5.208-3.908-12.548-6.276-22.024-7.101l-24.652-2.147l-5.955,68.39l10.83,0.943L45.193,172l22.252-2.977
		l1.121-13.438l17.604-2.356l4.318,12.711l23.241-3.11L84.945,97.42L65.524,100.019z M69.679,52.298l4.274,0.372
		c3.578,0.312,6.252,1.245,8.019,2.802c1.768,1.556,2.53,3.726,2.288,6.509c-0.242,2.783-1.389,4.821-3.437,6.111
		c-2.05,1.291-4.83,1.783-8.342,1.477c-1.525-0.133-2.944-0.322-4.257-0.571L69.679,52.298z M69.016,143.142l2.742-30.668
		l10.412,28.908L69.016,143.142z"/>
	<polygon points="156.501,96.641 134.789,99.875 129.955,131.767 115.84,102.697 95.213,105.77 122.06,151.909 124.867,170.759
		146.086,167.599 143.279,148.749 	"/>
</g>
</svg>
