<svg data-bbox="12.5 29.5 174.999 140.999" viewBox="0 0 200 200" height="200" width="200" xmlns="http://www.w3.org/2000/svg" data-type="color">
    <g>
        <path d="M184.54 56.83c-1.497.057-35.11 1.549-52.999 18.56-.01.009-.023.011-.033.02a52.66 52.66 0 0 0-5.09 5.395c-11.74 11.785-29.444 17.854-35.476 19.664a37.513 37.513 0 0 0-2.846-4.076c.386-53.568 29.066-58.601 30.279-58.786a2.849 2.849 0 0 0 .449-5.543c-.3-.096-27.943-8.203-43.879 27.12-15.805-37.248-44.298-28.921-44.6-28.824a2.85 2.85 0 0 0 .14 5.481c.296.076 28.574 7.763 30.598 43.728-3.675-1.21-7.475-2.248-11.32-3.186-24.443-5.964-30.12-36.059-30.175-36.362a2.85 2.85 0 0 0-2.676-2.344c-1.306-.054-2.524.806-2.878 2.088-.097.353-7.119 27.161 9.72 46.785.242 2.017 1.103 6.872 4.101 12.344 2.081 3.798 5.485 8.34 10.922 12.326 1.382 3.762 7.487 18.394 21.687 28.128.918 3.445 9.349 31.151 42.469 31.151 31.489 0 45.276-16.797 47.727-31.718l13.073-3.82a2.849 2.849 0 1 0-.19-5.519l-13.492-2.954c-.803-2.743-2.037-5.125-3.586-7.151 3.686-3.164 9.556-10.331 10.151-24.233.759-17.752 20.888-30.566 28.77-32.673a2.851 2.851 0 0 0 2.082-3.178c-.217-1.436-1.492-2.465-2.928-2.423z" fill="#2F2D56" data-color="1"/>
        <path d="M43.03 35.608c1.136.218 2.326.52 3.556.93 10.947 3.64 19.688 14.187 25.282 30.499a2.844 2.844 0 0 0 1.795 3.533 2.855 2.855 0 0 0 3.62-1.775c7.571-22.123 19.109-29.297 27.832-31.315-9.487 6.707-21.135 21.387-22.585 53.222-4.531-3.798-9.88-6.699-15.683-9.031-.657-26.164-13.824-39.625-23.817-46.063z" fill="#E8BF92" data-color="2"/>
        <path d="M143.499 134.936c-.607-1.551-.302-3.002.118-4.021l7.8 1.708-7.918 2.313z" fill="#F9B233" data-color="3"/>
        <path d="M142.816 124.905a2.838 2.838 0 0 0-2.83.997c-1.985 2.465-4.538 8.601.011 14.181a2.853 2.853 0 0 0 3.009.935l1.414-.413c-3.292 12.306-15.52 24.196-41.488 24.196-21.715 0-31.133-13.164-34.849-21.139 6.261 2.848 13.701 4.674 22.496 4.674a2.85 2.85 0 1 0 0-5.7c-25.478 0-38.139-16.615-43.461-26.634a52.255 52.255 0 0 0 6.223 2.293 2.852 2.852 0 0 0 3.545-1.918 2.85 2.85 0 0 0-1.919-3.544c-14.148-4.21-20.484-12.613-23.323-19.044 4.277 3.111 9.435 5.856 15.728 8.007a2.85 2.85 0 1 0 1.845-5.394c-9.189-3.14-15.755-7.614-20.416-12.672-.046-.062-.102-.114-.153-.172-8.67-9.521-10.646-21.073-10.618-29.703 4.481 10.39 13.424 23.928 30.38 28.065 25.785 6.291 42.959 16.089 42.959 43.461 0 6.903 2.063 12.114 6.131 15.49 3.771 3.129 8.585 4.108 13.131 4.108 2.5 0 4.919-.296 7.038-.692a2.85 2.85 0 0 0 2.278-3.326 2.857 2.857 0 0 0-3.327-2.277c-6.749 1.265-12.248.484-15.48-2.198-2.282-1.894-3.601-4.866-3.96-8.829 4.653 1.974 9.122 1.084 12.605-2.73 6.485-7.101 10.288-9.045 17.69-9.045 4.255 0 9.089 1.579 12.657 4.923.02.022.045.037.066.058a16.063 16.063 0 0 1 3.142 4.159l-.524-.117z" fill="#E8BF92" data-color="2"/>
        <path d="M150.92 94.861c-.535 12.509-5.818 18.292-8.479 20.432-4.474-3.459-10.016-5.112-14.962-5.112-10.097 0-15.297 3.672-21.901 10.903-.917 1.004-3.351 3.67-8.341.137-.102-.072-.212-.124-.319-.181-.386-5.884-1.561-10.972-3.384-15.389 5.045-1.552 15.032-5.089 24.751-11.217-1.461 3.635-1.957 6.123-2.001 6.359a2.845 2.845 0 0 0 2.805 3.368 2.855 2.855 0 0 0 2.798-2.316c.019-.1 1.74-8.561 8.814-17.264a53.272 53.272 0 0 0 2.425-2.623 32.881 32.881 0 0 1 1.67-1.797c.073-.069.141-.14.215-.209 2.577-2.539 5.59-4.703 8.831-6.561-6.699 9.064-8.025 18.996-8.106 19.663a2.849 2.849 0 0 0 2.832 3.192 2.853 2.853 0 0 0 2.826-2.496c.116-.925 3.087-22.628 23.516-28.273 1.569-.371 3.098-.697 4.566-.982-9.231 6.928-18.017 17.752-18.556 30.366z" fill="#E8BF92" data-color="2"/>
        <path d="M43.03 35.608c1.136.218 2.326.52 3.556.93 10.947 3.64 19.688 14.187 25.282 30.499a2.844 2.844 0 0 0 1.795 3.533 2.855 2.855 0 0 0 3.62-1.775c7.571-22.123 19.109-29.297 27.832-31.315-9.487 6.707-21.135 21.387-22.585 53.222-4.531-3.798-9.88-6.699-15.683-9.031-.657-26.164-13.824-39.625-23.817-46.063z" opacity=".1"/>
        <path d="M150.92 94.861c-.535 12.509-5.818 18.292-8.479 20.432-4.474-3.459-10.016-5.112-14.962-5.112-10.097 0-15.297 3.672-21.901 10.903-.917 1.004-3.351 3.67-8.341.137-.102-.072-.212-.124-.319-.181-.386-5.884-1.561-10.972-3.384-15.389 5.045-1.552 15.032-5.089 24.751-11.217-1.461 3.635-1.957 6.123-2.001 6.359a2.845 2.845 0 0 0 2.805 3.368 2.855 2.855 0 0 0 2.798-2.316c.019-.1 1.74-8.561 8.814-17.264a53.272 53.272 0 0 0 2.425-2.623 32.881 32.881 0 0 1 1.67-1.797c.073-.069.141-.14.215-.209 2.577-2.539 5.59-4.703 8.831-6.561-6.699 9.064-8.025 18.996-8.106 19.663a2.849 2.849 0 0 0 2.832 3.192 2.853 2.853 0 0 0 2.826-2.496c.116-.925 3.087-22.628 23.516-28.273 1.569-.371 3.098-.697 4.566-.982-9.231 6.928-18.017 17.752-18.556 30.366z" opacity=".1"/>
        <path d="M127.244 125.932a2.876 2.876 0 0 0-.836 2.014c0 .19.019.38.057.57.038.171.096.361.171.532.058.171.152.323.248.494.114.151.227.285.361.417a2.881 2.881 0 0 0 2.015.836c.74 0 1.482-.303 2.015-.836.133-.133.247-.266.361-.417.095-.172.19-.324.265-.494a5.31 5.31 0 0 0 .152-.532c.038-.19.058-.38.058-.57 0-.741-.304-1.481-.836-2.014-1.066-1.064-2.967-1.064-4.031 0z" fill="#2F2D56" data-color="1"/>
    </g>
</svg>
