<svg version="1.1" id="Layer_1" xmlns="http://www.w3.org/2000/svg" xmlns:xlink="http://www.w3.org/1999/xlink" x="0px" y="0px"
	 width="200px" height="200px" viewBox="0 0 200 200" enable-background="new 0 0 200 200" xml:space="preserve">
<path d="M54.526,86.611c2.294-0.27,4.115-0.485,5.936-0.7c-0.006-0.375-0.012-0.751-0.018-1.126
	c-1.842-0.17-3.683-0.341-5.721-0.529c0-3.245,0-6.492,0-10c1.829-0.166,3.684-0.334,5.539-0.502
	c0.016-0.296,0.033-0.592,0.049-0.889c-1.805-0.209-3.61-0.419-5.709-0.663c0-4.392-0.189-8.764,0.069-13.109
	c0.16-2.7,1.968-4.328,4.797-4.504c2.759-0.171,4.732,1.022,5.504,3.688c0.389,1.342,0.413,2.821,0.419,4.239
	c0.035,8.901,0.016,17.803,0.022,26.705c0.001,2.161,0.176,4.312,2.683,5.082c2.601,0.799,4.826-1.279,4.886-4.605
	c0.13-7.252,0.169-14.505,0.26-21.758c0.015-1.195,0.107-2.389,0.176-3.837c2.552-0.15,4.967-0.292,7.382-0.434
	c0.022-0.398,0.044-0.797,0.067-1.195c-2.323-0.174-4.646-0.347-7.252-0.542c0-2.861,0-5.74,0-8.822
	c1.906-0.144,3.807-0.288,5.707-0.432c0.027-0.3,0.055-0.6,0.082-0.901c-1.776-0.213-3.552-0.427-5.588-0.671
	c0-5.174-0.278-10.415,0.11-15.607c0.213-2.856,2.6-4.159,5.521-4.001c2.91,0.157,4.761,1.986,4.823,5.182
	c0.139,7.251,0.111,14.505,0.156,21.758c0.031,4.945,0.026,9.891,0.123,14.835c0.064,3.247,1.644,5.29,3.926,5.051
	c2.969-0.311,4.011-2.284,4.004-5.071c-0.022-8.347-0.008-16.695-0.008-25.157c1.429-0.32,2.537-0.568,3.644-0.816
	c0.037-0.238,0.073-0.476,0.11-0.713c-1.018-0.236-2.036-0.471-3.304-0.765c0-2.722,0-5.51,0-8.502
	c1.476-0.167,2.929-0.332,4.382-0.496c0.033-0.281,0.066-0.562,0.099-0.843c-1.447-0.229-2.894-0.458-4.585-0.726
	c0-2.855-0.156-5.691,0.04-8.503c0.233-3.346,2.884-5.718,5.811-5.531c3.062,0.195,5.257,2.567,5.315,6.02
	c0.25,14.724,0.44,29.448,0.652,44.173c0.014,0.989-0.016,1.98,0.045,2.966c0.149,2.416,1.368,4.034,3.852,4.063
	c2.476,0.028,3.412-1.742,3.455-3.961c0.069-3.503,0.018-7.009,0.018-10.793c2.089-0.143,3.991-0.273,5.892-0.404
	c0.034-0.302,0.068-0.604,0.101-0.906c-1.858-0.229-3.716-0.458-5.772-0.712c0-1.455,0-2.937,0-4.586
	c1.168-0.235,2.355-0.475,3.543-0.714c0.015-0.228,0.03-0.456,0.045-0.685c-1.158-0.307-2.316-0.614-3.711-0.984
	c0-2.451-0.18-4.965,0.048-7.443c0.258-2.81,1.877-4.662,4.816-4.995c2.695-0.305,5.01,1.438,5.701,4.387
	c0.295,1.258,0.297,2.609,0.269,3.914c-0.22,10.218-0.493,20.434-0.72,30.651c-0.065,2.933,0.046,5.832,3.478,7.059
	c2.96,1.058,5.564,0.137,7.28-2.75c0.95-1.598,1.642-3.348,2.463-5.023c1.357-2.772,3.785-3.364,6.397-2.573
	c2.741,0.831,3.963,3.062,3.603,5.913c-0.176,1.397-0.721,2.751-1.141,4.112c-4.112,13.319-8.201,26.644-12.362,39.948
	c-2.278,7.283-6.072,13.63-12.133,18.42c-1.699,1.343-2.33,2.62-1.16,4.677c0.489,0.86,0.865,2.445,0.416,3.069
	c-2.399,3.333-1.346,6.985-1.276,10.513c0.2,10.069,0.252,10.114-9.526,12.656c-10.241,2.662-20.503,1.514-30.755,0.008
	c-1.846-0.271-3.675-0.681-5.528-0.876c-3.009-0.316-4.15-2.095-4.143-4.909c0.008-3.627,0.125-7.259-0.048-10.877
	c-0.097-2.02-0.848-4.004-1.002-6.027c-0.129-1.691-0.173-3.543,0.384-5.095c0.729-2.028,0.586-3.367-1.006-4.94
	c-7.911-7.814-11.514-17.476-11.612-28.482C54.457,106.254,54.526,96.491,54.526,86.611z"/>
</svg>
