<svg data-bbox="38.5 10 123 180" viewBox="0 0 200 200" height="200" width="200" xmlns="http://www.w3.org/2000/svg" data-type="color">
    <g>
        <path d="M154.278 60.801v-15.4c-10.612-.132-19.024-9.049-18.612-19.831l-.015-.015h-3.511c-3.866-7.453-16.69-12.93-31.897-12.93s-28.031 5.478-31.897 12.93H65.64v.194c0 10.587-8.541 19.17-19.077 19.17h-.835V60.28c-3.286 10.103-5.348 24.027-5.348 39.505s2.062 29.467 5.348 39.505v17.939l.015.015c10.956-.425 19.967 8.415 19.896 19.349h4.468c4.768 6.637 16.593 11.341 30.388 11.341s25.62-4.704 30.388-11.341h4.768v-.644c0-10.439 8.328-18.944 18.627-19.073v-17.269c3.242-10.052 5.213-23.906 5.213-39.306 0-15.594-2.034-29.512-5.213-39.5z" fill="#77583E" data-color="1"/>
        <path d="M156.205 59.256V42.982h-1.85c-9.25-.13-16.777-7.835-16.777-17.29v-.712l.064-2.007h-4.464C128.28 15.113 115.328 10 100.185 10S72.09 15.113 67.192 22.973h-3.544l.064 2.109v.021c0 9.479-7.717 17.234-17.15 17.234h-.764l-1.998-.064v17.344c-3.415 10.722-5.348 24.887-5.284 39.962 0 15.075 1.869 29.241 5.284 39.962v19.689l1.998-.065h.709c4.575 0 8.893 1.819 12.179 5.068 3.222 3.249 5.026 7.603 5.026 12.281v2.014h5.29C74.617 185.503 86.928 190 100.452 190s25.835-4.497 31.385-11.471h5.805l-.064-2.216v-.391c0-9.451 7.527-17.272 16.777-17.402h1.85v-19.097c3.381-10.754 5.295-24.963 5.295-40.084 0-15.121-1.85-29.329-5.295-40.083zm0 80.094v18.525h-1.991c-9.506.131-17.278 8.108-17.278 17.786v.458l.064 1.766h-5.717l-.064.065c-5.524 6.931-17.856 11.443-31.409 11.443s-25.885-4.512-31.409-11.443l-.064-.065h-4.625v-1.817c0-4.709-1.81-9.096-5.172-12.386-3.297-3.29-7.758-5.161-12.412-5.161h-.711l-1.616.065v-19.291c-3.426-10.58-5.301-24.643-5.301-39.609 0-14.902 1.875-28.965 5.301-39.609v-17.16l1.616.065h.825c9.649 0 17.471-7.86 17.471-17.557v.012l-.064-1.819h3.41l.064-.065c4.826-7.991 17.63-13.123 32.687-13.123 15.056 0 27.925 5.132 32.687 13.123l.064.065H137l-.064 1.624v.715c0 9.615 7.786 17.541 17.309 17.671h1.318v16.331c3.38 10.586 5.242 24.657 5.242 39.631.129 15.103-1.734 29.174-4.6 39.76z" fill="#77583E" data-color="1"/>
    </g>
</svg>
