<svg width="272.343798828125px" height="131.583740234375px" xmlns="http://www.w3.org/2000/svg"
     viewBox="113.8281005859375 9.2081298828125 272.343798828125 131.583740234375" style="background: rgba(0, 0, 0, 0);"
     preserveAspectRatio="xMidYMid">
    <defs>
        <filter id="editing-hole" x="-100%" y="-100%" width="300%" height="300%">
            <feFlood flood-color="#000" result="black"></feFlood>
            <feMorphology operator="dilate" radius="2" in="SourceGraphic" result="erode"></feMorphology>
            <feGaussianBlur in="erode" stdDeviation="4" result="blur"></feGaussianBlur>
            <feOffset in="blur" dx="2" dy="2" result="offset"></feOffset>
            <feComposite operator="atop" in="offset" in2="black" result="merge"></feComposite>
            <feComposite operator="in" in="merge" in2="SourceGraphic" result="inner-shadow"></feComposite>
        </filter>
    </defs>
    <g filter="url(#editing-hole)">
        <g transform="translate(157.80218744277954, 98.39593887329102)">
            <path
                d="M3.19-46.06L38.25-46.06L38.25-40.94L24.50-40.94L24.50 0L16.94 0L16.94-40.94L3.19-40.94L3.19-46.06ZM54.94-46.06L54.94 0L47.31 0L47.31-46.06L54.94-46.06ZM97.63-41.81L92.44-37.19L92.44-37.19Q90.94-39 89-39.81L89-39.81L89-39.81Q87.06-40.63 85-40.63L85-40.63L84.75-40.63L84.75-46.81L84.81-46.81L84.81-46.81Q88.56-46.81 91.81-45.56L91.81-45.56L91.81-45.56Q95.06-44.31 97.63-41.81L97.63-41.81ZM65.63-23.25L65.63-23.25L65.63-23.25Q65.63-28.63 66.88-32.78L66.88-32.78L66.88-32.78Q68.13-36.94 70.31-39.84L70.31-39.84L70.31-39.84Q72.50-42.75 75.56-44.44L75.56-44.44L75.56-44.44Q78.63-46.13 82.19-46.56L82.19-46.56L82.19-40.31L82.19-40.31Q80.31-39.81 78.72-38.63L78.72-38.63L78.72-38.63Q77.13-37.44 75.91-35.34L75.91-35.34L75.91-35.34Q74.69-33.25 74-30.28L74-30.28L74-30.28Q73.31-27.31 73.25-23.25L73.25-23.25L73.25-23.25Q73.31-19.19 74-16.13L74-16.13L74-16.13Q74.69-13.06 75.91-10.84L75.91-10.84L75.91-10.84Q77.13-8.63 78.72-7.31L78.72-7.31L78.72-7.31Q80.31-6 82.19-5.50L82.19-5.50L82.19 0.19L82.19 0.19Q78.63-0.25 75.56-1.97L75.56-1.97L75.56-1.97Q72.50-3.69 70.31-6.63L70.31-6.63L70.31-6.63Q68.13-9.56 66.88-13.72L66.88-13.72L66.88-13.72Q65.63-17.88 65.63-23.25ZM84.75-23.75L100-23.75L100-5.94L100-5.94Q98.56-4.13 96.78-2.97L96.78-2.97L96.78-2.97Q95-1.81 93.03-1.06L93.03-1.06L93.03-1.06Q91.06-0.31 88.97 0L88.97 0L88.97 0Q86.88 0.31 84.81 0.31L84.81 0.31L84.75 0.31L84.75-5.19L84.75-5.19Q85.50-5.19 86.59-5.28L86.59-5.28L86.59-5.28Q87.69-5.38 88.84-5.59L88.84-5.59L88.84-5.59Q90-5.81 91.03-6.19L91.03-6.19L91.03-6.19Q92.06-6.56 92.56-7.25L92.56-7.25L92.56-18.63L84.75-18.63L84.75-23.75ZM111 0L111-46.06L118.63-46.06L118.63 0L111 0ZM137.88-25.88L137.88-20.75L121.19-20.75L121.19-25.88L137.88-25.88ZM121.19 0L121.19-5.69L139.81-5.69L139.81 0L121.19 0ZM121.19-46.06L139.81-46.06L139.81-40.38L121.19-40.38L121.19-46.06ZM149.94 0L149.94-46.06L157.44-46.06L157.44 0L149.94 0ZM170.69-18.13L181.19 0L173.25 0L164.56-16.69L164.56-16.69Q164.38-16.69 164.16-16.66L164.16-16.66L164.16-16.66Q163.94-16.63 163.50-16.63L163.50-16.63L163.50-16.63Q163.06-16.63 162.22-16.63L162.22-16.63L162.22-16.63Q161.38-16.63 160-16.63L160-16.63L160-22.13L164.25-22.13L164.25-22.13Q165.63-22.13 167-22.59L167-22.59L167-22.59Q168.38-23.06 169.50-24.13L169.50-24.13L169.50-24.13Q170.63-25.19 171.31-27.09L171.31-27.09L171.31-27.09Q172-29 172-31.81L172-31.81L172-31.81Q172-32.94 171.69-34.41L171.69-34.41L171.69-34.41Q171.38-35.88 170.41-37.22L170.41-37.22L170.41-37.22Q169.44-38.56 167.69-39.47L167.69-39.47L167.69-39.47Q165.94-40.38 163.06-40.38L163.06-40.38L160-40.38L160-46.06L163.19-46.06L163.19-46.06Q166.13-46.06 169-45.13L169-45.13L169-45.13Q171.88-44.19 174.16-42.31L174.16-42.31L174.16-42.31Q176.44-40.44 177.84-37.78L177.84-37.78L177.84-37.78Q179.25-35.13 179.25-31.81L179.25-31.81L179.25-31.81Q179.25-26.81 176.94-23.31L176.94-23.31L176.94-23.31Q174.63-19.81 170.69-18.13L170.69-18.13Z"
                fill="#ccc"></path>
        </g>
    </g>
    <style>
        text {
            font-size: 90px;
            font-family: Arial Black;
            dominant-baseline: central;
            text-anchor: middle;
        }
    </style>
</svg>
