<svg data-bbox="26.501 37.001 146.999 125.995" viewBox="0 0 200 200" height="200" width="200" xmlns="http://www.w3.org/2000/svg" data-type="color">
    <g>
        <path d="M164.364 90.762c.261.163 2.299 1.759 2.299 1.759l-.045-1.989c-.068-3.003-.903-5.958-2.605-9.193 1.179.03 9.487 2.423 9.487 2.423s-4.95-1.89-11.381-10.949c1.733.665 3.786.995 6.441 1.379l2.72.392s-5.89-4.898-7.304-10.083c5.485 2.596 8.558.057 8.558.057s-6.294-2.756-8.547-7.447c7.669-2.095 7.818-8.035 7.818-8.035s-11.622 5.75-37.622-7.42c-4.294-2.175-43.311-6.423-56.002-3.855-4.866.984-18.595 4.078-21.238 7.721-2.04 2.811-3.65 7.841-13.149 11.224-6.76 2.407-16.365 5.311-17.282 13.182-.153 1.314 1.249 2.57 2.661 4.381.255.328.97 4.422 2.56 8.084l.004.016.052.112c.122.278.249.553.382.823l.079.155c.13.258.264.511.404.758.022.039.043.08.066.119a13.82 13.82 0 0 0 .584.924c.168.244.341.478.521.699.03.037.061.071.092.107a8.5 8.5 0 0 0 .564.612l.04.041c.201.193.412.364.628.524.041.03.082.061.124.09.214.149.434.281.662.393.042.021.084.038.127.057.241.11.487.205.743.268 1.182 10.312 10.097 17.037 10.097 17.037s-3.305-7.998-1.783-14.65c.866 1.543 4.622 4.221 4.622 4.221l1.28-3.262c.381 1.189 1.365 3.425 1.365 3.425s.611-1.485 3.041-1.576c3.396-.127 4.415 2.858 4.415 2.858s2.243-1.561 2.407-1.636c7.746 3.754 13.012 11.972 13.356 19.362.027.587 0 1.142-.072 1.67l-.041.03c-1.872 1.653-4.329-.218-4.329-.218s-.077 2.127-.893 3.06c-1.515-.033-3.451-1.699-3.451-1.699.023 1.239-.227 3.248-.388 3.461-2.587-.878-7.73-7.895-7.73-7.895s-.85 4.714 1.12 7.638c-4.405-2.018-7.074-7.589-7.074-7.589s-.775 7.729 3.212 10.679c0 0-2.732 5.531 2.868 6.579 1.481 3.12 2.985 6.941 9.496 8.251 6.017 1.21 10.952 3.001 10.952 3.001s-2.846-2.745-3.356-3.386c1.696.413 7.369 1.422 7.369 1.422s-1.944-2.071-1.976-2.103c.766.257 4.791 1.175 4.791 1.175s-3.78-2.253-2.64-3.554c1.141-1.301 5.793.95 5.793.95s-2.493-3.404-2.871-4.172c1.482.346 4.83 1.328 6.002-.677-3.021-1.041-5.872-8.073.675-10.667 9.84-3.899 25.319 23.369 25.319 23.369s.386-4.934.397-5.547c2.103 4.248 5.698 6.861 5.698 6.861s-1.682-7.782-1.793-11.28c3.232 9.712 11.161 13.941 14.353 15.924 8.327 5.175 8.89 13.843 8.89 13.843 1.28-3.086 2.42-8.617 2.135-10.62.927 1.022 5.808 3.435 5.808 3.435s-2.176-4.943-2.563-6.782c.699.672 5.494 5.043 5.494 5.043s-2.15-13.147-2.208-13.76c.995 1.518 4.171 4.505 4.171 4.505l-.006-.124-.001-.019a7.28 7.28 0 0 1-.006-.113l-.005-.087-.008-.146-.005-.084c-.019-.338-.048-.813-.086-1.405l-.001-.018-.03-.451-.003-.048-.034-.487a1.293 1.293 0 0 1-.004-.064l-.037-.512-.006-.08c-.039-.536-.084-1.115-.134-1.731l-.012-.148-.039-.465-.025-.299-.038-.44-.018-.21c-.476-5.349-1.32-12.417-2.661-15.986 3.559 2.15 5.933 8.366 5.933 8.366s.695-5.942-4.059-15.271c1.41.852 9.122 4.677 9.122 4.677s-6.605-9.077-8.478-13.724c1.549 1.135 8.739 3.377 8.739 3.377s-4.46-5.238-5.707-12.506c1.631 1.442 8.048 3.822 8.048 3.822s-3.512-3.195-4.838-9.879z" fill="#2B231E" data-color="1"/>
        <path d="M43.626 66.251c.295.463.38 1.017.318 1.607l.037-.025c.277.392.413 3.389-1.96 6.839-2.848 4.139 17.128 8.081 17.111 7.947C57.161 67.369 76.214 66.5 82.72 69.528c16.273 7.576 27.108-.277 27.108-.277s10.649 9.68 4.211 28.834c-2.885 8.586 5.194 30.921 5.194 30.65 0-9.035 3.532-13.099 4.514-15.436.376 8.659 2.996 18.757 3.01 18.448.09-2.002 1.541-8.304 2.257-10.165.376 3.765 3.762 17.695 10.158 22.965.204.169 0-8.659.752-13.177 1.128 5.648 6.437 11.212 6.394 10.918-.752-5.271-1.292-10.789-.752-13.93.131.685 4.89 9.412 4.89 9.412.153.152-1.576-13.047-1.27-14.784 1.156 3.182 5.522 10.194 7.903 13.441-1.805-12.998-8.167-21.837-8.167-21.837s8.781 5.301 10.446 7.994c-2.868-9.39-7.108-12.837-7.571-13.412 0 0 7.638 4.111 9.694 5.318-1.705-3.222-8.919-15.504-8.919-15.504s6.394 6.028 10.867 6.584c-1.742-2.636-5.832-14.068-5.832-14.068s3.192 4.025 8.606 6.207c-1.791-2.031-8.398-15.381-8.398-15.381s7.329 6.782 7.983 7.168c-1.549-8.512-5.419-12.592-5.419-12.592s4.986 2.756 5.602 2.78c-3.039-3.382-11.553-15.797-11.553-15.797s6.834 7.241 13.385 8.368c-3.128-2.536-7.604-11.453-7.604-11.453s5.054 3.44 8.415 2.413c-2.525-1.262-6.186-6.682-6.186-6.682s4.728-1.309 6.006-4.999c-13.523.921-34.136-7.778-35.008-8.177-3.73-1.561-35.411-7.312-54.868-4.113-4.409.725-16.613 4.589-19.951 7.304-2.317 2.303-2.407 6.802-13.69 11.169-6.258 2.421-15.861 5.687-16.568 12.404.194 1.018 1.993 2.426 2.553 3.536.228.453.981 2.565 1.238 3.125 3.364-.715-5.749-8.054 1.46-7.221 2.085.241 5.367 1.445 7.701.105l.554-.38c.754-.62 1.372-1.578 1.761-3.035zm72.158-2.5c2.196.695 9.23 2.816 10.769 1.964-.075-.175-1.955-1.783-1.955-1.783l3.545.881c3.427.693 9.643-3.873 9.606-4.238-.01-.051-3.107-.658-3.107-.658s8.292-1.457 13.684-6.26c0 0 4.247 1.033 5.085 1.902.014-.057.419 6.545.27 6.816-4.931 8.997-8.382 9.56-8.382 9.56s-1.368-.673-2.468-1.291c.115.389 1.443 2.703 1.723 3.053 0 0-3.848-.352-4.312-.441.053.039 1.112 1.119 1.112 1.119s-1.295 1.215-7.147.62c-3.229 1.052-7.527-.832-8.917-1.926.129.3.38.987 1.931 2.721-7.513-3.821-10.76-8.429-11.647-9.882-.008.019-.27-.471-.27-.471.038.049-.145-1.894-.143-1.884.082.026.534.165.623.198zm-52.211-6.857s-6.849.14-.989-4.847c3.265-2.778 8.908-5.987 10.755-6.515 8.279-2.367 24.768-2.842 26.424 3.076C102.283 57.612 91.663 61 85.425 61c-7.568 0-11.772 3.582-20.719 1.931-5.884-1.086-10.694-1.272-13.071-.826 4.14-1.893 15.013.233 11.938-5.211z" fill="#FF8A36" data-color="2"/>
        <path d="M115.784 63.751c-.02-.006.008.005.056.022l-.056-.022z" fill="#FF8A36" data-color="2"/>
        <path d="M158.318 138.54l.025.299-.025-.299z" fill="#F2E4D3" data-color="3"/>
        <path d="M33.302 85.299l-.106-.157.106.157z" fill="#F2E4D3" data-color="3"/>
        <path d="M158.753 144.678l.001.019-.001-.019z" fill="#F2E4D3" data-color="3"/>
        <path d="M31.736 82.407l.052.112-.056-.128.004.016z" fill="#F2E4D3" data-color="3"/>
        <path d="M32.719 84.374c-.023-.039-.044-.08-.066-.119.022.04.043.08.066.119z" fill="#F2E4D3" data-color="3"/>
        <path d="M158.382 139.304l.012.148-.012-.148z" fill="#F2E4D3" data-color="3"/>
        <path d="M158.742 144.478l.005.087-.005-.087z" fill="#F2E4D3" data-color="3"/>
        <path d="M32.249 83.497l-.079-.155.079.155z" fill="#F2E4D3" data-color="3"/>
        <path d="M158.608 142.326l.003.048-.003-.048z" fill="#F2E4D3" data-color="3"/>
        <path d="M36.059 87.822c-.042-.019-.085-.037-.127-.057.043.021.085.038.127.057z" fill="#F2E4D3" data-color="3"/>
        <path d="M158.729 144.248l.005.084-.005-.084z" fill="#F2E4D3" data-color="3"/>
        <path d="M158.528 141.183l.006.08a28.682 28.682 0 0 1-.006-.08z" fill="#F2E4D3" data-color="3"/>
        <path d="M158.261 137.89l.018.21-.018-.21z" fill="#F2E4D3" data-color="3"/>
        <path d="M158.642 142.825l.001.018-.001-.018z" fill="#F2E4D3" data-color="3"/>
        <path d="M33.916 86.105l-.092-.107c.03.037.061.071.092.107z" fill="#F2E4D3" data-color="3"/>
        <path d="M34.52 86.758l-.04-.041.04.041z" fill="#F2E4D3" data-color="3"/>
        <path d="M158.57 141.775l.004.064a1.465 1.465 0 0 0-.004-.064z" fill="#F2E4D3" data-color="3"/>
        <path d="M35.271 87.372c-.042-.029-.082-.06-.124-.09l.124.09z" fill="#F2E4D3" data-color="3"/>
        <path d="M150.456 137.771s-4.759-8.727-4.89-9.412c-.54 3.141 0 8.659.752 13.93.043.294-5.266-5.271-6.394-10.918-.752 4.518-.549 13.346-.752 13.177-6.396-5.271-9.782-19.201-10.158-22.965-.716 1.862-2.167 8.164-2.257 10.165-.013.309-2.633-9.789-3.01-18.448-.983 2.337-4.514 6.4-4.514 15.436 0 .272-8.079-22.063-5.194-30.65 6.438-19.154-4.211-28.834-4.211-28.834s-10.835 7.853-27.108.277c-6.506-3.029-25.559-2.159-23.588 13.09.017.134-19.959-3.808-17.111-7.947 2.373-3.449 2.238-6.446 1.96-6.839l-.037.025c-.2 1.922-1.999 4.235-3.534 5.119-3.982 2.291-6.474-.337-7.117 5.478-.23 2.084-.159 3.389-.005 4.247.6 1.889 2.434 2.896 5.317 3.587 6.791 1.629 15.05 1.653 19.246 3.346 5.082 2.05 19.639 13.129 20.169 24.499.006.133.011.714.011.714-.102 7.204-5.933 9.314-12.913 9.64-2.292.107-6.233-.186-8.176-.73-.739 3.22 3.05 4.059 3.05 4.059s1.953 7.567 10.559 9.064c.7.122 2.381.639 3.17.809-1.759-1.065-3.664-4.046-3.664-4.046s3.965 2.411 7.55 2.293c-2.508-1.166-4.442-4.178-4.442-4.178s5.356 3.137 8.431 3.148a2.268 2.268 0 0 1 .17-1.279c.43-.953 1.562-1.511 3.01-1.508-.336-.67-1.934-4.261-1.934-4.261s4.759 1.707 5.84 1.813c-1.634-1.058-2.541-10.491 6.038-11.693 8.023-1.123 16.604 10.204 21.64 17.247-.667-4.53-1.981-10.543-1.981-10.543s4.47 12.444 7.41 14.393c-.464-2.481.122-14.862.122-14.862s1.071 10.781 6.899 16.744c6.672 6.828 15.434 8.209 17.701 14.346.801-3.653-.936-8.16-.936-8.16s2.115 3.655 5.497 4.68c-1.285-2.235-2.837-11.686-2.837-11.686s4.134 8.219 6.727 8.724c-1.369-10.017-4.495-19.801-4.495-19.801s6 10.629 7.053 12.104a49.62 49.62 0 0 0-.433-4.737c-2.382-3.246-6.747-10.259-7.903-13.441-.304 1.737 1.426 14.936 1.272 14.784z" fill="#F2E4D3" data-color="3"/>
        <path d="M41.312 69.666c.191-.11.377-.234.554-.38l-.554.38z" fill="#F2E4D3" data-color="3"/>
        <path d="M115.305 65.436s.262.49.27.471c.886 1.453 4.133 6.061 11.647 9.882-1.552-1.734-1.803-2.421-1.931-2.721 1.39 1.094 5.688 2.978 8.917 1.926 5.851.595 7.147-.62 7.147-.62s-1.059-1.08-1.112-1.119c.464.089 4.312.441 4.312.441-.28-.35-1.608-2.664-1.723-3.053 1.1.618 2.468 1.291 2.468 1.291s3.452-.563 8.382-9.56c.149-.271-.256-6.873-.27-6.816-.838-.869-5.085-1.902-5.085-1.902-5.393 4.803-13.684 6.26-13.684 6.26s3.097.608 3.107.658c.036.365-6.18 4.931-9.606 4.238l-3.545-.881s1.88 1.608 1.955 1.783c-1.539.852-8.573-1.268-10.769-1.964l.056.022c-.047-.018-.075-.028-.056-.022-.088-.033-.54-.172-.622-.199-.004-.01.179 1.933.142 1.885z" fill="#F2E4D3" data-color="3"/>
        <path d="M64.707 62.931C73.654 64.583 77.857 61 85.425 61c6.237 0 16.858-3.388 14.338-12.392-1.656-5.918-18.145-5.443-26.424-3.076-1.848.528-7.491 3.737-10.755 6.515-5.86 4.987.989 4.847.989 4.847 3.075 5.444-7.798 3.319-11.938 5.212 2.378-.446 7.188-.26 13.072.825z" fill="#F2E4D3" data-color="3"/>
        <path d="M52.772 93.41c.714-1.468 5.851-1.675 7.252 1.096.082-.12.678-.704.777-.823-2.12-1.294-8.147-3.466-8.672-3.57 0 0 .377 2.809.643 3.297z" fill="#FFFFFF" data-color="4"/>
        <path d="M46.603 88.969c.508 1.802 2.42 4.419 3.023 4.75.639-1.661 1.02-3.993 1.02-3.993-1.948-.562-3.212-.801-4.043-.757z" fill="#FFFFFF" data-color="4"/>
        <path d="M44.705 88.796c-.645-.068-4.345-.253-5.401-.53.048 5.215 3.075 10.133 5.823 13.097-1.131-3.972-1.889-9.544-.422-12.567z" fill="#FFFFFF" data-color="4"/>
        <path d="M58.151 123.127s13.384 2.596 17.066-6.254c-.528.472-2.426-.102-2.971-.274-.255.834-1.224 2.537-1.224 2.537s-1.779-.219-2.892-.795c-.074.87-.404 3.153-.404 3.153s-2.597-.361-7.956-6.792c.224 3.33 4.106 8.357 4.106 8.357s-6.424-1.982-9.922-7.638c.966 4.465 3.027 6.874 4.197 7.706z" fill="#FFFFFF" data-color="4"/>
        <path d="M100.166 51.559c-1.868 8.46-13.727 6.467-13.727 6.467-.343 3.989-5.927 6.007-10.052 4.919 0 0 3.992 2.468.57 4.786-2.003 1.357-6.389-.919-7.337-.715.442.283 1.836.481 2.486 1.824-1.175 1.171-8.347.738-8.959 1.301 1.782.063 11.467.732 13.262.559 2.869-.277 3.813-2.364 5.189-4.363 2.014-2.928 6.923-5.424 10.6-6.135 6.152-1.187 8.224-3.989 7.968-8.643z" fill="#2B231E" data-color="1"/>
        <path d="M67.178 90.896c-.712-1.906-4.652-11.559-6.215-12.401-6.121-3.298-9.033-7.249-10.914-8.809.79.952 4.35 6.248 6.356 8.305 1.548 1.588 3.672 2.975 4.997 4.784 2.144 2.926 5.776 8.121 5.776 8.121z" fill="#2B231E" data-color="1"/>
        <path d="M58.405 72.355l1.15 2.208c1.198 1.709 4.402 1.985 5.719 4.714-1.158-5.37-4.801-5.577-6.869-6.922z" fill="#2B231E" data-color="1"/>
        <path d="M62.336 71.865c1.979 1.611 9.963 6.065 12.305 6.665 3.208.822 6.338-2.089 6.367-3.563-6.348 2.945-18.672-3.102-18.672-3.102z" fill="#2B231E" data-color="1"/>
        <path d="M49.1 74.802l-2.465-2.247c1.861 3.18 1.219 4.548 4.072 7.464 1.824 1.863 7.44 4.877 9.431 6.399-3.741-3.201-7.692-5.804-11.038-11.616z" fill="#2B231E" data-color="1"/>
        <path d="M80.819 41.839c-1.397 3.765-5.62 2.425-8.306 3.659-2.133.98-3.328 2.514-3.77 3.59 1.383-1.282 3.505-3.371 9.715-3.383 1.139 3.448-8.413 7.237-12.337 5.969 2.807 2.895 18.65-.808 20.479-3.034-1.267-.562-7.257.422-6.93-.644 1.055-3.446 9.382-3.062 12.221-7.27-9.935 4.539-11.072 1.113-11.072 1.113z" fill="#2B231E" data-color="1"/>
        <path d="M57.741 51.367c7.09-.4 6.139-4.499 11.484-6.82-4.902-.049-7.328 5.659-11.484 6.82z" fill="#2B231E" data-color="1"/>
        <path d="M106.734 47.413c-2.399-2.594-8.347-.327-10.542.012.627-4.872-3.729-4.745-3.729-4.745 3.704.952 1.179 8.696-5.446 9.369 7.541 1.382 14.722-6.89 19.717-4.636z" fill="#2B231E" data-color="1"/>
        <path d="M85.555 102.057l-5.356-2.242c3.765 2.248 7.766 8.196 9.038 12.721-.066-2.862-.965-8.952-3.682-10.479z" fill="#2B231E" data-color="1"/>
        <path d="M96.038 97.714c-3.849-1.557-9.195-1.321-15.258-6.29-2.421-1.985-2.895-3.755-4.104-4.671l-7.671-1.976c3.211 2.528 2.381 6.068 5.615 7.907 2.569 1.46 4.69 1.785 7.28 2.317 14.148 2.907 12.931 9.708 14.527 11.059 3.425 2.897 7.242 3.568 10.401 6.322-5.728-6.218-5.352-12.468-10.79-14.668z" fill="#2B231E" data-color="1"/>
        <path d="M108.633 52.142c-2.492 4.113-1.901 10.874-6.46 14.555-3.965 3.201-12.686 2.508-16.037 6.194 2.002 1.268 8.474 2.522 9.259 2.68 2.181.439 8.964-4.982 11.793-9.691 1.082-1.801 1.445-13.738 1.445-13.738z" fill="#2B231E" data-color="1"/>
        <path d="M105.406 88.537c-11.73-3.842-13.984-1.338-23.939-5.85 3.268 5.506 14.939 8.156 19.83 10.446 18.246 8.543 5.843 20.106 10.066 24.873-.887-4.585 2.259-7.692 3.824-11.613 1.741-4.361.308-14.552-9.781-17.856z" fill="#2B231E" data-color="1"/>
        <path d="M128.509 122.128c-3.263-15.133 19.767-23.311 18.009-44.103 5.713 18.683-17.117 30.864-18.009 44.103z" fill="#2B231E" data-color="1"/>
        <path d="M130.077 102.942c-.949-9.03 12.578-12.396 12.817-24.637 2.124 11.251-11.526 16.967-12.817 24.637z" fill="#2B231E" data-color="1"/>
        <path d="M150.815 80.388l-3.156-5.262c11.165 22.505-18.362 40.25-11.149 64.188-.735-21.744 20.951-41.203 14.305-58.926z" fill="#2B231E" data-color="1"/>
        <path d="M121.133 92.475c-.832-1.157 2.693-8.015-6.609-21.441.742 1.635 6.979 13.701 3.234 22.893 0 0 4.829 5.655 3.772 12.87-.766 5.235-4.49 10.361-3.515 14.968-.018-6.509 12.186-16.672 3.118-29.29z" fill="#2B231E" data-color="1"/>
        <path d="M69.127 55.864c-1.316.271-6.729.911-8.1-.021-1.067-1.544 1.3-3.449 1.615-3.795-2.663 1.254-4.823 4.21-4.137 5.242.429.644 3.886 1.759 5.093 1.025-1.534 3.545-7.036-.11-16.204 4.862 0 0 6.898-2.235 12.768-1.335 1.77.271 3.347.36 4.756.322 2.493.083 10.135-.245 15.909-3.347-.1-.059-5.43 1.31-5.939.594-.28-.395.786-1.141 1.042-1.376 3.001-2.005 6-3.373 5.87-1.12 3.177-2.787-3.073-3.027-12.673-1.051zm2.821 2.923c-.099.35-2.212 1.436-2.925 1.632-.378-1.563-1.122-2.199-1.367-2.443.681-.306 3.329.055 4.292.811zm-4.726-.592c-.126.447.112 1.577.405 1.954-.479-.083-.893-.378-.989-1.002-.116-.754.584-.952.584-.952z" fill="#2B231E" data-color="1"/>
        <path d="M154.983 51.539c-.294-.623-4.711-.433-8.105-1.697-13.783-5.135-17.573-3.999-25.82-1.606-3.209.93-7.319.809-7.319.809 3.24.652 5.913.167 8.277-.333 4.774-1.009 10.756-2.757 23.919 2.631 4.489 1.837 8.176 1.41 7.477 4.216-.838-.869-5.085-1.902-5.085-1.902-5.393 4.803-13.684 6.26-13.684 6.26s3.097.608 3.107.658c.037.365-6.18 4.931-9.606 4.238l-3.545-.881s1.88 1.608 1.955 1.783c-1.83 1.013-11.426-2.176-11.426-2.176 2.246.519 9.152 5.025 16.066 4.167-.525-.286-2.483-1.368-2.56-1.545 7.419-1.827 13.842-6.074 13.842-6.074l-2.685-.21c1.347-.303 7.162-2.743 9.339-4.452 1.242.016 3.576.303 3.138 3.117-.54 1.926-3.166 4.514-5.049 5.74l4.094-1.128c.113 1.576-2.702 5.535-6.553 7.199l-3.421-1.647s.585 2.515.759 3.377c-.334-.035-5.051-.768-5.051-.768s2.112 2.048 2.463 2.629c-1.546.114-4.632-.474-5.269-.991l-2.738-2.219 1.566 3.291c-5.955.831-11.757-6.331-11.757-6.331s1.436 3.142 1.58 3.485c-1.331-.682-5.809-3.485-7.586-5.745 0 0 2.876 5.755 11.917 10.353-1.552-1.734-1.803-2.421-1.932-2.721 1.39 1.094 5.688 2.978 8.917 1.926 5.851.595 7.147-.62 7.147-.62s-1.059-1.08-1.112-1.119c.464.089 4.312.441 4.312.441-.28-.35-1.608-2.664-1.723-3.053 1.1.618 2.468 1.291 2.468 1.291s3.452-.563 8.382-9.56c1.195-2.18 2.934-7.362 1.301-10.833z" fill="#2B231E" data-color="1"/>
    </g>
</svg>
