<svg data-bbox="26.5 28.5 147 143.002" viewBox="0 0 200 200" height="200" width="200" xmlns="http://www.w3.org/2000/svg" data-type="color">
    <g>
        <path d="M173.425 32.503c-.068-.736-1.113-1.067-2.095-1.2-12.632-1.689-31.396 7.262-31.396 7.262-.619-.271-20.069-11.66-39.909-9.817h-.051c-19.839-1.843-39.288 9.545-39.908 9.817 0 0-18.764-8.951-31.396-7.262-.983.133-2.027.463-2.095 1.2-.824 8.889 5.399 22.554 5.399 22.554v-3.854c3.201 9.452 8.04 13.632 8.04 13.632s1.467-3.885 1.473-3.915c.178 1.679.801 4.86.801 4.86-1.067 1.501-2.788 10.217-2.708 14.632-9.547 9.547-7.371 23.983-7.371 23.983s4.378-3.496 5.594-4.039c-2.554 13.584.759 21.655.759 21.655s3.42-4.779 5.77-6.691c-1.602 8.709 2.03 16.567 2.03 16.567s3.846-7.115 6.944-5.522c4.501 2.313 1.924 9.771 1.924 9.771s5.734-3.079 12.547 2.965c6.96 6.172 3.233 19.869 3.233 19.869l8.549-6.159c-.428 11.575 4.38 16.992 4.38 16.992l3.953-9.983c.855 5.098 6.518 11.682 6.518 11.682s2.103-9.629 5.59-9.584c3.489-.045 5.592 9.584 5.592 9.584s5.662-6.584 6.517-11.682l3.955 9.983s4.808-5.417 4.38-16.992l8.549 6.159s-3.727-13.697 3.231-19.869c6.814-6.044 12.547-2.965 12.547-2.965s-2.576-7.457 1.924-9.771c3.099-1.593 6.945 5.522 6.945 5.522s3.633-7.859 2.031-16.567c2.35 1.913 5.771 6.691 5.771 6.691s3.312-8.071.759-21.655c1.215.544 5.594 4.039 5.594 4.039s2.175-14.435-7.37-23.983c.078-4.415-1.642-13.13-2.71-14.632 0 0 .622-3.181.801-4.86.006.03 1.474 3.915 1.474 3.915s4.839-4.18 8.04-13.632v3.854c-.003 0 6.219-13.665 5.395-22.554z" fill="#2B231E" data-color="1"/>
        <path d="M159.987 64.836s4.839-4.18 8.04-13.632v3.854s5.225-11.482 5.461-20.243c-.176-.965-5.624.568-9.129 5.146.083.409-.728 4-2.147 6.371-.25-.654-1.239-2.199-1.239-2.199-.064.503-.356 3.84-2.138 6.459-.193-.44-.606-2.619-.962-2.707-2.004 1.636-6.284 9.322-6.116 10.032 1.234 1.306 4.55 4.685 5.993 7.671.135-.706.611-3.231.763-4.667.007.029 1.474 3.915 1.474 3.915z" fill="#2B231E" data-color="1"/>
        <path d="M40.001 64.836s-4.839-4.18-8.04-13.632v3.854S26.736 43.576 26.5 34.815c.176-.965 5.623.568 9.129 5.146-.083.409.728 4 2.147 6.371.25-.654 1.239-2.199 1.239-2.199.064.503.356 3.84 2.138 6.459.193-.44.606-2.619.962-2.707 2.004 1.636 6.284 9.322 6.116 10.032-1.234 1.306-4.55 4.685-5.993 7.671-.135-.706-.611-3.231-.763-4.667-.007.029-1.474 3.915-1.474 3.915z" fill="#2B231E" data-color="1"/>
        <path d="M167.793 104.395s-6.148-28.601-17.908-23.966c0 0-2.359 7.367-21.212 11.057 1.231 6.125-3.58 10.72-14.917 14.029.827-4.325-.789-6.659-1.112-6.936.134 3.393-2.624 5.896-5.772 7.125-1.975.771-11.77.771-13.745 0-3.149-1.228-5.906-3.732-5.772-7.125-.323.277-1.939 2.611-1.112 6.936-11.336-3.308-16.147-7.904-14.917-14.029-18.853-3.69-21.212-11.057-21.212-11.057-11.759-4.635-17.908 23.966-17.908 23.966s4.379-3.496 5.594-4.039c-2.553 13.584.759 21.655.759 21.655s3.42-4.779 5.771-6.691c-1.603 8.709 2.03 16.567 2.03 16.567s3.846-7.115 6.945-5.522c4.5 2.313 1.924 9.771 1.924 9.771s5.734-3.079 12.547 2.965c6.958 6.172 3.231 19.869 3.231 19.869l8.549-6.159c-.428 11.575 4.38 16.992 4.38 16.992l3.955-9.983c.855 5.098 6.517 11.682 6.517 11.682s2.103-9.628 5.591-9.584c3.489-.044 5.592 9.584 5.592 9.584s5.662-6.584 6.517-11.682l3.955 9.983s4.808-5.417 4.38-16.992l8.549 6.159s-3.727-13.697 3.231-19.869c6.814-6.044 12.547-2.965 12.547-2.965s-2.576-7.457 1.924-9.771c3.099-1.593 6.945 5.522 6.945 5.522s3.633-7.859 2.031-16.567c2.35 1.913 5.771 6.691 5.771 6.691s3.312-8.071.759-21.655c1.214.543 5.593 4.039 5.593 4.039z" fill="#2B231E" data-color="1"/>
        <path d="M101.558 122.333c-.508.075-1.254 10.674-1.559 12.065-.302-1.391-1.049-11.99-1.558-12.065-1.467-.217-5.281.431-6.59 1.882-3.611 4.004-4.459 8.049-3.893 11.708.806 5.22 6.936 7.772 12.04 6.095 5.104 1.677 11.237-.875 12.043-6.095.565-3.659-.282-7.704-3.895-11.708-1.307-1.451-5.12-2.099-6.588-1.882z" fill="#2B231E" data-color="1"/>
        <path d="M112.541 138.802c-.332 1.098-1.769 5.433-3.877 7.006l-1.767-1.345-1.319 1.336-1.608-1.361-1.342 1.435c-.088-.064-1.391-1.409-1.391-1.409L100 145.662l-1.235-1.199s-1.303 1.345-1.39 1.409l-1.344-1.435-1.608 1.361-1.319-1.336-1.768 1.345c-2.108-1.573-3.545-5.907-3.877-7.006-.713.381-2.074 3.785-1.285 7.145.531 2.257 2.945 4.011 5.176 1.846.012 1.142 2.529 1.667 3.199.375.221 1.074 2.433 1.494 2.812.139.388 1.099 2.077 1.146 2.638.548.562.598 2.25.552 2.64-.548.379 1.355 2.591.936 2.811-.139.671 1.293 3.188.767 3.201-.375 2.23 2.166 4.645.411 5.175-1.846.79-3.358-.572-6.763-1.285-7.144z" fill="#2B231E" data-color="1"/>
        <path d="M92.152 116.016c.076.902.295 2.992 1.464 4.24 0 0 1.393-1.402 1.431-1.498l1.224 1.506c.116-.071 1.243-1.428 1.243-1.428l1.238 1.455c.182-.025.901-.915 1.249-1.311.348.396 1.068 1.286 1.25 1.311l1.239-1.455s1.127 1.356 1.241 1.428l1.225-1.506c.037.096 1.431 1.498 1.431 1.498 1.17-1.248 1.388-3.338 1.463-4.24-.949.352-6.097 1.133-7.849.21-1.752.924-6.901.143-7.849-.21z" fill="#2B231E" data-color="1"/>
        <path d="M87.188 129.032c-.85-5.168 1.045-12.633 1.608-13.623-.693-.043-4.844-.68-5.655-1.109-.833 2.242.266 13.417 4.047 14.732z" fill="#2B231E" data-color="1"/>
        <path d="M116.86 114.3c-.812.429-4.962 1.066-5.655 1.109.562.99 2.458 8.456 1.607 13.623 3.78-1.315 4.882-12.49 4.048-14.732z" fill="#2B231E" data-color="1"/>
        <path d="M139.414 53.696c-7.157-4.921-17.747 2.98-23.435 11.165-3.823 5.502-5.393 11.131-2.361 13.084.63 4.342-6.446 13.846-6.646 15.111 1.277-2.332 7.469-8.774 11.151-10.491 5.41-2.523 19.79-3.177 23.032-10.616 2.34-5.371 4.54-13.933-1.741-18.253z" fill="#2B231E" data-color="1"/>
        <path d="M60.561 53.696c7.157-4.921 17.747 2.98 23.435 11.165 3.823 5.502 5.393 11.131 2.361 13.084-.63 4.342 6.445 13.846 6.646 15.111-1.277-2.332-7.469-8.774-11.151-10.491-5.41-2.523-19.79-3.177-23.032-10.616-2.34-5.371-4.541-13.933 1.741-18.253z" fill="#2B231E" data-color="1"/>
        <path d="M78.161 74.772c-.363.971-1.677 2.432-3.64 1.563-2.901-1.716-1.219-3.436-1.082-3.697.083-.158-1.373-.872-1.459-.767-2.474 3.005 1.021 6.008 6.513 5.962.11 0 1.598-1.783-.332-3.061z" fill="#2B231E" data-color="1"/>
        <path d="M74.727 74.346c.34.056.715-.997.715-.997-.28-.23-1.455-.33-1.432-.213-.189.075-.611.989.717 1.21z" fill="#2B231E" data-color="1"/>
        <path d="M128.02 71.871c-.086-.105-1.541.609-1.459.767.135.261 1.818 1.982-1.082 3.697-1.963.869-3.277-.592-3.641-1.563-1.929 1.278-.44 3.061-.332 3.061 5.493.046 8.987-2.957 6.514-5.962z" fill="#2B231E" data-color="1"/>
        <path d="M125.274 74.346c1.327-.221.905-1.135.717-1.21.023-.117-1.152-.017-1.433.213 0-.001.377 1.053.716.997z" fill="#2B231E" data-color="1"/>
        <path d="M173.425 32.503c-.068-.736-1.113-1.067-2.095-1.2-12.632-1.689-31.396 4.879-31.396 4.879-.619-.271-20.069-9.277-39.909-7.433h-.051c-19.839-1.843-39.288 7.162-39.908 7.433 0 0-18.764-6.568-31.396-4.879-.983.133-2.027.463-2.095 1.2-.824 8.889 5.399 22.554 5.399 22.554v-3.854c3.201 9.452 8.04 13.632 8.04 13.632s1.467-3.885 1.473-3.915c.178 1.679.801 4.86.801 4.86-1.067 1.501-2.788 10.217-2.708 14.632-9.547 9.547-7.371 23.983-7.371 23.983s4.378-3.496 5.594-4.039c-2.554 13.584.759 21.655.759 21.655s3.42-4.779 5.77-6.691c-1.602 8.709 2.03 16.567 2.03 16.567s3.846-7.115 6.944-5.522c4.501 2.313 1.924 9.771 1.924 9.771s5.734-3.079 12.547 2.965c6.96 6.172 3.233 19.869 3.233 19.869l8.549-6.159c-.428 11.575 4.38 16.992 4.38 16.992l3.953-9.983c.855 5.098 6.518 11.682 6.518 11.682s2.103-9.629 5.59-9.584c3.489-.045 5.592 9.584 5.592 9.584s5.662-6.584 6.517-11.682l3.955 9.983s4.808-5.417 4.38-16.992l8.549 6.159s-3.727-13.697 3.231-19.869c6.814-6.044 12.547-2.965 12.547-2.965s-2.576-7.457 1.924-9.771c3.099-1.593 6.945 5.522 6.945 5.522s3.633-7.859 2.031-16.567c2.35 1.913 5.771 6.691 5.771 6.691s3.312-8.071.759-21.655c1.215.544 5.594 4.039 5.594 4.039s2.175-14.435-7.37-23.983c.078-4.415-1.642-13.13-2.71-14.632 0 0 .622-3.181.801-4.86.006.03 1.474 3.915 1.474 3.915s4.839-4.18 8.04-13.632v3.854c-.003 0 6.219-13.665 5.395-22.554zm-11.711 28.946c-.209-.74-3.605-6.093-3.605-6.093s-.575 4.326-1.553 6.18c-.8-.617-4.8-3.621-4.8-3.621.31.229 8.713 11.31 7.468 22.973.977.176 5.991 5.391 6.168 18.821-1.642-.887-4.7-2.233-4.7-2.233s2.031 10.196-.855 19.436c-1.313-1.261-5.129-3.505-5.129-3.505s.107 9.347-2.351 12.745c-2.29-2.317-4.487-2.337-5.877-1.701-2.773 1.272-4.009 5.222-3.481 9.817-5.699-1.037-9.068-.012-12.418 3.06-4.854 4.451-5.697 12.077-5.645 16.181l-5.872-3.327s.417 8.361-3.394 12.965l-3.412-6.105s-3.179 7.05-5.813 9.148c-.561-1.888-3.057-6.049-6.445-5.801-3.386-.248-5.884 3.913-6.445 5.801-2.635-2.097-5.813-9.148-5.813-9.148l-3.412 6.105c-3.812-4.604-3.393-12.965-3.393-12.965l-5.873 3.327c.051-4.104-.79-11.73-5.644-16.181-3.351-3.072-6.719-4.097-12.418-3.06.528-4.595-.707-8.544-3.481-9.817-1.39-.636-3.587-.617-5.878 1.701-2.458-3.398-2.35-12.745-2.35-12.745s-3.816 2.244-5.129 3.505c-2.885-9.24-.855-19.436-.855-19.436s-3.058 1.346-4.701 2.233c.179-13.43 5.191-18.645 6.169-18.821-1.244-11.663 7.157-22.744 7.468-22.973 0 0-4.001 3.004-4.801 3.621-.979-1.855-1.552-6.18-1.552-6.18s-3.396 5.353-3.605 6.093c-7.824-11.134-4.468-22.236-4.468-22.236s-2.754 6.3-2.912 6.597c-2.222-3.977-3.022-12.016-2.401-12.282 14.769-1.661 28.166 7.18 29.752 8.202 0 0 18.362-13.953 41.696-10.766h.094c23.333-3.187 41.696 10.766 41.696 10.766 1.588-1.021 14.982-9.863 29.752-8.202.622.266-.179 8.306-2.402 12.282-.158-.297-2.91-6.597-2.91-6.597s3.353 11.103-4.47 22.236z" fill="#2B231E" data-color="1"/>
        <path d="M171.495 33.528c-14.769-1.661-28.164 7.18-29.752 8.202 0 0-18.362-13.953-41.696-10.766h-.094C76.619 27.777 58.257 41.73 58.257 41.73c-1.586-1.021-14.982-9.863-29.752-8.202-.138.059-.202.518-.199 1.217 1.938.549 5.039 2.231 7.323 5.215-.083.409.728 4 2.147 6.371.25-.654 1.239-2.199 1.239-2.199.064.503.356 3.84 2.138 6.459.193-.44.606-2.619.962-2.707 2.004 1.636 6.284 9.322 6.116 10.032l-.031.033.044-.033c-.31.229-8.712 11.31-7.468 22.973-.864.156-4.871 4.255-5.918 14.467 2.852-7.934 7.978-17.796 15.257-14.927 0 0 2.359 7.367 21.212 11.057-1.231 6.125 3.58 10.72 14.917 14.029-.827-4.325.789-6.659 1.112-6.936-.134 3.393 2.624 5.896 5.772 7.125 1.975.771 11.77.771 13.745 0 3.149-1.228 5.906-3.732 5.772-7.125.323.277 1.939 2.611 1.112 6.936 11.336-3.308 16.147-7.904 14.917-14.029 18.853-3.69 21.212-11.057 21.212-11.057 7.278-2.869 12.405 6.993 15.257 14.926-1.046-10.212-5.054-14.31-5.917-14.466 1.2-11.243-6.563-21.942-7.401-22.903l-.067-.07c-.168-.71 4.112-8.396 6.116-10.032.356.088.769 2.266.962 2.707 1.782-2.619 2.074-5.956 2.138-6.459 0 0 .989 1.545 1.239 2.199 1.419-2.37 2.23-5.962 2.147-6.371 2.289-2.99 5.398-4.673 7.335-5.218.002-.697-.062-1.155-.2-1.214zM81.851 82.565c-5.41-2.523-19.79-3.177-23.032-10.616-2.339-5.37-4.54-13.933 1.741-18.252 7.157-4.921 17.747 2.98 23.435 11.165 3.823 5.502 5.393 11.131 2.361 13.084-.63 4.342 6.445 13.846 6.646 15.111-1.276-2.333-7.469-8.775-11.151-10.492zm59.304-10.617c-3.241 7.44-17.622 8.094-23.032 10.616-3.682 1.717-9.875 8.159-11.151 10.491.2-1.265 7.276-10.769 6.646-15.111-3.032-1.953-1.463-7.582 2.361-13.084 5.688-8.185 16.278-16.086 23.435-11.165 6.281 4.321 4.081 12.883 1.741 18.253z" fill="#FF8A36" data-color="2"/>
        <path d="M164.359 39.96c.083.409-.728 4-2.147 6.371-.25-.654-1.239-2.199-1.239-2.199-.064.503-.356 3.84-2.138 6.459-.193-.44-.606-2.619-.962-2.707-2.004 1.636-6.284 9.322-6.116 10.032 0 0 4 3.004 4.8 3.621.978-1.855 1.553-6.18 1.553-6.18s3.396 5.353 3.605 6.093c7.823-11.134 4.469-22.236 4.469-22.236s2.752 6.3 2.91 6.597c1.729-3.093 2.593-8.629 2.602-11.068-1.938.544-5.048 2.228-7.337 5.217z" fill="#F2E4D3" data-color="3"/>
        <path d="M42.115 47.884c-.356.088-.769 2.266-.962 2.707-1.782-2.619-2.074-5.956-2.138-6.459 0 0-.989 1.545-1.239 2.199-1.419-2.37-2.23-5.962-2.147-6.371-2.284-2.983-5.385-4.666-7.323-5.215.009 2.441.873 7.973 2.6 11.065.158-.297 2.912-6.597 2.912-6.597s-3.356 11.102 4.468 22.236c.209-.74 3.605-6.093 3.605-6.093s.573 4.326 1.552 6.18a976.09 976.09 0 0 1 4.757-3.588.938.938 0 0 0 .031-.033c.168-.709-4.112-8.395-6.116-10.031z" fill="#F2E4D3" data-color="3"/>
        <path d="M149.885 80.429s-2.359 7.367-21.212 11.057c1.231 6.125-3.58 10.72-14.917 14.029.827-4.325-.789-6.659-1.112-6.936.134 3.393-2.624 5.896-5.772 7.125-1.975.771-11.77.771-13.745 0-3.149-1.228-5.906-3.732-5.772-7.125-.323.277-1.939 2.611-1.112 6.936-11.336-3.308-16.147-7.904-14.917-14.029-18.853-3.69-21.212-11.057-21.212-11.057-7.279-2.869-12.405 6.993-15.257 14.927a48.974 48.974 0 0 0-.251 4.354c1.643-.887 4.701-2.233 4.701-2.233s-2.03 10.196.855 19.436c1.314-1.261 5.129-3.505 5.129-3.505s-.108 9.347 2.35 12.745c2.29-2.317 4.488-2.337 5.878-1.701 2.773 1.272 4.009 5.222 3.481 9.817 5.699-1.037 9.068-.012 12.418 3.06 4.854 4.451 5.696 12.077 5.644 16.181l5.873-3.327s-.418 8.361 3.393 12.965l3.412-6.105s3.179 7.05 5.814 9.148c.561-1.888 3.058-6.049 6.445-5.801 3.389-.248 5.885 3.913 6.445 5.801 2.634-2.097 5.813-9.148 5.813-9.148l3.412 6.105c3.812-4.604 3.394-12.965 3.394-12.965l5.872 3.327c-.052-4.104.79-11.73 5.645-16.181 3.35-3.072 6.719-4.097 12.418-3.06-.529-4.595.707-8.544 3.481-9.817 1.39-.636 3.587-.617 5.877 1.701 2.458-3.398 2.351-12.745 2.351-12.745s3.816 2.244 5.129 3.505c2.886-9.24.855-19.436.855-19.436s3.058 1.346 4.7 2.233a49.014 49.014 0 0 0-.25-4.355c-2.851-7.934-7.977-17.795-15.256-14.926zM100 116.227c1.752.923 6.9.142 7.849-.21-.076.902-.294 2.992-1.464 4.24 0 0-1.394-1.402-1.431-1.498l-1.225 1.506c-.114-.071-1.241-1.428-1.241-1.428l-1.239 1.456c-.182-.025-.901-.915-1.25-1.311-.348.396-1.067 1.286-1.249 1.311l-1.238-1.456s-1.126 1.356-1.242 1.428l-1.224-1.506c-.038.096-1.431 1.498-1.431 1.498-1.17-1.248-1.388-3.338-1.464-4.24.949.352 6.098 1.133 7.849.21zm-8.148 7.989c1.309-1.451 5.122-2.1 6.59-1.882.509.075 1.255 10.674 1.558 12.065.304-1.391 1.05-11.99 1.559-12.065 1.468-.217 5.281.431 6.59 1.882 3.613 4.004 4.459 8.049 3.895 11.708-.806 5.22-6.939 7.772-12.043 6.095-5.104 1.677-11.234-.875-12.04-6.095-.568-3.659.28-7.704 3.891-11.708zm-8.711-9.916c.811.429 4.962 1.066 5.655 1.109-.564.99-2.458 8.456-1.608 13.623-3.781-1.315-4.88-12.49-4.047-14.732zm30.685 31.648c-.531 2.257-2.945 4.012-5.175 1.846-.013 1.142-2.53 1.667-3.201.375-.219 1.074-2.432 1.494-2.811.139-.39 1.099-2.077 1.146-2.64.548-.561.598-2.25.552-2.638-.548-.379 1.355-2.591.936-2.812-.139-.67 1.293-3.188.767-3.199-.375-2.231 2.166-4.645.411-5.176-1.846-.789-3.36.573-6.764 1.285-7.145.332 1.098 1.769 5.433 3.877 7.006l1.768-1.345 1.319 1.336 1.608-1.361 1.344 1.435c.087-.064 1.39-1.409 1.39-1.409l1.235 1.199 1.236-1.199s1.303 1.345 1.391 1.409l1.342-1.435 1.608 1.361 1.319-1.336 1.767 1.345c2.108-1.573 3.545-5.907 3.877-7.006.714.38 2.076 3.785 1.286 7.145zm-1.015-16.916c.851-5.168-1.045-12.633-1.607-13.623.693-.043 4.843-.68 5.655-1.109.835 2.242-.267 13.417-4.048 14.732z" fill="#F2E4D3" data-color="3"/>
        <path d="M87.959 135.924c.806 5.22 6.937 7.772 12.04 6.095 5.104 1.677 11.237-.875 12.043-6.095.565-3.659-.282-7.704-3.895-11.708-1.309-1.451-5.121-2.1-6.59-1.882-.508.075-1.254 10.674-1.559 12.065-.302-1.391-1.049-11.99-1.558-12.065-1.467-.217-5.281.431-6.59 1.882-3.609 4.004-4.457 8.049-3.891 11.708z" fill="#EF0F40" data-color="4"/>
        <path d="M112.541 138.802c-.332 1.098-1.769 5.433-3.877 7.006l-1.767-1.345-1.319 1.336-1.608-1.361-1.342 1.435c-.088-.064-1.391-1.409-1.391-1.409L100 145.662l-1.235-1.199s-1.303 1.345-1.39 1.409l-1.344-1.435-1.608 1.361-1.319-1.336-1.768 1.345c-2.108-1.573-3.546-5.907-3.877-7.006-.713.381-2.074 3.785-1.285 7.145.531 2.257 2.945 4.012 5.176 1.846.012 1.142 2.529 1.667 3.199.375.221 1.074 2.433 1.494 2.812.139.388 1.099 2.077 1.146 2.638.548.562.598 2.25.552 2.64-.548.379 1.355 2.591.936 2.811-.139.671 1.293 3.188.767 3.201-.375 2.23 2.166 4.645.411 5.175-1.846.79-3.358-.572-6.763-1.285-7.144z" fill="#FFFFFF" data-color="5"/>
        <path d="M95.047 118.758l1.224 1.506c.116-.071 1.242-1.428 1.242-1.428l1.238 1.456c.182-.025.901-.915 1.249-1.311.348.396 1.068 1.286 1.25 1.311l1.239-1.456s1.127 1.356 1.241 1.428l1.225-1.506c.037.096 1.431 1.498 1.431 1.498 1.17-1.248 1.388-3.338 1.464-4.24-.949.352-6.097 1.133-7.849.21-1.75.923-6.9.142-7.848-.21.076.902.295 2.992 1.464 4.24-.001 0 1.392-1.402 1.43-1.498z" fill="#FFFFFF" data-color="5"/>
        <path d="M87.188 129.032c-.85-5.168 1.045-12.633 1.608-13.623-.693-.043-4.844-.68-5.655-1.109-.833 2.242.266 13.417 4.047 14.732z" fill="#FFFFFF" data-color="5"/>
        <path d="M111.205 115.409c.562.99 2.458 8.456 1.607 13.623 3.781-1.315 4.882-12.49 4.048-14.732-.812.428-4.962 1.066-5.655 1.109z" fill="#FFFFFF" data-color="5"/>
        <path d="M139.414 53.696c-7.157-4.921-17.747 2.98-23.435 11.165-3.823 5.502-5.393 11.131-2.361 13.084.63 4.342-6.446 13.846-6.646 15.111 1.277-2.332 7.469-8.774 11.151-10.491 5.41-2.523 19.79-3.177 23.032-10.616 2.34-5.371 4.54-13.933-1.741-18.253zm-13.423 19.44c.188.075.611.99-.717 1.21-.339.056-.716-.997-.716-.997.28-.231 1.456-.331 1.433-.213zm-4.484 4.697c-.108 0-1.597-1.783.332-3.061.364.971 1.678 2.432 3.641 1.563 2.9-1.716 1.217-3.436 1.082-3.697-.082-.158 1.373-.872 1.459-.767 2.472 3.005-1.022 6.008-6.514 5.962z" fill="#F2E4D3" data-color="3"/>
        <path d="M86.356 77.945c3.032-1.953 1.463-7.582-2.361-13.084-5.688-8.185-16.278-16.086-23.435-11.165-6.282 4.319-4.081 12.882-1.741 18.252 3.241 7.44 17.622 8.094 23.032 10.616 3.682 1.717 9.875 8.159 11.151 10.491-.2-1.264-7.276-10.768-6.646-15.11zM74.01 73.136c-.023-.117 1.151-.018 1.432.213 0 0-.375 1.054-.715.997-1.328-.221-.906-1.135-.717-1.21zm4.483 4.697c-5.492.046-8.987-2.957-6.513-5.962.086-.105 1.542.609 1.459.767-.137.261-1.819 1.982 1.082 3.697 1.963.869 3.277-.592 3.64-1.563 1.93 1.278.442 3.061.332 3.061z" fill="#F2E4D3" data-color="3"/>
        <path d="M78.161 74.772c-.363.971-1.677 2.432-3.64 1.563-2.901-1.716-1.219-3.436-1.082-3.697.083-.158-1.373-.872-1.459-.767-2.474 3.005 1.021 6.008 6.513 5.962.11 0 1.598-1.783-.332-3.061z" fill="#FFFFFF" data-color="5"/>
        <path d="M74.727 74.346c.34.056.715-.997.715-.997-.28-.23-1.455-.33-1.432-.213-.189.075-.611.989.717 1.21z" fill="#FFFFFF" data-color="5"/>
        <path d="M126.562 72.638c.135.261 1.818 1.982-1.082 3.697-1.963.869-3.277-.592-3.641-1.563-1.929 1.278-.44 3.061-.332 3.061 5.492.046 8.986-2.957 6.514-5.962-.086-.105-1.542.609-1.459.767z" fill="#FFFFFF" data-color="5"/>
        <path d="M125.274 74.346c1.327-.221.905-1.135.717-1.21.023-.117-1.152-.018-1.433.213 0-.001.377 1.053.716.997z" fill="#FFFFFF" data-color="5"/>
        <path d="M93.212 102.253c-3.589-1.263-4.375-1.474-5.335-4.154-1.254-.917-.561 7.268 2.783 8.402 0-1.486 9.285 4.161 1.082 1.109 1.204 1.993 5.346 1.628 6.768 3.292.298.596.083 1.882-.181 2.239-1.18 1.599-4.048 1.821-6.803 1.569-6.179-.567-20.847-5.247-28.402-14.826-2.556-4.668-1.842-10.724 8.204-8.399-3.008-2.149-11.691-4.718-13.147-.776-.533 1.445-.008 5.513-.008 5.513-2-.379-10.008-6.63-4.383-19.8-2.383-1.136-5.815-4.831-5.624-8.716-2.479 17.243 7.149 25.39 1.239 36.001 3.431-.569 14.191 8.946 19.159 12.882-1.505-1.897-10.56-11.266-11.629-12.694-2.115-2.824.77-5.242 3.981-2.27 2.886 4.088 8.329 7.598 13.324 9.743.852 1.713 2.331 5.411 3.808 13.038 1.309 6.757 2.895 14.072 2.788 19.935.429 4.904 2.146 6.824 5.826 8.649 3.059 1.518 10.407 3.823 13.339 2.853 2.933.971 10.282-1.335 13.34-2.853 3.68-1.825 5.398-3.745 5.825-8.649-.107-5.864 1.481-13.178 2.789-19.935 1.477-7.627 2.956-11.326 3.808-13.038 4.994-2.145 10.439-5.654 13.324-9.743 3.211-2.973 6.095-.555 3.981 2.27-1.07 1.428-10.125 10.797-11.629 12.694 4.968-3.936 15.727-13.451 19.158-12.882-5.909-10.611 3.717-18.759 1.239-36.001.19 3.885-3.241 7.58-5.624 8.716 5.624 13.17-2.383 19.421-4.385 19.8 0 0 .526-4.068-.007-5.513-1.456-3.942-10.139-1.373-13.147.776 10.046-2.324 10.758 3.731 8.204 8.399-7.556 9.578-22.225 14.259-28.402 14.826-2.754.252-5.624.03-6.803-1.569-.265-.358-.481-1.644-.181-2.239 1.421-1.664 5.562-1.299 6.768-3.292-8.206 3.052 1.081-2.595 1.081-1.109 3.344-1.134 4.037-9.32 2.784-8.402-.961 2.681-1.749 2.892-5.336 4.154-3.436 1.209-4.882 2.874-6.789 2.939-1.906-.064-3.35-1.729-6.787-2.939zM83.141 114.3c.811.429 4.962 1.066 5.655 1.109-.564.99-2.458 8.456-1.608 13.623-3.781-1.315-4.88-12.49-4.047-14.732zm30.685 31.648c-.531 2.257-2.945 4.011-5.175 1.846-.013 1.142-2.53 1.667-3.201.375-.219 1.074-2.432 1.494-2.811.139-.39 1.099-2.077 1.146-2.64.548-.561.598-2.25.552-2.638-.548-.379 1.355-2.591.936-2.812-.139-.67 1.293-3.188.767-3.199-.375-2.231 2.166-4.645.411-5.176-1.846-.789-3.36.573-6.765 1.285-7.145.332 1.098 1.769 5.433 3.877 7.006l1.768-1.345 1.319 1.336 1.608-1.361 1.344 1.435c.087-.064 1.39-1.409 1.39-1.409l1.235 1.199 1.236-1.199s1.303 1.345 1.391 1.409l1.342-1.435 1.608 1.361 1.319-1.336 1.767 1.345c2.108-1.573 3.545-5.907 3.877-7.006.714.38 2.076 3.785 1.286 7.145zm3.034-31.648c.834 2.242-.268 13.417-4.048 14.732.851-5.168-1.045-12.633-1.607-13.623.693-.043 4.843-.681 5.655-1.109zm-4.818 21.624c-.806 5.22-6.939 7.772-12.043 6.095-5.104 1.677-11.234-.875-12.04-6.095-.566-3.659.282-7.704 3.893-11.708 1.309-1.451 5.122-2.1 6.59-1.882.509.075 1.255 10.674 1.558 12.065.304-1.391 1.05-11.99 1.559-12.065 1.468-.217 5.281.431 6.59 1.882 3.611 4.004 4.458 8.049 3.893 11.708zm-4.194-19.908c-.076.902-.294 2.992-1.463 4.24 0 0-1.394-1.402-1.431-1.498l-1.225 1.506c-.114-.071-1.241-1.428-1.241-1.428l-1.239 1.455c-.182-.025-.901-.915-1.25-1.311-.348.396-1.067 1.286-1.249 1.311l-1.238-1.455s-1.126 1.356-1.243 1.428l-1.224-1.506c-.038.096-1.431 1.498-1.431 1.498-1.17-1.248-1.388-3.338-1.464-4.24.948.352 6.098 1.133 7.848.21 1.753.924 6.902.143 7.85-.21z" fill="#2B231E" data-color="1"/>
        <path d="M107.21 87.165l.17-2.466c-2.17 3.474-3.045 5.854-4.543 9.029 1.363-2.17 3.308-4.737 4.373-6.563z" fill="#2B231E" data-color="1"/>
        <path d="M92.619 84.7l.171 2.466c1.066 1.826 3.01 4.393 4.373 6.564-1.498-3.176-2.373-5.556-4.544-9.03z" fill="#2B231E" data-color="1"/>
        <path d="M106.972 93.056s6.244-10.429 11.709-11.86c12.832-3.357 19.623-7.809 19.706-18.064-3.738 3.957-10.109 7.287-15.431 9.166-5.323 1.878-8.242 2.304-9.186 1.707-2.92-1.847 2.209-9.144 2.209-9.144-8.33 10.293-6.843 12.162-4.964 13.201.755.417 1.708.279 2.703-.132-2.582 1.347-6.94 3.695-7.644 4.552 2.183-.882 4.683-1.993 6.933-2.573-2.243 3.77-4.377 8.574-6.035 13.147zm19.019-19.92c.188.075.611.99-.717 1.21-.339.056-.716-.997-.716-.997.28-.231 1.456-.331 1.433-.213zm-4.152 1.636c.364.971 1.678 2.432 3.641 1.563 2.9-1.716 1.217-3.436 1.082-3.697-.082-.158 1.373-.872 1.459-.767 2.472 3.005-1.022 6.008-6.514 5.962-.108 0-1.598-1.783.332-3.061z" fill="#2B231E" data-color="1"/>
        <path d="M86.993 79.91c2.248.579 4.75 1.69 6.933 2.573-.704-.857-5.061-3.204-7.644-4.552.996.411 1.947.549 2.703.132 1.88-1.039 3.367-2.908-4.964-13.201 0 0 5.131 7.296 2.211 9.144-.945.597-3.864.171-9.186-1.707-5.323-1.878-11.694-5.209-15.432-9.166.082 10.255 6.875 14.707 19.706 18.064 5.465 1.431 11.707 11.86 11.707 11.86-1.658-4.574-3.791-9.378-6.034-13.147zM74.01 73.136c-.023-.117 1.151-.017 1.432.213 0 0-.375 1.054-.715.997-1.328-.221-.906-1.135-.717-1.21zm4.483 4.697c-5.492.046-8.987-2.957-6.513-5.962.086-.105 1.542.609 1.459.767-.137.261-1.819 1.982 1.082 3.697 1.963.869 3.277-.592 3.64-1.563 1.93 1.278.442 3.061.332 3.061z" fill="#2B231E" data-color="1"/>
        <path d="M141.231 71.691c-6.499 9.69-21.774 8.964-27.948 15.99 1.778-.848 7.31-3.469 6.987-1.777-.081 1.533-7.652 9.632-7.881 10.659 6.53-7.161 11.611-10.996 14.137-11.79 3.588-1.127 13.162 2.585 14.381 2.261-16.494-6.379-1.87-6.703.324-15.343z" fill="#2B231E" data-color="1"/>
        <path d="M127.446 53.868c-1.919-3.708-2.912-7.214-12.539-8.743-10.368-1.648-11.698-5.411-11.698-5.411 3.167 12.678 15.452 5.638 24.237 14.154z" fill="#2B231E" data-color="1"/>
        <path d="M156.188 74.379c-1.035-8.338-8.691-21.086-11.496-21.644-3.808 3.226-13.087-4.758-14.672-7.525l-7.448-2.199c7.074 9.632 25.392 8.702 21.945 28.527 1.023-3.344 3.82-10.722 6.811-7.192 6.757 10.542 1.309 22.072 1.309 24.057 0 0 11.318 20.419-11.69 25.248-3.645 2.044-13.637 12.931-15.777 24.214 2.592-3.089 5.784-5.523 8.588-6.174.585-16.465 16.917-18.763 16.917-18.763 7.008-8.546 9.065-19.693 9.065-19.693-5.982-5.944-2.711-12.076-3.552-18.856z" fill="#2B231E" data-color="1"/>
        <path d="M132.142 41.457c-6.853 2.364-20.763-9.252-28.718-3.718 9.227-1.897 22.274 7.828 28.718 3.718z" fill="#2B231E" data-color="1"/>
        <path d="M108.117 31.811s-2.303 1.561-3.065 2.389c4.289-1.929 20.104 2.391 23.191 4.41-2.844-2.907-17.122-6.787-20.126-6.799z" fill="#2B231E" data-color="1"/>
        <path d="M103.833 46.651v5.317c3.32 3.485 14.999 2.797 17.278 4.074 7.941 4.453 1.795 8.262-2.704 12.311 2.301-1.116 6.095-3.696 9.139-5.68 5.119-3.338 5.243.517 2.496 3.622 1.896-.894 6.591-3.732 6.739-6.153.324-5.359-5.741-.942-8.136.894.548-12.493-19.111-1.448-24.812-14.385z" fill="#2B231E" data-color="1"/>
        <path d="M103.89 56.071c.05 5.348 5.849 5.985 6.324 12.57 2.379-7.78-4.542-6.473-6.324-12.57z" fill="#2B231E" data-color="1"/>
        <path d="M59.094 87.033c1.22.324 10.793-3.388 14.38-2.261 2.526.794 7.609 4.629 14.137 11.79-.226-1.028-7.798-9.126-7.88-10.659-.322-1.692 5.208.928 6.988 1.777-6.175-7.026-21.449-6.299-27.949-15.99 2.194 8.641 16.818 8.965.324 15.343z" fill="#2B231E" data-color="1"/>
        <path d="M85.093 45.126c-9.627 1.529-10.62 5.035-12.539 8.743 8.786-8.517 21.068-1.476 24.238-14.153.001-.001-1.33 3.761-11.699 5.41z" fill="#2B231E" data-color="1"/>
        <path d="M49.327 112.928s16.331 2.298 16.916 18.763c2.803.651 5.996 3.085 8.588 6.174-2.139-11.283-12.132-22.169-15.777-24.214-23.009-4.829-11.69-25.248-11.69-25.248 0-1.986-5.447-13.515 1.307-24.057 2.992-3.53 5.789 3.848 6.813 7.192-3.447-19.825 14.871-18.894 21.946-28.526l-7.448 2.199c-1.585 2.766-10.864 10.751-14.674 7.525-2.803.558-10.461 13.306-11.495 21.644-.842 6.78 2.43 12.911-3.553 18.856.001-.001 2.056 11.146 9.067 19.692z" fill="#2B231E" data-color="1"/>
        <path d="M67.859 41.457c6.443 4.11 19.489-5.615 28.717-3.718-7.956-5.534-21.863 6.082-28.717 3.718z" fill="#2B231E" data-color="1"/>
        <path d="M94.949 34.2c-.763-.828-3.066-2.389-3.066-2.389-3.005.012-17.282 3.892-20.126 6.799 3.087-2.019 18.903-6.34 23.192-4.41z" fill="#2B231E" data-color="1"/>
        <path d="M63.22 60.142c.147 2.42 4.843 5.258 6.738 6.153-2.745-3.105-2.624-6.96 2.496-3.622 3.045 1.984 6.838 4.565 9.14 5.68-4.499-4.049-10.644-7.858-2.704-12.311 2.28-1.278 13.958-.589 17.277-4.074v-5.317c-5.701 12.937-25.361 1.892-24.811 14.384-2.396-1.835-8.46-6.252-8.136-.893z" fill="#2B231E" data-color="1"/>
        <path d="M89.785 68.642c.475-6.585 6.274-7.222 6.323-12.57-1.779 6.096-8.701 4.789-6.323 12.57z" fill="#2B231E" data-color="1"/>
    </g>
</svg>
