<svg data-bbox="25.2 48.6 149.8 103.01" viewBox="0 0 200 200" height="200" width="200" xmlns="http://www.w3.org/2000/svg" data-type="color">
    <g>
        <path d="M31.3 134.4c1.3-2.8 3.2-5.3 5.2-7.8 2-2.4 4.3-4.7 6.8-6.7 4.9-4.1 10.7-7.2 16.9-9.3 12.4-4.2 26.2-3.7 38.5 0 1.5.4 3.1 1 4.6 1.4l4.4 1.4c2.9.9 5.8 1.8 8.8 2.7 5.9 1.7 11.8 3.1 17.6 4.2s11.6 2 17 1.6c2.7-.2 5.4-.7 7.9-1.8 1.3-.5 2.5-1.2 3.8-2 1.2-.8 2.4-1.8 3.7-2.9-.8 3.2-2.3 6.4-4.9 8.8-2.6 2.4-5.9 4-9.3 4.9-3.4.9-6.8 1.1-10.1 1.1-3.3-.1-6.6-.4-9.8-1-6.4-1.1-12.4-2.9-18.4-4.8-3-1-6-2-8.9-3-1.5-.5-3-1.1-4.4-1.5s-2.8-.9-4.2-1.4c-5.7-1.7-11.5-2.7-17.3-3.3-2.9-.3-5.8-.3-8.8-.2-2.9.2-5.8.5-8.7 1.1-11.6 2.5-22.7 8.8-30.4 18.5zm143.7-.2c-3 2.1-5.8 4-8.7 5.3-2.8 1.4-5.7 2-8.5 2.3-2.9.2-5.7 0-8.7-.6s-6-1.4-9.1-2.4c-6.2-2-12.5-4.3-18.9-6.8l-9.6-3.7-4.9-1.9-5.1-1.8c-6.9-2.3-14-3.9-21.4-4.3-3.7-.3-7.4-.1-11 .2-3.7.5-7.3 1.1-10.8 2.1-14.2 4-26.6 13.4-33.1 25.8 2.3-2.6 5.1-4.6 7.7-6.7 2.7-2 5.5-3.8 8.5-5.3 5.9-3.1 12.2-5 18.5-5.9 6.4-.9 12.8-.7 19.2.1 6.4.9 12.7 2.3 18.9 4.4l4.6 1.7c1.6.6 3.2 1.2 4.8 1.9l9.6 3.9c6.4 2.6 12.9 5.3 19.9 7.1 3.5.9 7.2 1.6 11 1.9 3.8.3 7.9 0 11.8-1.1 3.9-1.2 7.5-3.4 10.1-6.3 2.6-3 4.1-6.5 5.2-9.9zM48.5 110.7c4.5-3.2 9.3-5.7 14.4-7.2 1.3-.3 2.5-.7 3.8-.9 1.3-.2 2.6-.5 3.9-.5s2.6-.2 3.9-.2 2.7 0 4 .1c5.4.3 10.7 1.1 16 2.3 5.3 1.2 10.6 2.7 15.9 4.4 5.4 1.7 10.8 3.5 16.7 4.4 6 1 12.5.6 18.2-2s10.1-7.3 12.1-12.7c-4 4.1-8.7 6.9-13.7 8s-10.1.6-15.2-.7c-10.3-2.7-21.1-6.7-32.5-9-5.7-1.2-11.6-1.9-17.5-1.7-1.5.1-3 .2-4.4.2-1.5.1-3 .4-4.5.6s-2.9.7-4.4 1.1-2.8 1-4.2 1.5-2.7 1.3-4 1.9c-1.3.7-2.6 1.5-3.8 2.2-2.4 1.7-4.7 3.5-6.8 5.5-2.2 1.9-4.1 4.1-5.9 6.3-1.8 2.2-3.4 4.6-4.8 7.1 3.5-4.1 8.3-7.5 12.8-10.7zm2.3-11c3.9-3.1 8.1-5.6 12.6-7.5s9.2-3.1 13.9-3.5c4.8-.4 9.6-.1 14.2.8l7.2 1.7c2.5.6 5 1.1 7.5 1.6 5.1.8 10.3 1.4 15.5 1.4s10.6-.4 15.8-2.4c2.5-1 5-2.4 6.9-4.3s3.2-4.3 4.1-6.8c-1.5 2-3.3 3.8-5.4 5-1 .6-2.1 1.1-3.2 1.5-1.1.4-2.2.7-3.4.9-2.3.5-4.7.6-7.1.6-2.4 0-4.8-.2-7.3-.5-4.9-.6-9.7-1.5-14.6-2.4l-7.3-1.4-3.7-.7-3.9-.7c-5.3-.7-10.7-.7-16 .2-5.3.9-10.4 2.7-15 5.2-4.7 2.5-8.8 5.7-12.5 9.4-3.6 3.7-6.9 7.7-9.3 12.2l.1-.1c3.1-3.9 6.9-7.2 10.9-10.2zm2.5-12c3.3-2.8 7-5.1 10.9-6.9 7.7-3.6 16.2-5 24.7-4.5 1.1 0 2.1.1 3.2.2l3.3.3c2.3.2 4.5.5 6.8.6 4.6.3 9.2.3 13.8 0 4.6-.4 9.3-1.1 13.8-3.1 2.2-1 4.3-2.3 6-4.1.8-.9 1.5-1.9 2-3s.9-2.2 1.1-3.3c-1.3 1.9-2.7 3.6-4.5 4.7-1.7 1.2-3.7 1.8-5.8 2.3-4.1.9-8.5.9-12.8.8-4.4-.1-8.7-.5-13.1-.9-2.2-.2-4.4-.5-6.6-.7-1.1-.1-2.3-.3-3.4-.4-1.2-.1-2.4-.2-3.5-.2-9.5-.4-19.3 1.8-27.4 6.8s-14 12.7-17.6 21c2.5-3.7 5.7-6.8 9.1-9.6zm3.4-11.9c2.8-2.6 5.9-4.8 9.2-6.5 1.6-.9 3.4-1.6 5.1-2.2 1.7-.7 3.5-1.2 5.3-1.6 3.6-.8 7.4-1.3 11.1-1.4 7.8-.2 15.8-.5 23.8-1.8 2-.4 4-.8 6-1.4 2-.6 3.9-1.4 5.8-2.5 1.8-1.1 3.5-2.6 4.7-4.3s2-3.6 2.6-5.5c-1.2 1.6-2.4 3.1-3.8 4.4-1.4 1.3-3 2.1-4.7 2.8s-3.5 1-5.4 1.3-3.8.5-5.7.6c-7.7.3-15.5.3-23.5.7-8.2.3-16.5 2.6-23.5 7.2-3.5 2.3-6.5 5.2-9 8.4-2.4 3.3-4.4 6.9-5.4 10.8 2.1-3.4 4.6-6.4 7.4-9z" fill="#FA773C" data-color="1"/>
    </g>
</svg>
